<?xml version="1.0" encoding="UTF-8"?>
<svg width="115px" height="68px" viewBox="0 0 115 68" version="1.1" xmlns="http://www.w3.org/2000/svg" xmlns:xlink="http://www.w3.org/1999/xlink">
    <!-- Generator: Sketch 55.2 (78181) - https://sketchapp.com -->
    <title>Group 2</title>
    <desc>Created with Sketch.</desc>
    <g id="/Call-Switch/" stroke="none" stroke-width="1" fill="none" fill-rule="evenodd">
        <g id="Call-switch" transform="translate(-297.000000, -1420.000000)">
            <g id="Dialog/Confirm" transform="translate(160.000000, 1326.000000)">
                <g id="Group-3">
                    <g id="Group-2" transform="translate(115.000000, 80.000000)">
                        <g id="Group-5" transform="translate(22.000000, 14.000000)">
                            <g id="Group-3" transform="translate(80.787402, 17.000000)">
                                <path d="M1.81,14.4947368 C1.81,19.3849712 5.77287745,23.3478947 10.662235,23.3478947 L24.5503634,23.3478947 C29.4399423,23.3478947 33.4025984,19.3845767 33.4025984,14.4947368 C33.4025984,9.60450249 29.439721,5.64157895 24.5503634,5.64157895 L10.662235,5.64157895 C5.77265611,5.64157895 1.81,9.60489695 1.81,14.4947368 Z" id="Rectangle-15" stroke="#7ED321" stroke-width="1.62"></path>
                                <polygon id="Rectangle-30-Copy" fill="#F9F9F9" points="2.11386464e-13 6.44210526 17.0113309 6.44210526 17.0113309 24.1578947 2.11386464e-13 24.1578947"></polygon>
                                <rect id="Rectangle" fill="#F9F9F9" x="15.3912041" y="22.5473684" width="3.2402535" height="1.61052632"></rect>
                                <polygon id="Rectangle" fill="#F9F9F9" points="3.2402535 4.83157895 8.10063376 4.83157895 8.10063376 6.44210526 3.2402535 6.44210526"></polygon>
                                <path d="M10.5250601,5.30298044 C10.5237177,4.85124072 10.8811227,4.48609865 11.3302927,4.48743343 L11.3302927,4.48743343 C11.7763528,4.48875898 12.1390358,4.85323384 12.1403866,5.30778066 L12.1567145,10.8022827 C12.1580569,11.2540224 11.8006518,11.6191645 11.3514819,11.6178297 L11.3514819,11.6178297 C10.9054218,11.6165042 10.5427387,11.2520293 10.5413879,10.7974825 L10.5250601,5.30298044 Z" id="Rectangle-31-Copy" fill="#7ED321" transform="translate(11.340887, 8.052632) rotate(-45.000000) translate(-11.340887, -8.052632) "></path>
                                <path d="M10.5413879,0.476201712 C10.5427303,0.0244619925 10.9023119,-0.342810731 11.3514819,-0.344145516 L11.3514819,-0.344145516 C11.797542,-0.345471059 12.1580652,0.0168546766 12.1567145,0.471401494 L12.1403866,5.96590355 C12.1390442,6.41764327 11.7794626,6.78491599 11.3302927,6.78625078 L11.3302927,6.78625078 C10.8842326,6.78757632 10.5237093,6.42525059 10.5250601,5.97070377 L10.5413879,0.476201712 Z" id="Rectangle-31" fill="#7ED321" transform="translate(11.340887, 3.221053) rotate(-315.000000) translate(-11.340887, -3.221053) "></path>
                            </g>
                            <path d="M38.3683843,24.8459048 C38.05383,25.1624286 37.5437855,25.1624286 37.2284267,24.8459048 C36.9138724,24.529381 36.9138724,24.0161429 37.2284267,23.6988095 L43.6635158,17.2242381 C43.9780701,16.9077143 44.4881147,16.9077143 44.8034735,17.2242381 C45.1180278,17.5407619 45.1180278,18.054 44.8034735,18.3705238 L38.3683843,24.8459048 Z M48.490436,19.6528095 C48.8057948,19.3362857 49.3150349,19.3362857 49.6303937,19.6528095 C49.944948,19.9693333 49.944948,20.4825714 49.6303937,20.7990952 L35.9549242,34.5601905 C35.6403699,34.8767143 35.1303254,34.8767143 34.8149666,34.5601905 C34.5004123,34.2436667 34.5004123,33.7304286 34.8149666,33.4130952 L48.490436,19.6528095 Z M41.0288219,53.4285714 C41.0288219,52.5348571 41.7488375,51.8095238 42.6377953,51.8095238 C43.5259486,51.8095238 44.2467687,52.5348571 44.2467687,53.4285714 C44.2467687,54.3230952 43.5259486,55.047619 42.6377953,55.047619 C41.7488375,55.047619 41.0288219,54.3230952 41.0288219,53.4285714 Z M83.6666171,49.3809524 L1.60897341,49.3809524 L1.60897341,56.6666667 C1.60897341,57.5595714 2.33059798,58.2857143 3.21794681,58.2857143 L82.0576437,58.2857143 C82.9441881,58.2857143 83.6666171,57.5595714 83.6666171,56.6666667 L83.6666171,49.3809524 Z M83.6666171,3.23809524 C83.6666171,2.34519048 82.9441881,1.61904762 82.0576437,1.61904762 L3.21794681,1.61904762 C2.33059798,1.61904762 1.60897341,2.34519048 1.60897341,3.23809524 L1.60897341,47.7619048 L83.6666171,47.7619048 L83.6666171,3.23809524 Z M37.8108751,66.3809524 L48.2692022,66.3809524 L48.2692022,59.9047619 L37.8108751,59.9047619 L37.8108751,66.3809524 Z M49.8781756,59.9047619 L49.8781756,66.3809524 L52.2916357,66.3809524 C52.7357124,66.3809524 53.0961224,66.7428095 53.0961224,67.1904762 C53.0961224,67.6373333 52.7357124,68 52.2916357,68 L33.7884415,68 C33.3435604,68 32.9839548,67.6373333 32.9839548,67.1904762 C32.9839548,66.7428095 33.3435604,66.3809524 33.7884415,66.3809524 L36.2019016,66.3809524 L36.2019016,59.9047619 L3.21794681,59.9047619 C1.44083569,59.9047619 0,58.4549048 0,56.6666667 L1.18343655e-15,3.23809524 C1.18343655e-15,1.44985714 1.44083569,2.13162821e-14 3.21794681,2.13162821e-14 L82.0576437,2.13162821e-14 C83.8347549,2.13162821e-14 85.2755906,1.44985714 85.2755906,3.23809524 L85.2755906,56.6666667 C85.2755906,58.4549048 83.8347549,59.9047619 82.0576437,59.9047619 L49.8781756,59.9047619 Z" id="Fill-1" fill="#2E80FE"></path>
                            <g id="Group-4" transform="translate(73.606299, 32.210526)">
                                <rect id="Rectangle" stroke="#2E80FE" stroke-width="1.62" fill="#FFFFFF" x="0.81" y="0.81" width="20.8209449" height="34.1694737" rx="3.24"></rect>
                                <ellipse id="Oval" fill="#2E80FE" cx="11.2204724" cy="30.9090909" rx="1.60292463" ry="1.62679426"></ellipse>
                                <rect id="Rectangle" fill="#2E80FE" x="1.60292463" y="26.0287081" width="19.2350956" height="1.62679426"></rect>
                                <path d="M8.02316085,4.06698565 L14.417784,4.06698565 C14.8651347,4.06698565 15.227784,4.429635 15.227784,4.87698565 L15.227784,4.8837799 C15.227784,5.33113055 14.8651347,5.6937799 14.417784,5.6937799 L8.02316085,5.6937799 C7.57581021,5.6937799 7.21316085,5.33113055 7.21316085,4.8837799 L7.21316085,4.87698565 C7.21316085,4.429635 7.57581021,4.06698565 8.02316085,4.06698565 Z" id="Rectangle-Copy-2" fill="#2E80FE"></path>
                            </g>
                        </g>
                    </g>
                </g>
            </g>
        </g>
    </g>
</svg>