<svg aria-hidden="true" style="position: absolute; width: 0; height: 0; overflow: hidden;" version="1.1" xmlns="http://www.w3.org/2000/svg" xmlns:xlink="http://www.w3.org/1999/xlink">
<defs>
<symbol id="icon-member-count" viewBox="0 0 32 32">
<title>member-count</title>
<path d="M16 16c3.315 0 6-2.692 6-6 0-3.315-2.685-6-6-6s-6 2.685-6 6c0 3.308 2.685 6 6 6zM16 19c-3.998 0-12 2.003-12 6v3h24v-3c0-3.997-8.002-6-12-6z"></path>
</symbol>
<symbol id="icon-call-add" viewBox="0 0 32 32">
<title>call-add</title>
<path d="M15 4h3v24h-3v-24z"></path>
<path d="M4.5 17.5v-3h24v3z"></path>
</symbol>
<symbol id="icon-call-more" viewBox="0 0 32 32">
<title>call-more</title>
<path d="M10 16c0 1.657-1.343 3-3 3s-3-1.343-3-3c0-1.657 1.343-3 3-3s3 1.343 3 3z"></path>
<path d="M19 16c0 1.657-1.343 3-3 3s-3-1.343-3-3c0-1.657 1.343-3 3-3s3 1.343 3 3z"></path>
<path d="M28 16c0 1.657-1.343 3-3 3s-3-1.343-3-3c0-1.657 1.343-3 3-3s3 1.343 3 3z"></path>
</symbol>
<symbol id="icon-hand-up" viewBox="0 0 32 32">
<title>hand-up</title>
<path d="M21.252 11.952c-3.69-1.201-7.692-1.193-11.391 0v3.803c0 0.467-0.268 0.89-0.674 1.089-1.288 0.648-2.506 1.521-3.578 2.593-0.475 0.475-1.253 0.475-1.728 0l-3.016-3.016c-0.475-0.475-0.475-1.253 0-1.728 8.115-8.115 21.269-8.115 29.384 0 0.475 0.475 0.475 1.253 0 1.728l-3.025 3.025c-0.475 0.475-1.253 0.475-1.728 0-1.080-1.080-2.29-1.945-3.578-2.593-0.398-0.207-0.665-0.614-0.665-1.098v-3.803z"></path>
</symbol>
<symbol id="icon-hold" viewBox="0 0 32 32">
<title>hold</title>
<path d="M8 6h3v20h-3v-20z"></path>
<path d="M21 6h3v20h-3v-20z"></path>
</symbol>
<symbol id="icon-keypad" viewBox="0 0 32 32">
<title>keypad</title>
<path d="M6 8.5c0 1.381 1.119 2.5 2.5 2.5s2.5-1.119 2.5-2.5c0-1.381-1.119-2.5-2.5-2.5s-2.5 1.12-2.5 2.5z"></path>
<path d="M16.5 6c-1.381 0-2.5 1.12-2.5 2.5s1.119 2.5 2.5 2.5c1.381 0 2.5-1.119 2.5-2.5s-1.119-2.5-2.5-2.5z"></path>
<path d="M24.5 6c-1.381 0-2.5 1.12-2.5 2.5s1.119 2.5 2.5 2.5c1.381 0 2.5-1.119 2.5-2.5s-1.119-2.5-2.5-2.5z"></path>
<path d="M8.5 14c-1.381 0-2.5 1.12-2.5 2.5s1.119 2.5 2.5 2.5c1.381 0 2.5-1.119 2.5-2.5s-1.119-2.5-2.5-2.5z"></path>
<path d="M16.5 14c-1.381 0-2.5 1.12-2.5 2.5s1.119 2.5 2.5 2.5c1.381 0 2.5-1.119 2.5-2.5s-1.119-2.5-2.5-2.5z"></path>
<path d="M24.5 14c-1.381 0-2.5 1.12-2.5 2.5s1.119 2.5 2.5 2.5c1.381 0 2.5-1.119 2.5-2.5s-1.119-2.5-2.5-2.5z"></path>
<path d="M8.5 21c-1.381 0-2.5 1.12-2.5 2.5s1.119 2.5 2.5 2.5c1.381 0 2.5-1.119 2.5-2.5s-1.119-2.5-2.5-2.5z"></path>
<path d="M16.5 21c-1.381 0-2.5 1.12-2.5 2.5s1.119 2.5 2.5 2.5c1.381 0 2.5-1.119 2.5-2.5s-1.119-2.5-2.5-2.5z"></path>
<path d="M24.5 21c-1.381 0-2.5 1.12-2.5 2.5s1.119 2.5 2.5 2.5c1.381 0 2.5-1.119 2.5-2.5s-1.119-2.5-2.5-2.5z"></path>
</symbol>
<symbol id="icon-tear-off" viewBox="0 0 32 32">
<title>tear-off</title>
<path d="M24.296 24.296h-16.593v-16.593h6.519v-2.37h-6.519c-1.31 0-2.37 1.061-2.37 2.37v16.593c0 1.31 1.061 2.37 2.37 2.37h16.593c1.31 0 2.37-1.061 2.37-2.37v-6.519h-2.37v6.519zM18.37 5.333v2.37h4.249l-11.65 11.65 1.677 1.677 11.65-11.65v4.249h2.37v-8.296h-8.296z"></path>
</symbol>
<symbol id="icon-minimize" viewBox="0 0 32 32">
<title>minimize</title>
<path d="M5.333 18v-4h21.333v4z"></path>
</symbol>
<symbol id="icon-record" viewBox="0 0 32 32">
<title>record</title>
<path d="M16 25c4.971 0 9-4.029 9-9s-4.029-9-9-9c-4.971 0-9 4.029-9 9s4.029 9 9 9zM16 28c-6.627 0-12-5.373-12-12s5.373-12 12-12c6.627 0 12 5.373 12 12s-5.373 12-12 12z"></path>
</symbol>
<symbol id="icon-signal-0" viewBox="0 0 32 32">
<title>signal-0</title>
<path d="M6.667 19.048c1.683 0 3.048-1.364 3.048-3.048s-1.364-3.048-3.048-3.048c-1.683 0-3.048 1.364-3.048 3.048s1.364 3.048 3.048 3.048zM6.667 20c-2.209 0-4-1.791-4-4s1.791-4 4-4c2.209 0 4 1.791 4 4s-1.791 4-4 4z"></path>
<path d="M16 19.048c1.683 0 3.048-1.364 3.048-3.048s-1.364-3.048-3.048-3.048c-1.683 0-3.048 1.364-3.048 3.048s1.364 3.048 3.048 3.048zM16 20c-2.209 0-4-1.791-4-4s1.791-4 4-4c2.209 0 4 1.791 4 4s-1.791 4-4 4z"></path>
<path d="M25.333 19.048c1.683 0 3.048-1.364 3.048-3.048s-1.364-3.048-3.048-3.048c-1.683 0-3.048 1.364-3.048 3.048s1.364 3.048 3.048 3.048zM25.333 20c-2.209 0-4-1.791-4-4s1.791-4 4-4c2.209 0 4 1.791 4 4s-1.791 4-4 4z"></path>
</symbol>
<symbol id="icon-signal-1" viewBox="0 0 32 32">
<title>signal-1</title>
<path d="M10.667 16c0 2.209-1.791 4-4 4s-4-1.791-4-4c0-2.209 1.791-4 4-4s4 1.791 4 4z"></path>
<path d="M16 19.048c1.683 0 3.048-1.364 3.048-3.048s-1.364-3.048-3.048-3.048c-1.683 0-3.048 1.364-3.048 3.048s1.364 3.048 3.048 3.048zM16 20c-2.209 0-4-1.791-4-4s1.791-4 4-4c2.209 0 4 1.791 4 4s-1.791 4-4 4z"></path>
<path d="M25.333 19.048c1.683 0 3.048-1.364 3.048-3.048s-1.364-3.048-3.048-3.048c-1.683 0-3.048 1.364-3.048 3.048s1.364 3.048 3.048 3.048zM25.333 20c-2.209 0-4-1.791-4-4s1.791-4 4-4c2.209 0 4 1.791 4 4s-1.791 4-4 4z"></path>
</symbol>
<symbol id="icon-signal-2" viewBox="0 0 32 32">
<title>signal-2</title>
<path d="M10.667 16c0 2.209-1.791 4-4 4s-4-1.791-4-4c0-2.209 1.791-4 4-4s4 1.791 4 4z"></path>
<path d="M20 16c0 2.209-1.791 4-4 4s-4-1.791-4-4c0-2.209 1.791-4 4-4s4 1.791 4 4z"></path>
<path d="M25.333 19.048c1.683 0 3.048-1.364 3.048-3.048s-1.364-3.048-3.048-3.048c-1.683 0-3.048 1.364-3.048 3.048s1.364 3.048 3.048 3.048zM25.333 20c-2.209 0-4-1.791-4-4s1.791-4 4-4c2.209 0 4 1.791 4 4s-1.791 4-4 4z"></path>
</symbol>
<symbol id="icon-signal-3" viewBox="0 0 32 32">
<title>signal-3</title>
<path d="M10.667 16c0 2.209-1.791 4-4 4s-4-1.791-4-4c0-2.209 1.791-4 4-4s4 1.791 4 4z"></path>
<path d="M20 16c0 2.209-1.791 4-4 4s-4-1.791-4-4c0-2.209 1.791-4 4-4s4 1.791 4 4z"></path>
<path d="M29.333 16c0 2.209-1.791 4-4 4s-4-1.791-4-4c0-2.209 1.791-4 4-4s4 1.791 4 4z"></path>
</symbol>
<symbol id="icon-mic" viewBox="0 0 26 32">
<title>mic</title>
<path d="M12.87 19.652c2.021 0 3.64-1.748 3.64-3.913l0.012-7.826c0-2.165-1.631-3.913-3.652-3.913s-3.652 1.748-3.652 3.913v7.826c0 2.165 1.631 3.913 3.652 3.913zM19.585 15.478c0 3.757-3.218 6.386-6.716 6.386s-6.716-2.63-6.716-6.386h-2.154c0 4.27 3.446 7.801 7.603 8.415v4.107h2.534v-4.107c4.156-0.601 7.603-4.132 7.603-8.415h-2.154z"></path>
</symbol>
<symbol id="icon-forward" viewBox="0 0 32 32">
<title>forward</title>
<path d="M16 5.333l-1.884 1.884 7.449 7.449h-16.231v2.667h16.231l-7.449 7.449 1.884 1.884 10.667-10.667z"></path>
</symbol>
<symbol id="icon-pervious" viewBox="0 0 32 32">
<title>pervious</title>
<path d="M16 5.333l1.884 1.884-7.449 7.449h16.231v2.667h-16.231l7.449 7.449-1.884 1.884-10.667-10.667z"></path>
</symbol>
<symbol id="icon-zoom-out" viewBox="0 0 32 32">
<title>zoom-out</title>
<path d="M29.333 18h-26.667v-4h26.667z"></path>
</symbol>
<symbol id="icon-zoom-in" viewBox="0 0 32 32">
<title>zoom-in</title>
<path d="M29.333 17.905h-11.429v11.429h-3.81v-11.429h-11.429v-3.81h11.429v-11.429h3.81v11.429h11.429z"></path>
</symbol>
<symbol id="icon-info" viewBox="0 0 32 32">
<title>info</title>
<path d="M16 10.667c-0.727 0-1.333-0.606-1.333-1.333 0-0.739 0.606-1.333 1.333-1.333 0.739 0 1.333 0.594 1.333 1.333 0 0.727-0.594 1.333-1.333 1.333zM14.667 24v-12h2.667v12h-2.667zM27.111 16c0-6.137-4.975-11.111-11.111-11.111s-11.111 4.975-11.111 11.111c0 6.137 4.975 11.111 11.111 11.111s11.111-4.975 11.111-11.111zM2.667 16c0-7.364 5.969-13.333 13.333-13.333s13.333 5.969 13.333 13.333c0 7.364-5.969 13.333-13.333 13.333s-13.333-5.969-13.333-13.333z"></path>
</symbol>
<symbol id="icon-default-avatar" viewBox="0 0 32 32">
<title>default-avatar</title>
<path d="M7.333 24.867c0.040 0 0.080-0.041 0.113-0.041 1.775-0.809 3.601-1.494 5.467-2.049 0.113 0 0.113 0 0.113-0.621 0.008-0.517-0.068-1.032-0.227-1.523-0.113-0.512-0.38-1.25-0.5-2.049-0.448-0.601-0.748-1.304-0.873-2.049-0.191-0.569-0.191-1.187 0-1.755v-0.061c0-0.232-0.12-1.407-0.233-2.418-0.125-1.132 0.192-2.268 0.88-3.162 0.834-1.103 2.118-1.751 3.48-1.755h1.113c1.361 0.001 2.644 0.65 3.473 1.755 0.688 0.894 1.005 2.030 0.88 3.162-0.081 0.803-0.119 1.61-0.113 2.418v0.116c0.183 0.57 0.183 1.185 0 1.755-0.153 0.751-0.48 1.454-0.953 2.049-0.010 0.713-0.181 1.415-0.5 2.049-0.18 0.492-0.308 1.003-0.38 1.523 0 0.621 0 0.621 0.113 0.621 1.884 0.57 3.734 1.255 5.54 2.049-4.947 4.554-12.453 4.548-17.393-0.014zM26.127 24.793v-0.040c0.121-0.147 0.268-0.3 0.389-0.453 0-0.040 0-0.040 0-0.080 0.121-0.147 0.235-0.3 0.349-0.453 0.040-0.040 0.040-0.080 0.074-0.080 0.121-0.147 0.194-0.3 0.308-0.453 0.040-0.040 0.040-0.080 0.080-0.113 0.074-0.153 0.188-0.307 0.268-0.46 0.040-0.040 0.040-0.073 0.074-0.113l0.235-0.46c0.040-0.033 0.040-0.113 0.074-0.153 0.083-0.143 0.148-0.295 0.194-0.453 0.040-0.080 0.040-0.113 0.080-0.193s0.114-0.3 0.188-0.42c0.074-0.12 0.040-0.113 0.080-0.187s0.114-0.267 0.154-0.42c0.040-0.153 0.034-0.153 0.074-0.227s0.080-0.267 0.114-0.42c0.034-0.153 0.040-0.153 0.080-0.227l0.114-0.42c0-0.080 0.040-0.153 0.040-0.233s0.040-0.267 0.074-0.413c0.034-0.147 0.040-0.153 0.040-0.267s0.040-0.307 0.080-0.42c0.040-0.113 0-0.153 0-0.267s0.040-0.307 0.040-0.493v-0.92c0.043-2.418-0.583-4.802-1.81-6.891-0.22-0.369-0.462-0.725-0.724-1.066-0.268-0.34-0.536-0.666-0.804-0.993-0.29-0.322-0.599-0.627-0.925-0.913-0.158-0.148-0.324-0.288-0.496-0.42-0.835-0.683-1.754-1.259-2.735-1.713-0.389-0.187-0.811-0.34-1.193-0.493-0.415-0.15-0.838-0.277-1.267-0.38-1.065-0.283-2.162-0.424-3.264-0.42-7.412-0.004-13.428 5.96-13.446 13.329v0.953c0 0.153 0.040 0.307 0.040 0.46s0.034 0.187 0.034 0.26c0 0.073 0.040 0.267 0.040 0.42s0.040 0.193 0.040 0.267c0 0.073 0.040 0.267 0.074 0.42s0.040 0.193 0.080 0.267c0.040 0.073 0.074 0.267 0.114 0.38s0.040 0.193 0.080 0.267c0.040 0.073 0.074 0.267 0.114 0.38 0.032 0.087 0.057 0.176 0.074 0.267 0.037 0.132 0.088 0.259 0.154 0.38l0.121 0.233c0.034 0.113 0.114 0.267 0.147 0.38l0.121 0.227c0.074 0.113 0.114 0.267 0.188 0.38l0.121 0.233c0.079 0.118 0.142 0.246 0.188 0.38 0.040 0.073 0.080 0.113 0.121 0.187s0.154 0.267 0.228 0.38c0.074 0.113 0.074 0.12 0.114 0.193s0.194 0.267 0.268 0.38c0.074 0.113 0.080 0.113 0.121 0.153s0.188 0.267 0.302 0.38l0.121 0.113c0.114 0.153 0.228 0.267 0.342 0.42 0.040 0.040 0.080 0.080 0.080 0.113 0.114 0.153 0.268 0.267 0.382 0.42l0.074 0.080 0.463 0.453c5.377 4.898 13.7 4.646 18.768-0.566l0.349-0.46z"></path>
</symbol>
<symbol id="icon-pin" viewBox="0 0 32 32">
<title>pin</title>
<path d="M3.583 29.331c-0.341 0-0.556-0.165-0.653-0.261-0.147-0.146-0.448-0.56-0.107-1.265l0.016-0.033 4.508-7.359 1.049-1.043-3.643-3.613c-0.558-0.552-0.773-1.216-0.593-1.823 0.191-0.64 0.788-1.103 1.636-1.27l0.039-0.008 0.039-0.002 4.933-0.465 4.371-4.241v-3.367c0-0.468 0.039-0.813 0.123-1.080 0.244-0.774 0.849-0.834 1.030-0.834 0.482 0 0.88 0.332 1.174 0.622l0.006 0.006 11.196 11.288c0.002 0.006 0.008 0.008 0.013 0.013 0 0 0.382 0.395 0.501 0.512s0.113 0.706 0.113 0.706c-0.006 0.109-0.029 0.225-0.076 0.34-0.092 0.225-0.31 0.52-0.829 0.659-0.236 0.062-0.532 0.094-0.907 0.097h-3.417l-4.254 4.342-0.509 4.941-0.008 0.037c-0.094 0.461-0.27 0.834-0.527 1.113-0.299 0.325-0.694 0.502-1.119 0.502-0.493 0-0.991-0.235-1.441-0.679l-3.581-3.556-1.059 1.056-7.41 4.509c-0.238 0.115-0.443 0.157-0.616 0.157l0.002-0.002z"></path>
</symbol>
<symbol id="icon-default-integration" viewBox="0 0 32 32">
<title>default-integration</title>
<path d="M26.159 15.365h-1.905v-5.079c0-1.403-1.137-2.54-2.54-2.54h-5.079v-1.905c0-1.752-1.422-3.175-3.175-3.175s-3.175 1.422-3.175 3.175v1.905h-5.079c-1.403 0-2.527 1.136-2.527 2.54l-0.006 4.825h1.898c1.892 0 3.429 1.537 3.429 3.429s-1.537 3.429-3.429 3.429h-1.898l-0.006 4.825c0 1.403 1.136 2.54 2.54 2.54h4.825v-1.905c0-1.892 1.537-3.429 3.429-3.429s3.429 1.537 3.429 3.429v1.905h4.825c1.403 0 2.54-1.137 2.54-2.54v-5.079h1.905c1.752 0 3.175-1.422 3.175-3.175s-1.422-3.175-3.175-3.175z"></path>
</symbol>
<symbol id="icon-repeat" viewBox="0 0 32 32">
<title>repeat</title>
<path d="M10.37 10h12.593v3.6l5.037-4.8-5.037-4.8v3.6h-15.111v7.2h2.519v-4.8zM22.963 22h-12.593v-3.6l-5.037 4.8 5.037 4.8v-3.6h15.111v-7.2h-2.519v4.8z"></path>
</symbol>
<symbol id="icon-add-member" viewBox="0 0 32 32">
<title>add-member</title>
<path d="M20.444 15.282c2.467 0 4.444-1.938 4.444-4.308s-1.978-4.308-4.444-4.308c-2.444 0-4.444 1.938-4.444 4.308s2 4.308 4.444 4.308zM20.444 18.154c-2.969 0-8.889 1.568-8.889 4.308v2.872h17.778v-2.872c0-2.74-5.92-4.308-8.889-4.308zM13.037 13.846h-4.444v-4.308h-1.481v4.308h-4.444v1.436h4.444v4.308h1.481v-4.308h4.444v-1.436z"></path>
</symbol>
<symbol id="icon-add-team" viewBox="0 0 32 32">
<title>add-team</title>
<path d="M16 15.111c1.973 0 3.556-1.6 3.556-3.556s-1.582-3.556-3.556-3.556c-1.956 0-3.556 1.6-3.556 3.556s1.6 3.556 3.556 3.556zM23.111 15.111c1.973 0 3.556-1.6 3.556-3.556s-1.582-3.556-3.556-3.556c-0.64 0-1.227 0.178-1.742 0.48 0.533 0.907 0.853 1.956 0.853 3.076s-0.32 2.169-0.853 3.076c0.516 0.302 1.12 0.48 1.742 0.48zM16 17.244c-2.969 0-8.889 1.476-8.889 4.444v2.311h17.778v-2.311c0-2.969-5.92-4.444-8.889-4.444zM8.889 13.333h-3.556v-3.556h-1.778v3.556h-3.556v1.778h3.556v3.556h1.778v-3.556h3.556v-1.778zM25.298 17.44c1.333 1.067 2.258 2.453 2.258 4.249v2.311h4.444v-2.311c0-2.329-3.68-3.751-6.702-4.249z"></path>
</symbol>
<symbol id="icon-conference" viewBox="0 0 32 32">
<title>conference</title>
<path d="M16 25.048c-3.668 0-6.667-2.925-6.667-6.476s2.999-6.476 6.667-6.476c3.615 0 6.667 2.925 6.667 6.476 0.002 3.551-2.999 6.476-6.667 6.476zM16 10.476c-1.802 0-3.333-1.433-3.333-3.238 0-1.751 1.476-3.238 3.333-3.238 1.805 0 3.333 1.433 3.333 3.238s-1.473 3.238-3.333 3.238zM26 26.667c-1.804 0-3.333-1.434-3.333-3.238 0-1.802 1.476-3.238 3.333-3.238 1.804 0 3.333 1.434 3.333 3.238 0 1.806-1.529 3.238-3.333 3.238zM6 26.667c-1.804 0-3.333-1.434-3.333-3.238 0-1.802 1.476-3.238 3.333-3.238 1.802 0 3.333 1.434 3.333 3.238 0 1.806-1.476 3.238-3.333 3.238z"></path>
</symbol>
<symbol id="icon-code-snippet" viewBox="0 0 32 32">
<title>code-snippet</title>
<path d="M18.667 22.133l5.802-6.133-5.802-6.133 1.766-1.867 7.568 8-7.568 8-1.766-1.867zM13.333 22.133l-1.766 1.867-7.568-8 7.568-8 1.766 1.867-5.802 6.133 5.802 6.133z"></path>
</symbol>
<symbol id="icon-webpage" viewBox="0 0 32 32">
<title>webpage</title>
<path d="M22.667 9.333h-5.333v2.667h5.333c2.2 0 4 1.8 4 4s-1.8 4-4 4h-5.333v2.667h5.333c3.68 0 6.667-2.987 6.667-6.667s-2.987-6.667-6.667-6.667zM14.667 20h-5.333c-2.2 0-4-1.8-4-4s1.8-4 4-4h5.333v-2.667h-5.333c-3.68 0-6.667 2.987-6.667 6.667s2.987 6.667 6.667 6.667h5.333v-2.667zM10.667 14.667h10.667v2.667h-10.667v-2.667zM22.667 9.333h-5.333v2.667h5.333c2.2 0 4 1.8 4 4s-1.8 4-4 4h-5.333v2.667h5.333c3.68 0 6.667-2.987 6.667-6.667s-2.987-6.667-6.667-6.667zM14.667 20h-5.333c-2.2 0-4-1.8-4-4s1.8-4 4-4h5.333v-2.667h-5.333c-3.68 0-6.667 2.987-6.667 6.667s2.987 6.667 6.667 6.667h5.333v-2.667zM10.667 14.667h10.667v2.667h-10.667v-2.667z"></path>
</symbol>
<symbol id="icon-location" viewBox="0 0 32 32">
<title>location</title>
<path d="M16 2.667c-5.16 0-9.333 4.173-9.333 9.333 0 7 9.333 17.333 9.333 17.333s9.333-10.333 9.333-17.333c0-5.16-4.173-9.333-9.333-9.333zM16 15.333c-1.84 0-3.333-1.493-3.333-3.333s1.493-3.333 3.333-3.333c1.84 0 3.333 1.493 3.333 3.333s-1.493 3.333-3.333 3.333z"></path>
</symbol>
<symbol id="icon-delete_circle" viewBox="0 0 32 32">
<title>delete_circle</title>
<path d="M16 2.667c-7.36 0-13.333 5.973-13.333 13.333s5.973 13.333 13.333 13.333c7.36 0 13.333-5.973 13.333-13.333s-5.973-13.333-13.333-13.333zM19.556 21.333l-3.556-3.556-3.556 3.556-1.778-1.778 3.556-3.556-3.556-3.556 1.778-1.778 3.556 3.556 3.556-3.556 1.778 1.778-3.556 3.556 3.556 3.556-1.778 1.778z"></path>
</symbol>
<symbol id="icon-draft" viewBox="0 0 32 32">
<title>draft</title>
<path d="M23.14 11.113l-4.325-4.166-11.534 11.11v4.166h4.325l11.534-11.11zM26.554 7.825c0.45-0.433 0.45-1.133 0-1.566l-2.699-2.6c-0.45-0.433-1.177-0.433-1.626 0l-2.261 2.178 4.325 4.166 2.261-2.178zM2.667 26h26.667v2.667h-26.667v-2.667z"></path>
</symbol>
<symbol id="icon-edit" viewBox="0 0 32 32">
<title>edit</title>
<path d="M5.333 22.223v4.444h4.444l13.106-13.106-4.444-4.444-13.106 13.106zM26.32 10.124c0.462-0.462 0.462-1.209 0-1.671l-2.773-2.773c-0.462-0.462-1.209-0.462-1.671 0l-2.169 2.169 4.444 4.444 2.169-2.169z"></path>
</symbol>
<symbol id="icon-mention" viewBox="0 0 32 32">
<title>mention</title>
<path d="M16 2.667c-7.36 0-13.333 5.973-13.333 13.333s5.973 13.333 13.333 13.333h6.667v-2.667h-6.667c-5.787 0-10.667-4.88-10.667-10.667s4.88-10.667 10.667-10.667c5.787 0 10.667 4.88 10.667 10.667v1.907c0 1.053-0.947 2.093-2 2.093s-2-1.040-2-2.093v-1.907c0-3.68-2.987-6.667-6.667-6.667s-6.667 2.987-6.667 6.667c0 3.68 2.987 6.667 6.667 6.667 1.84 0 3.52-0.747 4.72-1.96 0.867 1.187 2.36 1.96 3.947 1.96 2.627 0 4.667-2.133 4.667-4.76v-1.907c0-7.36-5.973-13.333-13.333-13.333zM16 20c-2.213 0-4-1.787-4-4s1.787-4 4-4c2.213 0 4 1.787 4 4s-1.787 4-4 4z"></path>
</symbol>
<symbol id="icon-quote" viewBox="0 0 32 32">
<title>quote</title>
<path d="M25.6 4h-19.2c-1.32 0-2.388 1.080-2.388 2.4l-0.012 21.6 4.8-4.8h16.8c1.32 0 2.4-1.080 2.4-2.4v-14.4c0-1.32-1.080-2.4-2.4-2.4zM17.2 18.4h-2.4v-2.4h2.4v2.4zM17.2 13.6h-2.4v-4.8h2.4v4.8z"></path>
</symbol>
<symbol id="icon-email" viewBox="0 0 32 32">
<title>email</title>
<path d="M26.667 5.333h-21.333c-1.467 0-2.653 1.2-2.653 2.667l-0.013 16c0 1.467 1.2 2.667 2.667 2.667h21.333c1.467 0 2.667-1.2 2.667-2.667v-16c0-1.467-1.2-2.667-2.667-2.667zM26.667 10.667l-10.667 6.667-10.667-6.667v-2.667l10.667 6.667 10.667-6.667v2.667z"></path>
</symbol>
<symbol id="icon-work" viewBox="0 0 32 32">
<title>work</title>
<path d="M26.667 8h-5.333v-2.667c0-1.48-1.187-2.667-2.667-2.667h-5.333c-1.48 0-2.667 1.187-2.667 2.667v2.667h-5.333c-1.48 0-2.653 1.187-2.653 2.667l-0.013 14.667c0 1.48 1.187 2.667 2.667 2.667h21.333c1.48 0 2.667-1.187 2.667-2.667v-14.667c0-1.48-1.187-2.667-2.667-2.667zM18.667 8h-5.333v-2.667h5.333v2.667z"></path>
</symbol>
<symbol id="icon-dashboard" viewBox="0 0 32 32">
<title>dashboard</title>
<path d="M4 18.667h10.667v-16h-10.667v16zM4 29.333h10.667v-8h-10.667v8zM17.333 29.333h10.667v-16h-10.667v16zM17.333 2.667v8h10.667v-8h-10.667z"></path>
</symbol>
<symbol id="icon-arrow_up" viewBox="0 0 32 32">
<title>arrow_up</title>
<path d="M16 11.333l-8 7.557 1.88 1.776 6.12-5.769 6.12 5.769 1.88-1.776z"></path>
</symbol>
<symbol id="icon-arrow_down" viewBox="0 0 32 32">
<title>arrow_down</title>
<path d="M16 20.667l-8-7.557 1.88-1.776 6.12 5.769 6.12-5.769 1.88 1.776z"></path>
</symbol>
<symbol id="icon-chat" viewBox="0 0 32 32">
<title>chat</title>
<path d="M25.6 5.333h-19.2c-1.32 0-2.4 1.080-2.4 2.4v20.267l5.333-5.333h16c1.587 0.016 2.667-1.064 2.667-2.667v-12.267c0-1.32-1.080-2.4-2.4-2.4z"></path>
</symbol>
<symbol id="icon-people" viewBox="0 0 32 32">
<title>people</title>
<path d="M16 7.867c1.547 0 2.8 1.253 2.8 2.8s-1.253 2.8-2.8 2.8c-1.547 0-2.8-1.253-2.8-2.8s1.253-2.8 2.8-2.8zM16 19.867c3.96 0 8.133 1.947 8.133 2.8v1.467h-16.267v-1.467c0-0.853 4.173-2.8 8.133-2.8zM16 5.333c-2.947 0-5.333 2.387-5.333 5.333s2.387 5.333 5.333 5.333c2.947 0 5.333-2.387 5.333-5.333s-2.387-5.333-5.333-5.333zM16 17.333c-3.56 0-10.667 1.787-10.667 5.333v4h21.333v-4c0-3.547-7.107-5.333-10.667-5.333z"></path>
</symbol>
<symbol id="icon-team" viewBox="0 0 32 32">
<title>team</title>
<path d="M12 16c2.573 0 4.667-2.093 4.667-4.667s-2.093-4.667-4.667-4.667c-2.573 0-4.667 2.093-4.667 4.667s2.093 4.667 4.667 4.667zM12 9.333c1.107 0 2 0.893 2 2s-0.893 2-2 2c-1.107 0-2-0.893-2-2s0.893-2 2-2zM12 18.333c-3.12 0-9.333 1.56-9.333 4.667v2.333h18.667v-2.333c0-3.107-6.213-4.667-9.333-4.667zM5.787 22.667c1.12-0.773 3.827-1.667 6.213-1.667s5.093 0.893 6.213 1.667h-12.427zM21.387 18.413c1.547 1.12 2.613 2.613 2.613 4.587v2.333h5.333v-2.333c0-2.693-4.667-4.227-7.947-4.587zM20 16c2.573 0 4.667-2.093 4.667-4.667s-2.093-4.667-4.667-4.667c-0.72 0-1.387 0.173-2 0.467 0.84 1.187 1.333 2.64 1.333 4.2s-0.493 3.013-1.333 4.2c0.613 0.293 1.28 0.467 2 0.467z"></path>
</symbol>
<symbol id="icon-doc" viewBox="0 0 32 32">
<title>doc</title>
<path fill="#2b5796" style="fill: var(--color1, #2b5796)" d="M3.556 0h24.889c1.964 0 3.556 1.592 3.556 3.556v24.889c0 1.964-1.592 3.556-3.556 3.556h-24.889c-1.964 0-3.556-1.592-3.556-3.556v-24.889c0-1.964 1.592-3.556 3.556-3.556z"></path>
<path fill="#fff" style="fill: var(--color2, #fff)" d="M20.834 20.826l2.528-12.368h2.832l-3.792 16.431h-2.731l-3.126-11.996-3.194 11.996h-2.742l-3.792-16.431h2.832l2.55 12.346 3.137-12.345h2.392z"></path>
</symbol>
<symbol id="icon-excel" viewBox="0 0 32 32">
<title>excel</title>
<path fill="#1e7145" style="fill: var(--color3, #1e7145)" d="M3.556 0h24.889c1.964 0 3.556 1.592 3.556 3.556v24.889c0 1.964-1.592 3.556-3.556 3.556h-24.889c-1.964 0-3.556-1.592-3.556-3.556v-24.889c0-1.964 1.592-3.556 3.556-3.556z"></path>
<path fill="#fff" style="fill: var(--color2, #fff)" d="M16.013 13.668l3.984-6.849h3.802l-5.729 9.401 5.859 9.557h-3.841l-4.076-6.953-4.089 6.953h-3.828l5.872-9.557-5.742-9.401h3.802z"></path>
</symbol>
<symbol id="icon-pdf" viewBox="0 0 32 32">
<title>pdf</title>
<path fill="#e53f3a" style="fill: var(--color4, #e53f3a)" d="M3.556 0h24.889c1.964 0 3.556 1.592 3.556 3.556v24.889c0 1.964-1.592 3.556-3.556 3.556h-24.889c-1.964 0-3.556-1.592-3.556-3.556v-24.889c0-1.964 1.592-3.556 3.556-3.556z"></path>
<path fill="#fff" style="fill: var(--color2, #fff)" stroke="#fff" style="stroke: var(--color2, #fff)" stroke-linejoin="miter" stroke-linecap="butt" stroke-miterlimit="4" stroke-width="0.4444" d="M7.188 26.562c-0.681 0-1.229-0.347-1.466-0.928-0.394-0.966 0.174-2.295 1.558-3.646 1.083-1.058 2.597-1.929 4.5-2.591 1.012-1.879 1.944-3.89 2.597-5.61-1.447-2.25-1.713-5.028-1.208-6.58 0.327-1.004 0.894-1.381 1.311-1.521 0.582-0.196 1.176-0.049 1.591 0.396 0.624 0.671 0.853 2.024 0.7 4.134-0.061 0.841-0.34 1.971-0.832 3.362 0.021 0.027 0.043 0.053 0.065 0.080 0.328 0.401 0.678 0.843 1.045 1.305 0.783 0.987 1.663 2.096 2.557 3.090 0.265-0.008 0.519-0.012 0.765-0.012 3.161 0 5.284 0.661 5.977 1.862 0.296 0.512 0.302 1.088 0.017 1.581-0.384 0.665-1.215 1.063-2.223 1.063h-0c-0.244 0-0.497-0.024-0.75-0.071-1.27-0.234-2.665-1.19-4.373-3.002-0.437 0.024-0.894 0.058-1.362 0.104-1.007 0.097-2.949 0.35-4.916 0.97-0.846 1.528-2.668 4.616-4.026 5.503-0.514 0.335-1.041 0.512-1.527 0.512v0zM10.658 21.362c-0.974 0.471-1.778 1.014-2.404 1.624-1.229 1.201-1.309 1.953-1.24 2.122 0.020 0.049 0.106 0.059 0.174 0.059 0.208 0 0.487-0.104 0.763-0.284 0.607-0.397 1.61-1.713 2.706-3.521v0zM20.964 19.445c1.053 0.976 1.936 1.521 2.681 1.659 0.17 0.031 0.338 0.047 0.497 0.047h0c0.552 0 0.914-0.189 1.016-0.365 0.019-0.033 0.045-0.078-0.018-0.186-0.234-0.405-1.376-1.072-4.176-1.155v0zM15.364 15.085c-0.487 1.197-1.080 2.49-1.724 3.763 1.598-0.396 3.047-0.579 3.884-0.659 0.109-0.010 0.217-0.020 0.325-0.030-0.665-0.784-1.305-1.59-1.892-2.33-0.203-0.256-0.401-0.505-0.592-0.744v0zM14.992 6.994c-0.010 0-0.033 0.002-0.068 0.013-0.157 0.053-0.318 0.289-0.429 0.632-0.335 1.027-0.202 2.754 0.495 4.346 0.222-0.754 0.354-1.388 0.389-1.871 0.17-2.348-0.21-2.954-0.331-3.083-0.034-0.038-0.046-0.038-0.057-0.038v0z"></path>
</symbol>
<symbol id="icon-ppt" viewBox="0 0 32 32">
<title>ppt</title>
<path fill="#d94d1f" style="fill: var(--color5, #d94d1f)" d="M3.556 0h24.889c1.964 0 3.556 1.592 3.556 3.556v24.889c0 1.964-1.592 3.556-3.556 3.556h-24.889c-1.964 0-3.556-1.592-3.556-3.556v-24.889c0-1.964 1.592-3.556 3.556-3.556z"></path>
<path fill="#fff" style="fill: var(--color2, #fff)" d="M12.699 18.733v7.044h-3.294v-18.958h7.253c1.102 0 2.081 0.15 2.936 0.449s1.578 0.718 2.168 1.256c0.59 0.538 1.040 1.176 1.348 1.914s0.462 1.541 0.462 2.409c0 0.92-0.154 1.745-0.462 2.474s-0.757 1.345-1.348 1.849c-0.59 0.503-1.313 0.89-2.168 1.159s-1.834 0.404-2.936 0.404h-3.958zM12.699 16.090h3.958c0.634 0 1.178-0.078 1.634-0.234s0.831-0.378 1.126-0.664c0.295-0.286 0.51-0.627 0.645-1.022s0.202-0.827 0.202-1.296c0-0.443-0.067-0.868-0.202-1.276s-0.349-0.77-0.645-1.087c-0.295-0.317-0.671-0.569-1.126-0.755s-1-0.28-1.634-0.28h-3.958v6.615z"></path>
</symbol>
<symbol id="icon-default-file" viewBox="0 0 32 32">
<title>default-file</title>
<path fill="#0684bd" style="fill: var(--color6, #0684bd)" d="M3.556 0h24.889c1.964 0 3.556 1.592 3.556 3.556v24.889c0 1.964-1.592 3.556-3.556 3.556h-24.889c-1.964 0-3.556-1.592-3.556-3.556v-24.889c0-1.964 1.592-3.556 3.556-3.556z"></path>
<path fill="#fff" style="fill: var(--color2, #fff)" d="M23.42 23.933c0 0.908-0.786 1.645-1.755 1.645h-11.409c-0.969 0-1.755-0.736-1.755-1.645v-15.622c0-0.908 0.786-1.644 1.755-1.644h8.337c0.14 0 0.26 0.066 0.34 0.162l4.313 4.041c0.103 0.076 0.173 0.187 0.173 0.32v12.744zM20.845 20.521h-9.514c-0.384 0-0.699 0.31-0.699 0.693 0 0.386 0.313 0.693 0.699 0.693h9.514c0.385 0 0.699-0.31 0.699-0.693 0-0.386-0.313-0.693-0.699-0.693zM20.845 14.127h-9.514c-0.384 0-0.699 0.31-0.699 0.693 0 0.386 0.313 0.693 0.699 0.693h9.514c0.385 0 0.699-0.31 0.699-0.693 0-0.385-0.313-0.693-0.699-0.693zM20.845 17.323h-9.514c-0.384 0-0.699 0.311-0.699 0.694 0 0.385 0.313 0.693 0.699 0.693h9.514c0.385 0 0.699-0.311 0.699-0.693 0-0.386-0.313-0.694-0.699-0.694zM19.1 8.097c-0.32-0.305-0.579-0.193-0.579 0.242v2.462c0 0.271 0.222 0.491 0.497 0.491h2.634c0.439 0 0.537-0.246 0.215-0.554l-2.767-2.641z"></path>
</symbol>
<symbol id="icon-default-music" viewBox="0 0 32 32">
<title>default-music</title>
<path fill="#0684bd" style="fill: var(--color6, #0684bd)" d="M3.556 0h24.889c1.964 0 3.556 1.592 3.556 3.556v24.889c0 1.964-1.592 3.556-3.556 3.556h-24.889c-1.964 0-3.556-1.592-3.556-3.556v-24.889c0-1.964 1.592-3.556 3.556-3.556z"></path>
<path fill="#fff" style="fill: var(--color2, #fff)" d="M12.568 13.971v4.832c-0.432-0.264-0.938-0.418-1.481-0.418-1.571 0-2.845 1.269-2.845 2.834 0 1.566 1.274 2.835 2.845 2.835s2.843-1.269 2.844-2.835v-7.478c0-0.088 0.072-0.18 0.165-0.207l6.907-1.979c0.091-0.026 0.165 0.021 0.165 0.114v4.688c-0.432-0.264-0.938-0.418-1.481-0.418-1.571 0-2.845 1.269-2.845 2.833 0 1.566 1.273 2.835 2.845 2.835 1.479 0 2.695-1.128 2.83-2.569l0.014-7.92v-3.025c0-0.185-0.141-0.294-0.32-0.243l-9.321 2.671c-0.177 0.051-0.32 0.236-0.32 0.426v3.025z"></path>
</symbol>
<symbol id="icon-default-video" viewBox="0 0 32 32">
<title>default-video</title>
<path fill="#0684bd" style="fill: var(--color6, #0684bd)" d="M3.556 0h24.889c1.964 0 3.556 1.592 3.556 3.556v24.889c0 1.964-1.592 3.556-3.556 3.556h-24.889c-1.964 0-3.556-1.592-3.556-3.556v-24.889c0-1.964 1.592-3.556 3.556-3.556z"></path>
<path fill="#fff" style="fill: var(--color2, #fff)" d="M22.945 14.859c0.931 0.525 0.931 1.375-0.006 1.904l-9.608 5.414c-0.934 0.527-1.692 0.081-1.692-0.984l-0.002-10.772c-0.001-1.070 0.754-1.512 1.685-0.987l9.623 5.425z"></path>
</symbol>
<symbol id="icon-zip" viewBox="0 0 32 32">
<title>zip</title>
<path fill="#0684bd" style="fill: var(--color6, #0684bd)" d="M3.556 0h24.889c1.964 0 3.556 1.592 3.556 3.556v24.889c0 1.964-1.592 3.556-3.556 3.556h-24.889c-1.964 0-3.556-1.592-3.556-3.556v-24.889c0-1.964 1.592-3.556 3.556-3.556z"></path>
<path fill="#fff" style="fill: var(--color2, #fff)" d="M14.053 21.28h8.283v2.72h-12.515v-1.986l8.125-11.702h-8.114v-2.742h12.323v1.941z"></path>
</symbol>
<symbol id="icon-image-preview" viewBox="0 0 32 32">
<title>image-preview</title>
<path fill="#9e9e9e" style="fill: var(--color7, #9e9e9e)" d="M32 28.444v-24.889c0-1.956-1.6-3.556-3.556-3.556h-24.889c-1.956 0-3.556 1.6-3.556 3.556v24.889c0 1.956 1.6 3.556 3.556 3.556h24.889c1.956 0 3.556-1.6 3.556-3.556z"></path>
<path fill="#fff" style="fill: var(--color2, #fff)" d="M12.444 11.556c0 1.473-1.194 2.667-2.667 2.667s-2.667-1.194-2.667-2.667c0-1.473 1.194-2.667 2.667-2.667s2.667 1.194 2.667 2.667z"></path>
<path fill="#fff" style="fill: var(--color2, #fff)" d="M10.607 18.844l3.852 4.54 6.163-9.161 6.933 12.444h-23.111z"></path>
</symbol>
<symbol id="icon-image-broken" viewBox="0 0 32 32">
<title>image-broken</title>
<path fill="#9e9e9e" style="fill: var(--color7, #9e9e9e)" d="M32 3.556c0-1.956-1.6-3.556-3.556-3.556h-24.889c-1.956 0-3.556 1.6-3.556 3.556v24.889c0 1.956 1.6 3.556 3.556 3.556h24.889c1.956 0 3.556-1.6 3.556-3.556v-24.889z"></path>
<path fill="#fff" style="fill: var(--color2, #fff)" d="M0.024 11.597l5.291 5.291 7.137-7.137 7.137 7.137 7.137-7.137 5.304 5.304v5.402l-5.304-5.304-7.137 7.137-7.137-7.137-7.137 7.137-5.402-5.402z"></path>
</symbol>
<symbol id="icon-star" viewBox="0 0 32 32">
<title>star</title>
<path d="M16 23.693l8.24 4.973-2.187-9.373 7.28-6.307-9.587-0.813-3.747-8.84-3.747 8.84-9.587 0.813 7.28 6.307-2.187 9.373z"></path>
</symbol>
<symbol id="icon-star_border" viewBox="0 0 32 32">
<title>star_border</title>
<path d="M29.333 12.987l-9.587-0.827-3.747-8.827-3.747 8.84-9.587 0.813 7.28 6.307-2.187 9.373 8.24-4.973 8.24 4.973-2.173-9.373 7.267-6.307zM16 21.2l-5.013 3.027 1.333-5.707-4.427-3.84 5.84-0.507 2.267-5.373 2.28 5.387 5.84 0.507-4.427 3.84 1.333 5.707-5.027-3.040z"></path>
</symbol>
<symbol id="icon-unlock" viewBox="0 0 32 32">
<title>unlock</title>
<path d="M24.498 13.335h-10.496v-3.555c0-3.929-3.134-7.113-7.001-7.113s-7.001 3.184-7.001 7.113h3.502c0-1.963 1.567-3.555 3.499-3.555s3.499 1.592 3.499 3.555v3.555c-1.932 0-3.833 1.592-3.833 3.555v8.889c0 1.963 1.898 3.555 3.83 3.555h14.005c1.932 0 3.499-1.592 3.499-3.555v-8.889c0-1.963-1.564-3.555-3.502-3.555zM19.251 23.527v0.476c0 0.985-0.785 1.776-1.748 1.776-0.969 0-1.748-0.798-1.748-1.776v-0.476c-1.047-0.617-1.748-1.763-1.748-3.079h-0.003c0-1.963 1.567-3.555 3.499-3.555s3.499 1.592 3.499 3.555c-0.003 1.313-0.707 2.465-1.751 3.079z"></path>
</symbol>
<symbol id="icon-lock" viewBox="0 0 32 32">
<title>lock</title>
<path d="M23.11 13.332c1.964 0 3.557 1.593 3.557 3.556v8.889c0 1.964-1.593 3.556-3.557 3.556h-14.22c-1.964 0-3.557-1.593-3.557-3.556v-8.889c0-1.964 1.593-3.556 3.557-3.556v-3.556c0-3.927 3.182-7.109 7.11-7.109s7.11 3.185 7.11 7.109v3.556zM12.443 9.776v3.556h7.113v-3.556c0-1.964-1.593-3.556-3.557-3.556s-3.557 1.593-3.557 3.556zM12.443 20.441c0 1.317 0.716 2.463 1.777 3.080v0.476c0 0.982 0.795 1.776 1.777 1.776s1.777-0.795 1.777-1.776v-0.476c1.064-0.614 1.777-1.767 1.777-3.080 0-1.964-1.593-3.556-3.557-3.556-1.957 0-3.55 1.593-3.55 3.556z"></path>
</symbol>
<symbol id="icon-bookmark" viewBox="0 0 32 32">
<title>bookmark</title>
<path d="M22.667 4h-13.333c-1.467 0-2.653 1.2-2.653 2.667l-0.013 21.333 9.333-4 9.333 4v-21.333c0-1.467-1.2-2.667-2.667-2.667z"></path>
</symbol>
<symbol id="icon-bookmark_border" viewBox="0 0 32 32">
<title>bookmark_border</title>
<path d="M22.667 4h-13.333c-1.467 0-2.653 1.2-2.653 2.667l-0.013 21.333 9.333-4 9.333 4v-21.333c0-1.467-1.2-2.667-2.667-2.667zM22.667 24l-6.667-2.907-6.667 2.907v-17.333h13.333v17.333z"></path>
</symbol>
<symbol id="icon-thumbup" viewBox="0 0 32 32">
<title>thumbup</title>
<path d="M1.333 29.333h5.333v-16h-5.333v16zM30.667 14.667c0-1.467-1.2-2.667-2.667-2.667h-8.413l1.267-6.093 0.040-0.427c0-0.547-0.227-1.053-0.587-1.413l-1.413-1.4-8.773 8.787c-0.493 0.48-0.787 1.147-0.787 1.88v13.333c0 1.467 1.2 2.667 2.667 2.667h12c1.107 0 2.053-0.667 2.453-1.627l4.027-9.4c0.12-0.307 0.187-0.627 0.187-0.973v-2.667z"></path>
</symbol>
<symbol id="icon-thumbup_border" viewBox="0 0 32 32">
<title>thumbup_border</title>
<path d="M28 12h-8.413l1.267-6.093 0.040-0.427c0-0.547-0.227-1.053-0.587-1.413l-1.413-1.4-8.773 8.787c-0.493 0.48-0.787 1.147-0.787 1.88v13.333c0 1.467 1.2 2.667 2.667 2.667h12c1.107 0 2.053-0.667 2.453-1.627l4.027-9.4c0.12-0.307 0.187-0.627 0.187-0.973v-2.667c0-1.467-1.2-2.667-2.667-2.667zM28 17.333l-4 9.333h-12v-13.333l5.787-5.787-1.48 7.12h11.693v2.667zM1.333 13.333h5.333v16h-5.333v-16z"></path>
</symbol>
<symbol id="icon-more_vert" viewBox="0 0 32 32">
<title>more_vert</title>
<path d="M16 10.667c1.467 0 2.667-1.2 2.667-2.667s-1.2-2.667-2.667-2.667c-1.467 0-2.667 1.2-2.667 2.667s1.2 2.667 2.667 2.667zM16 13.333c-1.467 0-2.667 1.2-2.667 2.667s1.2 2.667 2.667 2.667c1.467 0 2.667-1.2 2.667-2.667s-1.2-2.667-2.667-2.667zM16 21.333c-1.467 0-2.667 1.2-2.667 2.667s1.2 2.667 2.667 2.667c1.467 0 2.667-1.2 2.667-2.667s-1.2-2.667-2.667-2.667z"></path>
</symbol>
<symbol id="icon-more_horiz" viewBox="0 0 32 32">
<title>more_horiz</title>
<path d="M8 13.333c-1.467 0-2.667 1.2-2.667 2.667s1.2 2.667 2.667 2.667c1.467 0 2.667-1.2 2.667-2.667s-1.2-2.667-2.667-2.667zM24 13.333c-1.467 0-2.667 1.2-2.667 2.667s1.2 2.667 2.667 2.667c1.467 0 2.667-1.2 2.667-2.667s-1.2-2.667-2.667-2.667zM16 13.333c-1.467 0-2.667 1.2-2.667 2.667s1.2 2.667 2.667 2.667c1.467 0 2.667-1.2 2.667-2.667s-1.2-2.667-2.667-2.667z"></path>
</symbol>
<symbol id="icon-delete" viewBox="0 0 32 32">
<title>delete</title>
<path d="M8 25.333c0 1.467 1.2 2.667 2.667 2.667h10.667c1.467 0 2.667-1.2 2.667-2.667v-16h-16v16zM25.333 5.333h-4.667l-1.333-1.333h-6.667l-1.333 1.333h-4.667v2.667h18.667v-2.667z"></path>
</symbol>
<symbol id="icon-videocam" viewBox="0 0 32 32">
<title>videocam</title>
<path d="M23.407 13.833v-5.056c0-0.794-0.667-1.444-1.481-1.444h-17.778c-0.815 0-1.481 0.65-1.481 1.444v14.444c0 0.794 0.667 1.444 1.481 1.444h17.778c0.815 0 1.481-0.65 1.481-1.444v-5.056l5.926 5.778v-15.889l-5.926 5.778z"></path>
</symbol>
<symbol id="icon-bubble_lines" viewBox="0 0 32 32">
<title>bubble_lines</title>
<path d="M26.667 2.667h-21.333c-1.467 0-2.653 1.2-2.653 2.667v24l5.32-5.333h18.667c1.467 0 2.667-1.2 2.667-2.667v-16c0-1.467-1.2-2.667-2.667-2.667zM8 12h16v2.667h-16v-2.667zM18.667 18.667h-10.667v-2.667h10.667v2.667zM24 10.667h-16v-2.667h16v2.667z"></path>
</symbol>
<symbol id="icon-comment" viewBox="0 0 32 32">
<title>comment</title>
<path d="M29.32 5.333c0-1.467-1.187-2.667-2.653-2.667h-21.333c-1.467 0-2.667 1.2-2.667 2.667v16c0 1.467 1.2 2.667 2.667 2.667h18.667l5.333 5.333-0.013-24zM22.667 14.667h-5.333v5.333h-2.667v-5.333h-5.333v-2.667h5.333v-5.333h2.667v5.333h5.333v2.667z"></path>
</symbol>
<symbol id="icon-settings" viewBox="0 0 32 32">
<title>settings</title>
<path d="M25.964 16.715c0.048-0.4 0.080-0.816 0.080-1.248s-0.032-0.848-0.096-1.248l2.704-2.112c0.24-0.192 0.304-0.544 0.16-0.816l-2.56-4.432c-0.16-0.288-0.496-0.384-0.784-0.288l-3.184 1.28c-0.672-0.512-1.376-0.928-2.16-1.248l-0.48-3.392c-0.048-0.32-0.32-0.544-0.64-0.544h-5.12c-0.32 0-0.576 0.224-0.624 0.544l-0.48 3.392c-0.784 0.32-1.504 0.752-2.16 1.248l-3.184-1.28c-0.288-0.112-0.624 0-0.784 0.288l-2.56 4.432c-0.16 0.288-0.096 0.624 0.16 0.816l2.704 2.112c-0.064 0.4-0.112 0.832-0.112 1.248s0.032 0.848 0.096 1.248l-2.704 2.112c-0.24 0.192-0.304 0.544-0.16 0.816l2.56 4.432c0.16 0.288 0.496 0.384 0.784 0.288l3.184-1.28c0.672 0.512 1.376 0.928 2.16 1.248l0.48 3.392c0.064 0.32 0.32 0.544 0.64 0.544h5.12c0.32 0 0.592-0.224 0.624-0.544l0.48-3.392c0.784-0.32 1.504-0.752 2.16-1.248l3.184 1.28c0.288 0.112 0.624 0 0.784-0.288l2.56-4.432c0.16-0.288 0.096-0.624-0.16-0.816l-2.672-2.112zM16.444 20.267c-2.64 0-4.8-2.16-4.8-4.8s2.16-4.8 4.8-4.8c2.64 0 4.8 2.16 4.8 4.8s-2.16 4.8-4.8 4.8z"></path>
</symbol>
<symbol id="icon-attachment" viewBox="0 0 32 32">
<title>attachment</title>
<path d="M7.469 25.849c-2.847-2.868-2.847-7.51 0-10.378l9.833-9.907c2.070-2.085 5.422-2.085 7.492 0s2.070 5.463 0 7.548l-7.96 8.020c-1.292 1.302-3.39 1.302-4.682 0s-1.292-3.415 0-4.717l7.024-7.076 1.873 1.887-7.108 7.161c-0.515 0.519 0.421 1.462 0.937 0.944l8.044-8.105c1.030-1.038 1.030-2.736 0-3.774s-2.716-1.038-3.746 0l-9.833 9.907c-1.807 1.821-1.807 4.784 0 6.604s4.748 1.821 6.555 0l8.897-8.963 1.873 1.887-8.897 8.963c-2.847 2.868-7.454 2.868-10.301 0z"></path>
</symbol>
<symbol id="icon-computer" viewBox="0 0 32 32">
<title>computer</title>
<path d="M24.889 22.5c1.222 0 2.211-0.975 2.211-2.167l0.011-10.833c0-1.192-1-2.167-2.222-2.167h-17.778c-1.222 0-2.222 0.975-2.222 2.167v10.833c0 1.192 1 2.167 2.222 2.167h-4.444v2.167h26.667v-2.167h-4.444zM7.111 9.5h17.778v10.833h-17.778v-10.833z"></path>
</symbol>
<symbol id="icon-download" viewBox="0 0 32 32">
<title>download</title>
<path d="M25.333 13.333h-5.333v-8h-8v8h-5.333l9.333 9.333 9.333-9.333zM6.667 25.333v2.667h18.667v-2.667h-18.667z"></path>
</symbol>
<symbol id="icon-refresh" viewBox="0 0 32 32">
<title>refresh</title>
<path d="M23.52 8.467c-1.933-1.933-4.587-3.133-7.533-3.133-5.893 0-10.653 4.773-10.653 10.667s4.76 10.667 10.653 10.667c4.973 0 9.12-3.4 10.307-8h-2.773c-1.093 3.107-4.053 5.333-7.533 5.333-4.413 0-8-3.587-8-8s3.587-8 8-8c2.213 0 4.187 0.92 5.627 2.373l-4.293 4.293h9.333v-9.333l-3.133 3.133z"></path>
</symbol>
<symbol id="icon-close" viewBox="0 0 32 32">
<title>close</title>
<path d="M25.333 8.547l-1.88-1.88-7.453 7.453-7.453-7.453-1.88 1.88 7.453 7.453-7.453 7.453 1.88 1.88 7.453-7.453 7.453 7.453 1.88-1.88-7.453-7.453z"></path>
</symbol>
<symbol id="icon-unfold_less" viewBox="0 0 32 32">
<title>unfold_less</title>
<path d="M9.333 24.787l1.893 1.88 4.227-4.227 4.227 4.227 1.88-1.88-6.107-6.12-6.12 6.12zM21.573 7.213l-1.893-1.88-4.227 4.227-4.227-4.227-1.893 1.88 6.12 6.12 6.12-6.12z"></path>
</symbol>
<symbol id="icon-unfold_more" viewBox="0 0 32 32">
<title>unfold_more</title>
<path d="M15.453 7.773l4.227 4.227 1.88-1.88-6.107-6.12-6.12 6.12 1.893 1.88 4.227-4.227zM15.453 24.227l-4.227-4.227-1.88 1.88 6.107 6.12 6.12-6.12-1.893-1.88-4.227 4.227z"></path>
</symbol>
<symbol id="icon-chevron_left" viewBox="0 0 32 32">
<title>chevron_left</title>
<path d="M20.547 9.88l-1.88-1.88-8 8 8 8 1.88-1.88-6.107-6.12z"></path>
</symbol>
<symbol id="icon-chevron_right" viewBox="0 0 32 32">
<title>chevron_right</title>
<path d="M12.547 8l-1.88 1.88 6.107 6.12-6.107 6.12 1.88 1.88 8-8z"></path>
</symbol>
<symbol id="icon-double-chevron_right" viewBox="0 0 32 32">
<title>double-chevron_right</title>
<path d="M13.723 6.277c0.525-0.525 1.373-0.537 1.912-0.026l9.277 8.781c0.018 0.017 0.035 0.034 0.052 0.052 0.506 0.535 0.483 1.379-0.052 1.885l-9.277 8.781c-0.539 0.511-1.387 0.499-1.912-0.026-0.521-0.521-0.521-1.366 0-1.887l6.503-6.503h-14.893c-0.736 0-1.333-0.597-1.333-1.333s0.597-1.333 1.333-1.333h14.893l-6.503-6.503c-0.521-0.521-0.521-1.366 0-1.887zM26.667 4c0.736 0 1.333 0.597 1.333 1.333v21.333c0 0.736-0.597 1.333-1.333 1.333s-1.333-0.597-1.333-1.333v-21.333c0-0.736 0.597-1.333 1.333-1.333z"></path>
</symbol>
<symbol id="icon-double-chevron_left" viewBox="0 0 32 32">
<title>double-chevron_left</title>
<path d="M18.277 6.277c0.521 0.521 0.521 1.366 0 1.887l-6.503 6.503h14.893c0.736 0 1.333 0.597 1.333 1.333s-0.597 1.333-1.333 1.333h-14.893l6.503 6.503c0.521 0.521 0.521 1.366 0 1.887-0.525 0.525-1.373 0.537-1.912 0.026l-9.277-8.781c-0.535-0.506-0.558-1.35-0.052-1.885 0.017-0.018 0.034-0.035 0.052-0.052l9.277-8.781c0.539-0.511 1.387-0.499 1.912 0.026zM5.333 4c0.736 0 1.333 0.597 1.333 1.333v21.333c0 0.736-0.597 1.333-1.333 1.333s-1.333-0.597-1.333-1.333v-21.333c0-0.736 0.597-1.333 1.333-1.333z"></path>
</symbol>
<symbol id="icon-bulleted" viewBox="0 0 32 32">
<title>bulleted</title>
<path d="M4 17.333h24v-2.667h-24v2.667zM4 22.667h24v-2.667h-24v2.667zM4 9.333v2.667h24v-2.667h-24z"></path>
</symbol>
<symbol id="icon-note" viewBox="0 0 32 32">
<title>note</title>
<path d="M24.631 4.538h-2.753v-0.354c0-0.814-0.614-1.48-1.372-1.48h-8.261c-0.756 0-1.371 0.662-1.371 1.48v0.354h-2.755c-1.516 0-2.747 1.165-2.747 2.599v19.56c0 1.433 1.233 2.599 2.75 2.599h16.507c1.521 0 2.751-1.162 2.751-2.599v-19.56c-0-1.433-1.232-2.599-2.749-2.599h-0zM8.123 26.546v-19.257h2.751v0.354c0 0.814 0.614 1.48 1.371 1.48h8.261c0.756 0 1.372-0.663 1.372-1.48v-0.354h2.751v19.257h-16.506zM10.874 13.249v2.751h8.253v-2.751h-8.253zM10.874 18.751v2.751h11.004v-2.751h-11.004z"></path>
</symbol>
<symbol id="icon-event" viewBox="0 0 32 32">
<title>event</title>
<path d="M22.667 17.333h-6.667v6.667h6.667v-6.667zM21.333 2.667v2.667h-10.667v-2.667h-2.667v2.667h-1.333c-1.48 0-2.653 1.2-2.653 2.667l-0.013 18.667c0 1.467 1.187 2.667 2.667 2.667h18.667c1.467 0 2.667-1.2 2.667-2.667v-18.667c0-1.467-1.2-2.667-2.667-2.667h-1.333v-2.667h-2.667zM25.333 26.667h-18.667v-14.667h18.667v14.667z"></path>
</symbol>
<symbol id="icon-copy" viewBox="0 0 32 32">
<title>copy</title>
<path d="M21.053 3.333h-13.474c-1.235 0-2.246 1.036-2.246 2.303v16.121h2.246v-16.121h13.474v-2.303zM19.93 7.939l6.737 6.909v11.515c0 1.267-1.011 2.303-2.246 2.303h-12.362c-1.235 0-2.234-1.036-2.234-2.303l0.011-16.121c0-1.267 0.999-2.303 2.234-2.303h7.86zM18.807 16h6.175l-6.175-6.333v6.333z"></path>
</symbol>
<symbol id="icon-inbox" viewBox="0 0 32 32">
<title>inbox</title>
<path d="M25.333 4h-18.68c-1.48 0-2.64 1.187-2.64 2.667l-0.013 18.667c0 1.467 1.173 2.667 2.653 2.667h18.68c1.467 0 2.667-1.2 2.667-2.667v-18.667c0-1.48-1.2-2.667-2.667-2.667zM25.333 20h-5.333c0 2.213-1.8 4-4 4s-4-1.787-4-4h-5.347v-13.333h18.68v13.333z"></path>
</symbol>
<symbol id="icon-phone" viewBox="0 0 32 32">
<title>phone</title>
<path d="M8.827 14.387c1.92 3.773 5.013 6.853 8.787 8.787l2.933-2.933c0.36-0.36 0.893-0.48 1.36-0.32 1.493 0.493 3.107 0.76 4.76 0.76 0.733 0 1.333 0.6 1.333 1.333v4.653c0 0.733-0.6 1.333-1.333 1.333-12.52 0-22.667-10.147-22.667-22.667 0-0.733 0.6-1.333 1.333-1.333h4.667c0.733 0 1.333 0.6 1.333 1.333 0 1.667 0.267 3.267 0.76 4.76 0.147 0.467 0.040 0.987-0.333 1.36l-2.933 2.933z"></path>
</symbol>
<symbol id="icon-search" viewBox="0 0 32 32">
<title>search</title>
<path d="M21.185 18.963h-1.17l-0.415-0.4c1.452-1.689 2.326-3.881 2.326-6.267 0-5.319-4.311-9.63-9.63-9.63s-9.63 4.311-9.63 9.63c0 5.319 4.311 9.63 9.63 9.63 2.385 0 4.578-0.874 6.267-2.326l0.4 0.415v1.17l7.407 7.393 2.207-2.207-7.393-7.407zM12.296 18.963c-3.689 0-6.667-2.978-6.667-6.667s2.978-6.667 6.667-6.667c3.689 0 6.667 2.978 6.667 6.667s-2.978 6.667-6.667 6.667z"></path>
</symbol>
<symbol id="icon-remove" viewBox="0 0 32 32">
<title>remove</title>
<path d="M16 2.667c-7.36 0-13.333 5.973-13.333 13.333s5.973 13.333 13.333 13.333c7.36 0 13.333-5.973 13.333-13.333s-5.973-13.333-13.333-13.333zM22.667 17.333h-13.333v-2.667h13.333v2.667z"></path>
</symbol>
<symbol id="icon-add" viewBox="0 0 32 32">
<title>add</title>
<path d="M16 2.667c-7.36 0-13.333 5.973-13.333 13.333s5.973 13.333 13.333 13.333c7.36 0 13.333-5.973 13.333-13.333s-5.973-13.333-13.333-13.333zM22.667 17.333h-5.333v5.333h-2.667v-5.333h-5.333v-2.667h5.333v-5.333h2.667v5.333h5.333v2.667z"></path>
</symbol>
<symbol id="icon-calendar" viewBox="0 0 32 32">
<title>calendar</title>
<path d="M12 14.667h-2.667v2.667h2.667v-2.667zM17.333 14.667h-2.667v2.667h2.667v-2.667zM22.667 14.667h-2.667v2.667h2.667v-2.667zM25.333 5.333h-1.333v-2.667h-2.667v2.667h-10.667v-2.667h-2.667v2.667h-1.333c-1.48 0-2.653 1.2-2.653 2.667l-0.013 18.667c0 1.467 1.187 2.667 2.667 2.667h18.667c1.467 0 2.667-1.2 2.667-2.667v-18.667c0-1.467-1.2-2.667-2.667-2.667zM25.333 26.667h-18.667v-14.667h18.667v14.667z"></path>
</symbol>
<symbol id="icon-assignment" viewBox="0 0 32 32">
<title>assignment</title>
<path d="M25.333 4h-5.573c-0.56-1.547-2.027-2.667-3.76-2.667s-3.2 1.12-3.76 2.667h-5.573c-1.467 0-2.667 1.2-2.667 2.667v18.667c0 1.467 1.2 2.667 2.667 2.667h18.667c1.467 0 2.667-1.2 2.667-2.667v-18.667c0-1.467-1.2-2.667-2.667-2.667zM16 4c0.733 0 1.333 0.6 1.333 1.333s-0.6 1.333-1.333 1.333c-0.733 0-1.333-0.6-1.333-1.333s0.6-1.333 1.333-1.333zM16 9.333c2.213 0 4 1.787 4 4s-1.787 4-4 4c-2.213 0-4-1.787-4-4s1.787-4 4-4zM24 25.333h-16v-1.867c0-2.667 5.333-4.133 8-4.133s8 1.467 8 4.133v1.867z"></path>
</symbol>
<symbol id="icon-contacts" viewBox="0 0 32 32">
<title>contacts</title>
<path d="M24.533 2.667h-17.067v2.222h17.067v-2.222zM7.467 29.333h17.067v-2.222h-17.067v2.222zM24.533 7.111h-17.067c-1.173 0-2.133 1-2.133 2.222v13.333c0 1.222 0.96 2.222 2.133 2.222h17.067c1.173 0 2.133-1 2.133-2.222v-13.333c0-1.222-0.96-2.222-2.133-2.222zM16 10.167c1.323 0 2.4 1.122 2.4 2.5s-1.077 2.5-2.4 2.5c-1.323 0-2.4-1.122-2.4-2.5s1.077-2.5 2.4-2.5zM21.333 21.556h-10.667v-1.667c0-1.856 3.552-2.778 5.333-2.778s5.333 0.922 5.333 2.778v1.667z"></path>
</symbol>
<symbol id="icon-task_incomplete" viewBox="0 0 32 32">
<title>task_incomplete</title>
<path d="M25.333 5.333h-5.573c-0.56-1.547-2.027-2.667-3.76-2.667s-3.2 1.12-3.76 2.667h-5.573c-1.467 0-2.667 1.2-2.667 2.667v18.667c0 1.467 1.2 2.667 2.667 2.667h18.667c1.467 0 2.667-1.2 2.667-2.667v-18.667c0-1.467-1.2-2.667-2.667-2.667zM16 5.333c0.733 0 1.333 0.6 1.333 1.333s-0.6 1.333-1.333 1.333c-0.733 0-1.333-0.6-1.333-1.333s0.6-1.333 1.333-1.333zM18.667 24h-9.333v-2.667h9.333v2.667zM22.667 18.667h-13.333v-2.667h13.333v2.667zM22.667 13.333h-13.333v-2.667h13.333v2.667z"></path>
</symbol>
<symbol id="icon-task" viewBox="0 0 32 32">
<title>task</title>
<path d="M25.333 5.333h-5.573c-0.56-1.547-2.027-2.667-3.76-2.667s-3.2 1.12-3.76 2.667h-5.573c-1.467 0-2.667 1.2-2.667 2.667v18.667c0 1.467 1.2 2.667 2.667 2.667h18.667c1.467 0 2.667-1.2 2.667-2.667v-18.667c0-1.467-1.2-2.667-2.667-2.667zM16 5.333c0.733 0 1.333 0.6 1.333 1.333s-0.6 1.333-1.333 1.333c-0.733 0-1.333-0.6-1.333-1.333s0.6-1.333 1.333-1.333zM13.333 24l-5.333-5.333 1.88-1.88 3.453 3.44 8.787-8.787 1.88 1.893-10.667 10.667z"></path>
</symbol>
<symbol id="icon-evernote" viewBox="0 0 32 32">
<title>evernote</title>
<path d="M21.223 15.316c-0.345-0.011-0.676 0.010-0.986 0.059 0.087-0.698 0.378-1.554 1.405-1.519 1.137 0.039 1.295 1.107 1.3 1.83-0.48-0.213-1.073-0.348-1.719-0.371h0zM26.085 7.742c-0.191-1.011-0.795-1.51-1.342-1.705-0.59-0.212-1.787-0.432-3.291-0.608-1.21-0.141-2.631-0.13-3.49-0.104-0.104-0.701-0.598-1.342-1.152-1.564-1.476-0.591-3.757-0.447-4.343-0.284-0.465 0.129-0.98 0.393-1.267 0.802-0.192 0.273-0.317 0.622-0.318 1.109 0 0.277 0.008 0.927 0.015 1.505 0.007 0.58 0.015 1.098 0.015 1.102-0 0.516-0.421 0.936-0.943 0.937h-2.393c-0.511 0-0.901 0.085-1.199 0.22s-0.51 0.317-0.67 0.531c-0.319 0.427-0.375 0.953-0.374 1.489 0 0 0.005 0.439 0.111 1.288 0.089 0.657 0.806 5.247 1.487 6.644 0.264 0.543 0.44 0.769 0.959 1.008 1.156 0.492 3.797 1.040 5.035 1.196 1.235 0.157 2.011 0.488 2.473-0.475 0.001-0.003 0.092-0.24 0.218-0.587 0.401-1.208 0.457-2.28 0.457-3.055 0-0.079 0.117-0.083 0.117 0 0 0.547-0.105 2.485 1.368 3.005 0.582 0.205 1.788 0.387 3.014 0.53 1.109 0.126 1.914 0.56 1.914 3.385 0 1.719-0.364 1.955-2.263 1.955-1.54 0-2.128 0.040-2.128-1.176 0-0.982 0.979-0.879 1.703-0.879 0.324 0 0.089-0.239 0.089-0.845 0-0.604 0.38-0.952 0.021-0.96-2.506-0.069-3.981-0.003-3.981 3.111 0 2.827 1.089 3.352 4.646 3.352 2.789 0 3.773-0.091 4.924-3.641 0.228-0.7 0.78-2.84 1.113-6.431 0.212-2.27-0.198-9.124-0.523-10.853v-0zM7.464 8.24h2.395c0.137 0 0.247-0.111 0.248-0.246 0-0.001-0.029-2.038-0.029-2.605v-0.006c0-0.466 0.098-0.871 0.269-1.212l0.082-0.153c-0.009 0.002-0.018 0.006-0.028 0.015l-4.65 4.581c-0.009 0.008-0.015 0.017-0.017 0.027 0.096-0.047 0.228-0.112 0.246-0.12 0.405-0.182 0.896-0.282 1.483-0.282z"></path>
</symbol>
<symbol id="icon-google" viewBox="0 0 32 32">
<title>google</title>
<path d="M10.691 5.894l-8.025 14.527 4.197 7.579 8.148-14.527-4.321-7.579zM13.161 20.421l-4.197 7.579h16.173l4.197-7.579h-16.173zM28.716 19.158l-8.518-15.158h-8.395l8.518 15.158h8.395z"></path>
</symbol>
<symbol id="icon-onedrive" viewBox="0 0 32 32">
<title>onedrive</title>
<path d="M27.353 18.31l-0 0c1.42 0.516 2.088 1.599 1.966 3.192-0.079 1.042-0.558 1.873-1.319 2.286l-0.357 0.194-7.948 0.015c-6.106 0.012-8.047-0.010-8.383-0.095-1.614-0.409-2.513-1.709-2.516-3.64-0.001-0.617 0.043-0.913 0.195-1.31 0.373-0.973 1.358-1.707 2.655-1.977 0.646-0.135 0.845-0.279 0.845-0.613 0-0.105 0.077-0.418 0.171-0.694 0.427-1.257 1.216-2.305 2.060-2.734 0.883-0.448 1.329-0.55 2.398-0.544 1.517 0.008 2.274 0.342 3.333 1.47l0.582 0.62 0.522-0.183c2.525-0.886 5.042 0.622 5.245 3.143l0.056 0.689 0.497 0.181zM7.69 20.35v0c0 0.71 0.181 1.576 0.43 2.073 0.094 0.187 0.147 0.365 0.117 0.396-0.077 0.078-2.542 0.051-2.883-0.031-0.942-0.227-1.94-1.071-2.408-2.036-0.266-0.547-0.28-0.628-0.28-1.596 0-0.921 0.023-1.070 0.234-1.527 0.446-0.964 1.299-1.661 2.371-1.934 0.226-0.058 0.438-0.15 0.472-0.205s0.071-0.354 0.083-0.664c0.075-1.929 1.323-3.629 3.065-4.175 0.942-0.294 2.125-0.222 3.148 0.193 0.325 0.132 0.288 0.161 0.975-0.752 0.406-0.54 1.227-1.212 1.899-1.555 0.725-0.369 1.478-0.539 2.38-0.537 2.521 0.007 4.692 1.605 5.495 4.045 0.257 0.779 0.244 0.997-0.059 1.004-0.132 0.003-0.511 0.077-0.841 0.164l-0.6 0.159-0.549-0.556c-1.546-1.568-4.069-1.907-6.214-0.834-0.857 0.428-1.545 1.044-2.065 1.845-0.371 0.571-0.844 1.637-0.844 1.902 0 0.187-0.15 0.281-0.79 0.495-1.982 0.658-3.138 2.18-3.138 4.128z"></path>
</symbol>
<symbol id="icon-dropbox" viewBox="0 0 32 32">
<title>dropbox</title>
<path d="M10.519 22.653l-7.852-5.227 5.416-4.441 7.916 4.998-5.48 4.67zM15.999 17.982l7.918-4.997 5.416 4.44-7.837 5.228-5.497-4.671zM16.032 18.999l5.496 4.653 2.357-1.572v1.769l-7.853 4.801v0.016l-0.016-0.016-0.017 0.016v-0.016l-7.835-4.801v-1.769l2.356 1.572 5.48-4.653v-0.033l0.017 0.016 0.016-0.016v0.033zM2.667 8.56l7.852-5.227 5.48 4.671-7.916 4.981-5.416-4.425zM21.496 3.333l7.837 5.227-5.416 4.425-7.918-4.981 5.497-4.671z"></path>
</symbol>
<symbol id="icon-box" viewBox="0 0 32 32">
<title>box</title>
<path d="M21.438 10.684c-0.23-0.513-0.459-1.026-0.689-1.54-1.167-2.046-3.152-3.351-6.457-3.116-0.687 0.106-1.124 0.25-1.669 0.513-1.547 0.715-3.262 2.238-3.555 4.18-0.617 0.196-1.233 0.391-1.85 0.587-1.146 0.539-2.366 1.44-3.047 2.457-0.545 0.815-0.992 1.737-1.306 2.786-0.485 1.623 0.010 3.515 0.472 4.694 0.944 2.407 3 4.064 5.804 4.584 0.834 0.024 1.669 0.049 2.503 0.073h4.425c2.396 0 5.439 0.332 7.472-0.22 2.621-0.71 4.666-2.604 5.442-5.171 1.627-5.39-2.683-9.886-7.546-9.827v0zM16.706 23.241c-1.43 0-2.655-0.841-3.25-2.054-0.595 1.213-1.82 2.054-3.25 2.054-2.010 0-3.64-1.647-3.64-3.68 0-0.015 0-0.030 0-0.045 0-0.007 0-0.013 0-0.020v-6.045c0-0.435 0.349-0.789 0.78-0.789s0.78 0.353 0.78 0.788v3.091c0.59-0.416 1.307-0.659 2.080-0.659 1.43 0 2.654 0.841 3.25 2.053 0.595-1.212 1.82-2.053 3.25-2.053 2.010 0 3.639 1.647 3.639 3.679s-1.63 3.68-3.639 3.68zM25.388 22.108c0.259 0.347 0.191 0.842-0.153 1.104s-0.833 0.194-1.092-0.154l-1.588-2.124-1.588 2.124c-0.26 0.348-0.749 0.416-1.092 0.154s-0.412-0.757-0.153-1.104l1.855-2.481-1.855-2.482c-0.26-0.347-0.191-0.842 0.153-1.104s0.832-0.194 1.092 0.154l1.588 2.124 1.588-2.124c0.259-0.347 0.748-0.416 1.092-0.154s0.412 0.757 0.153 1.104l-1.855 2.482 1.855 2.481zM16.706 17.459c1.149 0 2.079 0.941 2.079 2.102s-0.93 2.103-2.079 2.103c-1.149 0-2.080-0.941-2.080-2.103s0.931-2.102 2.080-2.102zM10.206 17.459c1.149 0 2.080 0.941 2.080 2.102s-0.931 2.103-2.080 2.103c-1.149 0-2.080-0.941-2.080-2.103s0.931-2.102 2.080-2.102z"></path>
</symbol>
</defs>
</svg>
