<?xml version="1.0" encoding="UTF-8"?>
<svg width="268px" height="212px" viewBox="0 0 268 212" version="1.1" xmlns="http://www.w3.org/2000/svg" xmlns:xlink="http://www.w3.org/1999/xlink">
    <!-- Generator: Sketch 54.1 (76490) - https://sketchapp.com -->
    <title>illustration_unknowreason</title>
    <desc>Created with Sketch.</desc>
    <defs>
        <linearGradient x1="50%" y1="0%" x2="50%" y2="100%" id="linearGradient-1">
            <stop stop-color="#EBF6FB" offset="0%"></stop>
            <stop stop-color="#FFFFFF" offset="100%"></stop>
        </linearGradient>
        <path d="M1,16.0947283 L90.4164357,16.0947283 C90.9687204,16.0947283 91.4164357,16.5424435 91.4164357,17.0947283 L91.4164357,66.0613677 C91.4164357,66.6136525 90.9687204,67.0613677 90.4164357,67.0613677 L1,67.0613677 C0.44771525,67.0613677 6.76353751e-17,66.6136525 0,66.0613677 L0,17.0947283 C-6.76353751e-17,16.5424435 0.44771525,16.0947283 1,16.0947283 Z" id="path-2"></path>
        <filter x="-3.8%" y="-4.9%" width="107.7%" height="113.7%" filterUnits="objectBoundingBox" id="filter-3">
            <feOffset dx="0" dy="1" in="SourceAlpha" result="shadowOffsetOuter1"></feOffset>
            <feGaussianBlur stdDeviation="1" in="shadowOffsetOuter1" result="shadowBlurOuter1"></feGaussianBlur>
            <feColorMatrix values="0 0 0 0 0   0 0 0 0 0   0 0 0 0 0  0 0 0 0.0575747283 0" type="matrix" in="shadowBlurOuter1"></feColorMatrix>
        </filter>
        <path d="M1,1.24344979e-14 L90.4164357,1.22124533e-14 C90.9687204,1.21110002e-14 91.4164357,0.44771525 91.4164357,1 L91.4164357,12.4122735 C91.4164357,12.9645583 90.9687204,13.4122735 90.4164357,13.4122735 L1,13.4122735 C0.44771525,13.4122735 6.76353751e-17,12.9645583 0,12.4122735 L-2.22044605e-16,1 C-2.8967998e-16,0.44771525 0.44771525,1.25359509e-14 1,1.24344979e-14 Z" id="path-4"></path>
        <filter x="-3.8%" y="-18.6%" width="107.7%" height="152.2%" filterUnits="objectBoundingBox" id="filter-5">
            <feOffset dx="0" dy="1" in="SourceAlpha" result="shadowOffsetOuter1"></feOffset>
            <feGaussianBlur stdDeviation="1" in="shadowOffsetOuter1" result="shadowBlurOuter1"></feGaussianBlur>
            <feColorMatrix values="0 0 0 0 0   0 0 0 0 0   0 0 0 0 0  0 0 0 0.0575747283 0" type="matrix" in="shadowBlurOuter1"></feColorMatrix>
        </filter>
        <path d="M1,16.0947283 L90.4164357,16.0947283 C90.9687204,16.0947283 91.4164357,16.5424435 91.4164357,17.0947283 L91.4164357,66.0613677 C91.4164357,66.6136525 90.9687204,67.0613677 90.4164357,67.0613677 L1,67.0613677 C0.44771525,67.0613677 6.76353751e-17,66.6136525 0,66.0613677 L0,17.0947283 C-6.76353751e-17,16.5424435 0.44771525,16.0947283 1,16.0947283 Z" id="path-6"></path>
        <filter x="-3.8%" y="-4.9%" width="107.7%" height="113.7%" filterUnits="objectBoundingBox" id="filter-7">
            <feOffset dx="0" dy="1" in="SourceAlpha" result="shadowOffsetOuter1"></feOffset>
            <feGaussianBlur stdDeviation="1" in="shadowOffsetOuter1" result="shadowBlurOuter1"></feGaussianBlur>
            <feColorMatrix values="0 0 0 0 0   0 0 0 0 0   0 0 0 0 0  0 0 0 0.0575747283 0" type="matrix" in="shadowBlurOuter1"></feColorMatrix>
        </filter>
        <path d="M1,1.24344979e-14 L90.4164357,1.22124533e-14 C90.9687204,1.21110002e-14 91.4164357,0.44771525 91.4164357,1 L91.4164357,12.4122735 C91.4164357,12.9645583 90.9687204,13.4122735 90.4164357,13.4122735 L1,13.4122735 C0.44771525,13.4122735 6.76353751e-17,12.9645583 0,12.4122735 L0,1 C-6.76353751e-17,0.44771525 0.44771525,1.25359509e-14 1,1.24344979e-14 Z" id="path-8"></path>
        <filter x="-3.8%" y="-18.6%" width="107.7%" height="152.2%" filterUnits="objectBoundingBox" id="filter-9">
            <feOffset dx="0" dy="1" in="SourceAlpha" result="shadowOffsetOuter1"></feOffset>
            <feGaussianBlur stdDeviation="1" in="shadowOffsetOuter1" result="shadowBlurOuter1"></feGaussianBlur>
            <feColorMatrix values="0 0 0 0 0   0 0 0 0 0   0 0 0 0 0  0 0 0 0.0575747283 0" type="matrix" in="shadowBlurOuter1"></feColorMatrix>
        </filter>
    </defs>
    <g id="R1.6---Empty-Bookmark---Ouyang" stroke="none" stroke-width="1" fill="none" fill-rule="evenodd">
        <g id="R1.6---Empty-Bookmark" transform="translate(-855.000000, -2378.000000)">
            <g id="Get-Started-Copy-6" transform="translate(672.000000, 2331.000000)">
                <g id="illustration_unknowreason" transform="translate(183.000000, 47.000000)">
                    <rect id="Rectangle" x="0" y="0" width="268" height="212"></rect>
                    <g id="Group-14">
                        <g id="Group-15">
                            <g id="Group-2" fill="url(#linearGradient-1)" fill-rule="nonzero">
                                <g id="Group-7">
                                    <path d="M146.543418,210.506834 C204.52195,210.506834 184.604037,175.769984 223.093262,126.288136 C238.067444,107.037288 276.884477,103.438422 266.029412,53.8033898 C256.188017,8.80338983 188.236575,0 155.942038,0 C116.365067,0 78.5233226,9.24609375 55.326574,38.9375 C30.148013,71.1655892 41.6787109,87 12.105124,115 C-6.69300265,132.797893 -0.143983575,173.351148 12.105124,190.799784 C31.1396441,217.914119 111.266386,210.506834 146.543418,210.506834 Z" id="Oval"></path>
                                </g>
                            </g>
                            <g id="Right-Shelf/Empty-Image/Pinned" transform="translate(21.000000, 66.000000)">
                                <g id="Group-20" transform="translate(123.382979, 0.081081)">
                                    <g id="Rectangle" fill-rule="nonzero">
                                        <use fill="black" fill-opacity="1" filter="url(#filter-3)" xlink:href="#path-2"></use>
                                        <use fill="#FFFFFF" xlink:href="#path-2"></use>
                                    </g>
                                    <g id="Rectangle-Copy" fill-rule="nonzero">
                                        <use fill="black" fill-opacity="1" filter="url(#filter-5)" xlink:href="#path-4"></use>
                                        <use fill="#FFFFFF" xlink:href="#path-4"></use>
                                    </g>
                                    <ellipse id="Oval" fill="#F8E3DD" cx="6.72179674" cy="6.70613677" rx="2.6887187" ry="2.68245471"></ellipse>
                                    <ellipse id="Oval-Copy" fill="#FCE9CD" cx="16.1323122" cy="6.70613677" rx="2.6887187" ry="2.68245471"></ellipse>
                                    <ellipse id="Oval-Copy-2" fill="#DDF8DF" cx="25.5428276" cy="6.70613677" rx="2.6887187" ry="2.68245471"></ellipse>
                                </g>
                                <g id="Group-20-Copy" transform="translate(24.659574, 0.081081)">
                                    <g id="Rectangle" fill-rule="nonzero">
                                        <use fill="black" fill-opacity="1" filter="url(#filter-7)" xlink:href="#path-6"></use>
                                        <use fill="#FFFFFF" xlink:href="#path-6"></use>
                                    </g>
                                    <g id="Rectangle-Copy" fill-rule="nonzero">
                                        <use fill="black" fill-opacity="1" filter="url(#filter-9)" xlink:href="#path-8"></use>
                                        <use fill="#FFFFFF" xlink:href="#path-8"></use>
                                    </g>
                                    <ellipse id="Oval" fill="#F8E3DD" cx="6.72179674" cy="6.70613677" rx="2.6887187" ry="2.68245471"></ellipse>
                                    <ellipse id="Oval-Copy" fill="#FCE9CD" cx="16.1323122" cy="6.70613677" rx="2.6887187" ry="2.68245471"></ellipse>
                                    <ellipse id="Oval-Copy-2" fill="#DDF8DF" cx="25.5428276" cy="6.70613677" rx="2.6887187" ry="2.68245471"></ellipse>
                                </g>
                                <path d="M160.12766,29.027027 L182.351374,29.027027 C182.903659,29.027027 183.351374,29.4747423 183.351374,30.027027 L183.351374,49.5664923 C183.351374,50.118777 182.903659,50.5664923 182.351374,50.5664923 L160.12766,50.5664923 C159.575375,50.5664923 159.12766,50.118777 159.12766,49.5664923 L159.12766,30.027027 C159.12766,29.4747423 159.575375,29.027027 160.12766,29.027027 Z" id="Rectangle-Copy-4" fill="#E0EDF5"></path>
                                <path d="M58,29.027027 L80.3777162,29.027027 C80.9300009,29.027027 81.3777162,29.4747423 81.3777162,30.027027 L81.3777162,49.3647349 C81.3777162,49.9170197 80.9300009,50.3647349 80.3777162,50.3647349 L58,50.3647349 C57.4477153,50.3647349 57,49.9170197 57,49.3647349 L57,30.027027 C57,29.4747423 57.4477153,29.027027 58,29.027027 Z" id="Rectangle-Copy-8" fill="#F8E3DD"></path>
                                <g id="Group-2-Copy" transform="translate(118.939274, 93.434033) rotate(-1.000000) translate(-118.939274, -93.434033) translate(90.005392, 55.066861)"></g>
                                <path d="M131,81 C137.043575,80.8175511 141.774932,78.0582078 145.194072,72.72197 C148.613213,67.3857323 153.881855,64.8151845 161,65.0103267" id="Path-2-Copy-3" stroke="#82D1ED" stroke-width="2" transform="translate(146.000000, 73.000000) scale(1, -1) translate(-146.000000, -73.000000) "></path>
                                <path d="M69.9148936,42.6486486 L70.3651557,71.7569154 C70.4242968,75.5802362 73.5405402,78.6486486 77.3643183,78.6486486 L89.3401994,78.6486486" id="Path-29" stroke="#42526E" stroke-width="6" stroke-linejoin="round"></path>
                                <path d="M131,80 C135.356307,77.6039945 139.837345,75.7813324 144.443113,74.5320137 C149.048881,73.282695 154.23451,74.2336916 160,77.3850033" id="Path-2-Copy-4" stroke="#FFD800" stroke-width="2" transform="translate(145.500000, 77.000000) scale(1, -1) translate(-145.500000, -77.000000) "></path>
                                <path d="M70.220805,46.9640566 C72.8221583,46.9640566 74.9309718,44.8545307 74.9309718,42.2522986 C74.9309718,39.6500665 72.8221583,37.5405405 70.220805,37.5405405 C67.6194518,37.5405405 65.5106383,39.6500665 65.5106383,42.2522986 C65.5106383,44.8545307 67.6194518,46.9640566 70.220805,46.9640566 Z" id="Oval" stroke="#42526E" stroke-width="2" fill="#F5F5F5"></path>
                                <path d="M131,80 C136.09815,84.4221217 140.967059,85.9109693 145.606728,84.466543 C150.246397,83.0221166 154.377488,83.0221166 158,84.466543" id="Path-2-Copy-5" stroke="#F97802" stroke-width="2" transform="translate(144.500000, 82.500000) scale(1, -1) translate(-144.500000, -82.500000) "></path>
                                <path d="M158,42.6486486 L158.450262,71.7569154 C158.509403,75.5802362 161.625647,78.6486486 165.449425,78.6486486 L171.952401,78.6486486" id="Path-29-Copy" stroke="#42526E" stroke-width="6" stroke-linejoin="round" transform="translate(164.976201, 60.648649) scale(-1, 1) translate(-164.976201, -60.648649) "></path>
                                <path d="M172.348465,46.9640566 C174.949818,46.9640566 177.058631,44.8545307 177.058631,42.2522986 C177.058631,39.6500665 174.949818,37.5405405 172.348465,37.5405405 C169.747111,37.5405405 167.638298,39.6500665 167.638298,42.2522986 C167.638298,44.8545307 169.747111,46.9640566 172.348465,46.9640566 Z" id="Oval-Copy-4" stroke="#42526E" stroke-width="2" fill="#F5F5F5"></path>
                                <path d="" id="Path-40" stroke="#979797"></path>
                                <g id="Group-2-Copy" transform="translate(25.500000, 91.000000) scale(-1, 1) translate(-25.500000, -91.000000) translate(0.000000, 36.000000)" fill-rule="nonzero">
                                    <path d="M33.3664846,10.8740745 C31.1551368,14.4487636 30.2407952,17.0496519 30.6234596,18.6767394 C31.0061241,20.3038269 33.188322,21.2341601 37.1700532,21.4677391 L43.0217128,13.7090551 L33.3664846,10.8740745 Z" id="Path-14" fill="#F1DAD5"></path>
                                    <path d="M32.8084079,9.44094315 C35.1081548,7.25774644 37.6447107,6.88733172 40.4180755,8.32969898 C43.1914403,9.77206625 43.7491876,12.9772805 42.0913175,17.9453418 C39.5923602,21.2876664 37.4390609,22.2513978 35.6314195,20.836536 C34.8941143,20.2594387 34.7045396,19.6675822 34.4926028,19.0417087 C34.2874922,18.4359937 34.4383902,17.4728163 34.9452968,16.1521764 C34.1520933,16.4269545 33.6153189,16.5643436 33.3349736,16.5643436 C33.0546283,16.5643436 32.9792955,16.2940274 33.1089753,15.753395 L34.1875082,14.4224103 C33.268108,12.6736802 32.8084079,11.4092384 32.8084079,10.6290848 C32.8084079,9.84893123 32.8084079,9.45288401 32.8084079,9.44094315 Z" id="Path-15" fill="#42526E"></path>
                                    <path d="M32.4301373,12.7658004 C31.3101982,14.1639328 30.5910367,14.862999 30.2726529,14.862999 C29.9542691,14.862999 30.3138499,15.1728532 31.3513951,15.7925617 L32.4301373,12.7658004 Z" id="Path-16" fill="#F1DAD5"></path>
                                    <path d="M24.0018773,9.15227489 C16.4181932,19.7255075 12.6263512,24.6811001 12.6263512,24.0190526 C12.6263512,23.0259813 7.49380827,10.1795427 7.49380827,9.26525489 C7.49380827,8.65572969 7.81866323,7.26006927 8.46837315,5.07827363 C8.51388226,4.50459013 8.51388226,4.12363843 8.46837315,3.93541855 C8.39191832,3.61921103 8.09287159,3.37885033 8.04199998,3.37885033 C7.96592893,3.37885033 7.91665331,3.74832694 7.69815065,4.78308245 C7.65942776,4.96646114 7.59131363,5.16287505 7.49380827,5.3723242 C6.65749319,4.60238448 6.0883552,3.87541519 5.78639432,3.19141632 C5.27922849,2.0425892 5.768281,1.08244073 5.27922849,1.08244073 C5.02432132,1.08244073 3.8605928,2.96847315 3.201842,3.19141632 C2.54309121,3.41435948 4.23113959,6.11423164 4.23113959,6.72473354 C4.23113959,6.88549068 4.97114949,7.66366216 4.97114949,8.64609818 C4.97114949,10.7320965 7.77932229,25.750564 8.62636884,27.4477594 C9.52140118,29.2411022 10.0160253,30.3260705 12.610215,30.6445969 C14.3396748,30.8569479 20.2872012,24.6701702 30.4527941,12.0842639 L24.0018773,9.15227489 Z" id="Path-20" fill="#F1DAD5" transform="translate(16.751045, 15.866161) rotate(83.000000) translate(-16.751045, -15.866161) "></path>
                                    <path d="M48.0751567,31.6830585 C50.0019818,35.5742593 50.9653943,38.4688757 50.9653943,40.3669077 C50.9653943,43.2139557 49.6832037,55.6568057 50.472153,58.0165945 C50.9981193,59.589787 50.9981193,62.0329264 50.472153,65.3460127 L48.0751567,66.4908136 C47.6567558,65.8393691 47.4250123,65.2465424 47.3799261,64.7123335 C47.33484,64.1781247 47.4261989,63.3429816 47.6540029,62.2069042 C47.4494702,62.3019868 47.2209908,62.4553653 46.9685646,62.6670395 C46.7758054,62.8286794 46.7137831,63.2780328 46.4879212,63.6479677 C46.4413121,63.7243079 46.3207165,63.7876087 46.1261344,63.8378699 C45.9470931,60.8409145 46.0676888,58.9822296 46.4879212,58.2618153 C46.5275446,58.193888 46.6515369,57.9733341 46.684228,57.8822054 C47.44071,55.7734637 45.6082125,40.3418522 45.9420504,39.7620616 C46.1742267,39.358831 45.326871,37.7007584 43.3999833,34.7878439 L48.0751567,31.6830585 Z" id="Path-19" fill="#F1DAD5"></path>
                                    <path d="M22.8875329,21.0799931 C26.5923143,22.1904104 30.8249348,22.4850279 35.5853943,21.9638457 C40.3458538,21.4426635 43.7072579,22.7774365 45.6696066,25.9681648 C44.8899582,31.2883827 44.0697564,34.5370525 43.2090013,35.7141743 C41.9178686,37.479857 42.0381733,49.7465177 41.7597285,49.7465177 C41.4812837,49.7465177 32.6084361,54.6607145 23.8421535,47.3207058 C24.3690237,43.3054142 25.6454789,39.4351729 26.4204337,35.7141743 C26.6480327,34.6213423 26.8049904,33.0113504 26.8913069,30.8841989 C22.0740605,30.3858102 19.7631724,29.7130895 19.9586427,28.8660366 C20.1541129,28.0189838 21.1304097,25.4236359 22.8875329,21.0799931 Z" id="Path-17" fill="#FFC400"></path>
                                    <path d="M45.6780154,26.0078811 C47.6898525,28.8251118 48.695771,30.7218779 48.695771,31.6981796 C48.695771,32.5032006 47.6377874,33.8562689 45.1750197,35.3847583 C44.8256918,35.6015648 44.1881563,35.8810455 43.262413,36.2232005 L42.6434422,35.7332794 L45.6780154,26.0078811 Z" id="Path-18" fill="#FFC400"></path>
                                    <path d="M32.8084079,62.8437633 C34.0512718,83.0508978 35.3281531,95.1124759 36.6390519,99.0284977 C38.7765393,99.0284977 40.3997322,98.4516773 41.5086306,97.2980365 C40.4996759,88.7267223 39.9452267,82.6748036 39.8452831,79.1422805 C39.5416561,68.4105424 40.5154486,60.9445343 40.6869516,57.7049329 C40.7475136,56.5609494 41.556234,51.882621 40.6869516,50.8292806 C39.850869,49.8161695 37.2246878,49.584058 32.8084079,50.1329462 L32.8084079,62.8437633 Z" id="Path-22" fill="#FFAB00"></path>
                                    <path d="M23.9859896,47.3194994 C22.167809,51.6211897 20.9903182,55.3992502 20.4535172,58.6536808 C17.5795508,76.0775015 16.9210448,93.0287113 16.9210448,100.555074 C19.2760264,101.5464 20.994836,101.5464 22.0774737,100.555074 C24.1657963,85.8965335 25.7687729,76.4205755 26.8864033,72.1272003 C28.7653797,64.9091164 31.7614834,62.0202853 32.3484754,61.6869162 C33.0837159,61.2693525 35.4884601,59.3870104 37.5317834,57.0278481 C40.1186728,54.0411 42.2656555,50.3890706 41.2524243,49.0711878 C40.0433852,47.4986227 34.287907,46.9147265 23.9859896,47.3194994 Z" id="Path-21" fill="#FFAB00"></path>
                                    <path d="M36.1987739,97.910489 C39.9285023,96.465094 41.9611246,96.0435277 42.2966406,96.6457899 C42.6321567,97.2480522 42.9999376,99.2643679 43.3999833,102.694737 L40.3781091,103.645535 L40.3781091,102.311748 C39.0933955,103.328755 38.0413625,104.027328 37.2220101,104.407469 C35.4783819,105.216431 33.3495854,105.838711 31.011409,105.838711 C30.0442328,105.838711 29.4137442,105.74591 29.1199431,105.560308 C28.5085295,105.174063 30.8721569,103.690425 36.2108253,101.109396 L36.1987739,97.910489 Z" id="Path-23" fill="#42526E"></path>
                                    <path d="M15.9886163,100.094615 C19.141461,99.1926632 20.9101708,98.8630103 21.2947456,99.1056563 C21.6793204,99.3483024 21.8599232,101.362369 21.8365538,105.147856 L18.7911077,105.838373 L18.7859342,104.836524 C17.5131257,105.684724 16.3799545,106.275996 15.3864208,106.610343 C14.1987668,107.010015 13.3026589,107.613419 11.2375415,107.884571 C10.144794,108.028051 7.72394644,108.244908 7.50237676,107.993165 C7.12765985,107.56742 9.51728034,106.092357 14.6712382,103.567974 L15.9886163,100.094615 Z" id="Path-23-Copy" fill="#42526E" transform="translate(14.651421, 103.568640) rotate(13.000000) translate(-14.651421, -103.568640) "></path>
                                </g>
                                <path d="M89,79 C95.0435746,78.8175511 99.7749321,76.0582078 103.194072,70.72197 C106.613213,65.3857323 111.881855,62.8151845 119,63.0103267" id="Path-2" stroke="#F97802" stroke-width="2"></path>
                                <path d="M89,78 C93.356307,75.6039945 97.8373446,73.7813324 102.443113,72.5320137 C107.048881,71.282695 112.23451,72.2336916 118,75.3850033" id="Path-2-Copy" stroke="#54BFE6" stroke-width="2"></path>
                                <path d="M89,78 C94.0981497,82.4221217 98.9670591,83.9109693 103.606728,82.466543 C108.246397,81.0221166 112.377488,81.0221166 116,82.466543" id="Path-2-Copy-2" stroke="#FFD800" stroke-width="2"></path>
                            </g>
                        </g>
                    </g>
                </g>
            </g>
        </g>
    </g>
</svg>
