<?xml version="1.0" encoding="UTF-8"?>
<svg width="400px" height="320px" viewBox="0 0 400 320" version="1.1" xmlns="http://www.w3.org/2000/svg" xmlns:xlink="http://www.w3.org/1999/xlink">
    <!-- Generator: Sketch 53.2 (72643) - https://sketchapp.com -->
    <title>Group 2</title>
    <desc>Created with Sketch.</desc>
    <defs>
        <linearGradient x1="50%" y1="0%" x2="50%" y2="100%" id="linearGradient-1">
            <stop stop-color="#EBF6FB" offset="0%"></stop>
            <stop stop-color="#FFFFFF" offset="100%"></stop>
        </linearGradient>
        <path d="M2,0 L198,0 C199.104569,-2.02906125e-16 200,0.8954305 200,2 L200,29.25 C200,30.3545695 199.104569,31.25 198,31.25 L2,31.25 C0.8954305,31.25 1.3527075e-16,30.3545695 0,29.25 L0,2 C-1.3527075e-16,0.8954305 0.8954305,2.02906125e-16 2,0 Z" id="path-2"></path>
        <filter x="-1.8%" y="-8.0%" width="103.5%" height="122.4%" filterUnits="objectBoundingBox" id="filter-3">
            <feOffset dx="0" dy="1" in="SourceAlpha" result="shadowOffsetOuter1"></feOffset>
            <feGaussianBlur stdDeviation="1" in="shadowOffsetOuter1" result="shadowBlurOuter1"></feGaussianBlur>
            <feColorMatrix values="0 0 0 0 0   0 0 0 0 0   0 0 0 0 0  0 0 0 0.0575747283 0" type="matrix" in="shadowBlurOuter1"></feColorMatrix>
        </filter>
        <path d="M115,57 L261,57 C262.104569,57 263,57.8954305 263,59 L263,86 C263,87.1045695 262.104569,88 261,88 L115,88 C113.895431,88 113,87.1045695 113,86 L113,59 C113,57.8954305 113.895431,57 115,57 Z" id="path-4"></path>
        <filter x="-2.3%" y="-8.1%" width="104.7%" height="122.6%" filterUnits="objectBoundingBox" id="filter-5">
            <feOffset dx="0" dy="1" in="SourceAlpha" result="shadowOffsetOuter1"></feOffset>
            <feGaussianBlur stdDeviation="1" in="shadowOffsetOuter1" result="shadowBlurOuter1"></feGaussianBlur>
            <feColorMatrix values="0 0 0 0 0   0 0 0 0 0   0 0 0 0 0  0 0 0 0.0575747283 0" type="matrix" in="shadowBlurOuter1"></feColorMatrix>
        </filter>
        <path d="M2,0 L148,0 C149.104569,-2.02906125e-16 150,0.8954305 150,2 L150,29.25 C150,30.3545695 149.104569,31.25 148,31.25 L2,31.25 C0.8954305,31.25 1.3527075e-16,30.3545695 0,29.25 L0,2 C-1.3527075e-16,0.8954305 0.8954305,2.02906125e-16 2,0 Z" id="path-6"></path>
        <filter x="-2.3%" y="-8.0%" width="104.7%" height="122.4%" filterUnits="objectBoundingBox" id="filter-7">
            <feOffset dx="0" dy="1" in="SourceAlpha" result="shadowOffsetOuter1"></feOffset>
            <feGaussianBlur stdDeviation="1" in="shadowOffsetOuter1" result="shadowBlurOuter1"></feGaussianBlur>
            <feColorMatrix values="0 0 0 0 0   0 0 0 0 0   0 0 0 0 0  0 0 0 0.0575747283 0" type="matrix" in="shadowBlurOuter1"></feColorMatrix>
        </filter>
        <path d="M2,0 L198,0 C199.104569,-2.02906125e-16 200,0.8954305 200,2 L200,29.25 C200,30.3545695 199.104569,31.25 198,31.25 L2,31.25 C0.8954305,31.25 1.3527075e-16,30.3545695 0,29.25 L0,2 C-1.3527075e-16,0.8954305 0.8954305,2.02906125e-16 2,0 Z" id="path-8"></path>
        <filter x="-1.8%" y="-8.0%" width="103.5%" height="122.4%" filterUnits="objectBoundingBox" id="filter-9">
            <feOffset dx="0" dy="1" in="SourceAlpha" result="shadowOffsetOuter1"></feOffset>
            <feGaussianBlur stdDeviation="1" in="shadowOffsetOuter1" result="shadowBlurOuter1"></feGaussianBlur>
            <feColorMatrix values="0 0 0 0 0   0 0 0 0 0   0 0 0 0 0  0 0 0 0.0575747283 0" type="matrix" in="shadowBlurOuter1"></feColorMatrix>
        </filter>
        <path d="M37.0915733,29.9070326 L36.0020364,29.9070326 L35.6233057,30.2830189 C36.9612131,31.8432247 37.7749352,33.8658662 37.7749352,36.0819897 C37.7749352,41.0082333 33.7817963,45.0013722 28.8555527,45.0013722 C23.9293091,45.0013722 19.9361702,41.0082333 19.9361702,36.0819897 C19.9361702,31.1557461 23.9293091,27.1626072 28.8555527,27.1626072 C31.0716762,27.1626072 33.0929455,27.9749571 34.6531513,29.3114923 L35.031882,28.935506 L35.031882,27.8487136 L41.8902011,21 L43.9361702,23.0459691 L37.0915733,29.9070326 L37.0915733,29.9070326 Z M28.8555527,29.9070326 C25.444232,29.9070326 22.6805956,32.670669 22.6805956,36.0819897 C22.6805956,39.4919383 25.444232,42.2569468 28.8555527,42.2569468 C32.2655013,42.2569468 35.0305098,39.4919383 35.0305098,36.0819897 C35.0305098,32.670669 32.2655013,29.9070326 28.8555527,29.9070326 L28.8555527,29.9070326 Z" id="path-10"></path>
        <polygon id="path-12" points="202.957447 108.486486 243.170213 108.486486 243.170213 137.168919 202.957447 137.168919"></polygon>
    </defs>
    <g id="S17---VxD---Helena" stroke="none" stroke-width="1" fill="none" fill-rule="evenodd">
        <g id="Search-result---No-result" transform="translate(-360.000000, -518.000000)">
            <g id="Group-11" transform="translate(160.000000, 389.000000)">
                <g id="Group-2" transform="translate(200.000000, 129.000000)">
                    <rect id="Rectangle" fill="#FFFFFF" x="0" y="0" width="400" height="320"></rect>
                    <g id="Group" transform="translate(12.000000, 12.000000)">
                        <path d="M193.91345,293.393227 C276.163637,293.393227 321.531305,263.338703 321.531305,181.088516 C321.531305,165.072806 390.518362,147.391129 373.215188,78.3612913 C358.054767,17.8798209 223.404655,47.6752676 178.423489,41.0627855 C119.130828,32.3464337 96.4978877,-5.67689465 63.6203352,0.721576449 C2.59053562,12.5989024 44.9863126,80.2742481 44.9863126,144.46609 C44.9863126,176.671159 -14.1819548,241.515477 3.19501812,265.877723 C30.1979926,303.735473 143.868332,293.393227 193.91345,293.393227 Z" id="Oval" fill="url(#linearGradient-1)" fill-rule="nonzero"></path>
                        <g id="Group-10" transform="translate(50.000000, 213.000000)">
                            <g id="Rectangle" fill-rule="nonzero">
                                <use fill="black" fill-opacity="1" filter="url(#filter-3)" xlink:href="#path-2"></use>
                                <use fill="#FFFFFF" xlink:href="#path-2"></use>
                            </g>
                            <path d="M12,6.25 L28,6.25 C29.1045695,6.25 30,7.1454305 30,8.25 L30,24.25 C30,25.3545695 29.1045695,26.25 28,26.25 L12,26.25 C10.8954305,26.25 10,25.3545695 10,24.25 L10,8.25 C10,7.1454305 10.8954305,6.25 12,6.25 Z" id="Rectangle-Copy-4" fill="#F5F5F5"></path>
                            <g id="Group-9" transform="translate(33.750000, 7.500000)" fill="#E0EDF5" fill-rule="nonzero">
                                <polygon id="Rectangle-22-Copy-3" points="0 -8.52651283e-14 151.25 -8.52651283e-14 151.25 4.78040541 0 4.78040541"></polygon>
                                <polygon id="Rectangle-22-Copy" points="3.55271368e-14 11.25 40.6914894 11.25 40.6914894 16.0304054 3.55271368e-14 16.0304054"></polygon>
                            </g>
                        </g>
                        <g id="Rectangle" fill-rule="nonzero">
                            <use fill="black" fill-opacity="1" filter="url(#filter-5)" xlink:href="#path-4"></use>
                            <use fill="#FFFFFF" xlink:href="#path-4"></use>
                        </g>
                        <g id="Group-6" transform="translate(50.000000, 106.000000)">
                            <g id="Rectangle" fill-rule="nonzero">
                                <use fill="black" fill-opacity="1" filter="url(#filter-7)" xlink:href="#path-6"></use>
                                <use fill="#FFFFFF" xlink:href="#path-6"></use>
                            </g>
                            <g id="Group-5" transform="translate(33.750000, 8.750000)" fill="#E0EDF5" fill-rule="nonzero">
                                <polygon id="Rectangle-22-Copy-3" points="-1.63424829e-13 -8.52651283e-14 62.2340426 -8.52651283e-14 62.2340426 4.78040541 -1.63424829e-13 4.78040541"></polygon>
                                <polygon id="Rectangle-22-Copy" opacity="0.5" points="-1.95399252e-14 10 35.9042553 10 35.9042553 14.7804054 -1.95399252e-14 14.7804054"></polygon>
                            </g>
                            <path d="M20,6.25 L20,6.25 C25.5228475,6.25 30,10.7271525 30,16.25 L30,16.25 C30,21.7728475 25.5228475,26.25 20,26.25 L20,26.25 C14.4771525,26.25 10,21.7728475 10,16.25 L10,16.25 C10,10.7271525 14.4771525,6.25 20,6.25 Z" id="Rectangle-Copy-3" fill="#E0EDF5"></path>
                        </g>
                        <g id="Group-8" transform="translate(95.000000, 157.000000)">
                            <g id="Rectangle" fill-rule="nonzero">
                                <use fill="black" fill-opacity="1" filter="url(#filter-9)" xlink:href="#path-8"></use>
                                <use fill="#FFFFFF" xlink:href="#path-8"></use>
                            </g>
                            <path d="M12,6.25 L28,6.25 C29.1045695,6.25 30,7.1454305 30,8.25 L30,24.25 C30,25.3545695 29.1045695,26.25 28,26.25 L12,26.25 C10.8954305,26.25 10,25.3545695 10,24.25 L10,8.25 C10,7.1454305 10.8954305,6.25 12,6.25 Z" id="Rectangle-Copy-7" fill="#FCE9CD"></path>
                            <g id="Group-7" transform="translate(33.750000, 7.500000)" fill="#E0EDF5" fill-rule="nonzero">
                                <polygon id="Rectangle-22-Copy-3" points="0 -8.52651283e-14 143.75 -8.52651283e-14 143.75 4.78040541 0 4.78040541"></polygon>
                                <polygon id="Rectangle-22-Copy" opacity="0.5" points="3.55271368e-14 11.25 40.6914894 11.25 40.6914894 16.0304054 3.55271368e-14 16.0304054"></polygon>
                            </g>
                        </g>
                        <g id="Group-3" transform="translate(178.063830, 100.000000)">
                            <path d="M32,0.837837838 L32,0.837837838 C49.673112,0.837837838 64,15.1647258 64,32.8378378 L64,32.8378378 C64,50.5109498 49.673112,64.8378378 32,64.8378378 L32,64.8378378 C14.326888,64.8378378 2.164332e-15,50.5109498 0,32.8378378 L0,32.8378378 C-2.164332e-15,15.1647258 14.326888,0.837837838 32,0.837837838 Z" id="Rectangle-Copy" fill="#6A5CC8"></path>
                            <mask id="mask-11" fill="white">
                                <use xlink:href="#path-10"></use>
                            </mask>
                            <use id="Mask" fill="#FFFFFF" transform="translate(31.936170, 33.000686) scale(1, -1) translate(-31.936170, -33.000686) " xlink:href="#path-10"></use>
                        </g>
                        <path d="M133,63 L133,63 C138.522847,63 143,67.4771525 143,73 L143,73 C143,78.5228475 138.522847,83 133,83 L133,83 C127.477153,83 123,78.5228475 123,73 L123,73 C123,67.4771525 127.477153,63 133,63 Z" id="Rectangle" fill="#F8E3DD"></path>
                        <g id="Group-4" transform="translate(147.000000, 66.000000)" fill="#E0EDF5" fill-rule="nonzero">
                            <polygon id="Rectangle-22-Copy-3" points="0 0 62 0 62 5 0 5"></polygon>
                            <polygon id="Rectangle-22-Copy" opacity="0.5" points="0 10 36 10 36 15 0 15"></polygon>
                        </g>
                        <path d="M219.831878,158.202703 C217.118095,162.719336 215.996007,166.005568 216.465616,168.061399 C216.935225,170.11723 219.613236,171.29271 224.499648,171.587838 L231.680851,161.784711 L219.831878,158.202703 Z" id="Path-14" fill="#F1DAD5" fill-rule="nonzero"></path>
                        <path d="M218.276596,156.802636 C221.294854,154.118712 224.623908,153.663341 228.263757,155.436522 C231.903607,157.209704 232.635611,161.15005 230.459772,167.257561 C227.180063,171.366465 224.354007,172.551233 221.981603,170.811865 C221.013941,170.102408 220.765137,169.374806 220.486985,168.605385 C220.217791,167.860746 220.415835,166.676659 221.081114,165.053124 C220.04009,165.390924 219.335611,165.559824 218.967677,165.559824 C218.599743,165.559824 218.500874,165.227509 218.67107,164.56288 L220.086569,162.926628 C218.87992,160.776817 218.276596,159.222369 218.276596,158.263284 C218.276596,157.304198 218.276596,156.817315 218.276596,156.802636 Z" id="Path-15" fill="#42526E" fill-rule="nonzero"></path>
                        <path d="M218.276596,160.114865 C217.331697,161.88141 216.724936,162.764683 216.456314,162.764683 C216.187692,162.764683 216.491072,163.156185 217.366455,163.939189 L218.276596,160.114865 Z" id="Path-16" fill="#F1DAD5" fill-rule="nonzero"></path>
                        <path d="M211.041323,174.513229 C203.233886,171.868261 199.330083,170.142788 199.329915,169.336811 C199.329662,168.127846 194.360243,155.955741 194.36001,154.842686 C194.359855,154.10065 194.756252,152.401655 195.549199,149.745701 C195.604634,149.04731 195.604537,148.583539 195.548908,148.354388 C195.455452,147.969418 195.09016,147.676726 195.02803,147.676713 C194.935123,147.676694 194.875035,148.126483 194.608437,149.386139 C194.561191,149.609375 194.478052,149.848472 194.35902,150.10343 C193.337417,149.165893 192.642134,148.280736 192.27317,147.447958 C191.653467,146.049247 192.250511,144.880486 191.653222,144.880362 C191.557899,144.880342 191.503487,147.997606 191.579578,149.099429 C190.793979,149.662698 189.97538,150.414072 189.975535,151.157297 C189.975576,151.353003 191.278634,152.892266 191.278884,154.088284 C191.279414,156.62778 192.017762,166.6044 192.644247,168.84865 C192.933521,169.884912 193.619772,172.509314 196.270816,174.754366 C197.97655,176.198875 201.779584,178.388638 207.67992,181.323654 L211.041323,174.513229 Z" id="Path-20" fill="#F1DAD5" fill-rule="nonzero" transform="translate(200.508429, 163.102008) rotate(-1.000000) translate(-200.508429, -163.102008) "></path>
                        <path d="M243.719811,174.519619 C237.908078,171.736581 235.002203,169.942069 235.002187,169.136084 C235.002162,167.927107 248.906624,163.718339 249.958463,163.279252 C251.010303,162.840164 250.996975,162.649574 251.926168,161.866948 C252.57815,161.317806 253.20685,161.343493 253.123472,160.999779 C253.030089,160.614822 252.313285,160.810698 252.137325,160.915845 C251.961365,161.020992 251.74398,161.265567 251.213079,161.469283 C250.669459,161.67788 253.029601,159.08123 252.800844,158.507652 C252.654623,158.141023 251.264158,157.625577 250.669329,157.667171 C250.526269,157.677175 250.386479,157.544342 249.610086,158.297218 C248.833692,159.050095 249.043,159.009015 248.608017,159.612935 C248.135326,160.269207 247.557983,161.381369 246.545855,161.601053 C243.965514,162.161119 227.690621,166.405022 228.316677,168.649176 C228.605752,169.685393 229.291501,172.309692 231.942097,174.554268 C233.647541,175.998471 236.452561,178.257296 240.357157,181.330744 L243.719811,174.519619 Z" id="Path-20-Copy" fill="#F1DAD5" fill-rule="nonzero" transform="translate(240.715011, 169.497326) scale(-1, 1) rotate(4.000000) translate(-240.715011, -169.497326) "></path>
                        <path d="M208.3746,171.587838 C212.787416,172.92029 217.828948,173.273818 223.499196,172.648422 C229.169444,172.023026 233.173258,173.624695 235.510638,177.453428 C234.111962,183.572617 233.135008,187.470877 232.579778,189.14821 C231.746932,191.664209 231.185189,205.986403 230.853529,205.986403 C230.52187,205.986403 219.9533,211.883222 209.511662,203.075535 C210.139224,198.257363 211.659627,193.613244 212.582686,189.14821 C212.853783,187.836859 213.040737,185.90494 213.14355,183.352452 C207.405662,182.754408 204.653132,181.947173 204.885959,180.930747 C205.118786,179.914321 206.281667,176.800018 208.3746,171.587838 Z" id="Path-17" fill="#FFC400" fill-rule="nonzero"></path>
                        <path d="M218.276596,222.423462 C220.064089,231.579214 221.247025,238.005399 221.825404,241.702015 C223.764735,254.096931 224.592581,262.022978 225.70421,265.283784 C228.327639,265.283784 230.319853,264.588607 231.680851,263.198252 C231.131195,252.710459 230.795035,245.337884 230.67237,241.080529 C230.299715,228.146765 230.461877,219.38544 230.67237,215.481111 C230.7467,214.102395 231.739277,208.464129 230.67237,207.194656 C229.64621,205.973666 226.422986,205.693928 221.002698,206.355442 L218.276596,222.423462 Z" id="Path-22" fill="#FFAB00" fill-rule="nonzero"></path>
                        <path d="M209.846097,204.243947 C207.580484,209.41309 206.113226,213.953011 205.444325,217.863711 C201.86311,238.801114 201.042553,259.170601 201.042553,268.214685 C203.977068,269.405916 206.118856,269.405916 207.467918,268.214685 C210.070152,250.600192 212.067602,239.21337 213.460268,234.054219 C215.801638,225.38058 219.535047,221.909204 220.266491,221.50861 C221.182665,221.006843 224.179188,218.744919 226.725349,215.910023 C229.948841,212.320985 232.624171,207.93251 231.361596,206.34887 C229.855026,204.459191 222.683193,203.75755 209.846097,204.243947 Z" id="Path-21" fill="#FFAB00" fill-rule="nonzero"></path>
                        <path d="M200.675386,267.90167 C204.526271,266.800728 206.68642,266.397808 207.155831,266.69291 C207.625243,266.988012 207.844027,269.440118 207.812183,274.049229 L204.092632,274.89264 L204.08719,273.672825 C202.532158,274.706678 201.147869,275.427583 199.934323,275.83554 C198.48367,276.323206 197.38886,277.058674 194.866805,277.390625 C193.53227,277.566275 190.575862,277.832428 190.305512,277.526108 C189.848298,277.008061 192.767673,275.209983 199.063635,272.131873 L200.675386,267.90167 Z" id="Path-23-Copy" fill="#42526E" fill-rule="nonzero" transform="translate(199.037149, 272.132752) rotate(13.000000) translate(-199.037149, -272.132752) "></path>
                        <path d="M224.638348,262.3046 C228.489233,261.203658 230.649382,260.800738 231.118793,261.09584 C231.588205,261.390942 231.806989,263.843048 231.775145,268.452159 L228.055594,269.29557 L228.050152,268.075755 C226.49512,269.109608 225.110831,269.830513 223.897285,270.23847 C222.446632,270.726136 221.351822,271.461604 218.829767,271.793555 C217.495233,271.969205 214.538824,272.235358 214.268474,271.929038 C213.81126,271.410991 216.730635,269.612913 223.026597,266.534803 L224.638348,262.3046 Z" id="Path-23-Copy-2" fill="#42526E" fill-rule="nonzero" transform="translate(223.000111, 266.535682) rotate(13.000000) translate(-223.000111, -266.535682) "></path>
                        <path d="M241.180736,173.5 C240.103757,173.673159 239.03556,173.84862 237.976144,174.026382 C236.916728,174.204144 234.179999,174.028684 229.765957,173.5 L232.278851,184.972973 C235.773105,184.731654 238.264996,184.441388 239.754524,184.102176 C241.244052,183.762963 242.382615,183.342664 243.170213,182.84128 L241.180736,173.5 Z" id="Path-2" fill="#FFC400"></path>
                        <mask id="mask-13" fill="white">
                            <use xlink:href="#path-12"></use>
                        </mask>
                        <g id="Clip-2"></g>
                    </g>
                </g>
            </g>
        </g>
    </g>
</svg>