<?xml version="1.0" encoding="UTF-8"?>
<svg viewBox="null" version="1.1" xmlns="http://www.w3.org/2000/svg" xmlns:xlink="http://www.w3.org/1999/xlink">
<title>search</title>
<path d="M21.185 18.963h-1.17l-0.415-0.4c1.452-1.689 2.326-3.881 2.326-6.267 0-5.319-4.311-9.63-9.63-9.63s-9.63 4.311-9.63 9.63c0 5.319 4.311 9.63 9.63 9.63 2.385 0 4.578-0.874 6.267-2.326l0.4 0.415v1.17l7.407 7.393 2.207-2.207-7.393-7.407zM12.296 18.963c-3.689 0-6.667-2.978-6.667-6.667s2.978-6.667 6.667-6.667c3.689 0 6.667 2.978 6.667 6.667s-2.978 6.667-6.667 6.667z"></path>
</svg>
