<?xml version="1.0" encoding="UTF-8"?>
<svg   viewBox="0 0 32 32" version="1.1" xmlns="http://www.w3.org/2000/svg" xmlns:xlink="http://www.w3.org/1999/xlink">
<title>unlock</title>
<path d="M24.498 13.335h-10.496v-3.555c0-3.929-3.134-7.113-7.001-7.113s-7.001 3.184-7.001 7.113h3.502c0-1.963 1.567-3.555 3.499-3.555s3.499 1.592 3.499 3.555v3.555c-1.932 0-3.833 1.592-3.833 3.555v8.889c0 1.963 1.898 3.555 3.83 3.555h14.005c1.932 0 3.499-1.592 3.499-3.555v-8.889c0-1.963-1.564-3.555-3.502-3.555zM19.251 23.527v0.476c0 0.985-0.785 1.776-1.748 1.776-0.969 0-1.748-0.798-1.748-1.776v-0.476c-1.047-0.617-1.748-1.763-1.748-3.079h-0.003c0-1.963 1.567-3.555 3.499-3.555s3.499 1.592 3.499 3.555c-0.003 1.313-0.707 2.465-1.751 3.079z"></path>
</svg>
