<?xml version="1.0" encoding="UTF-8"?>
<svg   viewBox="0 0 32 32" version="1.1" xmlns="http://www.w3.org/2000/svg" xmlns:xlink="http://www.w3.org/1999/xlink">
<title>bubble_lines</title>
<path d="M28.021 2.667c0.729 0 1.352 0.253 1.869 0.758s0.776 1.104 0.776 1.796v13.075c0 0.692-0.259 1.291-0.776 1.796s-1.131 0.758-1.841 0.758h-2.099v-12.402c0-0.542-0.095-1.119-0.488-1.493s-0.722-0.651-2.129-0.651h-14.667v-1.083c0-0.692 0.259-1.291 0.776-1.796s1.141-0.758 1.869-0.758h16.709zM22.184 7.515c0.655 0 1.21 0.222 1.663 0.667s0.689 0.982 0.709 1.612v13.424c0 0.611-0.231 1.14-0.694 1.584s-1.022 0.667-1.677 0.667h-5.090c0 0 0 0.005 0 0.014s-0.010 0.014-0.029 0.014l-3.47 3.585c-0.154 0.167-0.342 0.25-0.564 0.25s-0.41-0.074-0.564-0.222l-3.673-3.613c0 0-0.005-0.005-0.014-0.014s-0.014-0.014-0.014-0.014h-5.090c-0.636 0-1.186-0.222-1.648-0.667s-0.694-0.982-0.694-1.612v-13.424c0-0.611 0.231-1.14 0.694-1.584s1.012-0.667 1.648-0.667h18.508z"></path>
</svg>
