<?xml version="1.0" encoding="UTF-8"?>
<svg viewBox="null" version="1.1" xmlns="http://www.w3.org/2000/svg" xmlns:xlink="http://www.w3.org/1999/xlink">
<title>call-add</title>
<path d="M26.471 14.346h-9.125v-8.818c0-0.826-0.672-1.503-1.5-1.503-0.832 0-1.5 0.672-1.5 1.503v8.818h-8.818c-0.827 0-1.503 0.672-1.503 1.5 0 0.832 0.672 1.5 1.503 1.5h8.818v9.126c0 0.826 0.672 1.503 1.5 1.503 0.831 0 1.5-0.672 1.5-1.503v-9.126h9.125c0.827 0 1.503-0.671 1.503-1.5-0-0.831-0.672-1.5-1.503-1.5l0-0z"></path>
</svg>
