<?xml version="1.0" encoding="UTF-8"?>
<svg viewBox="null" version="1.1" xmlns="http://www.w3.org/2000/svg" xmlns:xlink="http://www.w3.org/1999/xlink">
<title>blocked</title>
<path d="M8.408 10.57c-1.096 1.53-1.741 3.405-1.741 5.43 0 5.155 4.179 9.333 9.333 9.333 2.026 0 3.9-0.645 5.43-1.741l-13.022-13.022zM11.382 7.887l12.731 12.731c0.777-1.362 1.221-2.938 1.221-4.618 0-5.155-4.179-9.333-9.333-9.333-1.68 0-3.256 0.444-4.618 1.221zM16 2.667c7.36 0 13.333 5.973 13.333 13.333s-5.973 13.333-13.333 13.333c-7.36 0-13.333-5.973-13.333-13.333s5.973-13.333 13.333-13.333z"></path>
</svg>
