<?xml version="1.0" encoding="UTF-8"?>
<svg   viewBox="0 0 32 32" version="1.1" xmlns="http://www.w3.org/2000/svg" xmlns:xlink="http://www.w3.org/1999/xlink">
<title>ppt</title>
<path fill="#d94d1f" style="fill: var(--color12, #d94d1f)" d="M3.556 0h24.889c1.964 0 3.556 1.592 3.556 3.556v24.889c0 1.964-1.592 3.556-3.556 3.556h-24.889c-1.964 0-3.556-1.592-3.556-3.556v-24.889c0-1.964 1.592-3.556 3.556-3.556z"></path>
<path fill="#fff" style="fill: var(--color2, #fff)" d="M12.699 18.733v7.044h-3.294v-18.958h7.253c1.102 0 2.081 0.15 2.936 0.449s1.578 0.718 2.168 1.256c0.59 0.538 1.040 1.176 1.348 1.914s0.462 1.541 0.462 2.409c0 0.92-0.154 1.745-0.462 2.474s-0.757 1.345-1.348 1.849c-0.59 0.503-1.313 0.89-2.168 1.159s-1.834 0.404-2.936 0.404h-3.958zM12.699 16.090h3.958c0.634 0 1.178-0.078 1.634-0.234s0.831-0.378 1.126-0.664c0.295-0.286 0.51-0.627 0.645-1.022s0.202-0.827 0.202-1.296c0-0.443-0.067-0.868-0.202-1.276s-0.349-0.77-0.645-1.087c-0.295-0.317-0.671-0.569-1.126-0.755s-1-0.28-1.634-0.28h-3.958v6.615z"></path>
</svg>
