<?xml version="1.0" encoding="UTF-8"?>
<svg   viewBox="0 0 32 32" version="1.1" xmlns="http://www.w3.org/2000/svg" xmlns:xlink="http://www.w3.org/1999/xlink">
<title>comment</title>
<path d="M25.549 5.333c0.677 0 1.25 0.217 1.719 0.652s0.712 0.96 0.732 1.576v13.126c0 0.598-0.239 1.114-0.717 1.549s-1.056 0.652-1.733 0.652h-5.26v0.014c0 0.009-0.010 0.014-0.030 0.014l-3.587 3.506c-0.159 0.163-0.354 0.245-0.583 0.245s-0.423-0.072-0.583-0.217l-3.826-3.56h-5.26c-0.658 0-1.225-0.217-1.704-0.652s-0.717-0.96-0.717-1.576v-13.126c0-0.598 0.239-1.114 0.717-1.549s1.046-0.652 1.704-0.652h19.128zM18.667 14.667h-9.333c-0.736 0-1.333 0.597-1.333 1.333s0.597 1.333 1.333 1.333v0h9.333c0.736 0 1.333-0.597 1.333-1.333s-0.597-1.333-1.333-1.333v0zM22.667 9.333h-13.333c-0.736 0-1.333 0.597-1.333 1.333 0 0.684 0.515 1.247 1.178 1.324l0.155 0.009h13.333c0.736 0 1.333-0.597 1.333-1.333s-0.597-1.333-1.333-1.333z"></path>
</svg>
