<?xml version="1.0" encoding="UTF-8"?>
<svg viewBox="null" version="1.1" xmlns="http://www.w3.org/2000/svg" xmlns:xlink="http://www.w3.org/1999/xlink">
<title>dashboard_border</title>
<path d="M4.667 18.667c-1.105 0-2-0.895-2-2v-12c0-1.105 0.895-2 2-2h8c1.105 0 2 0.895 2 2v12c0 1.105-0.895 2-2 2h-8zM4.667 29.333c-1.105 0-2-0.895-2-2v-4c0-1.105 0.895-2 2-2h8c1.105 0 2 0.895 2 2v4c0 1.105-0.895 2-2 2h-8zM19.333 29.333c-1.105 0-2-0.895-2-2v-22.667c0-1.105 0.895-2 2-2h8c1.105 0 2 0.895 2 2v22.667c0 1.105-0.895 2-2 2h-8zM5.8 16.667h5.733c0.626 0 1.133-0.507 1.133-1.133v-9.733c0-0.626-0.507-1.133-1.133-1.133h-5.733c-0.626 0-1.133 0.507-1.133 1.133v9.733c0 0.626 0.507 1.133 1.133 1.133zM5.467 27.333h6.4c0.442 0 0.8-0.358 0.8-0.8v-2.4c0-0.442-0.358-0.8-0.8-0.8h-6.4c-0.442 0-0.8 0.358-0.8 0.8v2.4c0 0.442 0.358 0.8 0.8 0.8zM20.467 27.333h5.733c0.626 0 1.133-0.507 1.133-1.133v-20.4c0-0.626-0.507-1.133-1.133-1.133h-5.733c-0.626 0-1.133 0.507-1.133 1.133v20.4c0 0.626 0.507 1.133 1.133 1.133z"></path>
</svg>
