<?xml version="1.0" encoding="UTF-8"?>
<svg viewBox="null" version="1.1" xmlns="http://www.w3.org/2000/svg" xmlns:xlink="http://www.w3.org/1999/xlink">
<title>attachment</title>
<path d="M7.469 25.849c-2.847-2.868-2.847-7.51 0-10.378l9.833-9.907c2.070-2.085 5.422-2.085 7.492 0s2.070 5.463 0 7.548l-7.96 8.020c-1.292 1.302-3.39 1.302-4.682 0s-1.292-3.415 0-4.717l7.024-7.076 1.873 1.887-7.108 7.161c-0.515 0.519 0.421 1.462 0.937 0.944l8.044-8.105c1.030-1.038 1.030-2.736 0-3.774s-2.716-1.038-3.746 0l-9.833 9.907c-1.807 1.821-1.807 4.784 0 6.604s4.748 1.821 6.555 0l8.897-8.963 1.873 1.887-8.897 8.963c-2.847 2.868-7.454 2.868-10.301 0z"></path>
</svg>
