<?xml version="1.0" encoding="UTF-8"?>
<svg   viewBox="0 0 32 32" version="1.1" xmlns="http://www.w3.org/2000/svg" xmlns:xlink="http://www.w3.org/1999/xlink">
<title>8</title>
<path fill="#212121" style="fill: var(--color7, #212121)" d="M18.32 10.35c0 0.445-0.125 0.835-0.375 1.169s-0.588 0.583-1.014 0.747c0.492 0.172 0.886 0.441 1.181 0.809s0.442 0.791 0.442 1.271c0 0.789-0.257 1.392-0.77 1.808s-1.181 0.624-2.001 0.624c-0.836 0-1.509-0.208-2.019-0.624s-0.765-1.019-0.765-1.808c0-0.48 0.145-0.904 0.434-1.271s0.68-0.637 1.172-0.809c-0.426-0.164-0.76-0.413-1.002-0.747s-0.363-0.724-0.363-1.169c0-0.75 0.231-1.329 0.694-1.737s1.075-0.612 1.837-0.612c0.75 0 1.362 0.204 1.837 0.612s0.712 0.987 0.712 1.737zM17.406 14.322c0-0.469-0.154-0.854-0.463-1.154s-0.699-0.451-1.172-0.451c-0.48 0-0.87 0.15-1.169 0.451s-0.448 0.686-0.448 1.154c0 0.484 0.148 0.864 0.445 1.14s0.691 0.413 1.184 0.413c0.48 0 0.871-0.139 1.172-0.416s0.451-0.656 0.451-1.137zM17.166 10.373c0-0.422-0.132-0.771-0.395-1.049s-0.597-0.416-0.999-0.416c-0.41 0-0.742 0.134-0.996 0.401s-0.381 0.622-0.381 1.063c0 0.434 0.128 0.781 0.384 1.043s0.591 0.393 1.005 0.393c0.406 0 0.738-0.131 0.996-0.393s0.387-0.609 0.387-1.043z"></path>
<path fill="#9e9e9e" style="fill: var(--color4, #9e9e9e)" d="M14.264 20.378h-1.143v3.176h-0.481v-3.176h-1.14v-0.378h2.764v0.378zM17.384 20v2.41c0 0.387-0.126 0.684-0.377 0.889s-0.58 0.308-0.985 0.308c-0.391 0-0.708-0.103-0.951-0.309s-0.365-0.502-0.365-0.887v-2.41h0.481v2.41c0 0.269 0.076 0.472 0.229 0.612s0.355 0.209 0.605 0.209c0.264 0 0.476-0.070 0.638-0.209s0.243-0.343 0.243-0.612v-2.41h0.481zM19.225 22.671l0.081 0.281h0.015l0.081-0.281 0.918-2.671h0.52l-1.321 3.555h-0.413l-1.321-3.555h0.522l0.918 2.671z"></path>
</svg>
