<?xml version="1.0" encoding="UTF-8"?>
<svg   viewBox="0 0 32 32" version="1.1" xmlns="http://www.w3.org/2000/svg" xmlns:xlink="http://www.w3.org/1999/xlink">
<title>chat_bubble</title>
<path d="M26.61 4c0.753 0 1.389 0.255 1.91 0.766s0.791 1.128 0.814 1.851v15.416c0 0.702-0.266 1.309-0.797 1.819s-1.173 0.766-1.926 0.766h-5.845c0 0 0 0.005 0 0.016s-0.011 0.016-0.033 0.016l-3.985 4.117c-0.177 0.192-0.393 0.287-0.648 0.287s-0.47-0.085-0.648-0.255l-4.218-4.149c0 0-0.006-0.005-0.017-0.016s-0.017-0.016-0.017-0.016h-5.845c-0.731 0-1.362-0.255-1.893-0.766s-0.797-1.128-0.797-1.851v-15.416c0-0.702 0.266-1.309 0.797-1.819s1.162-0.766 1.893-0.766h21.254z"></path>
</svg>
