<?xml version="1.0" encoding="UTF-8"?>
<svg viewBox="null" version="1.1" xmlns="http://www.w3.org/2000/svg" xmlns:xlink="http://www.w3.org/1999/xlink">
<title>hand-up</title>
<path d="M26.893 20.95c-0.146 0-0.243 0-0.386-0.050-1.645-0.29-4.551-1.209-5.42-1.937l-0.146-0.097-0.050-0.146c-0.339-0.629-0.243-1.259-0.146-1.695 0.097-0.533 0.097-0.629-0.097-0.822v0c0 0-0.58-0.339-3.922-0.386h-1.452c-3.292 0.050-3.872 0.386-3.872 0.386-0.193 0.193-0.193 0.29-0.146 0.822 0.050 0.436 0.146 1.065-0.243 1.695l-0.097 0.146-0.097 0.097c-0.919 0.726-3.872 1.598-5.567 1.888-0.097 0.050-0.193 0.050-0.339 0.050-0.339 0-0.919-0.146-1.452-0.969-0.822-1.308-1.258-4.355 0.050-5.906l0.097-0.097c1.888-2.034 6.146-3.243 11.423-3.243h2.081c5.373 0 9.632 1.258 11.423 3.339 1.355 1.598 0.775 4.888-0.339 6.243-0.48 0.535-1.013 0.681-1.303 0.681v0z"></path>
</svg>
