<?xml version="1.0" encoding="UTF-8"?>
<svg   viewBox="0 0 32 32" version="1.1" xmlns="http://www.w3.org/2000/svg" xmlns:xlink="http://www.w3.org/1999/xlink">
<title>mention</title>
<path d="M16 22.75c-3.726 0-6.75-3.024-6.75-6.75s3.024-6.75 6.75-6.75c3.726 0 6.75 3.024 6.75 6.75v1.716c0 0.559 0.541 1.134 1.050 1.134s1.050-0.575 1.050-1.134v-1.716c0-4.794-4.056-8.85-8.85-8.85s-8.85 4.056-8.85 8.85c0 4.794 4.056 8.85 8.85 8.85h6.75v3.9h-6.75c-7.038 0-12.75-5.712-12.75-12.75s5.712-12.75 12.75-12.75c7.038 0 12.75 5.712 12.75 12.75v1.716c0 2.79-2.183 5.034-4.95 5.034-1.36 0-2.674-0.542-3.616-1.451-1.172 0.929-2.64 1.451-4.184 1.451zM16 18.85c1.578 0 2.85-1.272 2.85-2.85s-1.272-2.85-2.85-2.85c-1.578 0-2.85 1.272-2.85 2.85s1.272 2.85 2.85 2.85z"></path>
</svg>
