<?xml version="1.0" encoding="UTF-8"?>
<svg   viewBox="0 0 32 32" version="1.1" xmlns="http://www.w3.org/2000/svg" xmlns:xlink="http://www.w3.org/1999/xlink">
<title>info</title>
<path d="M16 10.667c-0.727 0-1.333-0.606-1.333-1.333 0-0.739 0.606-1.333 1.333-1.333 0.739 0 1.333 0.594 1.333 1.333 0 0.727-0.594 1.333-1.333 1.333zM14.667 24v-12h2.667v12h-2.667zM27.111 16c0-6.137-4.975-11.111-11.111-11.111s-11.111 4.975-11.111 11.111c0 6.137 4.975 11.111 11.111 11.111s11.111-4.975 11.111-11.111zM2.667 16c0-7.364 5.969-13.333 13.333-13.333s13.333 5.969 13.333 13.333c0 7.364-5.969 13.333-13.333 13.333s-13.333-5.969-13.333-13.333z"></path>
</svg>
