<?xml version="1.0" encoding="UTF-8"?>
<svg   viewBox="0 0 32 32" version="1.1" xmlns="http://www.w3.org/2000/svg" xmlns:xlink="http://www.w3.org/1999/xlink">
<title>external_link</title>
<path d="M22.485 8.667h-2.152c-0.92 0-1.667-0.746-1.667-1.667s0.746-1.667 1.667-1.667h6c0.92 0 1.667 0.746 1.667 1.667v6c0 0.92-0.746 1.667-1.667 1.667s-1.667-0.746-1.667-1.667v-1.801l-5.131 5.131c-0.651 0.651-1.706 0.651-2.357 0s-0.651-1.706 0-2.357l5.307-5.307zM22.963 24.296v-5.185h3.704v6.519c0 1.31-1.061 2.37-2.37 2.37h-16.593c-1.31 0-2.37-1.061-2.37-2.37v-16.593c0-1.31 1.061-2.37 2.37-2.37h6.519v3.704h-5.185v13.926h13.926z"></path>
</svg>
