<?xml version="1.0" encoding="UTF-8"?>
<svg viewBox="null" version="1.1" xmlns="http://www.w3.org/2000/svg" xmlns:xlink="http://www.w3.org/1999/xlink">
<title>contacts</title>
<path d="M17.067 31.937h-0.063c-0.146 0.042-0.308 0.063-0.486 0.063h-1.129c-0.199 0-0.413-0.021-0.643-0.063-2.071-0.146-4.005-0.669-5.804-1.569-1.799-0.878-3.357-2.034-4.675-3.467s-2.363-3.080-3.137-4.941c-0.753-1.861-1.129-3.848-1.129-5.961 0-2.196 0.418-4.267 1.255-6.212s1.976-3.644 3.42-5.098c1.443-1.454 3.137-2.599 5.082-3.435s4.026-1.255 6.243-1.255c2.217 0 4.298 0.418 6.243 1.255s3.639 1.982 5.082 3.435c1.443 1.454 2.583 3.153 3.42 5.098s1.255 4.016 1.255 6.212c0 2.133-0.387 4.131-1.161 5.992-0.774 1.882-1.835 3.535-3.184 4.957s-2.923 2.573-4.722 3.451c-1.82 0.899-3.775 1.412-5.867 1.537zM25.6 25.6c0.375-0.33-3.27-1.387-3.965-1.632s-2.074-1.017-2.497-1.671c-0.325-0.603-0.317-0.629-0.388-1.118 0-0.682 0-1.061 0-1.136s0.047-0.153 0.141-0.235c0.305-0.303 0.564-0.716 0.775-1.24 0.141-0.349 0.393-1.053 0.758-2.113l0.581-0.14c0.070-0.023 0.147-0.099 0.229-0.227s0.147-0.285 0.194-0.471c0.070-0.21 0.1-0.384 0.088-0.524s-0.018-0.244-0.018-0.314l-0.423-0.14 0.070-0.559c0.446-1.537 0.658-2.922 0.634-4.156s-0.258-2.154-0.705-2.759c-0.188-0.233-0.405-0.407-0.652-0.524s-0.546-0.175-0.899-0.175h-0.282l-0.141-0.070c-0.188-0.093-0.335-0.192-0.44-0.297s-0.194-0.215-0.264-0.332c-0.117-0.14-0.264-0.256-0.44-0.349s-0.617-0.14-1.321-0.14h-0.211c-0.963 0-1.791 0.128-2.484 0.384s-1.251 0.64-1.674 1.152c-0.634 0.745-1.028 1.729-1.18 2.951s-0.065 2.683 0.264 4.383l0.070 0.559-0.352 0.070c-0.047 0.070-0.070 0.175-0.070 0.314s0.024 0.314 0.070 0.524c0.024 0.256 0.1 0.454 0.229 0.594s0.217 0.221 0.264 0.244h0.423c0.321 1.187 0.568 1.944 0.74 2.27 0.258 0.489 0.529 0.873 0.81 1.152 0.059 0.047 0.088 0.119 0.088 0.218 0 0.148 0.006 1.199-0.018 1.432-0.047 0.279-0.141 0.547-0.282 0.803s-0.329 0.501-0.564 0.733c-0.258 0.256-0.881 0.769-1.762 0.903s-4.861 1.418-4.598 1.632c0.263 0.215 4.781 4.007 9.6 4s9.225-3.67 9.6-4z"></path>
</svg>
