<?xml version="1.0" encoding="UTF-8"?>
<svg   viewBox="0 0 43 32" version="1.1" xmlns="http://www.w3.org/2000/svg" xmlns:xlink="http://www.w3.org/1999/xlink">
<title>transfer-call</title>
<path fill="#fff" style="fill: var(--color1, #fff)" d="M21.423 21.844c0 0.302-0.014 0.485-0.041 0.548s-0.217 0.132-0.57 0.208c-0.57 0.126-1.147 0.214-1.731 0.264s-1.174 0.101-1.772 0.151c-0.923 0.050-1.86 0.088-2.81 0.113s-1.887 0.050-2.81 0.076c-1.629 0.025-3.245 0.025-4.847 0s-3.217-0.126-4.847-0.302c-0.244-0.025-0.502-0.069-0.774-0.132s-0.543-0.12-0.815-0.17c-0.081-0.025-0.149-0.069-0.204-0.132s-0.122-0.12-0.204-0.17v-0.945c0-0.025 0.007-0.050 0.020-0.076s0.020-0.063 0.020-0.113l0.081-0.453c0.027-0.151 0.068-0.315 0.122-0.491 0.163-0.504 0.421-0.945 0.774-1.322s0.76-0.705 1.222-0.982c0.462-0.277 0.944-0.51 1.446-0.699s0.998-0.384 1.487-0.586c0.462-0.176 0.91-0.365 1.344-0.567l1.303-0.605c0.054-0.025 0.095-0.063 0.122-0.113s0.041-0.113 0.041-0.189v-1.096c0-0.076-0.014-0.139-0.041-0.189s-0.068-0.088-0.122-0.113c-0.299-0.227-0.563-0.472-0.794-0.737s-0.441-0.548-0.631-0.85c-0.38-0.68-0.618-1.373-0.713-2.078s-0.061-1.436 0.102-2.191c0.136-0.63 0.367-1.222 0.692-1.776s0.747-1.045 1.263-1.474c0.923-0.756 1.975-1.115 3.156-1.077s2.193 0.447 3.034 1.228c0.652 0.605 1.127 1.266 1.425 1.984s0.462 1.48 0.489 2.286c0 0.957-0.177 1.832-0.529 2.626s-0.937 1.492-1.751 2.097c-0.027 0.025-0.054 0.057-0.081 0.094s-0.041 0.082-0.041 0.132v1.171c0 0.050 0.014 0.101 0.041 0.151s0.068 0.088 0.122 0.113c0.407 0.176 0.808 0.353 1.201 0.529s0.794 0.353 1.201 0.529c0.489 0.201 0.977 0.39 1.466 0.567s0.964 0.378 1.425 0.605c0.462 0.201 0.876 0.46 1.242 0.775s0.658 0.699 0.876 1.152c0.19 0.353 0.312 0.718 0.367 1.096s0.068 0.756 0.041 1.134zM42.466 28.553c0.163 0.352 0.271 0.717 0.325 1.095s0.081 0.755 0.081 1.133c0 0.302-0.014 0.478-0.041 0.529s-0.217 0.113-0.569 0.189c-0.569 0.151-1.153 0.252-1.749 0.302s-1.193 0.088-1.79 0.113c-0.922 0.050-1.851 0.094-2.786 0.132s-1.878 0.069-2.827 0.094c-1.6 0.025-3.207 0.019-4.82-0.019s-3.22-0.145-4.82-0.321c-0.271-0.025-0.542-0.063-0.814-0.113s-0.529-0.113-0.773-0.189c-0.081-0.025-0.156-0.069-0.224-0.132s-0.142-0.12-0.224-0.17v-0.906c0.027-0.025 0.041-0.057 0.041-0.094s0.014-0.069 0.041-0.094c0.027-0.151 0.054-0.308 0.081-0.472s0.054-0.321 0.081-0.472c0.163-0.503 0.42-0.95 0.773-1.34s0.773-0.724 1.261-1.001c0.461-0.252 0.942-0.472 1.444-0.661s0.997-0.396 1.485-0.623c0.434-0.176 0.868-0.365 1.302-0.566s0.868-0.39 1.302-0.566c0.081-0.025 0.136-0.063 0.163-0.113s0.041-0.113 0.041-0.189c-0.027-0.201-0.041-0.39-0.041-0.566s0.014-0.365 0.041-0.566c0-0.050-0.014-0.101-0.041-0.151s-0.068-0.101-0.122-0.151c-0.298-0.201-0.569-0.441-0.814-0.717s-0.461-0.566-0.651-0.868c-0.38-0.68-0.617-1.372-0.712-2.077s-0.061-1.422 0.102-2.152c0.163-0.654 0.4-1.252 0.712-1.793s0.739-1.038 1.281-1.491c0.895-0.73 1.932-1.082 3.112-1.057s2.203 0.441 3.071 1.246c0.624 0.579 1.085 1.227 1.383 1.944s0.461 1.491 0.488 2.322c0.027 0.931-0.142 1.793-0.508 2.586s-0.956 1.504-1.769 2.133c-0.027 0-0.047 0.025-0.061 0.076s-0.020 0.088-0.020 0.113c-0.027 0.201-0.034 0.403-0.020 0.604s0.007 0.39-0.020 0.566c0 0.076 0.014 0.132 0.041 0.17s0.081 0.082 0.163 0.132c0.38 0.151 0.773 0.321 1.18 0.51s0.814 0.359 1.22 0.51c0.461 0.201 0.936 0.396 1.424 0.585s0.976 0.384 1.464 0.585c0.461 0.227 0.875 0.497 1.241 0.812s0.658 0.698 0.875 1.152zM15.887 3.163c-0.301 0.089-0.594 0.074-0.88-0.045s-0.489-0.327-0.609-0.624c-0.15-0.327-0.143-0.653 0.023-0.98s0.414-0.549 0.744-0.668c1.053-0.327 2.398-0.527 4.038-0.601s3.376 0.304 5.21 1.136c0.331 0.149 0.647 0.319 0.947 0.512s0.571 0.408 0.812 0.646l4.195-2.539-0.406 10.023c-0.030 0.297-0.188 0.505-0.474 0.624s-0.549 0.089-0.789-0.089l-8.12-4.633 3.203-1.96c-0.090-0.059-0.188-0.119-0.293-0.178s-0.218-0.119-0.338-0.178c-1.474-0.653-2.835-0.958-4.083-0.913s-2.308 0.2-3.18 0.468z"></path>
</svg>
