<?xml version="1.0" encoding="UTF-8"?>
<svg viewBox="null" version="1.1" xmlns="http://www.w3.org/2000/svg" xmlns:xlink="http://www.w3.org/1999/xlink">
<title>speaker</title>
<path d="M3.2 11.797c0-0.162 0.13-0.293 0.292-0.295h4.685v10.15h-4.685c-0.163 0-0.292-0.13-0.292-0.293v-9.563zM16.608 6.429c1.348 0 2.438 1.138 2.438 2.537v15.225c0 1.4-1.090 2.538-2.438 2.538l-7.297-5.065v-10.17l7.297-5.065zM23.692 11.152c0.633 0.832 1.657 2.598 1.657 5.307 0 2.753-1.055 4.71-1.672 5.62-0.21 0.31-0.65 0.365-0.933 0.113-0.235-0.21-0.275-0.558-0.1-0.815 0.163-0.24 0.367-0.575 0.57-0.997 0.405-0.837 0.887-2.197 0.887-3.92 0-2.375-0.895-3.887-1.402-4.55-0.183-0.24-0.168-0.58 0.038-0.803 0.262-0.285 0.72-0.262 0.955 0.045zM28.317 12.864c0.302 1.123 0.457 2.32 0.457 3.553 0 2.79-0.793 4.99-1.455 6.345-0.387 0.79-0.775 1.392-1.060 1.788-0.215 0.308-0.648 0.355-0.925 0.105-0.238-0.212-0.277-0.57-0.093-0.828 0.253-0.352 0.615-0.913 0.975-1.655 0.595-1.227 1.308-3.223 1.308-5.753 0-3.723-1.512-6.012-2.223-6.883-0.198-0.24-0.185-0.59 0.025-0.818 0.258-0.28 0.703-0.265 0.942 0.027 0.285 0.35 0.663 0.87 1.038 1.565 0.427 0.79 0.767 1.65 1.010 2.553z"></path>
</svg>
