<?xml version="1.0" encoding="UTF-8"?>
<svg viewBox="null" version="1.1" xmlns="http://www.w3.org/2000/svg" xmlns:xlink="http://www.w3.org/1999/xlink">
<title>signal-0</title>
<path d="M6.667 19.048c1.683 0 3.048-1.364 3.048-3.048s-1.364-3.048-3.048-3.048c-1.683 0-3.048 1.364-3.048 3.048s1.364 3.048 3.048 3.048zM6.667 20c-2.209 0-4-1.791-4-4s1.791-4 4-4c2.209 0 4 1.791 4 4s-1.791 4-4 4z"></path>
<path d="M16 19.048c1.683 0 3.048-1.364 3.048-3.048s-1.364-3.048-3.048-3.048c-1.683 0-3.048 1.364-3.048 3.048s1.364 3.048 3.048 3.048zM16 20c-2.209 0-4-1.791-4-4s1.791-4 4-4c2.209 0 4 1.791 4 4s-1.791 4-4 4z"></path>
<path d="M25.333 19.048c1.683 0 3.048-1.364 3.048-3.048s-1.364-3.048-3.048-3.048c-1.683 0-3.048 1.364-3.048 3.048s1.364 3.048 3.048 3.048zM25.333 20c-2.209 0-4-1.791-4-4s1.791-4 4-4c2.209 0 4 1.791 4 4s-1.791 4-4 4z"></path>
</svg>
