<?xml version="1.0" encoding="UTF-8"?>
<svg   viewBox="0 0 32 32" version="1.1" xmlns="http://www.w3.org/2000/svg" xmlns:xlink="http://www.w3.org/1999/xlink">
<title>emoji</title>
<path d="M20.667 14.667c1.105 0 2-0.895 2-2s-0.895-2-2-2c-1.105 0-2 0.895-2 2s0.895 2 2 2zM11.333 14.667c1.105 0 2-0.895 2-2s-0.895-2-2-2c-1.105 0-2 0.895-2 2s0.895 2 2 2zM15.987 2.667c-7.36 0-13.32 5.973-13.32 13.333s5.96 13.333 13.32 13.333c7.373 0 13.347-5.973 13.347-13.333s-5.973-13.333-13.347-13.333zM16 27.333c-6.262 0-11.333-5.072-11.333-11.333s5.072-11.333 11.333-11.333c6.262 0 11.333 5.072 11.333 11.333s-5.072 11.333-11.333 11.333zM16 21.333c-1.973 0-3.667-1.080-4.6-2.667h-2.227c1.067 2.733 3.72 4.667 6.827 4.667s5.76-1.933 6.827-4.667h-2.227c-0.92 1.587-2.627 2.667-4.6 2.667z"></path>
</svg>
