<?xml version="1.0" encoding="UTF-8"?>
<svg   viewBox="0 0 32 32" version="1.1" xmlns="http://www.w3.org/2000/svg" xmlns:xlink="http://www.w3.org/1999/xlink">
<title>read</title>
<path d="M12.75 19.833h11.549c2.096 0 3.771-1.719 3.771-3.808v-0.755l-3.265-4.419 3.266-4.725 0.001-0.714c0.003-2.092-1.673-3.812-3.77-3.812h-15.73c-2.093 0-3.771 1.719-3.771 3.808v22.313c0 1.106 0.603 1.795 1.371 2.199 0.312 0.164 0.633 0.265 0.988 0.337 0.474 0.097 1.039 0.143 1.615 0.143s1.141-0.046 1.615-0.143c0.356-0.073 0.676-0.173 0.988-0.337 0.769-0.404 1.371-1.093 1.371-2.199v-7.888zM8.775 27.2c-0.291 0-0.56-0.017-0.775-0.045v-21.746c0-0.341 0.264-0.608 0.571-0.608h15.73c0.237 0 0.446 0.156 0.53 0.384l-3.96 5.729 3.953 5.35c-0.088 0.22-0.294 0.371-0.526 0.371h-14.749v10.522c-0.215 0.028-0.483 0.045-0.775 0.045z"></path>
</svg>
