<?xml version="1.0" encoding="UTF-8"?>
<svg   viewBox="0 0 32 32" version="1.1" xmlns="http://www.w3.org/2000/svg" xmlns:xlink="http://www.w3.org/1999/xlink">
<title>double-chevron_right</title>
<path d="M13.723 6.277c0.525-0.525 1.373-0.537 1.912-0.026l9.277 8.781c0.018 0.017 0.035 0.034 0.052 0.052 0.506 0.535 0.483 1.379-0.052 1.885l-9.277 8.781c-0.539 0.511-1.387 0.499-1.912-0.026-0.521-0.521-0.521-1.366 0-1.887l6.503-6.503h-14.893c-0.736 0-1.333-0.597-1.333-1.333s0.597-1.333 1.333-1.333h14.893l-6.503-6.503c-0.521-0.521-0.521-1.366 0-1.887zM26.667 4c0.736 0 1.333 0.597 1.333 1.333v21.333c0 0.736-0.597 1.333-1.333 1.333s-1.333-0.597-1.333-1.333v-21.333c0-0.736 0.597-1.333 1.333-1.333z"></path>
</svg>
