<?xml version="1.0" encoding="UTF-8"?>
<svg   viewBox="0 0 39 32" version="1.1" xmlns="http://www.w3.org/2000/svg" xmlns:xlink="http://www.w3.org/1999/xlink">
<title>transfer-call</title>
<path d="M20.004 20.66c-0.015 0.596 0.080 0.57-0.578 0.733-1.071 0.274-2.177 0.353-3.275 0.414-1.752 0.099-3.507 0.175-5.262 0.205-3.009 0.049-6.018 0.046-9.012-0.312-0.502-0.061-0.995-0.186-1.486-0.315-0.144-0.038-0.258-0.19-0.388-0.293v-0.931c0.015-0.061 0.030-0.125 0.042-0.186 0.061-0.319 0.095-0.642 0.182-0.95 0.296-1.033 0.973-1.778 1.877-2.34 0.859-0.536 1.812-0.878 2.732-1.288 0.824-0.365 1.63-0.775 2.447-1.163 0.137-0.065 0.175-0.156 0.171-0.304-0.011-0.376-0.008-0.748 0-1.125 0-0.133-0.038-0.22-0.148-0.308-0.562-0.437-1.011-0.973-1.345-1.596-0.726-1.353-0.87-2.785-0.566-4.271 0.266-1.28 0.836-2.401 1.831-3.283 1.698-1.501 4.191-1.432 5.783 0.171 1.178 1.185 1.71 2.652 1.752 4.293 0.049 1.903-0.593 3.518-2.124 4.738-0.053 0.042-0.087 0.144-0.087 0.217-0.011 0.391 0 0.786-0.008 1.182-0.004 0.133 0.038 0.217 0.16 0.274 0.748 0.35 1.489 0.714 2.242 1.052 0.897 0.403 1.816 0.756 2.698 1.185 0.866 0.422 1.569 1.049 1.972 1.945 0.323 0.718 0.414 1.478 0.391 2.253zM38.511 27.202c0.323 0.718 0.414 1.478 0.395 2.249-0.015 0.593 0.080 0.57-0.581 0.737-1.071 0.274-2.177 0.353-3.275 0.414-1.752 0.099-3.507 0.175-5.262 0.205-3.009 0.049-6.018 0.046-9.012-0.312-0.502-0.061-0.995-0.186-1.486-0.315-0.144-0.038-0.258-0.19-0.388-0.293v-0.931c0.015-0.061 0.030-0.125 0.042-0.186 0.061-0.319 0.095-0.642 0.182-0.95 0.296-1.033 0.973-1.778 1.877-2.34 0.859-0.536 1.812-0.878 2.732-1.288 0.824-0.365 1.63-0.775 2.447-1.163 0.137-0.065 0.175-0.156 0.171-0.304-0.008-0.376-0.008-0.748 0-1.125 0-0.133-0.038-0.22-0.148-0.308-0.562-0.437-1.011-0.973-1.345-1.596-0.726-1.353-0.87-2.785-0.566-4.271 0.266-1.28 0.836-2.401 1.831-3.283 1.698-1.501 4.191-1.432 5.783 0.171 1.178 1.185 1.71 2.652 1.752 4.293 0.049 1.904-0.593 3.518-2.124 4.738-0.053 0.042-0.087 0.144-0.087 0.217-0.011 0.395 0 0.786-0.008 1.182-0.004 0.133 0.038 0.217 0.16 0.274 0.748 0.35 1.489 0.714 2.242 1.052 0.897 0.403 1.816 0.756 2.698 1.185 0.866 0.422 1.569 1.049 1.972 1.945zM16.087 2.761c-0.509 0.156-1.049-0.099-1.261-0.585-0.243-0.574 0.057-1.223 0.65-1.41 1.752-0.547 4.666-0.957 7.789 0.467 0.551 0.251 1.041 0.581 1.486 0.965l3.511-2.154-0.327 8.549c-0.076 0.509-0.657 0.76-1.079 0.471l-6.843-3.951 2.72-1.672c-0.179-0.11-0.357-0.209-0.543-0.296-2.485-1.14-4.643-0.836-6.102-0.384z"></path>
</svg>
