<?xml version="1.0" encoding="UTF-8"?>
<svg   viewBox="0 0 32 32" version="1.1" xmlns="http://www.w3.org/2000/svg" xmlns:xlink="http://www.w3.org/1999/xlink">
<title>default-music</title>
<path fill="#0684bd" style="fill: var(--color13, #0684bd)" d="M3.556 0h24.889c1.964 0 3.556 1.592 3.556 3.556v24.889c0 1.964-1.592 3.556-3.556 3.556h-24.889c-1.964 0-3.556-1.592-3.556-3.556v-24.889c0-1.964 1.592-3.556 3.556-3.556z"></path>
<path fill="#fff" style="fill: var(--color2, #fff)" d="M12.568 13.971v4.832c-0.432-0.264-0.938-0.418-1.481-0.418-1.571 0-2.845 1.269-2.845 2.834 0 1.566 1.274 2.835 2.845 2.835s2.843-1.269 2.844-2.835v-7.478c0-0.088 0.072-0.18 0.165-0.207l6.907-1.979c0.091-0.026 0.165 0.021 0.165 0.114v4.688c-0.432-0.264-0.938-0.418-1.481-0.418-1.571 0-2.845 1.269-2.845 2.833 0 1.566 1.273 2.835 2.845 2.835 1.479 0 2.695-1.128 2.83-2.569l0.014-7.92v-3.025c0-0.185-0.141-0.294-0.32-0.243l-9.321 2.671c-0.177 0.051-0.32 0.236-0.32 0.426v3.025z"></path>
</svg>
