<?xml version="1.0" encoding="UTF-8"?>
<svg   viewBox="0 0 32 32" version="1.1" xmlns="http://www.w3.org/2000/svg" xmlns:xlink="http://www.w3.org/1999/xlink">
<title>4</title>
<path fill="#212121" style="fill: var(--color7, #212121)" d="M17.48 13.66h1.178v0.902h-1.178v1.969h-1.148v-1.969h-3.832v-0.65l3.762-5.912h1.219v5.66zM13.73 13.66h2.602v-4.002l-0.035-0.006-0.111 0.293-2.455 3.715z"></path>
<path fill="#9e9e9e" style="fill: var(--color4, #9e9e9e)" d="M14.722 23.135c-0.085 0.13-0.232 0.25-0.441 0.359s-0.48 0.164-0.812 0.164c-0.425 0-0.776-0.136-1.053-0.408s-0.416-0.623-0.416-1.055v-0.732c0-0.431 0.129-0.783 0.388-1.055s0.592-0.408 1.001-0.408c0.407 0 0.727 0.1 0.959 0.3s0.352 0.458 0.356 0.774l-0.005 0.015h-0.459c-0.015-0.207-0.093-0.377-0.236-0.51s-0.348-0.2-0.616-0.2c-0.272 0-0.491 0.102-0.657 0.305s-0.249 0.461-0.249 0.774v0.737c0 0.316 0.093 0.576 0.278 0.78s0.422 0.306 0.708 0.306c0.202 0 0.367-0.027 0.496-0.081s0.221-0.115 0.276-0.183v-0.808h-0.779v-0.378h1.26v1.304zM18.243 23.606h-0.481v-1.57h-1.726v1.57h-0.481v-3.555h0.481v1.606h1.726v-1.606h0.481v3.555zM19.629 23.606h-0.483v-3.555h0.483v3.555z"></path>
</svg>
