<?xml version="1.0" encoding="UTF-8"?>
<svg   viewBox="0 0 37 32" version="1.1" xmlns="http://www.w3.org/2000/svg" xmlns:xlink="http://www.w3.org/1999/xlink">
<title>add-member_border</title>
<path fill="none" stroke="#757575" style="stroke: var(--color6, #757575)" stroke-linejoin="miter" stroke-linecap="butt" stroke-miterlimit="4" stroke-width="2.6667" d="M15.556 15.556c3.561 0 6.444-2.892 6.444-6.444 0-3.561-2.884-6.444-6.444-6.444s-6.444 2.884-6.444 6.444c0 3.553 2.884 6.444 6.444 6.444zM15.556 18.778c-4.294 0-12.889 2.151-12.889 6.444v3.222h25.778v-3.222c0-4.294-8.595-6.444-12.889-6.444z"></path>
<path fill="#757575" style="fill: var(--color6, #757575)" d="M31.644 18.606c-0.113-0.043-0.222-0.11-0.297-0.188-0.099-0.085-0.178-0.194-0.229-0.322-0.047-0.113-0.071-0.239-0.071-0.374v-3.456h-3.446c-0.119 0-0.234-0.020-0.341-0.057-0.125-0.044-0.237-0.115-0.333-0.211-0.092-0.092-0.16-0.203-0.203-0.324-0.038-0.106-0.057-0.225-0.057-0.351 0-0.123 0.020-0.239 0.059-0.346 0.043-0.11 0.102-0.208 0.195-0.314 0.096-0.096 0.201-0.167 0.314-0.212 0.115-0.047 0.238-0.071 0.364-0.071h3.446v-3.446c0-0.129 0.024-0.252 0.071-0.364 0.050-0.12 0.123-0.225 0.231-0.331 0.095-0.081 0.193-0.14 0.296-0.178 0.215-0.079 0.487-0.077 0.696-0.003 0.126 0.045 0.235 0.113 0.324 0.203 0.096 0.096 0.169 0.208 0.212 0.334 0.038 0.108 0.057 0.222 0.057 0.34v3.446h3.456c0.135 0 0.259 0.024 0.374 0.071 0.122 0.050 0.234 0.129 0.306 0.214 0.089 0.089 0.16 0.197 0.204 0.314 0.040 0.106 0.059 0.222 0.059 0.346 0 0.126-0.020 0.245-0.057 0.351-0.047 0.13-0.127 0.255-0.203 0.31-0.078 0.096-0.197 0.177-0.334 0.225-0.105 0.038-0.224 0.057-0.351 0.057h-3.456v3.456c0 0.126-0.020 0.244-0.057 0.35-0.047 0.132-0.127 0.256-0.203 0.31-0.079 0.096-0.198 0.177-0.334 0.225-0.108 0.038-0.225 0.057-0.351 0.057-0.119 0.001-0.235-0.020-0.343-0.060z"></path>
</svg>
