<?xml version="1.0" encoding="UTF-8"?>
<svg   viewBox="0 0 32 32" version="1.1" xmlns="http://www.w3.org/2000/svg" xmlns:xlink="http://www.w3.org/1999/xlink">
<title>settings</title>
<path d="M27.734 25.043c-1.329-0.471-2.847 0.565-2.752 1.978 0 0.283 0.095 0.565 0.19 0.754 0.38 1.036 0 2.072-0.949 2.637-1.139 0.659-2.372 1.13-3.701 1.507-1.044 0.283-2.088-0.188-2.562-1.225-0.474-1.13-1.898-1.601-2.942-1.036-0.38 0.283-0.759 0.565-0.854 1.036-0.38 0.848-1.234 1.413-2.088 1.225-0.475-0.094-0.854-0.188-1.329-0.377-0.949-0.283-1.898-0.754-2.752-1.225-1.044-0.565-1.423-1.601-0.949-2.637 0.285-0.848 0.19-1.601-0.474-2.261s-1.423-0.754-2.183-0.471c-1.139 0.377-2.088 0.094-2.752-0.942-0.664-1.13-1.139-2.355-1.518-3.579-0.38-1.036 0.19-2.167 1.234-2.543 0.664-0.283 1.044-0.754 1.234-1.413 0.285-0.942-0.285-1.978-1.234-2.355-0.664-0.283-1.044-0.754-1.234-1.413-0.095-0.377-0.095-0.754 0-1.13 0.19-1.225 0.664-2.449 1.329-3.674 0.569-1.036 1.613-1.413 2.657-0.942 1.234 0.471 2.562-0.283 2.847-1.601 0.095-0.377 0-0.754-0.095-1.13-0.38-1.036 0-2.072 1.044-2.638 1.139-0.659 2.373-1.13 3.606-1.507 1.044-0.283 2.088 0.188 2.467 1.225 0.285 0.659 0.854 1.13 1.613 1.319 0.949 0.188 1.803-0.283 2.278-1.225 0.285-0.659 0.759-1.13 1.518-1.225 0.38-0.188 0.664-0.188 1.044-0.094 1.329 0.377 2.562 0.848 3.701 1.507 1.044 0.565 1.329 1.601 0.949 2.638-0.474 1.319 0.285 2.732 1.708 2.826 0.285 0 0.664 0 0.949-0.094 1.139-0.377 2.183-0.094 2.752 1.036 0.664 1.13 1.139 2.261 1.424 3.485 0.285 1.13-0.095 2.167-1.234 2.637-1.329 0.565-1.708 2.261-0.759 3.297 0.19 0.188 0.474 0.377 0.759 0.565 1.044 0.471 1.518 1.507 1.234 2.637-0.38 1.319-0.854 2.543-1.518 3.674-0.38 0.659-1.044 1.036-1.993 1.036-0.095-0.188-0.38-0.188-0.664-0.283zM16 22.4c3.499 0 6.4-2.901 6.4-6.4s-2.901-6.4-6.4-6.4c-3.499 0-6.4 2.901-6.4 6.4s2.901 6.4 6.4 6.4z"></path>
</svg>
