<?xml version="1.0" encoding="UTF-8"?>
<svg   viewBox="0 0 32 32" version="1.1" xmlns="http://www.w3.org/2000/svg" xmlns:xlink="http://www.w3.org/1999/xlink">
<title>conference</title>
<path d="M16 25.048c-3.668 0-6.667-2.925-6.667-6.476s2.999-6.476 6.667-6.476c3.615 0 6.667 2.925 6.667 6.476 0.002 3.551-2.999 6.476-6.667 6.476zM16 10.476c-1.802 0-3.333-1.433-3.333-3.238 0-1.751 1.476-3.238 3.333-3.238 1.805 0 3.333 1.433 3.333 3.238s-1.473 3.238-3.333 3.238zM26 26.667c-1.804 0-3.333-1.434-3.333-3.238 0-1.802 1.476-3.238 3.333-3.238 1.804 0 3.333 1.434 3.333 3.238 0 1.806-1.529 3.238-3.333 3.238zM6 26.667c-1.804 0-3.333-1.434-3.333-3.238 0-1.802 1.476-3.238 3.333-3.238 1.802 0 3.333 1.434 3.333 3.238 0 1.806-1.476 3.238-3.333 3.238z"></path>
</svg>
