<?xml version="1.0" encoding="UTF-8"?>
<svg   viewBox="0 0 32 32" version="1.1" xmlns="http://www.w3.org/2000/svg" xmlns:xlink="http://www.w3.org/1999/xlink">
<title>share</title>
<path d="M24.667 25.247v-3.105c0-0.92 0.746-1.667 1.667-1.667s1.667 0.746 1.667 1.667v4.667c0 0.017-0 0.035-0.001 0.052 0.001 0.017 0.001 0.035 0.001 0.052 0 0.92-0.746 1.667-1.667 1.667h-20.667c-0.92 0-1.667-0.746-1.667-1.667 0-0.017 0-0.035 0.001-0.052-0.001-0.017-0.001-0.035-0.001-0.052v-4.667c0-0.92 0.746-1.667 1.667-1.667s1.667 0.746 1.667 1.667v3.105h17.333zM14.572 9.452l-4.464 4.464c-0.651 0.651-1.706 0.651-2.357 0s-0.651-1.706 0-2.357l7.071-7.071c0.651-0.651 1.706-0.651 2.357 0l7.071 7.071c0.651 0.651 0.651 1.706 0 2.357s-1.706 0.651-2.357 0l-3.987-3.987v9.142c0 0.92-0.746 1.667-1.667 1.667s-1.667-0.746-1.667-1.667v-9.619z"></path>
</svg>
