<?xml version="1.0" encoding="UTF-8"?>
<svg   viewBox="0 0 32 32" version="1.1" xmlns="http://www.w3.org/2000/svg" xmlns:xlink="http://www.w3.org/1999/xlink">
<title>blocked</title>
<path d="M24.199 10.135c1.184 1.652 1.881 3.677 1.881 5.865 0 5.567-4.513 10.080-10.080 10.080-2.188 0-4.212-0.697-5.865-1.881l14.064-14.064zM20.987 7.238l-13.749 13.749c-0.839-1.471-1.318-3.173-1.318-4.987 0-5.567 4.513-10.080 10.080-10.080 1.814 0 3.517 0.479 4.987 1.318zM16 1.6c-7.949 0-14.4 6.451-14.4 14.4s6.451 14.4 14.4 14.4c7.949 0 14.4-6.451 14.4-14.4s-6.451-14.4-14.4-14.4z"></path>
</svg>
