<?xml version="1.0" encoding="UTF-8"?>
<svg   viewBox="0 0 32 32" version="1.1" xmlns="http://www.w3.org/2000/svg" xmlns:xlink="http://www.w3.org/1999/xlink">
<title>note</title>
<path d="M24.631 4.538h-2.753v-0.354c0-0.814-0.614-1.48-1.372-1.48h-8.261c-0.756 0-1.371 0.662-1.371 1.48v0.354h-2.755c-1.516 0-2.747 1.165-2.747 2.599v19.56c0 1.433 1.233 2.599 2.75 2.599h16.507c1.521 0 2.751-1.162 2.751-2.599v-19.56c0-1.433-1.232-2.599-2.749-2.599v0zM8.123 26.546v-19.257h2.751v0.354c0 0.814 0.614 1.48 1.371 1.48h8.261c0.756 0 1.372-0.663 1.372-1.48v-0.354h2.751v19.257h-16.506zM10.874 13.249v2.751h8.253v-2.751h-8.253zM10.874 18.751v2.751h11.004v-2.751h-11.004z"></path>
</svg>
