<?xml version="1.0" encoding="UTF-8"?>
<svg viewBox="null" version="1.1" xmlns="http://www.w3.org/2000/svg" xmlns:xlink="http://www.w3.org/1999/xlink">
<title>lock</title>
<path d="M23.11 13.332c1.964 0 3.557 1.593 3.557 3.556v8.889c0 1.964-1.593 3.556-3.557 3.556h-14.22c-1.964 0-3.557-1.593-3.557-3.556v-8.889c0-1.964 1.593-3.556 3.557-3.556v-3.556c0-3.927 3.182-7.109 7.11-7.109s7.11 3.185 7.11 7.109v3.556zM12.443 9.776v3.556h7.113v-3.556c0-1.964-1.593-3.556-3.557-3.556s-3.557 1.593-3.557 3.556zM12.443 20.441c0 1.317 0.716 2.463 1.777 3.080v0.476c0 0.982 0.795 1.776 1.777 1.776s1.777-0.795 1.777-1.776v-0.476c1.064-0.614 1.777-1.767 1.777-3.080 0-1.964-1.593-3.556-3.557-3.556-1.957 0-3.55 1.593-3.55 3.556z"></path>
</svg>
