<?xml version="1.0" encoding="UTF-8"?>
<svg   viewBox="0 0 32 32" version="1.1" xmlns="http://www.w3.org/2000/svg" xmlns:xlink="http://www.w3.org/1999/xlink">
<title>default-team-avatar</title>
<path d="M12.54 19.739c-0.756 0.436-1.722 0.178-2.159-0.578s-0.177-1.722 0.579-2.159 1.722-0.177 2.159 0.578c0.437 0.756 0.177 1.722-0.578 2.159v0zM13.118 14.025c-0.436 0.756-1.403 1.015-2.159 0.578s-1.015-1.403-0.579-2.159c0.437-0.756 1.403-1.015 2.159-0.578s1.015 1.403 0.578 2.159zM16.198 22.518c-0.873 0-1.58-0.708-1.58-1.58s0.708-1.58 1.58-1.58c0.873 0 1.58 0.708 1.58 1.58s-0.708 1.58-1.58 1.58zM16.198 12.247c-0.873 0-1.58-0.708-1.58-1.58s0.708-1.58 1.58-1.58c0.873 0 1.58 0.708 1.58 1.58s-0.708 1.58-1.58 1.58zM22.014 19.16c-0.437 0.756-1.403 1.015-2.159 0.578s-1.015-1.403-0.578-2.159c0.436-0.756 1.403-1.015 2.159-0.578s1.015 1.403 0.578 2.159h-0zM21.435 14.603c-0.756 0.436-1.722 0.177-2.159-0.578s-0.177-1.722 0.578-2.159c0.756-0.436 1.722-0.177 2.159 0.578s0.177 1.722-0.578 2.159h0z"></path>
</svg>
