<?xml version="1.0" encoding="UTF-8"?>
<svg viewBox="null" version="1.1" xmlns="http://www.w3.org/2000/svg" xmlns:xlink="http://www.w3.org/1999/xlink">
<title>forwardcall</title>
<path d="M30.533 14.406c-0.126-0.188-0.314-0.346-0.502-0.481-3.050-2.187-6.103-4.37-9.158-6.552-0.816-0.583-1.63-1.17-2.456-1.742-0.3-0.207-0.623-0.409-1.016-0.228-0.41 0.188-0.47 0.563-0.476 0.949-0.009 0.635-0.003 1.27-0.003 1.905h-0.006c0 0.635 0.003 1.269-0.001 1.905-0.002 0.513-0.017 0.53-0.524 0.534-1.546 0.011-3.071 0.193-4.573 0.555-3.123 0.753-5.774 2.248-7.693 4.87-1.441 1.969-2.242 4.198-2.634 6.575-0.12 0.732-0.173 1.485-0.154 2.225 0.015 0.558 0.421 0.72 0.862 0.374 0.365-0.287 0.686-0.637 0.984-0.994 1.006-1.207 2.129-2.282 3.464-3.129 2.807-1.783 5.964-2.074 9.177-2.108 0.6-0.006 1.010 0.402 1.049 0.999 0.047 0.723 0.030 1.448 0.044 2.174 0.008 0.453-0.008 0.909 0.038 1.359 0.059 0.602 0.541 0.873 1.097 0.638 0.202-0.086 0.39-0.213 0.569-0.341 2.698-1.919 5.393-3.841 8.088-5.763 1.136-0.81 2.273-1.616 3.405-2.431 0.533-0.384 0.697-0.875 0.418-1.293l-0 0z"></path>
</svg>
