<?xml version="1.0" encoding="UTF-8"?>
<svg   viewBox="0 0 32 32" version="1.1" xmlns="http://www.w3.org/2000/svg" xmlns:xlink="http://www.w3.org/1999/xlink">
<title>default-file</title>
<path fill="#0684bd" style="fill: var(--color13, #0684bd)" d="M3.556 0h24.889c1.964 0 3.556 1.592 3.556 3.556v24.889c0 1.964-1.592 3.556-3.556 3.556h-24.889c-1.964 0-3.556-1.592-3.556-3.556v-24.889c0-1.964 1.592-3.556 3.556-3.556z"></path>
<path fill="#fff" style="fill: var(--color2, #fff)" d="M23.42 23.933c0 0.908-0.786 1.645-1.755 1.645h-11.409c-0.969 0-1.755-0.736-1.755-1.645v-15.622c0-0.908 0.786-1.644 1.755-1.644h8.337c0.14 0 0.26 0.066 0.34 0.162l4.313 4.041c0.103 0.076 0.173 0.187 0.173 0.32v12.744zM20.845 20.521h-9.514c-0.384 0-0.699 0.31-0.699 0.693 0 0.386 0.313 0.693 0.699 0.693h9.514c0.385 0 0.699-0.31 0.699-0.693 0-0.386-0.313-0.693-0.699-0.693zM20.845 14.127h-9.514c-0.384 0-0.699 0.31-0.699 0.693 0 0.386 0.313 0.693 0.699 0.693h9.514c0.385 0 0.699-0.31 0.699-0.693 0-0.385-0.313-0.693-0.699-0.693zM20.845 17.323h-9.514c-0.384 0-0.699 0.311-0.699 0.694 0 0.385 0.313 0.693 0.699 0.693h9.514c0.385 0 0.699-0.311 0.699-0.693 0-0.386-0.313-0.694-0.699-0.694zM19.1 8.097c-0.32-0.305-0.579-0.193-0.579 0.242v2.462c0 0.271 0.222 0.491 0.497 0.491h2.634c0.439 0 0.537-0.246 0.215-0.554l-2.767-2.641z"></path>
</svg>
