<?xml version="1.0" encoding="UTF-8"?>
<svg viewBox="null" version="1.1" xmlns="http://www.w3.org/2000/svg" xmlns:xlink="http://www.w3.org/1999/xlink">
<title>phone_border</title>
<path d="M18.845 20.596l-0.041 0.040c-0.117 0.14-0.214 0.255-0.29 0.344-0.082 0.096-0.161 0.183-0.236 0.262l-0.228 0.239h-0.336c-0.212 0-0.429-0.043-0.655-0.122-0.206-0.072-0.439-0.189-0.711-0.352-0.4-0.24-1.569-1.193-2.011-1.618-0.43-0.414-0.884-0.927-1.368-1.543-0.446-0.575-0.817-1.114-1.114-1.617-0.303-0.514-0.529-0.983-0.67-1.392-0.114-0.297-0.192-0.559-0.233-0.789-0.045-0.248-0.057-0.478-0.031-0.694l0.033-0.28 0.216-0.188c0.123-0.107 0.243-0.2 0.363-0.28 0.127-0.085 0.268-0.162 0.379-0.21-0 0 0.015-0.009 0.040-0.027 0.103-0.072 0.183-0.122 0.271-0.153l0.084-0.065c0.156-0.089 0.291-0.176 0.405-0.261 0.118-0.087 0.819-0.45 0.884-0.506 0.274-0.3 0.527-0.61 0.575-1.001 0.046-0.379-0.032-0.728-0.235-1.058-0.616-0.96-1.345-2.481-1.797-3.288-0.453-0.809-0.875-1.803-1.218-2.538-0.193-0.379-0.448-0.641-0.777-0.807s-0.78-0.186-1.123-0.128c-0.314 0.053-1.341 0.446-1.948 0.765-0.622 0.326-1.082 0.625-1.371 0.885-0.588 0.533-0.995 1.547-1.137 2.534-0.165 1.038 0.165 2.81 0.49 4.171 0.331 1.389 0.911 2.896 1.742 4.522 0.833 1.647 1.91 3.323 3.227 5.024 0.999 1.268 2.013 2.398 3.050 3.4 1.005 1.004 2.15 1.907 3.147 2.595 0.988 0.682 2.906 2.002 3.833 2.358 0.901 0.346 1.955 0.687 2.741 0.687 0.442 0 0.833-0.060 1.175-0.177 0.33-0.113 0.619-0.281 0.899-0.529 0.308-0.25 0.686-0.661 1.122-1.231 0.428-0.559 0.971-1.358 1.11-1.723 0.144-0.313 0.171-0.646 0.078-1.024-0.096-0.389-0.295-0.715-0.611-0.995-0.976-0.867-2.202-1.891-2.809-2.467s-1.322-1.256-1.919-1.865c-0.216-0.248-0.619-0.436-0.964-0.469-0.368-0.035-0.551 0.101-0.823 0.272-0.136 0.1-0.633 0.652-0.738 0.755-0.11 0.108-0.144 0.16-0.316 0.353-0.047 0.069-0.098 0.132-0.152 0.189zM13.157 14.134c0.127 0.363 0.333 0.785 0.618 1.264 0.292 0.49 0.666 1.027 1.117 1.604 0.49 0.617 0.945 1.125 1.362 1.524 0.405 0.386 0.772 0.675 1.095 0.867 0.124 0.074 0.232 0.132 0.32 0.174 0.060-0.070 0.132-0.155 0.224-0.262l0.082-0.085c-0.004 0.004 0.001-0.002 0.010-0.016l0.077-0.102c0.232-0.261 0.427-0.469 0.59-0.627 0.176-0.171 0.371-0.335 0.633-0.523 0.675-0.425 1.427-0.604 2.225-0.529 0.824 0.078 1.522 0.427 2.016 0.991 0.615 0.619 1.252 1.239 1.913 1.859s1.527 1.402 2.599 2.345c0.601 0.528 1.001 1.175 1.187 1.924 0.189 0.76 0.128 1.495-0.165 2.122-0.198 0.525-0.58 1.143-1.146 1.876-0.558 0.721-1.062 1.265-1.493 1.61-0.451 0.398-0.971 0.697-1.555 0.895-0.571 0.194-1.197 0.289-1.875 0.289-1.101 0-2.248-0.23-3.442-0.684-1.164-0.443-2.349-1.078-3.555-1.903-1.196-0.818-2.387-1.814-3.564-2.977-1.198-1.147-2.375-2.446-3.536-3.904-1.531-1.957-2.784-3.89-3.758-5.795-0.979-1.896-1.669-3.673-2.069-5.334-0.407-1.691-0.505-3.218-0.288-4.57 0.209-1.431 0.789-2.591 1.747-3.449 0.444-0.395 1.067-0.797 1.875-1.216 0.824-0.428 1.506-0.69 2.070-0.784 0.754-0.126 1.492-0.011 2.187 0.337s1.234 0.895 1.618 1.642c0.375 0.798 0.805 1.625 1.289 2.481 0.485 0.858 1.062 1.803 1.739 2.848 0.424 0.685 0.593 1.431 0.498 2.21-0.094 0.765-0.414 1.448-1.002 2.081-0.168 0.153-0.342 0.295-0.521 0.426-0.16 0.117-0.338 0.233-0.533 0.346-0.069 0.058-0.143 0.108-0.224 0.15l-0.175 0.091c-0.065 0.043-0.132 0.082-0.229 0.131-0.055 0.024-0.104 0.049-0.148 0.074 0.027 0.144 0.086 0.339 0.187 0.6z"></path>
</svg>
