<?xml version="1.0" encoding="UTF-8"?>
<svg   viewBox="0 0 32 32" version="1.1" xmlns="http://www.w3.org/2000/svg" xmlns:xlink="http://www.w3.org/1999/xlink">
<title>dialer</title>
<path d="M16 25.6c1.767 0 3.2 1.433 3.2 3.2s-1.433 3.2-3.2 3.2c-1.767 0-3.2-1.433-3.2-3.2s1.433-3.2 3.2-3.2zM7.467 17.067c1.767 0 3.2 1.433 3.2 3.2s-1.433 3.2-3.2 3.2c-1.767 0-3.2-1.433-3.2-3.2s1.433-3.2 3.2-3.2zM16 17.067c1.767 0 3.2 1.433 3.2 3.2s-1.433 3.2-3.2 3.2c-1.767 0-3.2-1.433-3.2-3.2s1.433-3.2 3.2-3.2zM24.533 17.067c1.767 0 3.2 1.433 3.2 3.2s-1.433 3.2-3.2 3.2c-1.767 0-3.2-1.433-3.2-3.2s1.433-3.2 3.2-3.2zM7.467 8.533c1.767 0 3.2 1.433 3.2 3.2s-1.433 3.2-3.2 3.2c-1.767 0-3.2-1.433-3.2-3.2s1.433-3.2 3.2-3.2zM16 8.533c1.767 0 3.2 1.433 3.2 3.2s-1.433 3.2-3.2 3.2c-1.767 0-3.2-1.433-3.2-3.2s1.433-3.2 3.2-3.2zM24.533 8.533c1.767 0 3.2 1.433 3.2 3.2s-1.433 3.2-3.2 3.2c-1.767 0-3.2-1.433-3.2-3.2s1.433-3.2 3.2-3.2zM7.467 0c1.767 0 3.2 1.433 3.2 3.2s-1.433 3.2-3.2 3.2c-1.767 0-3.2-1.433-3.2-3.2s1.433-3.2 3.2-3.2zM16 0c1.767 0 3.2 1.433 3.2 3.2s-1.433 3.2-3.2 3.2c-1.767 0-3.2-1.433-3.2-3.2s1.433-3.2 3.2-3.2zM24.533 0c1.767 0 3.2 1.433 3.2 3.2s-1.433 3.2-3.2 3.2c-1.767 0-3.2-1.433-3.2-3.2s1.433-3.2 3.2-3.2z"></path>
</svg>
