<?xml version="1.0" encoding="UTF-8"?>
<svg   viewBox="0 0 32 32" version="1.1" xmlns="http://www.w3.org/2000/svg" xmlns:xlink="http://www.w3.org/1999/xlink">
<title>0</title>
<path fill="#212121" style="fill: var(--color1, #212121)" d="M16 8c1.020 0 1.788 0.444 2.316 1.356 0.456 0.768 0.684 1.8 0.684 3.096s-0.228 2.328-0.684 3.096c-0.528 0.9-1.296 1.356-2.316 1.356-1.032 0-1.8-0.456-2.316-1.356-0.456-0.768-0.684-1.8-0.684-3.096s0.228-2.328 0.684-3.096c0.516-0.912 1.284-1.356 2.316-1.356zM16 8.84c-0.768 0-1.32 0.408-1.656 1.236-0.24 0.576-0.36 1.368-0.36 2.376 0 0.996 0.12 1.788 0.36 2.376 0.336 0.816 0.888 1.236 1.656 1.236s1.32-0.42 1.656-1.236c0.24-0.588 0.372-1.38 0.372-2.376 0-1.008-0.132-1.8-0.372-2.376-0.336-0.828-0.888-1.236-1.656-1.236z"></path>
<path fill="#9e9e9e" style="fill: var(--color2, #9e9e9e)" d="M16.462 21.533h0.974v0.435h-0.974v1.121h-0.481v-1.121h-0.981v-0.435h0.981v-1.033h0.481z"></path>
</svg>
