<?xml version="1.0" encoding="UTF-8"?>
<svg   viewBox="0 0 32 32" version="1.1" xmlns="http://www.w3.org/2000/svg" xmlns:xlink="http://www.w3.org/1999/xlink">
<title>bubble_lines_border</title>
<path d="M25.95 18.973h1.27c0.545 0 0.742-0.057 0.942-0.163s0.355-0.263 0.462-0.462c0.107-0.199 0.163-0.397 0.163-0.942v-11.293c0-0.545-0.057-0.742-0.163-0.942s-0.263-0.356-0.462-0.462c-0.199-0.107-0.397-0.163-0.942-0.163h-15.093c-0.545 0-0.742 0.057-0.942 0.163s-0.355 0.263-0.462 0.462c-0.107 0.199-0.163 0.397-0.163 0.942v0.19h-1.893v-1.083c0-0.692 0.259-1.291 0.776-1.796s1.141-0.758 1.869-0.758h16.709c0.729 0 1.352 0.253 1.869 0.758s0.776 1.104 0.776 1.796v13.075c0 0.692-0.259 1.291-0.776 1.796s-1.131 0.758-1.841 0.758h-2.099v-1.875z"></path>
<path d="M15.844 23.909l0.548-0.439h5.792c0.142 0 0.203-0.025 0.291-0.109 0.076-0.073 0.080-0.083 0.080-0.142l0.001-13.363c-0.003-0.114-0.025-0.162-0.11-0.246-0.076-0.074-0.126-0.094-0.262-0.094h-18.508c-0.118 0-0.171 0.022-0.263 0.109-0.076 0.073-0.080 0.083-0.080 0.142v13.424c0 0.083 0.008 0.101 0.080 0.17 0.091 0.088 0.144 0.109 0.264 0.109 1.701 0.002 2.979 0.005 3.836 0.009 0.432 0.002 0.758 0.005 0.981 0.008 0.158 0.003 0.158 0.003 0.278 0.006 0.057 0.002 0.057 0.002 0.128 0.006-0.036-0.076-0.036-0.076 1.297 0.573l2.799 2.753c3.347-3.463 2.724-2.817 2.848-2.917zM22.184 7.515c0.655 0 1.21 0.222 1.663 0.667s0.689 0.982 0.709 1.612v13.424c0 0.611-0.231 1.14-0.694 1.584s-1.022 0.667-1.677 0.667h-5.090c-0.019 0.015-1.186 1.22-3.499 3.613-0.154 0.167-0.342 0.25-0.564 0.25s-0.41-0.074-0.564-0.222l-3.673-3.613c-0.016-0.015-1.722-0.025-5.119-0.028-0.636 0-1.186-0.222-1.648-0.667s-0.694-0.982-0.694-1.612v-13.424c0-0.611 0.231-1.14 0.694-1.584s1.012-0.667 1.648-0.667h18.508z"></path>
</svg>
