<?xml version="1.0" encoding="UTF-8"?>
<svg viewBox="null" version="1.1" xmlns="http://www.w3.org/2000/svg" xmlns:xlink="http://www.w3.org/1999/xlink">
<title>file_border</title>
<path d="M15.337 6.4l-1.461-1.931c-0.605-0.799-1.549-1.269-2.552-1.269h-8.124c-1.767 0-3.2 1.433-3.2 3.2v19.2c0 1.767 1.433 3.2 3.2 3.2h25.6c1.767 0 3.2-1.433 3.2-3.2v-16c0-1.767-1.433-3.2-3.2-3.2h-13.463zM29.6 12.8h-27.2v-4.64c0-1.502 1.218-2.72 2.72-2.72h4.848c0.783 0 1.528 0.337 2.044 0.926l2.137 2.434h12.73c1.502 0 2.72 1.218 2.72 2.72v1.28zM29.6 15.2v8.48c0 1.502-1.218 2.72-2.72 2.72h-21.76c-1.502 0-2.72-1.218-2.72-2.72v-8.48h27.2z"></path>
</svg>
