<?xml version="1.0" encoding="UTF-8"?>
<svg   viewBox="0 0 32 32" version="1.1" xmlns="http://www.w3.org/2000/svg" xmlns:xlink="http://www.w3.org/1999/xlink">
<title>default-integration</title>
<path d="M26.159 15.365h-1.905v-5.079c0-1.403-1.137-2.54-2.54-2.54h-5.079v-1.905c0-1.752-1.422-3.175-3.175-3.175s-3.175 1.422-3.175 3.175v1.905h-5.079c-1.403 0-2.527 1.136-2.527 2.54l-0.006 4.825h1.898c1.892 0 3.429 1.537 3.429 3.429s-1.537 3.429-3.429 3.429h-1.898l-0.006 4.825c0 1.403 1.136 2.54 2.54 2.54h4.825v-1.905c0-1.892 1.537-3.429 3.429-3.429s3.429 1.537 3.429 3.429v1.905h4.825c1.403 0 2.54-1.137 2.54-2.54v-5.079h1.905c1.752 0 3.175-1.422 3.175-3.175s-1.422-3.175-3.175-3.175z"></path>
</svg>
