<?xml version="1.0" encoding="UTF-8"?>
<svg   viewBox="0 0 32 32" version="1.1" xmlns="http://www.w3.org/2000/svg" xmlns:xlink="http://www.w3.org/1999/xlink">
<title>history</title>
<path d="M17.211 16.137c1.191 0 2.344 0 3.496 0 0.13 0 0.268 0 0.395 0.028 0.62 0.141 1.004 0.687 0.945 1.325-0.063 0.617-0.581 1.068-1.262 1.071-1.145 0.004-2.291 0-3.436 0-0.409 0-0.814 0.004-1.223 0-0.853-0.007-1.346-0.493-1.346-1.339-0.004-2.354-0.004-4.715 0-7.073 0-0.691 0.448-1.212 1.078-1.286 0.617-0.070 1.188 0.342 1.318 0.959 0.028 0.127 0.028 0.264 0.028 0.395 0 1.847 0 3.69 0 5.54v0.374h0.007v0.007zM2.667 16.137h2.407c0.028-0.416 0.032-0.821 0.081-1.219 0.578-4.638 2.974-8.011 7.239-9.879 7.084-3.112 14.95 1.082 16.62 8.367 1.554 6.77-2.714 13.325-9.579 14.622-4.113 0.775-7.732-0.391-10.767-3.299-0.43-0.412-0.504-0.987-0.222-1.484 0.268-0.469 0.804-0.722 1.336-0.564 0.236 0.067 0.465 0.218 0.641 0.388 1.413 1.35 3.073 2.22 4.99 2.59 5.114 0.994 10.189-2.368 11.274-7.457 1.093-5.131-2.009-10.153-7.087-11.464-5.452-1.41-11.017 2.206-11.94 7.767-0.088 0.529-0.12 1.064-0.18 1.632h2.456c-1.226 1.635-2.418 3.221-3.63 4.842-0.081-0.102-0.148-0.187-0.215-0.271-1.082-1.445-2.171-2.89-3.253-4.338-0.049-0.067-0.116-0.12-0.173-0.176v-0.056z"></path>
</svg>
