<?xml version="1.0" encoding="UTF-8"?>
<svg   viewBox="0 0 32 32" version="1.1" xmlns="http://www.w3.org/2000/svg" xmlns:xlink="http://www.w3.org/1999/xlink">
<title>selects</title>
<path d="M7.093 4h17.813c1.708 0 3.093 1.385 3.093 3.093v17.813c0 1.708-1.385 3.093-3.093 3.093h-17.813c-1.708 0-3.093-1.385-3.093-3.093v-17.813c0-1.708 1.385-3.093 3.093-3.093zM11.939 15.622c-0.523-0.518-1.367-0.515-1.886 0.008s-0.515 1.367 0.008 1.886l3.36 3.331c0.515 0.511 1.344 0.516 1.865 0.012l7.14-6.9c0.53-0.512 0.544-1.356 0.032-1.885s-1.356-0.544-1.885-0.032l-6.201 5.993-2.433-2.412z"></path>
</svg>
