<?xml version="1.0" encoding="UTF-8"?>
<svg   viewBox="0 0 32 32" version="1.1" xmlns="http://www.w3.org/2000/svg" xmlns:xlink="http://www.w3.org/1999/xlink">
<title>play</title>
<path d="M16 30c-7.732 0-14-6.268-14-14s6.268-14 14-14c7.732 0 14 6.268 14 14s-6.268 14-14 14zM16 27.667c6.443 0 11.667-5.223 11.667-11.667s-5.223-11.667-11.667-11.667c-6.443 0-11.667 5.223-11.667 11.667s5.223 11.667 11.667 11.667zM11.333 21.833v-11.667c0-0.916 1.008-1.475 1.785-0.989l9.333 5.833c0.731 0.457 0.731 1.522 0 1.979l-9.333 5.833c-0.777 0.486-1.785-0.073-1.785-0.989zM19.632 16l-5.965-3.728v7.457l5.965-3.728z"></path>
</svg>
