<?xml version="1.0" encoding="UTF-8"?>
<svg   viewBox="0 0 32 32" version="1.1" xmlns="http://www.w3.org/2000/svg" xmlns:xlink="http://www.w3.org/1999/xlink">
<title>mic-off</title>
<path d="M20.24 15.496c0 0.127-0.005 0.251-0.019 0.375l-7.894-8.175c0.063-2.039 1.748-3.687 3.802-3.687h0.307c2.093 0 3.804 1.711 3.804 3.804v7.683zM23.723 15.372c0.073 1.27-0.134 2.463-0.579 3.525l-1.589-1.645c0.028-0.124 0.054-0.251 0.075-0.38 0.080-0.488 0.052-0.991 0.073-1.486 0.026-0.612 0.466-1.038 0.998-1.038 0.105 0 0.213 0.016 0.321 0.052 0.396 0.124 0.675 0.511 0.701 0.973zM26.287 24.759c0.356 0.375 0.345 0.97-0.028 1.329-0.373 0.356-0.968 0.345-1.327-0.028l-4.057-4.233c-0.757 0.579-1.648 1.027-2.646 1.31-0.731 0.209-0.916 0.455-0.916 1.23 0 0.846 0.007 1.692-0.002 2.536-0.007 0.645-0.457 1.087-1.015 1.087-0.108 0-0.22-0.016-0.335-0.052-0.427-0.134-0.703-0.52-0.715-1.012-0.005-0.234 0-0.471 0-0.705-0.002-0.237-0.002-0.471-0.002-0.705 0-0.401-0.007-0.802 0.002-1.202 0.012-0.642-0.225-0.982-0.846-1.16-1.038-0.298-2.013-0.727-2.852-1.42-1.711-1.416-2.583-3.265-2.714-5.482-0.016-0.279-0.005-0.558 0.002-0.837 0.016-0.63 0.429-1.069 1.001-1.069 0.588 0 1.015 0.45 1.010 1.085-0.007 0.841 0.030 1.671 0.333 2.47 0.811 2.145 2.834 3.534 5.079 3.534 0.155 0 0.312-0.007 0.469-0.021 1.041-0.089 1.988-0.452 2.77-1.024l-1.409-1.47c-0.499 0.244-1.062 0.38-1.652 0.38h-0.307c-2.093 0-3.806-1.711-3.804-3.804v-2.588l-6.047-6.307c-0.356-0.373-0.345-0.968 0.028-1.327 0.373-0.356 0.968-0.345 1.327 0.028l18.654 19.455z"></path>
</svg>
