<?xml version="1.0" encoding="UTF-8"?>
<svg   viewBox="0 0 32 32" version="1.1" xmlns="http://www.w3.org/2000/svg" xmlns:xlink="http://www.w3.org/1999/xlink">
<title>keypad</title>
<path d="M11.063 8.021c0 1.668-1.352 3.021-3.021 3.021s-3.021-1.352-3.021-3.021c0-1.668 1.352-3.021 3.021-3.021s3.021 1.352 3.021 3.021z"></path>
<path d="M19.021 8.021c0 1.668-1.352 3.021-3.021 3.021s-3.021-1.352-3.021-3.021c0-1.668 1.352-3.021 3.021-3.021s3.021 1.352 3.021 3.021z"></path>
<path d="M26.935 8.021c0 1.668-1.352 3.021-3.021 3.021s-3.021-1.352-3.021-3.021c0-1.668 1.352-3.021 3.021-3.021s3.021 1.352 3.021 3.021z"></path>
<path d="M11.084 16.447c0 1.668-1.352 3.021-3.021 3.021s-3.021-1.352-3.021-3.021c0-1.668 1.352-3.021 3.021-3.021s3.021 1.352 3.021 3.021z"></path>
<path d="M19.041 16.447c0 1.668-1.352 3.021-3.021 3.021s-3.021-1.352-3.021-3.021c0-1.668 1.352-3.021 3.021-3.021s3.021 1.352 3.021 3.021z"></path>
<path d="M26.958 16.447c0 1.668-1.352 3.021-3.021 3.021s-3.021-1.352-3.021-3.021c0-1.668 1.352-3.021 3.021-3.021s3.021 1.352 3.021 3.021z"></path>
<path d="M11.106 24.874c0 1.668-1.352 3.021-3.021 3.021s-3.021-1.352-3.021-3.021c0-1.668 1.352-3.021 3.021-3.021s3.021 1.352 3.021 3.021z"></path>
<path d="M19.063 24.874c0 1.668-1.352 3.021-3.021 3.021s-3.021-1.352-3.021-3.021c0-1.668 1.352-3.021 3.021-3.021s3.021 1.352 3.021 3.021z"></path>
<path d="M26.978 24.874c0 1.668-1.352 3.021-3.021 3.021s-3.021-1.352-3.021-3.021c0-1.668 1.352-3.021 3.021-3.021s3.021 1.352 3.021 3.021z"></path>
</svg>
