<?xml version="1.0" encoding="UTF-8"?>
<svg   viewBox="0 0 47 32" version="1.1" xmlns="http://www.w3.org/2000/svg" xmlns:xlink="http://www.w3.org/1999/xlink">
<title>askfirst</title>
<path d="M47.158 23.947c0-2.27-1.598-4.025-2.588-4.895-0.322-1.566-1.497-2.828-3.012-3.279-0.272-1.672-0.898-4.274-2.307-6.889-2.178-4.043-6.682-8.865-15.736-8.865-9.049 0-13.586 4.817-15.796 8.856-1.437 2.63-2.077 5.241-2.362 6.912-0.009 0.060-0.018 0.115-0.018 0.175-1.294 0.557-2.27 1.736-2.542 3.155-1.105 0.889-2.795 2.616-2.795 4.836 0 2.303 1.837 4.177 2.92 5.080 0.557 1.741 2.192 3.007 4.112 3.007v0c2.376 0 4.32-1.943 4.32-4.32v-7.792c0-1.814-1.133-3.376-2.731-4.011 0.276-1.432 0.843-3.523 1.985-5.582 2.611-4.697 6.949-7.078 12.904-7.078 5.95 0 10.27 2.381 12.839 7.069 1.179 2.151 1.727 4.338 1.976 5.77-1.372 0.728-2.312 2.169-2.312 3.818v7.788c0 2.376 1.943 4.32 4.32 4.32v0c1.874 0 3.482-1.211 4.071-2.892 0.962-0.857 2.754-2.786 2.754-5.181v0zM2.109 23.947c0-0.603 0.253-1.188 0.608-1.713v3.472c-0.355-0.548-0.608-1.151-0.608-1.759zM45.256 23.947c0 0.64-0.249 1.276-0.599 1.851v-3.647c0.35 0.543 0.599 1.161 0.599 1.796z"></path>
</svg>
