<?xml version="1.0" encoding="UTF-8"?>
<svg   viewBox="0 0 32 32" version="1.1" xmlns="http://www.w3.org/2000/svg" xmlns:xlink="http://www.w3.org/1999/xlink">
<title>2</title>
<path fill="#212121" style="fill: var(--color7, #212121)" d="M19.155 16.654h-5.531v-0.791l2.795-3.105c0.5-0.559 0.839-1.002 1.017-1.33s0.267-0.664 0.267-1.008c0-0.426-0.124-0.784-0.372-1.075s-0.577-0.437-0.987-0.437c-0.59 0-1.024 0.151-1.304 0.454s-0.419 0.728-0.419 1.274h-1.107l-0.012-0.035c-0.020-0.734 0.225-1.352 0.732-1.852s1.211-0.75 2.109-0.75c0.766 0 1.376 0.224 1.831 0.671s0.683 1.017 0.683 1.708c0 0.465-0.138 0.931-0.413 1.397s-0.661 0.968-1.157 1.503l-2.244 2.443 0.012 0.029h4.102v0.902z"></path>
<path fill="#9e9e9e" style="fill: var(--color4, #9e9e9e)" d="M13.817 22.69h-1.489l-0.337 0.916h-0.491l1.374-3.555h0.413l1.353 3.555h-0.491l-0.332-0.916zM12.477 22.288h1.196l-0.586-1.619h-0.015l-0.596 1.619zM15.128 23.606v-3.555h1.16c0.371 0 0.662 0.080 0.872 0.24s0.315 0.401 0.315 0.721c0 0.158-0.050 0.299-0.151 0.424s-0.234 0.217-0.398 0.277c0.215 0.046 0.384 0.151 0.507 0.315s0.184 0.356 0.184 0.574c0 0.326-0.105 0.574-0.316 0.746s-0.497 0.258-0.858 0.258h-1.313zM15.609 21.938v1.291h0.833c0.218 0 0.388-0.054 0.51-0.162s0.183-0.262 0.183-0.46c0-0.208-0.051-0.372-0.153-0.491s-0.258-0.178-0.47-0.178h-0.903zM15.609 21.563h0.779c0.179 0 0.325-0.049 0.437-0.148s0.168-0.236 0.168-0.411c0-0.192-0.061-0.336-0.182-0.431s-0.296-0.143-0.524-0.143h-0.679v1.133zM20.836 22.468l0.005 0.015c0.006 0.334-0.111 0.613-0.352 0.837s-0.559 0.337-0.955 0.337c-0.402 0-0.73-0.142-0.983-0.427s-0.38-0.646-0.38-1.084v-0.632c0-0.438 0.127-0.8 0.38-1.085s0.581-0.428 0.983-0.428c0.402 0 0.722 0.107 0.959 0.321s0.353 0.498 0.347 0.851l-0.005 0.015h-0.461c0-0.249-0.073-0.446-0.22-0.591s-0.353-0.217-0.62-0.217c-0.269 0-0.483 0.108-0.642 0.325s-0.239 0.485-0.239 0.806v0.637c0 0.324 0.080 0.594 0.239 0.811s0.374 0.325 0.642 0.325c0.267 0 0.474-0.072 0.62-0.216s0.22-0.343 0.22-0.597h0.461z"></path>
</svg>
