<?xml version="1.0" encoding="UTF-8"?>
<svg   viewBox="0 0 32 32" version="1.1" xmlns="http://www.w3.org/2000/svg" xmlns:xlink="http://www.w3.org/1999/xlink">
<title>7</title>
<path fill="#212121" style="fill: var(--color7, #212121)" d="M18.771 8.908c-1.031 1.227-1.728 2.313-2.089 3.261s-0.622 2.095-0.782 3.442l-0.094 0.92h-1.154l0.094-0.92c0.164-1.344 0.482-2.545 0.955-3.604s1.119-2.092 1.939-3.1h-4.641v-0.908h5.771v0.908z"></path>
<path fill="#9e9e9e" style="fill: var(--color4, #9e9e9e)" d="M10.481 22.18v1.426h-0.481v-3.555h1.36c0.379 0 0.674 0.098 0.884 0.293s0.315 0.452 0.315 0.771c0 0.324-0.105 0.582-0.315 0.775s-0.505 0.289-0.884 0.289h-0.879zM10.481 21.804h0.879c0.241 0 0.421-0.065 0.54-0.194s0.178-0.293 0.178-0.489c0-0.197-0.060-0.361-0.179-0.493s-0.299-0.198-0.538-0.198h-0.879v1.375zM15.894 22.146c0 0.231-0.041 0.445-0.122 0.642s-0.195 0.364-0.342 0.5l0.603 0.569-0.33 0.315-0.674-0.627c-0.091 0.037-0.186 0.066-0.284 0.084s-0.2 0.028-0.304 0.028c-0.415 0-0.752-0.143-1.012-0.43s-0.389-0.647-0.389-1.082v-0.632c0-0.433 0.13-0.793 0.389-1.082s0.597-0.432 1.012-0.432c0.43 0 0.779 0.144 1.049 0.431s0.404 0.648 0.404 1.083v0.632zM15.413 21.509c0-0.326-0.088-0.592-0.264-0.801s-0.412-0.313-0.708-0.313c-0.28 0-0.503 0.104-0.67 0.313s-0.25 0.475-0.25 0.801v0.637c0 0.329 0.083 0.597 0.25 0.806s0.39 0.313 0.67 0.313c0.298 0 0.534-0.104 0.709-0.311s0.262-0.476 0.262-0.807v-0.637zM17.092 22.065v1.541h-0.481v-3.552h1.287c0.389 0 0.686 0.086 0.891 0.259s0.308 0.423 0.308 0.752c0 0.182-0.048 0.341-0.143 0.476s-0.234 0.242-0.416 0.322c0.195 0.063 0.336 0.166 0.421 0.309s0.128 0.319 0.128 0.529v0.334c0 0.111 0.012 0.21 0.037 0.298s0.067 0.16 0.127 0.215v0.059h-0.496c-0.063-0.055-0.104-0.137-0.122-0.244s-0.027-0.218-0.027-0.332v-0.325c0-0.192-0.056-0.347-0.168-0.464s-0.263-0.176-0.452-0.176h-0.894zM17.092 21.687h0.757c0.272 0 0.468-0.052 0.587-0.155s0.179-0.261 0.179-0.472c0-0.2-0.058-0.355-0.175-0.465s-0.297-0.165-0.543-0.165h-0.806v1.257zM21.86 22.71c0-0.163-0.061-0.299-0.183-0.409s-0.339-0.202-0.649-0.277c-0.376-0.090-0.669-0.221-0.88-0.395s-0.316-0.393-0.316-0.657c0-0.277 0.114-0.508 0.341-0.693s0.521-0.278 0.883-0.278c0.389 0 0.699 0.107 0.929 0.32s0.341 0.461 0.333 0.742l-0.005 0.015h-0.459c0-0.208-0.069-0.377-0.206-0.505s-0.335-0.193-0.592-0.193c-0.239 0-0.423 0.054-0.551 0.162s-0.192 0.249-0.192 0.424c0 0.155 0.069 0.284 0.208 0.387s0.363 0.194 0.674 0.272c0.374 0.093 0.659 0.23 0.855 0.41s0.293 0.404 0.293 0.671c0 0.286-0.117 0.517-0.352 0.691s-0.54 0.261-0.918 0.261c-0.355 0-0.669-0.096-0.941-0.288s-0.405-0.449-0.397-0.771l0.005-0.015h0.459c0 0.228 0.084 0.401 0.251 0.52s0.375 0.178 0.623 0.178c0.242 0 0.435-0.051 0.576-0.154s0.212-0.242 0.212-0.417z"></path>
</svg>
