<?xml version="1.0" encoding="UTF-8"?>
<svg   viewBox="0 0 32 32" version="1.1" xmlns="http://www.w3.org/2000/svg" xmlns:xlink="http://www.w3.org/1999/xlink">
<title>contacts_border</title>
<path d="M16.502 32h-1.095c-0.223 0-0.46-0.023-0.658-0.062-2.071-0.146-4.009-0.67-5.807-1.569-1.798-0.878-3.358-2.035-4.677-3.469-1.316-1.431-2.361-3.077-3.135-4.938-0.754-1.864-1.131-3.852-1.131-5.962 0-2.195 0.419-4.268 1.256-6.215 0.835-1.942 1.975-3.64 3.417-5.094s3.138-2.599 5.081-3.435c1.947-0.838 4.031-1.256 6.246-1.256s4.298 0.419 6.246 1.256c1.943 0.836 3.637 1.981 5.081 3.435s2.582 3.152 3.417 5.094c0.838 1.947 1.256 4.020 1.256 6.215 0 2.132-0.387 4.132-1.162 5.995-0.773 1.88-1.835 3.533-3.184 4.956-1.348 1.421-2.922 2.571-4.715 3.447-1.823 0.901-3.783 1.415-5.875 1.54l-0.026 0.001c-0.167 0.041-0.346 0.061-0.535 0.061zM8.458 27.335c0.489 0.322 1.004 0.616 1.545 0.88 1.526 0.763 3.167 1.207 4.975 1.337 0.177 0.032 0.339 0.048 0.485 0.048h0.991c0.116 0 0.218-0.013 0.427-0.055h0.042c1.772-0.108 3.426-0.542 4.968-1.304 0.656-0.32 1.276-0.683 1.861-1.088-1.078-0.799-2.137-1.317-3.176-1.553-2.878-1.578-2.666-2.312-2.666-5.745l0.397-0.406c0.22-0.213 0.505-0.89 0.657-1.259 0.102-0.246 0.339-0.888 0.713-1.925l0.563-0.117c0.034-0.011 0.106-0.262 0.215-0.752l-0.503-0.11 0.117-0.382c0.857-3.487 0.727-5.523-0.391-6.108-0.431-0.189-0.853-0.079-0.97-0.129-0.287-0.122-0.775-0.354-1.010-0.834-0.25-0.182-0.697-0.248-1.339-0.197-0.694 0-1.385 0.091-1.884 0.271s-1.072 0.528-1.376 0.889c-1.531 1.589-0.884 5.027-0.603 6.761-0 0.005-0.445 0.11-0.411 0.126l0.054 0.319c0.066 0.289 0.119 0.446 0.161 0.473s0.277 0.026 0.707 0c0 0.412 0 0.677 0 0.795 0 0.177 0.61 1.876 1.23 2.403-0.002 0.001 0.051 0.105 0.159 0.311 0 0.732 0 1.732 0 3.001 0.019 0.385-0.437 1.381-1.52 2.112-1.085 0.793-1.759 0.567-4.453 2.209 0.012 0.009 0.024 0.019 0.036 0.029zM6.573 25.828c0.509-0.423 1.31-0.986 2.298-1.51 1.236-0.537 2.642-0.86 2.895-1.111 0.153-0.152 0.324-0.334 0.51-0.545-0.002-1.211-0.002-1.815 0-1.813-1.273-1.952-1.221-2.468-1.269-2.413-1.044-0.898-1.38-2.109-1.008-3.633-0.359-3.978 0.184-6.532 1.63-7.664 0.66-0.715 1.621-1.084 2.3-1.335s1.66-0.309 2.603-0.309h0.207c0.691 0 0.951 0.092 1.47 0.26 0.775 0.316 0.862 0.606 1.030 0.771 0.329 0.042 0.733 0.143 1.212 0.304 0.718 0.241 1.61 1.327 1.86 2.34s0.588 2.83-0.124 5.469c0.667 2.289-0.649 3.334-1.097 3.798-0.3 0.823-0.679 1.597-1.137 2.323 0 1.020 0 1.613 0 1.779 0 0.249 0.598 0.934 1.828 1.227 1.131 0.192 3.024 1.383 3.739 1.933 0.132-0.128 0.261-0.259 0.388-0.393 1.146-1.208 2.048-2.612 2.707-4.216 0.656-1.579 0.985-3.274 0.985-5.089 0-1.868-0.355-3.626-1.065-5.277-0.712-1.657-1.682-3.101-2.909-4.337s-2.666-2.208-4.321-2.92c-1.651-0.71-3.418-1.065-5.305-1.065s-3.653 0.355-5.305 1.065c-1.656 0.712-3.095 1.685-4.321 2.92s-2.196 2.681-2.909 4.337c-0.71 1.651-1.065 3.409-1.065 5.277 0 1.798 0.32 3.485 0.957 5.062 0.66 1.586 1.549 2.988 2.671 4.207 0.177 0.192 0.359 0.378 0.546 0.559z"></path>
</svg>
