<?xml version="1.0" encoding="UTF-8"?>
<svg   viewBox="0 0 32 32" version="1.1" xmlns="http://www.w3.org/2000/svg" xmlns:xlink="http://www.w3.org/1999/xlink">
<title>answer</title>
<path d="M17.296 19.382c0.203 0.126 0.37 0.212 0.501 0.259s0.247 0.071 0.349 0.071c0.058-0.063 0.12-0.133 0.185-0.212s0.149-0.18 0.251-0.306l0.065-0.071c0.029-0.031 0.058-0.071 0.087-0.118 0.174-0.204 0.32-0.365 0.436-0.483s0.247-0.232 0.392-0.341c0.407-0.267 0.85-0.377 1.329-0.33s0.872 0.251 1.177 0.612c0.494 0.518 1.006 1.036 1.536 1.554s1.224 1.169 2.081 1.954c0.378 0.345 0.625 0.761 0.741 1.248s0.080 0.942-0.109 1.366c-0.131 0.361-0.403 0.82-0.817 1.377s-0.781 0.969-1.1 1.236c-0.291 0.267-0.625 0.467-1.002 0.6s-0.799 0.2-1.264 0.2c-0.784 0-1.613-0.173-2.484-0.518s-1.765-0.844-2.68-1.495c-0.915-0.651-1.83-1.448-2.746-2.39-0.93-0.926-1.845-1.978-2.746-3.155-1.191-1.585-2.165-3.147-2.92-4.686-0.755-1.523-1.286-2.943-1.591-4.262s-0.378-2.496-0.218-3.532c0.145-1.036 0.537-1.852 1.177-2.449 0.305-0.283 0.755-0.585 1.351-0.907s1.075-0.514 1.438-0.577c0.45-0.079 0.886-0.008 1.307 0.212s0.748 0.565 0.981 1.036c0.305 0.675 0.654 1.373 1.046 2.096s0.857 1.515 1.395 2.378c0.261 0.44 0.363 0.906 0.305 1.401s-0.254 0.93-0.588 1.307c-0.116 0.11-0.236 0.212-0.36 0.306s-0.265 0.188-0.425 0.283c-0.029 0.031-0.058 0.055-0.087 0.071l-0.087 0.047c-0.015 0-0.044 0.016-0.087 0.047s-0.080 0.055-0.109 0.071c-0.102 0.047-0.193 0.098-0.272 0.153s-0.163 0.122-0.251 0.2c-0.015 0.126-0.007 0.271 0.022 0.436s0.087 0.365 0.174 0.6c0.116 0.345 0.298 0.734 0.545 1.165s0.559 0.899 0.937 1.401c0.407 0.534 0.788 0.977 1.144 1.33s0.686 0.624 0.991 0.812z"></path>
</svg>
