<?xml version="1.0" encoding="UTF-8"?>
<svg   viewBox="0 0 32 32" version="1.1" xmlns="http://www.w3.org/2000/svg" xmlns:xlink="http://www.w3.org/1999/xlink">
<title>end--answer</title>
<path fill="#f44236" style="fill: var(--color1, #f44236)" d="M6.536 0v0c3.61 0 6.536 2.926 6.536 6.536v0.032c0 3.61-2.926 6.536-6.536 6.536v0c-3.61 0-6.536-2.926-6.536-6.536v-0.032c0-3.61 2.926-6.536 6.536-6.536z"></path>
<path fill="#fff" style="fill: var(--color2, #fff)" d="M8.646 7.462c-0.029 0-0.048 0-0.077-0.010-0.328-0.058-0.906-0.241-1.079-0.386l-0.029-0.019-0.010-0.029c-0.068-0.125-0.048-0.251-0.029-0.337 0.019-0.106 0.019-0.125-0.019-0.164v0c0 0-0.115-0.068-0.781-0.077h-0.289c-0.655 0.010-0.771 0.077-0.771 0.077-0.038 0.038-0.038 0.058-0.029 0.164 0.010 0.087 0.029 0.212-0.048 0.337l-0.019 0.029-0.019 0.019c-0.183 0.144-0.771 0.318-1.108 0.376-0.019 0.010-0.038 0.010-0.068 0.010-0.068 0-0.183-0.029-0.289-0.193-0.164-0.26-0.251-0.867 0.010-1.176l0.019-0.019c0.376-0.405 1.224-0.646 2.274-0.646h0.414c1.070 0 1.918 0.251 2.274 0.665 0.27 0.318 0.154 0.973-0.068 1.243-0.096 0.107-0.202 0.136-0.259 0.136v0z"></path>
<path fill="#26a304" style="fill: var(--color3, #26a304); stroke: var(--color2, #fff)" stroke="#fff" stroke-linejoin="miter" stroke-linecap="butt" stroke-miterlimit="4" stroke-width="0.7314" d="M18.103 5.12c7.17 0 12.983 5.813 12.983 12.983s-5.813 12.983-12.983 12.983c-7.17 0-12.983-5.813-12.983-12.983s5.813-12.983 12.983-12.983z"></path>
<path fill="#fff" style="fill: var(--color2, #fff)" d="M18.689 19.554c0.084 0.052 0.154 0.088 0.208 0.107s0.102 0.029 0.145 0.029c0.024-0.026 0.050-0.055 0.077-0.088s0.062-0.075 0.104-0.127l0.027-0.029c0.012-0.013 0.024-0.029 0.036-0.049 0.072-0.085 0.132-0.151 0.181-0.2s0.102-0.096 0.163-0.142c0.169-0.111 0.352-0.156 0.551-0.137s0.361 0.104 0.488 0.254c0.205 0.215 0.417 0.429 0.637 0.644s0.507 0.485 0.863 0.81c0.157 0.143 0.259 0.316 0.307 0.517s0.033 0.39-0.045 0.566c-0.054 0.15-0.167 0.34-0.339 0.571s-0.324 0.402-0.456 0.512c-0.12 0.111-0.259 0.194-0.416 0.249s-0.331 0.083-0.524 0.083c-0.325 0-0.668-0.072-1.030-0.215s-0.732-0.35-1.111-0.62c-0.379-0.27-0.759-0.6-1.138-0.991-0.385-0.384-0.765-0.82-1.138-1.308-0.494-0.657-0.897-1.305-1.21-1.942-0.313-0.631-0.533-1.22-0.659-1.767s-0.157-1.035-0.090-1.464c0.060-0.429 0.223-0.768 0.488-1.015 0.126-0.117 0.313-0.242 0.56-0.376s0.446-0.213 0.596-0.239c0.187-0.033 0.367-0.003 0.542 0.088s0.31 0.234 0.406 0.429c0.126 0.28 0.271 0.569 0.434 0.869s0.355 0.628 0.578 0.986c0.108 0.182 0.151 0.376 0.126 0.581s-0.105 0.386-0.244 0.542c-0.048 0.046-0.098 0.088-0.149 0.127s-0.11 0.078-0.176 0.117c-0.012 0.013-0.024 0.023-0.036 0.029l-0.036 0.020c-0.006 0-0.018 0.006-0.036 0.020s-0.033 0.023-0.045 0.029c-0.042 0.020-0.080 0.041-0.113 0.063s-0.068 0.050-0.104 0.083c-0.006 0.052-0.003 0.112 0.009 0.181s0.036 0.151 0.072 0.249c0.048 0.143 0.123 0.304 0.226 0.483s0.232 0.372 0.388 0.581c0.169 0.221 0.327 0.405 0.474 0.551s0.285 0.259 0.411 0.337z"></path>
</svg>
