<?xml version="1.0" encoding="UTF-8"?>
<svg viewBox="null" version="1.1" xmlns="http://www.w3.org/2000/svg" xmlns:xlink="http://www.w3.org/1999/xlink">
<title>evernote</title>
<path d="M21.223 15.316c-0.345-0.011-0.676 0.010-0.986 0.059 0.087-0.698 0.378-1.554 1.405-1.519 1.137 0.039 1.295 1.107 1.3 1.83-0.48-0.213-1.073-0.348-1.719-0.371h0zM26.085 7.742c-0.191-1.011-0.795-1.51-1.342-1.705-0.59-0.212-1.787-0.432-3.291-0.608-1.21-0.141-2.631-0.13-3.49-0.104-0.104-0.701-0.598-1.342-1.152-1.564-1.476-0.591-3.757-0.447-4.343-0.284-0.465 0.129-0.98 0.393-1.267 0.802-0.192 0.273-0.317 0.622-0.318 1.109 0 0.277 0.008 0.927 0.015 1.505 0.007 0.58 0.015 1.098 0.015 1.102-0 0.516-0.421 0.936-0.943 0.937h-2.393c-0.511 0-0.901 0.085-1.199 0.22s-0.51 0.317-0.67 0.531c-0.319 0.427-0.375 0.953-0.374 1.489 0 0 0.005 0.439 0.111 1.288 0.089 0.657 0.806 5.247 1.487 6.644 0.264 0.543 0.44 0.769 0.959 1.008 1.156 0.492 3.797 1.040 5.035 1.196 1.235 0.157 2.011 0.488 2.473-0.475 0.001-0.003 0.092-0.24 0.218-0.587 0.401-1.208 0.457-2.28 0.457-3.055 0-0.079 0.117-0.083 0.117 0 0 0.547-0.105 2.485 1.368 3.005 0.582 0.205 1.788 0.387 3.014 0.53 1.109 0.126 1.914 0.56 1.914 3.385 0 1.719-0.364 1.955-2.263 1.955-1.54 0-2.128 0.040-2.128-1.176 0-0.982 0.979-0.879 1.703-0.879 0.324 0 0.089-0.239 0.089-0.845 0-0.604 0.38-0.952 0.021-0.96-2.506-0.069-3.981-0.003-3.981 3.111 0 2.827 1.089 3.352 4.646 3.352 2.789 0 3.773-0.091 4.924-3.641 0.228-0.7 0.78-2.84 1.113-6.431 0.212-2.27-0.198-9.124-0.523-10.853v-0zM7.464 8.24h2.395c0.137 0 0.247-0.111 0.248-0.246 0-0.001-0.029-2.038-0.029-2.605v-0.006c0-0.466 0.098-0.871 0.269-1.212l0.082-0.153c-0.009 0.002-0.018 0.006-0.028 0.015l-4.65 4.581c-0.009 0.008-0.015 0.017-0.017 0.027 0.096-0.047 0.228-0.112 0.246-0.12 0.405-0.182 0.896-0.282 1.483-0.282z"></path>
</svg>
