<?xml version="1.0" encoding="UTF-8"?>
<svg viewBox="null" version="1.1" xmlns="http://www.w3.org/2000/svg" xmlns:xlink="http://www.w3.org/1999/xlink">
<title>webpage</title>
<path d="M22.667 9.333h-5.333v2.667h5.333c2.2 0 4 1.8 4 4s-1.8 4-4 4h-5.333v2.667h5.333c3.68 0 6.667-2.987 6.667-6.667s-2.987-6.667-6.667-6.667zM14.667 20h-5.333c-2.2 0-4-1.8-4-4s1.8-4 4-4h5.333v-2.667h-5.333c-3.68 0-6.667 2.987-6.667 6.667s2.987 6.667 6.667 6.667h5.333v-2.667zM10.667 14.667h10.667v2.667h-10.667v-2.667zM22.667 9.333h-5.333v2.667h5.333c2.2 0 4 1.8 4 4s-1.8 4-4 4h-5.333v2.667h5.333c3.68 0 6.667-2.987 6.667-6.667s-2.987-6.667-6.667-6.667zM14.667 20h-5.333c-2.2 0-4-1.8-4-4s1.8-4 4-4h5.333v-2.667h-5.333c-3.68 0-6.667 2.987-6.667 6.667s2.987 6.667 6.667 6.667h5.333v-2.667zM10.667 14.667h10.667v2.667h-10.667v-2.667z"></path>
</svg>
