<?xml version="1.0" encoding="UTF-8"?>
<svg   viewBox="0 0 32 32" version="1.1" xmlns="http://www.w3.org/2000/svg" xmlns:xlink="http://www.w3.org/1999/xlink">
<title>image-preview</title>
<path fill="#9e9e9e" style="fill: var(--color4, #9e9e9e)" d="M32 28.444v-24.889c0-1.956-1.6-3.556-3.556-3.556h-24.889c-1.956 0-3.556 1.6-3.556 3.556v24.889c0 1.956 1.6 3.556 3.556 3.556h24.889c1.956 0 3.556-1.6 3.556-3.556z"></path>
<path fill="#fff" style="fill: var(--color2, #fff)" d="M12.444 11.556c0 1.473-1.194 2.667-2.667 2.667s-2.667-1.194-2.667-2.667c0-1.473 1.194-2.667 2.667-2.667s2.667 1.194 2.667 2.667z"></path>
<path fill="#fff" style="fill: var(--color2, #fff)" d="M10.607 18.844l3.852 4.54 6.163-9.161 6.933 12.444h-23.111z"></path>
</svg>
