<?xml version="1.0" encoding="UTF-8"?>
<svg viewBox="null" version="1.1" xmlns="http://www.w3.org/2000/svg" xmlns:xlink="http://www.w3.org/1999/xlink">
<title>pin</title>
<path d="M3.583 29.331c-0.341 0-0.556-0.165-0.653-0.261-0.147-0.146-0.448-0.56-0.107-1.265l0.016-0.033 4.508-7.359 1.049-1.043-3.643-3.613c-0.558-0.552-0.773-1.216-0.593-1.823 0.191-0.64 0.788-1.103 1.636-1.27l0.039-0.008 0.039-0.002 4.933-0.465 4.371-4.241v-3.367c0-0.468 0.039-0.813 0.123-1.080 0.244-0.774 0.849-0.834 1.030-0.834 0.482 0 0.88 0.332 1.174 0.622l0.006 0.006 11.196 11.288c0.002 0.006 0.008 0.008 0.013 0.013 0 0 0.382 0.395 0.501 0.512s0.113 0.706 0.113 0.706c-0.006 0.109-0.029 0.225-0.076 0.34-0.092 0.225-0.31 0.52-0.829 0.659-0.236 0.062-0.532 0.094-0.907 0.097h-3.417l-4.254 4.342-0.509 4.941-0.008 0.037c-0.094 0.461-0.27 0.834-0.527 1.113-0.299 0.325-0.694 0.502-1.119 0.502-0.493 0-0.991-0.235-1.441-0.679l-3.581-3.556-1.059 1.056-7.41 4.509c-0.238 0.115-0.443 0.157-0.616 0.157l0.002-0.002z"></path>
</svg>
