<?xml version="1.0" encoding="UTF-8"?>
<svg viewBox="null" version="1.1" xmlns="http://www.w3.org/2000/svg" xmlns:xlink="http://www.w3.org/1999/xlink">
<title>outcall</title>
<path d="M18.551 29.977c-2.868 0-6.598-2.484-9.976-6.621-4.895-6.029-5.465-11.055-3.523-12.772 0.506-0.443 1.852-1.125 2.479-1.21 0.686-0.117 1.373 0.208 1.734 0.858 0.686 1.386 1.522 2.75 2.389 4.078 0.388 0.587 0.298 1.328-0.208 1.834-0.298 0.298-0.655 0.474-0.985 0.65-0.266 0.117-0.474 0.266-0.686 0.443 0 0-0.086 0.086-0.086 0.266-0.027 0.384 0.027 1.45 1.73 3.577 1.852 2.249 2.954 2.394 3.256 2.394 0.122 0 0.208-0.027 0.208-0.027 0.208-0.181 0.388-0.384 0.569-0.587 0.266-0.298 0.506-0.587 0.867-0.826 0.596-0.384 1.405-0.298 1.852 0.176 1.138 1.125 2.362 2.19 3.523 3.193 0.569 0.474 0.777 1.21 0.474 1.834-0.208 0.56-1.165 1.712-1.734 2.154-0.483 0.411-1.138 0.587-1.883 0.587zM22.652 10.879l-6.137-6.133 2.723-2.723 8.861 8.856-8.879 8.888-2.723-2.728 6.155-6.16z"></path>
</svg>
