<?xml version="1.0" encoding="UTF-8"?>
<svg viewBox="null" version="1.1" xmlns="http://www.w3.org/2000/svg" xmlns:xlink="http://www.w3.org/1999/xlink">
<title>unpin</title>
<path d="M3.583 29.4c-0.341 0-0.556-0.165-0.653-0.262-0.147-0.147-0.448-0.561-0.107-1.269l0.016-0.034 4.508-7.378 1.048-1.046-3.643-3.622c-0.558-0.553-0.773-1.219-0.592-1.827 0.191-0.642 0.789-1.106 1.635-1.274l0.039-0.008 0.039-0.003 4.933-0.467 4.372-4.251v-3.376c0-0.469 0.039-0.815 0.123-1.082 0.244-0.776 0.849-0.836 1.030-0.836 0.482 0 0.881 0.333 1.174 0.624l0.005 0.005 11.197 11.317c0.003 0.005 0.008 0.008 0.013 0.013 0 0 0.383 0.396 0.501 0.514s0.113 0.708 0.113 0.708c-0.005 0.11-0.029 0.225-0.076 0.341-0.092 0.225-0.309 0.522-0.828 0.66-0.236 0.063-0.532 0.094-0.907 0.097h-3.418l-4.254 4.353-0.508 4.953-0.008 0.037c-0.094 0.461-0.27 0.836-0.527 1.116-0.299 0.325-0.695 0.503-1.119 0.503-0.493 0-0.991-0.236-1.442-0.681l-3.58-3.564-1.059 1.059-7.409 4.521c-0.239 0.115-0.443 0.157-0.616 0.157zM8.539 21.398l-3.339 5.467 5.47-3.339 1.997-1.997 4.642 4.623c0.191 0.189 0.328 0.238 0.372 0.241 0.031-0.026 0.113-0.131 0.168-0.377l0.553-5.402 5.066-5.182h3.924l-1.109-1.098h0.029l-9.621-9.726v3.989l-5.216 5.066-5.42 0.511c-0.33 0.073-0.44 0.194-0.451 0.223-0.003 0.021 0.026 0.139 0.21 0.322l4.718 4.691-1.992 1.987z"></path>
</svg>
