<?xml version="1.0" encoding="UTF-8"?>
<svg viewBox="null" version="1.1" xmlns="http://www.w3.org/2000/svg" xmlns:xlink="http://www.w3.org/1999/xlink">
<title>add-team</title>
<path d="M16 15.111c1.973 0 3.556-1.6 3.556-3.556s-1.582-3.556-3.556-3.556c-1.956 0-3.556 1.6-3.556 3.556s1.6 3.556 3.556 3.556zM23.111 15.111c1.973 0 3.556-1.6 3.556-3.556s-1.582-3.556-3.556-3.556c-0.64 0-1.227 0.178-1.742 0.48 0.533 0.907 0.853 1.956 0.853 3.076s-0.32 2.169-0.853 3.076c0.516 0.302 1.12 0.48 1.742 0.48zM16 17.244c-2.969 0-8.889 1.476-8.889 4.444v2.311h17.778v-2.311c0-2.969-5.92-4.444-8.889-4.444zM8.889 13.333h-3.556v-3.556h-1.778v3.556h-3.556v1.778h3.556v3.556h1.778v-3.556h3.556v-1.778zM25.298 17.44c1.333 1.067 2.258 2.453 2.258 4.249v2.311h4.444v-2.311c0-2.329-3.68-3.751-6.702-4.249z"></path>
</svg>
