<?xml version="1.0" encoding="UTF-8"?>
<svg viewBox="null" version="1.1" xmlns="http://www.w3.org/2000/svg" xmlns:xlink="http://www.w3.org/1999/xlink">
<title>box</title>
<path d="M21.438 10.684c-0.23-0.513-0.459-1.026-0.689-1.54-1.167-2.046-3.152-3.351-6.457-3.116-0.687 0.106-1.124 0.25-1.669 0.513-1.547 0.715-3.262 2.238-3.555 4.18-0.617 0.196-1.233 0.391-1.85 0.587-1.146 0.539-2.366 1.44-3.047 2.457-0.545 0.815-0.992 1.737-1.306 2.786-0.485 1.623 0.010 3.515 0.472 4.694 0.944 2.407 3 4.064 5.804 4.584 0.834 0.024 1.669 0.049 2.503 0.073h4.425c2.396 0 5.439 0.332 7.472-0.22 2.621-0.71 4.666-2.604 5.442-5.171 1.627-5.39-2.683-9.886-7.546-9.827v0zM16.706 23.241c-1.43 0-2.655-0.841-3.25-2.054-0.595 1.213-1.82 2.054-3.25 2.054-2.010 0-3.64-1.647-3.64-3.68 0-0.015 0-0.030 0-0.045 0-0.007 0-0.013 0-0.020v-6.045c0-0.435 0.349-0.789 0.78-0.789s0.78 0.353 0.78 0.788v3.091c0.59-0.416 1.307-0.659 2.080-0.659 1.43 0 2.654 0.841 3.25 2.053 0.595-1.212 1.82-2.053 3.25-2.053 2.010 0 3.639 1.647 3.639 3.679s-1.63 3.68-3.639 3.68zM25.388 22.108c0.259 0.347 0.191 0.842-0.153 1.104s-0.833 0.194-1.092-0.154l-1.588-2.124-1.588 2.124c-0.26 0.348-0.749 0.416-1.092 0.154s-0.412-0.757-0.153-1.104l1.855-2.481-1.855-2.482c-0.26-0.347-0.191-0.842 0.153-1.104s0.832-0.194 1.092 0.154l1.588 2.124 1.588-2.124c0.259-0.347 0.748-0.416 1.092-0.154s0.412 0.757 0.153 1.104l-1.855 2.482 1.855 2.481zM16.706 17.459c1.149 0 2.079 0.941 2.079 2.102s-0.93 2.103-2.079 2.103c-1.149 0-2.080-0.941-2.080-2.103s0.931-2.102 2.080-2.102zM10.206 17.459c1.149 0 2.080 0.941 2.080 2.102s-0.931 2.103-2.080 2.103c-1.149 0-2.080-0.941-2.080-2.103s0.931-2.102 2.080-2.102z"></path>
</svg>
