<?xml version="1.0" encoding="UTF-8"?>
<svg   viewBox="0 0 32 32" version="1.1" xmlns="http://www.w3.org/2000/svg" xmlns:xlink="http://www.w3.org/1999/xlink">
<title>3</title>
<path fill="#212121" style="fill: var(--color7, #212121)" d="M14.689 11.855h1.008c0.512 0 0.874-0.128 1.087-0.384s0.319-0.612 0.319-1.069c0-0.488-0.121-0.859-0.363-1.113s-0.6-0.381-1.072-0.381c-0.449 0-0.81 0.132-1.081 0.396s-0.407 0.614-0.407 1.052h-1.107l-0.012-0.035c-0.020-0.645 0.214-1.192 0.7-1.644s1.122-0.677 1.907-0.677c0.789 0 1.418 0.21 1.887 0.63s0.703 1.019 0.703 1.796c0 0.352-0.106 0.702-0.319 1.052s-0.532 0.616-0.958 0.8c0.512 0.168 0.874 0.432 1.087 0.791s0.319 0.762 0.319 1.207c0 0.777-0.255 1.389-0.765 1.834s-1.161 0.668-1.954 0.668c-0.777 0-1.421-0.21-1.931-0.63s-0.755-0.989-0.735-1.708l0.018-0.035h1.102c0 0.449 0.138 0.807 0.413 1.072s0.653 0.398 1.134 0.398c0.488 0 0.871-0.133 1.148-0.398s0.416-0.658 0.416-1.178c0-0.527-0.123-0.916-0.369-1.166s-0.635-0.375-1.166-0.375h-1.008v-0.902z"></path>
<path fill="#9e9e9e" style="fill: var(--color4, #9e9e9e)" d="M11.5 23.555v-3.555h1.091c0.466 0 0.839 0.143 1.121 0.428s0.422 0.655 0.422 1.107v0.486c0 0.454-0.141 0.823-0.422 1.107s-0.655 0.426-1.121 0.426h-1.091zM11.981 20.378v2.8h0.61c0.329 0 0.588-0.108 0.778-0.325s0.284-0.494 0.284-0.833v-0.491c0-0.335-0.095-0.611-0.284-0.828s-0.449-0.325-0.778-0.325h-0.61zM16.903 21.907h-1.628v1.272h1.877v0.376h-2.358v-3.555h2.332v0.378h-1.851v1.15h1.628v0.378zM19.818 21.982h-1.621v1.572h-0.481v-3.555h2.351v0.378h-1.87v1.226h1.621v0.378z"></path>
</svg>
