<?xml version="1.0" encoding="UTF-8"?>
<svg   viewBox="0 0 32 32" version="1.1" xmlns="http://www.w3.org/2000/svg" xmlns:xlink="http://www.w3.org/1999/xlink">
<title>note-new</title>
<path d="M4.8 0h12.8c7.069 0 12.8 5.731 12.8 12.8v16c0 1.767-1.433 3.2-3.2 3.2h-22.4c-1.767 0-3.2-1.433-3.2-3.2v-25.6c0-1.767 1.433-3.2 3.2-3.2zM8 15.6c0 0.663 0.537 1.2 1.2 1.2h12c0.663 0 1.2-0.537 1.2-1.2s-0.537-1.2-1.2-1.2h-12c-0.663 0-1.2 0.537-1.2 1.2zM8 22c0 0.663 0.537 1.2 1.2 1.2h8.8c0.663 0 1.2-0.537 1.2-1.2s-0.537-1.2-1.2-1.2h-8.8c-0.663 0-1.2 0.537-1.2 1.2z"></path>
</svg>
