<?xml version="1.0" encoding="UTF-8"?>
<svg viewBox="null" version="1.1" xmlns="http://www.w3.org/2000/svg" xmlns:xlink="http://www.w3.org/1999/xlink">
<title>deletenumber</title>
<path d="M25.333 12.076l-3.924 3.924 3.924 3.924-1.41 1.41-3.924-3.924-3.924 3.924-1.41-1.41 3.924-3.924-3.924-3.924 1.41-1.41 3.924 3.924 3.924-3.924 1.41 1.41zM12.665 5.333h14.002c2.209 0 4 1.791 4 4v13.333c0 2.209-1.791 4-4 4h-13.998c-1.26 0-2.446-0.594-3.201-1.602l-6.8-9.078 6.8-9.055c0.756-1.006 1.94-1.598 3.199-1.598zM5.167 15.988l5.901 7.878c0.378 0.504 0.971 0.801 1.601 0.801h13.998c1.105 0 2-0.895 2-2v-13.333c0-1.105-0.895-2-2-2h-14.002c-0.629 0-1.222 0.296-1.599 0.799l-5.899 7.856z"></path>
</svg>
