<?xml version="1.0" encoding="UTF-8"?>
<svg viewBox="null" version="1.1" xmlns="http://www.w3.org/2000/svg" xmlns:xlink="http://www.w3.org/1999/xlink">
<title>onedrive</title>
<path d="M27.353 18.31l-0 0c1.42 0.516 2.088 1.599 1.966 3.192-0.079 1.042-0.558 1.873-1.319 2.286l-0.357 0.194-7.948 0.015c-6.106 0.012-8.047-0.010-8.383-0.095-1.614-0.409-2.513-1.709-2.516-3.64-0.001-0.617 0.043-0.913 0.195-1.31 0.373-0.973 1.358-1.707 2.655-1.977 0.646-0.135 0.845-0.279 0.845-0.613 0-0.105 0.077-0.418 0.171-0.694 0.427-1.257 1.216-2.305 2.060-2.734 0.883-0.448 1.329-0.55 2.398-0.544 1.517 0.008 2.274 0.342 3.333 1.47l0.582 0.62 0.522-0.183c2.525-0.886 5.042 0.622 5.245 3.143l0.056 0.689 0.497 0.181zM7.69 20.35v0c0 0.71 0.181 1.576 0.43 2.073 0.094 0.187 0.147 0.365 0.117 0.396-0.077 0.078-2.542 0.051-2.883-0.031-0.942-0.227-1.94-1.071-2.408-2.036-0.266-0.547-0.28-0.628-0.28-1.596 0-0.921 0.023-1.070 0.234-1.527 0.446-0.964 1.299-1.661 2.371-1.934 0.226-0.058 0.438-0.15 0.472-0.205s0.071-0.354 0.083-0.664c0.075-1.929 1.323-3.629 3.065-4.175 0.942-0.294 2.125-0.222 3.148 0.193 0.325 0.132 0.288 0.161 0.975-0.752 0.406-0.54 1.227-1.212 1.899-1.555 0.725-0.369 1.478-0.539 2.38-0.537 2.521 0.007 4.692 1.605 5.495 4.045 0.257 0.779 0.244 0.997-0.059 1.004-0.132 0.003-0.511 0.077-0.841 0.164l-0.6 0.159-0.549-0.556c-1.546-1.568-4.069-1.907-6.214-0.834-0.857 0.428-1.545 1.044-2.065 1.845-0.371 0.571-0.844 1.637-0.844 1.902 0 0.187-0.15 0.281-0.79 0.495-1.982 0.658-3.138 2.18-3.138 4.128z"></path>
</svg>
