<?xml version="1.0" encoding="UTF-8"?>
<svg   viewBox="0 0 32 32" version="1.1" xmlns="http://www.w3.org/2000/svg" xmlns:xlink="http://www.w3.org/1999/xlink">
<title>5</title>
<path fill="#212121" style="fill: var(--color7, #212121)" d="M13.607 12.682l0.492-4.682h4.271v1.025h-3.293l-0.281 2.396c0.18-0.133 0.38-0.243 0.601-0.331s0.476-0.136 0.765-0.144c0.785-0.008 1.403 0.248 1.855 0.768s0.677 1.219 0.677 2.098c0 0.855-0.23 1.543-0.688 2.063s-1.128 0.779-2.007 0.779c-0.723 0-1.324-0.197-1.805-0.592s-0.711-0.975-0.691-1.74l0.012-0.035h1.043c0 0.465 0.134 0.825 0.401 1.081s0.614 0.384 1.040 0.384c0.488 0 0.867-0.172 1.137-0.516s0.404-0.814 0.404-1.412c0-0.547-0.137-0.996-0.41-1.348s-0.65-0.527-1.131-0.527c-0.453 0-0.781 0.068-0.984 0.205s-0.352 0.346-0.445 0.627l-0.961-0.1z"></path>
<path fill="#9e9e9e" style="fill: var(--color4, #9e9e9e)" d="M13.709 20h0.481v2.571c0 0.317-0.101 0.569-0.302 0.756s-0.462 0.28-0.782 0.28c-0.342 0-0.614-0.087-0.815-0.26s-0.299-0.425-0.291-0.756l0.005-0.015h0.461c0 0.22 0.056 0.384 0.167 0.492s0.269 0.162 0.472 0.162c0.177 0 0.322-0.060 0.435-0.179s0.168-0.28 0.168-0.48v-2.571zM15.934 21.951h-0.415v1.604h-0.481v-3.555h0.481v1.572h0.371l1.272-1.572h0.532l0.007 0.012-1.379 1.707 1.48 1.824-0.007 0.012h-0.574l-1.287-1.604zM18.734 23.179h1.682v0.376h-2.163v-3.555h0.481v3.179z"></path>
</svg>
