<?xml version="1.0" encoding="UTF-8"?>
<svg   viewBox="0 0 32 32" version="1.1" xmlns="http://www.w3.org/2000/svg" xmlns:xlink="http://www.w3.org/1999/xlink">
<title>unselect</title>
<path d="M7.093 4h17.813c1.708 0 3.093 1.385 3.093 3.093v17.813c0 1.708-1.385 3.093-3.093 3.093h-17.813c-1.708 0-3.093-1.385-3.093-3.093v-17.813c0-1.708 1.385-3.093 3.093-3.093zM7.093 6.667c-0.236 0-0.427 0.191-0.427 0.427v17.813c0 0.236 0.191 0.427 0.427 0.427h17.813c0.236 0 0.427-0.191 0.427-0.427v-17.813c0-0.236-0.191-0.427-0.427-0.427h-17.813z"></path>
</svg>
