<?xml version="1.0" encoding="UTF-8"?>
<svg   viewBox="0 0 32 32" version="1.1" xmlns="http://www.w3.org/2000/svg" xmlns:xlink="http://www.w3.org/1999/xlink">
<title>view</title>
<path d="M16 8c-8.762 0-13.333 8.536-13.333 8.536s3.429 8.536 13.333 8.536c8.952 0 13.333-8.354 13.333-8.354s-4.381-8.717-13.333-8.717v0zM16 21.803c-3.238 0-5.524-2.361-5.524-5.267s2.286-5.267 5.524-5.267c3.238 0 5.524 2.361 5.524 5.267s-2.286 5.267-5.524 5.267v0zM16 13.448c-1.905 0-3.238 1.453-3.238 3.087s1.524 3.087 3.238 3.087c1.714 0 3.238-1.453 3.238-3.087 0.19-1.634-1.333-3.269-3.238-3.087v0z"></path>
</svg>
