<?xml version="1.0" encoding="UTF-8"?>
<svg   viewBox="0 0 32 32" version="1.1" xmlns="http://www.w3.org/2000/svg" xmlns:xlink="http://www.w3.org/1999/xlink">
<title>read</title>
<path d="M13.466 19.407h10.265c1.863 0 3.352-1.528 3.352-3.385v-0.671l-2.902-3.928 2.903-4.2 0.001-0.634c0.002-1.859-1.487-3.389-3.351-3.389h-13.982c-1.861 0-3.352 1.528-3.352 3.385v19.834c0 0.983 0.536 1.596 1.219 1.954 0.278 0.146 0.562 0.235 0.878 0.3 0.422 0.086 0.923 0.127 1.436 0.127s1.014-0.041 1.436-0.127c0.316-0.065 0.601-0.154 0.878-0.3 0.683-0.359 1.219-0.971 1.219-1.954v-7.012zM23.735 5.238c0.727 0 1.315 0.604 1.314 1.349l-3.371 4.876 3.369 4.56c0 0.743-0.588 1.348-1.315 1.348h-12.303v9.049c0 0.458-2.991 0.458-2.991 0v-19.834c0-0.743 0.591-1.348 1.315-1.348h13.982z"></path>
</svg>
