<?xml version="1.0" encoding="UTF-8"?>
<svg   viewBox="0 0 32 32" version="1.1" xmlns="http://www.w3.org/2000/svg" xmlns:xlink="http://www.w3.org/1999/xlink">
<title>team</title>
<path d="M11.5 16c2.895 0 5.25-2.467 5.25-5.5s-2.355-5.5-5.25-5.5c-2.895 0-5.25 2.467-5.25 5.5s2.355 5.5 5.25 5.5zM11.5 18.75c-3.51 0-10.5 1.839-10.5 5.5v2.75h21v-2.75c0-3.661-6.99-5.5-10.5-5.5zM22.060 18.844c1.74 1.32 2.94 3.080 2.94 5.406v2.75h6v-2.75c0-3.174-5.25-4.981-8.94-5.406zM20.5 16c2.895 0 5.25-2.467 5.25-5.5s-2.355-5.5-5.25-5.5c-0.81 0-1.56 0.204-2.25 0.55 0.945 1.399 1.5 3.111 1.5 4.95s-0.555 3.551-1.5 4.95c0.69 0.346 1.44 0.55 2.25 0.55z"></path>
</svg>
