<?xml version="1.0" encoding="UTF-8"?>
<svg   viewBox="0 0 32 32" version="1.1" xmlns="http://www.w3.org/2000/svg" xmlns:xlink="http://www.w3.org/1999/xlink">
<title>settings_border</title>
<path d="M27.734 25.043c-1.329-0.471-2.847 0.565-2.752 1.978 0 0.283 0.095 0.565 0.19 0.754 0.38 1.036 0 2.072-0.949 2.637-1.139 0.659-2.372 1.13-3.701 1.507-1.044 0.283-2.088-0.188-2.562-1.225-0.474-1.13-1.898-1.601-2.942-1.036-0.38 0.283-0.759 0.565-0.854 1.036-0.38 0.848-1.234 1.413-2.088 1.225-0.475-0.094-0.854-0.188-1.329-0.377-0.949-0.283-1.898-0.754-2.752-1.225-1.044-0.565-1.423-1.601-0.949-2.637 0.285-0.848 0.19-1.601-0.474-2.261s-1.423-0.754-2.183-0.471c-1.139 0.377-2.088 0.094-2.752-0.942-0.664-1.13-1.139-2.355-1.518-3.579-0.38-1.036 0.19-2.167 1.234-2.543 0.664-0.283 1.044-0.754 1.234-1.413 0.285-0.942-0.285-1.978-1.234-2.355-0.664-0.283-1.044-0.754-1.234-1.413-0.095-0.377-0.095-0.754 0-1.13 0.19-1.225 0.664-2.449 1.329-3.674 0.569-1.036 1.613-1.413 2.657-0.942 1.234 0.471 2.562-0.283 2.847-1.601 0.095-0.377 0-0.754-0.095-1.13-0.38-1.036 0-2.072 1.044-2.638 1.139-0.659 2.373-1.13 3.606-1.507 1.044-0.283 2.088 0.188 2.467 1.225 0.285 0.659 0.854 1.13 1.613 1.319 0.949 0.188 1.803-0.283 2.278-1.225 0.285-0.659 0.759-1.13 1.518-1.225 0.38-0.188 0.664-0.188 1.044-0.094 1.329 0.377 2.562 0.848 3.701 1.507 1.044 0.565 1.329 1.601 0.949 2.638-0.474 1.319 0.285 2.732 1.708 2.826 0.285 0 0.664 0 0.949-0.094 1.139-0.377 2.183-0.094 2.752 1.036 0.664 1.13 1.139 2.261 1.424 3.485 0.285 1.13-0.095 2.167-1.234 2.637-1.329 0.565-1.708 2.261-0.759 3.297 0.19 0.188 0.474 0.377 0.759 0.565 1.044 0.471 1.518 1.507 1.234 2.637-0.38 1.319-0.854 2.543-1.518 3.674-0.38 0.659-1.044 1.036-1.993 1.036-0.095-0.188-0.38-0.188-0.664-0.283zM28.26 23.035c0.596-0.936 1.022-2.041 1.277-3.147 0.17-0.595-0.085-1.106-0.596-1.361-0.341-0.17-0.681-0.425-0.936-0.68-1.277-1.361-0.766-3.572 0.936-4.338 0.596-0.255 0.766-0.765 0.596-1.361-0.341-1.021-0.681-2.041-1.277-2.977-0.341-0.595-0.766-0.765-1.447-0.51-0.426 0.17-0.766 0.17-1.192 0.17-1.873-0.17-2.98-1.956-2.299-3.742 0.255-0.595 0.085-1.021-0.511-1.361-1.022-0.595-2.043-1.021-3.15-1.276-0.17 0-0.341-0.085-0.511 0-0.341 0.085-0.511 0.255-0.681 0.595-0.511 1.276-1.618 1.956-2.895 1.701-0.937-0.17-1.703-0.765-2.128-1.701-0.17-0.51-0.681-0.765-1.192-0.595-1.107 0.34-2.128 0.765-3.15 1.276-0.511 0.425-0.681 0.851-0.426 1.446 0.17 0.425 0.255 0.936 0.17 1.446-0.341 1.786-2.128 2.722-3.746 2.126-0.596-0.255-1.022-0.085-1.362 0.425-0.596 1.021-1.022 2.041-1.277 3.147-0.085 0.17-0.085 0.34 0 0.51 0.085 0.34 0.255 0.51 0.596 0.68 1.192 0.51 1.873 1.871 1.618 3.147-0.17 0.851-0.766 1.531-1.618 1.871-0.511 0.17-0.766 0.765-0.596 1.276 0.341 1.106 0.766 2.126 1.277 3.062 0.341 0.595 0.766 0.765 1.362 0.51 1.022-0.425 2.128-0.17 2.895 0.595 0.851 0.765 1.022 1.871 0.596 2.892-0.255 0.595-0.085 1.106 0.511 1.361 0.766 0.425 1.532 0.765 2.299 1.021 0.085 0 0.085 0 0.17 0.085 0.426 0.17 0.681 0.17 0.851 0.255 0.426 0.085 0.851-0.17 1.022-0.595 0.255-0.595 0.596-1.021 1.192-1.361 1.447-0.851 3.15-0.255 3.831 1.276 0.255 0.595 0.681 0.765 1.277 0.595 1.107-0.34 2.128-0.765 3.065-1.276 0.511-0.34 0.681-0.765 0.511-1.361-0.085-0.34-0.17-0.68-0.17-0.936-0.085-1.871 1.873-3.232 3.661-2.637 0.17 0.085 0.341 0.085 0.511 0.17 0.511 0 0.766-0.085 0.936-0.425zM16 22.4c-3.499 0-6.4-2.901-6.4-6.4s2.901-6.4 6.4-6.4c3.499 0 6.4 2.901 6.4 6.4s-2.901 6.4-6.4 6.4zM16 20c2.215 0 4-1.785 4-4s-1.785-4-4-4c-2.215 0-4 1.785-4 4s1.785 4 4 4z"></path>
</svg>
