<?xml version="1.0" encoding="UTF-8"?>
<svg   viewBox="0 0 32 32" version="1.1" xmlns="http://www.w3.org/2000/svg" xmlns:xlink="http://www.w3.org/1999/xlink">
<title>dashboard</title>
<path d="M4.667 18.667c-1.105 0-2-0.895-2-2v-12c0-1.105 0.895-2 2-2h8c1.105 0 2 0.895 2 2v12c0 1.105-0.895 2-2 2h-8zM4.667 29.333c-1.105 0-2-0.895-2-2v-4c0-1.105 0.895-2 2-2h8c1.105 0 2 0.895 2 2v4c0 1.105-0.895 2-2 2h-8zM19.333 29.333c-1.105 0-2-0.895-2-2v-22.667c0-1.105 0.895-2 2-2h8c1.105 0 2 0.895 2 2v22.667c0 1.105-0.895 2-2 2h-8z"></path>
</svg>
