<?xml version="1.0" encoding="UTF-8"?>
<svg viewBox="null" version="1.1" xmlns="http://www.w3.org/2000/svg" xmlns:xlink="http://www.w3.org/1999/xlink">
<title>event-new_border</title>
<path d="M27.987 8c-0.134-1.348-1.271-2.4-2.654-2.4h-18.667c-1.383 0-2.52 1.052-2.654 2.4h23.974zM28 10.4h-24v16.533c0 1.473 1.194 2.667 2.667 2.667h18.667c1.473 0 2.667-1.194 2.667-2.667v-16.533zM9.6 3.2h12.8v-2c0-0.663 0.537-1.2 1.2-1.2s1.2 0.537 1.2 1.2v2h2.4c1.767 0 3.2 1.433 3.2 3.2v22.4c0 1.767-1.433 3.2-3.2 3.2h-22.4c-1.767 0-3.2-1.433-3.2-3.2v-22.4c0-1.767 1.433-3.2 3.2-3.2h2.4v-2c0-0.663 0.537-1.2 1.2-1.2s1.2 0.537 1.2 1.2v2zM20 16.792c-0.316 0.306-0.746 0.852-1.309 1.637s-1.044 1.596-1.425 2.432c-0.301 0.656-0.762 1.458-1.003 2.406s-0.263 1.726-0.263 2.333h-2.104c0.064-1.896 0.713-3.639 1.896-5.914s1.709-2.919 2.233-3.42h-6.025v-1.867h8v2.392z"></path>
</svg>
