<?xml version="1.0" encoding="UTF-8"?>
<svg viewBox="null" version="1.1" xmlns="http://www.w3.org/2000/svg" xmlns:xlink="http://www.w3.org/1999/xlink">
<title>transription</title>
<path d="M8.667 6.604c-2.104 0-3.81 1.554-3.81 3.472v15.819h18.476c2.104 0 3.81-1.554 3.81-3.472v-12.346c0-1.918-1.705-3.472-3.81-3.472h-14.667zM8.667 4h14.667c3.682 0 6.667 2.721 6.667 6.077v12.346c0 3.356-2.985 6.077-6.667 6.077h-21.333v-18.423c0-3.356 2.985-6.077 6.667-6.077zM8.711 16.25c-0.806 0-1.461-0.784-1.461-1.75s0.654-1.75 1.461-1.75h12.829c0.806 0 1.461 0.784 1.461 1.75s-0.654 1.75-1.461 1.75h-12.829zM10.32 21.5c-0.729 0-1.32-0.784-1.32-1.75s0.591-1.75 1.32-1.75h6.11c0.729 0 1.32 0.784 1.32 1.75s-0.591 1.75-1.32 1.75h-6.11z"></path>
</svg>
