<?xml version="1.0" encoding="UTF-8"?>
<svg viewBox="null" version="1.1" xmlns="http://www.w3.org/2000/svg" xmlns:xlink="http://www.w3.org/1999/xlink">
<title>voicemail</title>
<path d="M16.343 16.527c0-3.976 3.217-7.194 7.191-7.194 3.928 0 7.133 3.224 7.133 7.191 0 3.976-3.217 7.194-7.191 7.194l-15.019-0c-3.958-0.066-7.123-3.27-7.123-7.194 0-3.973 3.22-7.191 7.194-7.191s7.191 3.22 7.191 7.194c0 1.57-0.429 2.844-1.284 3.993h3.196c-0.896-1.235-1.287-2.334-1.287-3.993zM8.552 12.851c-2.192 0-3.66 1.476-3.66 3.676s1.468 3.679 3.66 3.679 3.66-1.478 3.66-3.679c0-2.201-1.468-3.676-3.66-3.676zM27.207 16.527c0-2.198-1.476-3.677-3.674-3.679-2.198 0-3.685 1.484-3.685 3.679 0 2.181 1.53 3.679 3.742 3.679 2.18 0 3.616-1.466 3.616-3.679z"></path>
</svg>
