<?xml version="1.0" encoding="UTF-8"?>
<svg   viewBox="0 0 32 32" version="1.1" xmlns="http://www.w3.org/2000/svg" xmlns:xlink="http://www.w3.org/1999/xlink">
<title>9</title>
<path fill="#212121" style="fill: var(--color7, #212121)" d="M15.508 15.875c0.563 0 1.013-0.213 1.351-0.639s0.507-1.059 0.507-1.898v-0.387c-0.191 0.277-0.431 0.487-0.718 0.63s-0.606 0.214-0.958 0.214c-0.824 0-1.479-0.255-1.963-0.765s-0.727-1.212-0.727-2.106c0-0.855 0.257-1.557 0.771-2.104s1.138-0.82 1.872-0.82c0.891 0 1.593 0.278 2.106 0.835s0.77 1.376 0.77 2.458v2.033c0 1.113-0.278 1.967-0.835 2.561s-1.282 0.891-2.177 0.891c-0.301 0-0.606-0.028-0.917-0.085s-0.589-0.144-0.835-0.261l0.176-0.885c0.23 0.121 0.47 0.206 0.718 0.255s0.534 0.073 0.858 0.073zM15.689 12.893c0.426 0 0.78-0.092 1.063-0.275s0.487-0.418 0.612-0.703v-0.738c0-0.746-0.144-1.311-0.431-1.693s-0.706-0.574-1.257-0.574c-0.422 0-0.781 0.188-1.078 0.565s-0.445 0.86-0.445 1.45c0 0.586 0.138 1.061 0.413 1.424s0.649 0.545 1.122 0.545z"></path>
<path fill="#9e9e9e" style="fill: var(--color4, #9e9e9e)" d="M10.521 22.324l0.066 0.444 0.015 0.002 0.095-0.447 0.652-2.324h0.425l0.657 2.324 0.098 0.457h0.015l0.071-0.457 0.53-2.324h0.481l-0.857 3.555h-0.43l-0.701-2.466-0.063-0.32h-0.015l-0.061 0.32-0.713 2.466h-0.43l-0.854-3.555h0.479l0.542 2.324zM15.372 21.387l0.83-1.387h0.581l-1.128 1.763 1.152 1.792h-0.574l-0.852-1.411-0.854 1.411h-0.581l1.152-1.792-1.128-1.763h0.576l0.825 1.387zM18.472 21.807l0.928-1.807h0.549l-1.248 2.305v1.25h-0.479v-1.282l-1.228-2.273h0.549l0.928 1.807zM20.777 23.179h1.987v0.376h-2.529v-0.356l1.899-2.82h-1.873v-0.378h2.422v0.344l-1.907 2.834z"></path>
</svg>
