<?xml version="1.0" encoding="UTF-8"?>
<svg   viewBox="0 0 32 32" version="1.1" xmlns="http://www.w3.org/2000/svg" xmlns:xlink="http://www.w3.org/1999/xlink">
<title>mute-notification</title>
<path fill="#9e9e9e" style="fill: var(--color4, #9e9e9e)" d="M28.648 26.169c-0.113-0.212-0.258-0.411-0.437-0.59l-19.297-19.293c1.264-2.913 4.157-4.955 7.516-4.955h-0c4.516 0 8.19 3.695 8.19 8.235 0 7.839 2.371 10.98 4.931 13.205 0.711 0.615 1.119 1.512 1.119 2.46 0 0.517-0.417 0.937-0.932 0.937h-1.089zM21.79 26.169h-0.895c-0.432 2.081-2.27 3.649-4.466 3.649s-4.034-1.568-4.466-3.649h-8.843c-0.514 0-0.932-0.42-0.932-0.937 0-0.941 0.408-1.836 1.119-2.458 2.217-1.924 4.288-4.532 4.806-10.28l13.678 13.675z"></path>
<path fill="#dc0202" style="fill: var(--color5, #dc0202)" d="M3.622 4.64l23.738 23.738c0.665 0.665 0.665 1.744 0 2.409s-1.744 0.665-2.409 0l-23.738-23.738c-0.665-0.665-0.665-1.744 0-2.409s1.744-0.665 2.409 0z"></path>
</svg>
