<?xml version="1.0" encoding="UTF-8"?>
<svg   viewBox="0 0 32 32" version="1.1" xmlns="http://www.w3.org/2000/svg" xmlns:xlink="http://www.w3.org/1999/xlink">
<title>dialer</title>
<path d="M16.267 24.4c-1.54 0-2.8 1.26-2.8 2.8s1.26 2.8 2.8 2.8c1.54 0 2.8-1.26 2.8-2.8s-1.26-2.8-2.8-2.8zM8.8 9.467c-1.54 0-2.8 1.26-2.8 2.8s1.26 2.8 2.8 2.8c1.54 0 2.8-1.26 2.8-2.8s-1.26-2.8-2.8-2.8zM8.8 16.933c-1.54 0-2.8 1.26-2.8 2.8s1.26 2.8 2.8 2.8c1.54 0 2.8-1.26 2.8-2.8s-1.26-2.8-2.8-2.8zM16.267 16.933c-1.54 0-2.8 1.26-2.8 2.8s1.26 2.8 2.8 2.8c1.54 0 2.8-1.26 2.8-2.8s-1.26-2.8-2.8-2.8zM23.733 16.933c-1.54 0-2.8 1.26-2.8 2.8s1.26 2.8 2.8 2.8c1.54 0 2.8-1.26 2.8-2.8s-1.26-2.8-2.8-2.8zM23.733 9.467c-1.54 0-2.8 1.26-2.8 2.8s1.26 2.8 2.8 2.8c1.54 0 2.8-1.26 2.8-2.8s-1.26-2.8-2.8-2.8zM16.267 9.467c-1.54 0-2.8 1.26-2.8 2.8s1.26 2.8 2.8 2.8c1.54 0 2.8-1.26 2.8-2.8s-1.26-2.8-2.8-2.8zM8.8 2c-1.54 0-2.8 1.26-2.8 2.8s1.26 2.8 2.8 2.8c1.54 0 2.8-1.26 2.8-2.8s-1.26-2.8-2.8-2.8zM23.733 2c-1.54 0-2.8 1.26-2.8 2.8s1.26 2.8 2.8 2.8c1.54 0 2.8-1.26 2.8-2.8s-1.26-2.8-2.8-2.8zM16.267 2c-1.54 0-2.8 1.26-2.8 2.8s1.26 2.8 2.8 2.8c1.54 0 2.8-1.26 2.8-2.8s-1.26-2.8-2.8-2.8z"></path>
</svg>
