<?xml version="1.0" encoding="UTF-8"?>
<svg viewBox="null" version="1.1" xmlns="http://www.w3.org/2000/svg" xmlns:xlink="http://www.w3.org/1999/xlink">
<title>bell</title>
<path d="M16.001 1.6c-4.569 0-8.285 3.736-8.285 8.327 0 7.934-2.393 11.107-4.985 13.355-0.719 0.629-1.131 1.534-1.131 2.485 0 0.523 0.422 0.947 0.942 0.947h8.942c0.437 2.105 2.295 3.69 4.516 3.69s4.079-1.585 4.516-3.69h8.942c0.52 0 0.942-0.424 0.942-0.947 0-0.959-0.412-1.866-1.131-2.488-2.589-2.251-4.986-5.426-4.986-13.353 0-4.592-3.715-8.327-8.282-8.327v0z"></path>
</svg>
