<?xml version="1.0" encoding="UTF-8"?>
<svg   viewBox="0 0 32 32" version="1.1" xmlns="http://www.w3.org/2000/svg" xmlns:xlink="http://www.w3.org/1999/xlink">
<title>task-new_border</title>
<path d="M16 0c8.837 0 16 7.163 16 16s-7.163 16-16 16c-8.837 0-16-7.163-16-16s7.163-16 16-16zM16 2.4c-7.511 0-13.6 6.089-13.6 13.6s6.089 13.6 13.6 13.6c7.511 0 13.6-6.089 13.6-13.6s-6.089-13.6-13.6-13.6zM23.2 11.131c0.442 0.442 0.442 1.158 0 1.6l-8.234 8.234c-0.312 0.312-0.819 0.312-1.131 0l-5.034-5.034c-0.442-0.442-0.442-1.158 0-1.6s1.158-0.442 1.6 0l4 4 7.2-7.2c0.442-0.442 1.158-0.442 1.6 0z"></path>
</svg>
