<?xml version="1.0" encoding="UTF-8"?>
<svg   viewBox="0 0 32 32" version="1.1" xmlns="http://www.w3.org/2000/svg" xmlns:xlink="http://www.w3.org/1999/xlink">
<title>videocam</title>
<path d="M4 5.333h13.849c2.209 0 4 1.791 4 4v13.333c0 2.209-1.791 4-4 4h-13.849c-2.209 0-4-1.791-4-4v-13.333c0-2.209 1.791-4 4-4zM23.978 12.611l6.034-3.397c0.642-0.361 1.455-0.134 1.816 0.508 0.112 0.2 0.171 0.425 0.171 0.654v11.248c0 0.736-0.597 1.333-1.333 1.333-0.229 0-0.454-0.059-0.654-0.171l-6.034-3.397c-0.42-0.236-0.679-0.68-0.679-1.162v-4.455c0-0.482 0.26-0.926 0.679-1.162z"></path>
</svg>
