<?xml version="1.0" encoding="UTF-8"?>
<svg   viewBox="0 0 32 32" version="1.1" xmlns="http://www.w3.org/2000/svg" xmlns:xlink="http://www.w3.org/1999/xlink">
<title>pdf</title>
<path fill="#e53f3a" style="fill: var(--color11, #e53f3a)" d="M3.556 0h24.889c1.964 0 3.556 1.592 3.556 3.556v24.889c0 1.964-1.592 3.556-3.556 3.556h-24.889c-1.964 0-3.556-1.592-3.556-3.556v-24.889c0-1.964 1.592-3.556 3.556-3.556z"></path>
<path fill="#fff" style="fill: var(--color2, #fff); stroke: var(--color2, #fff)" stroke="#fff" stroke-linejoin="miter" stroke-linecap="butt" stroke-miterlimit="4" stroke-width="0.4444" d="M7.188 26.562c-0.681 0-1.229-0.347-1.466-0.928-0.394-0.966 0.174-2.295 1.558-3.646 1.083-1.058 2.597-1.929 4.5-2.591 1.012-1.879 1.944-3.89 2.597-5.61-1.447-2.25-1.713-5.028-1.208-6.58 0.327-1.004 0.894-1.381 1.311-1.521 0.582-0.196 1.176-0.049 1.591 0.396 0.624 0.671 0.853 2.024 0.7 4.134-0.061 0.841-0.34 1.971-0.832 3.362 0.021 0.027 0.043 0.053 0.065 0.080 0.328 0.401 0.678 0.843 1.045 1.305 0.783 0.987 1.663 2.096 2.557 3.090 0.265-0.008 0.519-0.012 0.765-0.012 3.161 0 5.284 0.661 5.977 1.862 0.296 0.512 0.302 1.088 0.017 1.581-0.384 0.665-1.215 1.063-2.223 1.063h-0c-0.244 0-0.497-0.024-0.75-0.071-1.27-0.234-2.665-1.19-4.373-3.002-0.437 0.024-0.894 0.058-1.362 0.104-1.007 0.097-2.949 0.35-4.916 0.97-0.846 1.528-2.668 4.616-4.026 5.503-0.514 0.335-1.041 0.512-1.527 0.512v0zM10.658 21.362c-0.974 0.471-1.778 1.014-2.404 1.624-1.229 1.201-1.309 1.953-1.24 2.122 0.020 0.049 0.106 0.059 0.174 0.059 0.208 0 0.487-0.104 0.763-0.284 0.607-0.397 1.61-1.713 2.706-3.521v0zM20.964 19.445c1.053 0.976 1.936 1.521 2.681 1.659 0.17 0.031 0.338 0.047 0.497 0.047h0c0.552 0 0.914-0.189 1.016-0.365 0.019-0.033 0.045-0.078-0.018-0.186-0.234-0.405-1.376-1.072-4.176-1.155v0zM15.364 15.085c-0.487 1.197-1.080 2.49-1.724 3.763 1.598-0.396 3.047-0.579 3.884-0.659 0.109-0.010 0.217-0.020 0.325-0.030-0.665-0.784-1.305-1.59-1.892-2.33-0.203-0.256-0.401-0.505-0.592-0.744v0zM14.992 6.994c-0.010 0-0.033 0.002-0.068 0.013-0.157 0.053-0.318 0.289-0.429 0.632-0.335 1.027-0.202 2.754 0.495 4.346 0.222-0.754 0.354-1.388 0.389-1.871 0.17-2.348-0.21-2.954-0.331-3.083-0.034-0.038-0.046-0.038-0.057-0.038v0z"></path>
</svg>
