<?xml version="1.0" encoding="UTF-8"?>
<svg   viewBox="0 0 32 32" version="1.1" xmlns="http://www.w3.org/2000/svg" xmlns:xlink="http://www.w3.org/1999/xlink">
<title>task</title>
<path d="M25.333 5.333h-5.573c-0.56-1.547-2.027-2.667-3.76-2.667s-3.2 1.12-3.76 2.667h-5.573c-1.467 0-2.667 1.2-2.667 2.667v18.667c0 1.467 1.2 2.667 2.667 2.667h18.667c1.467 0 2.667-1.2 2.667-2.667v-18.667c0-1.467-1.2-2.667-2.667-2.667zM16 5.333c0.733 0 1.333 0.6 1.333 1.333s-0.6 1.333-1.333 1.333c-0.733 0-1.333-0.6-1.333-1.333s0.6-1.333 1.333-1.333zM13.333 24l-5.333-5.333 1.88-1.88 3.453 3.44 8.787-8.787 1.88 1.893-10.667 10.667z"></path>
</svg>
