<?xml version="1.0" encoding="UTF-8"?>
<svg viewBox="null" version="1.1" xmlns="http://www.w3.org/2000/svg" xmlns:xlink="http://www.w3.org/1999/xlink">
<title>dialer</title>
<path d="M16.8 22.286c-2.011 0-3.657 1.646-3.657 3.657s1.646 3.657 3.657 3.657c2.011 0 3.657-1.646 3.657-3.657s-1.646-3.657-3.657-3.657zM7.657 4c-2.011 0-3.657 1.646-3.657 3.657s1.646 3.657 3.657 3.657c2.011 0 3.657-1.646 3.657-3.657s-1.646-3.657-3.657-3.657zM7.657 13.143c-2.011 0-3.657 1.646-3.657 3.657s1.646 3.657 3.657 3.657c2.011 0 3.657-1.646 3.657-3.657s-1.646-3.657-3.657-3.657zM16.8 13.143c-2.011 0-3.657 1.646-3.657 3.657s1.646 3.657 3.657 3.657c2.011 0 3.657-1.646 3.657-3.657s-1.646-3.657-3.657-3.657zM25.943 13.143c-2.011 0-3.657 1.646-3.657 3.657s1.646 3.657 3.657 3.657c2.011 0 3.657-1.646 3.657-3.657s-1.646-3.657-3.657-3.657zM25.943 4c-2.011 0-3.657 1.646-3.657 3.657s1.646 3.657 3.657 3.657c2.011 0 3.657-1.646 3.657-3.657s-1.646-3.657-3.657-3.657zM16.8 4c-2.011 0-3.657 1.646-3.657 3.657s1.646 3.657 3.657 3.657c2.011 0 3.657-1.646 3.657-3.657s-1.646-3.657-3.657-3.657z"></path>
</svg>
