<?xml version="1.0" encoding="UTF-8"?>
<svg   viewBox="0 0 32 32" version="1.1" xmlns="http://www.w3.org/2000/svg" xmlns:xlink="http://www.w3.org/1999/xlink">
<title>default-team-avatar</title>
<path d="M15.976 0c-8.824 0-15.976 7.153-15.976 15.976s7.153 15.976 15.976 15.976c8.824 0 15.976-7.153 15.976-15.976s-7.153-15.976-15.976-15.976zM12.521 19.71c-0.755 0.436-1.72 0.177-2.156-0.577s-0.177-1.72 0.578-2.155 1.72-0.177 2.155 0.577c0.436 0.755 0.177 1.72-0.577 2.155v0zM13.099 14.004c-0.436 0.755-1.401 1.013-2.155 0.577s-1.013-1.401-0.578-2.155c0.436-0.755 1.401-1.013 2.156-0.577s1.013 1.401 0.577 2.155zM16.174 22.485c-0.871 0-1.578-0.707-1.578-1.578s0.707-1.578 1.578-1.578c0.871 0 1.578 0.707 1.578 1.578s-0.707 1.578-1.578 1.578zM16.174 12.229c-0.871 0-1.578-0.707-1.578-1.578s0.707-1.578 1.578-1.578c0.871 0 1.578 0.707 1.578 1.578s-0.707 1.578-1.578 1.578zM21.981 19.132c-0.436 0.755-1.401 1.013-2.156 0.577s-1.013-1.401-0.577-2.155c0.436-0.755 1.401-1.013 2.155-0.577s1.013 1.401 0.578 2.155h-0zM21.404 14.581c-0.755 0.436-1.72 0.177-2.155-0.577s-0.177-1.72 0.577-2.155c0.755-0.436 1.72-0.177 2.156 0.577s0.177 1.72-0.578 2.155h0z"></path>
</svg>
