<?xml version="1.0" encoding="UTF-8"?>
<svg viewBox="null" version="1.1" xmlns="http://www.w3.org/2000/svg" xmlns:xlink="http://www.w3.org/1999/xlink">
<title>phone</title>
<path d="M16.915 20.322c0.26 0.16 0.473 0.271 0.64 0.331s0.316 0.090 0.445 0.090c0.074-0.080 0.153-0.17 0.237-0.271s0.19-0.231 0.32-0.391l0.084-0.090c0.037-0.040 0.074-0.090 0.111-0.15 0.223-0.261 0.408-0.466 0.557-0.617s0.316-0.296 0.501-0.436c0.52-0.341 1.086-0.481 1.698-0.421s1.114 0.321 1.504 0.782c0.631 0.662 1.285 1.324 1.963 1.986s1.564 1.494 2.659 2.497c0.483 0.441 0.798 0.973 0.947 1.595s0.102 1.203-0.139 1.745c-0.167 0.461-0.515 1.048-1.044 1.76s-0.998 1.239-1.406 1.579c-0.371 0.341-0.798 0.597-1.281 0.767s-1.021 0.256-1.615 0.256c-1.002 0-2.060-0.221-3.174-0.662s-2.255-1.078-3.425-1.91c-1.169-0.832-2.339-1.85-3.508-3.054-1.188-1.183-2.357-2.527-3.508-4.031-1.522-2.026-2.766-4.021-3.731-5.987-0.965-1.946-1.643-3.761-2.033-5.445s-0.483-3.189-0.278-4.513c0.186-1.324 0.687-2.367 1.504-3.129 0.39-0.361 0.965-0.747 1.726-1.158s1.374-0.657 1.838-0.737c0.575-0.1 1.132-0.010 1.671 0.271s0.956 0.722 1.253 1.324c0.39 0.862 0.835 1.755 1.337 2.678s1.095 1.936 1.782 3.039c0.334 0.562 0.464 1.158 0.39 1.79s-0.325 1.188-0.752 1.67c-0.149 0.14-0.302 0.271-0.459 0.391s-0.339 0.241-0.543 0.361c-0.037 0.040-0.074 0.070-0.111 0.090l-0.111 0.060c-0.019 0-0.056 0.020-0.111 0.060s-0.102 0.070-0.139 0.090c-0.13 0.060-0.246 0.125-0.348 0.196s-0.209 0.155-0.32 0.256c-0.019 0.16-0.009 0.346 0.028 0.557s0.111 0.466 0.223 0.767c0.149 0.441 0.381 0.938 0.696 1.489s0.715 1.148 1.197 1.79c0.52 0.682 1.007 1.249 1.462 1.7s0.877 0.797 1.267 1.038z"></path>
</svg>
