<?xml version="1.0" encoding="UTF-8"?>
<svg   viewBox="0 0 32 32" version="1.1" xmlns="http://www.w3.org/2000/svg" xmlns:xlink="http://www.w3.org/1999/xlink">
<title>6</title>
<path fill="#212121" style="fill: var(--color7, #212121)" d="M16.182 8c0.293 0 0.583 0.033 0.87 0.1s0.524 0.15 0.712 0.252l-0.246 0.885c-0.191-0.098-0.392-0.177-0.601-0.237s-0.454-0.091-0.735-0.091c-0.609 0-1.101 0.244-1.474 0.732s-0.56 1.125-0.56 1.91v0.135c0.25-0.219 0.536-0.39 0.858-0.513s0.669-0.185 1.040-0.185c0.762 0 1.369 0.264 1.822 0.791s0.68 1.195 0.68 2.004c0 0.883-0.241 1.603-0.724 2.159s-1.126 0.835-1.931 0.835c-0.836 0-1.527-0.303-2.074-0.908s-0.82-1.459-0.82-2.561v-1.629c0-1.094 0.305-1.98 0.914-2.66s1.365-1.020 2.268-1.020zM15.789 11.85c-0.395 0-0.73 0.080-1.008 0.24s-0.488 0.373-0.633 0.639v0.691c0 0.785 0.166 1.391 0.498 1.816s0.748 0.639 1.248 0.639c0.473 0 0.841-0.2 1.105-0.601s0.395-0.897 0.395-1.491c0-0.563-0.142-1.025-0.425-1.389s-0.677-0.545-1.181-0.545z"></path>
<path fill="#9e9e9e" style="fill: var(--color4, #9e9e9e)" d="M11.115 20.051l1.133 2.888h0.015l1.133-2.888h0.615v3.555h-0.481v-1.406l0.049-1.445-0.012-0.002-1.152 2.854h-0.32l-1.147-2.847-0.012 0.002 0.046 1.438v1.406h-0.481v-3.555h0.615zM17.58 23.606h-0.481l-1.711-2.749-0.015 0.005v2.744h-0.481v-3.555h0.481l1.711 2.744 0.015-0.005v-2.739h0.481v3.555zM21.149 22.146c0 0.435-0.135 0.795-0.404 1.082s-0.619 0.43-1.049 0.43c-0.415 0-0.752-0.143-1.012-0.43s-0.389-0.647-0.389-1.082v-0.632c0-0.433 0.13-0.793 0.389-1.082s0.597-0.432 1.012-0.432c0.43 0 0.779 0.144 1.049 0.431s0.404 0.648 0.404 1.083v0.632zM20.668 21.509c0-0.326-0.088-0.592-0.264-0.801s-0.412-0.313-0.708-0.313c-0.28 0-0.503 0.104-0.67 0.313s-0.25 0.475-0.25 0.801v0.637c0 0.329 0.083 0.597 0.25 0.806s0.39 0.313 0.67 0.313c0.298 0 0.534-0.104 0.709-0.311s0.262-0.476 0.262-0.807v-0.637z"></path>
</svg>
