<?xml version="1.0" encoding="UTF-8"?>
<svg   viewBox="0 0 32 32" version="1.1" xmlns="http://www.w3.org/2000/svg" xmlns:xlink="http://www.w3.org/1999/xlink">
<title>mic</title>
<path d="M16.31 19.303c-2.095 0-3.809-1.712-3.807-3.807v-7.689c0-2.095 1.712-3.807 3.807-3.807h0.307c2.095 0 3.807 1.712 3.807 3.807v7.689c0 2.095-1.712 3.807-3.807 3.807h-0.307zM23.91 15.371c0.211 3.706-1.952 6.762-5.498 7.771-0.732 0.209-0.917 0.455-0.917 1.231 0 0.847 0.007 1.694-0.002 2.538-0.007 0.645-0.457 1.088-1.016 1.088-0.108 0-0.221-0.016-0.335-0.052-0.427-0.134-0.704-0.521-0.715-1.013-0.005-0.235 0-0.471 0-0.706-0.002-0.237-0.002-0.471-0.002-0.706 0-0.401-0.007-0.802 0.002-1.203 0.012-0.643-0.225-0.983-0.847-1.161-1.039-0.298-2.015-0.727-2.855-1.421-1.712-1.417-2.585-3.267-2.716-5.486-0.016-0.279-0.005-0.558 0.002-0.837 0.016-0.631 0.429-1.070 1.002-1.070 0.589 0 1.016 0.45 1.011 1.086-0.007 0.842 0.030 1.672 0.333 2.472 0.812 2.146 2.836 3.537 5.083 3.537 0.155 0 0.312-0.007 0.469-0.021 2.519-0.218 4.499-2.036 4.907-4.546 0.080-0.488 0.052-0.992 0.073-1.487 0.026-0.612 0.467-1.039 0.999-1.039 0.106 0 0.213 0.016 0.321 0.052 0.396 0.124 0.676 0.511 0.701 0.973z"></path>
</svg>
