<?xml version="1.0" encoding="UTF-8"?>
<svg viewBox="null" version="1.1" xmlns="http://www.w3.org/2000/svg" xmlns:xlink="http://www.w3.org/1999/xlink">
<title>missedcall</title>
<path d="M17.434 29.952c-3.045 0-7.005-2.637-10.591-7.029-5.197-6.401-5.801-11.737-3.74-13.559 0.537-0.47 1.966-1.194 2.632-1.285 0.729-0.125 1.458 0.221 1.841 0.911 0.729 1.472 1.616 2.92 2.536 4.329 0.412 0.623 0.316 1.41-0.221 1.947-0.316 0.316-0.695 0.503-1.045 0.69-0.283 0.125-0.503 0.283-0.729 0.47 0 0-0.091 0.091-0.091 0.283-0.029 0.408 0.029 1.539 1.836 3.797 1.966 2.388 3.136 2.541 3.457 2.541 0.129 0 0.221-0.029 0.221-0.029 0.221-0.192 0.412-0.408 0.604-0.623 0.283-0.316 0.537-0.623 0.921-0.877 0.633-0.408 1.491-0.316 1.966 0.187 1.208 1.194 2.508 2.325 3.74 3.39 0.604 0.503 0.825 1.285 0.503 1.947-0.221 0.595-1.237 1.817-1.841 2.287-0.513 0.436-1.208 0.623-1.999 0.623zM29.103 4.925l-4.766 4.766 4.766 4.771-2.925 2.92-4.766-4.766-4.771 4.771-2.92-2.925 4.771-4.771-4.775-4.771 2.925-2.92 4.771 4.771 4.771-4.771 2.92 2.925z"></path>
</svg>
