<?xml version="1.0" encoding="UTF-8"?>
<svg width="268px" height="212px" viewBox="0 0 268 212" version="1.1" xmlns="http://www.w3.org/2000/svg" xmlns:xlink="http://www.w3.org/1999/xlink">
    <!-- Generator: Sketch 54.1 (76490) - https://sketchapp.com -->
    <title>illustration_nobookmarked</title>
    <desc>Created with Sketch.</desc>
    <defs>
        <linearGradient x1="50%" y1="0%" x2="50%" y2="100%" id="linearGradient-1">
            <stop stop-color="#EBF6FB" offset="0%"></stop>
            <stop stop-color="#FFFFFF" offset="100%"></stop>
        </linearGradient>
        <path d="M2,0 L140.988057,0 C142.092627,1.54939706e-14 142.988057,0.8954305 142.988057,2 L142.988057,20.4576271 C142.988057,21.5621966 142.092627,22.4576271 140.988057,22.4576271 L2,22.4576271 C0.8954305,22.4576271 1.3527075e-16,21.5621966 0,20.4576271 L0,2 C-1.3527075e-16,0.8954305 0.8954305,2.02906125e-16 2,0 Z" id="path-2"></path>
        <filter x="-2.4%" y="-11.1%" width="104.9%" height="131.2%" filterUnits="objectBoundingBox" id="filter-3">
            <feOffset dx="0" dy="1" in="SourceAlpha" result="shadowOffsetOuter1"></feOffset>
            <feGaussianBlur stdDeviation="1" in="shadowOffsetOuter1" result="shadowBlurOuter1"></feGaussianBlur>
            <feColorMatrix values="0 0 0 0 0   0 0 0 0 0   0 0 0 0 0  0 0 0 0.0575747283 0" type="matrix" in="shadowBlurOuter1"></feColorMatrix>
        </filter>
        <path d="M2.35747014,0.538983051 L105.598513,0.538983051 C106.703083,0.538983051 107.598513,1.43441355 107.598513,2.53898305 L107.598513,20.8169492 C107.598513,21.9215187 106.703083,22.8169492 105.598513,22.8169492 L2.35747014,22.8169492 C1.25290064,22.8169492 0.357470143,21.9215187 0.357470143,20.8169492 L0.357470143,2.53898305 C0.357470143,1.43441355 1.25290064,0.538983051 2.35747014,0.538983051 Z" id="path-4"></path>
        <filter x="-3.3%" y="-11.2%" width="106.5%" height="131.4%" filterUnits="objectBoundingBox" id="filter-5">
            <feOffset dx="0" dy="1" in="SourceAlpha" result="shadowOffsetOuter1"></feOffset>
            <feGaussianBlur stdDeviation="1" in="shadowOffsetOuter1" result="shadowBlurOuter1"></feGaussianBlur>
            <feColorMatrix values="0 0 0 0 0   0 0 0 0 0   0 0 0 0 0  0 0 0 0.0575747283 0" type="matrix" in="shadowBlurOuter1"></feColorMatrix>
        </filter>
        <path d="M2,0 L105.241043,0 C106.345612,7.64553222e-15 107.241043,0.8954305 107.241043,2 L107.241043,20.4576271 C107.241043,21.5621966 106.345612,22.4576271 105.241043,22.4576271 L2,22.4576271 C0.8954305,22.4576271 2.09738034e-15,21.5621966 0,20.4576271 L0,2 C-1.3527075e-16,0.8954305 0.8954305,2.02906125e-16 2,0 Z" id="path-6"></path>
        <filter x="-3.3%" y="-11.1%" width="106.5%" height="131.2%" filterUnits="objectBoundingBox" id="filter-7">
            <feOffset dx="0" dy="1" in="SourceAlpha" result="shadowOffsetOuter1"></feOffset>
            <feGaussianBlur stdDeviation="1" in="shadowOffsetOuter1" result="shadowBlurOuter1"></feGaussianBlur>
            <feColorMatrix values="0 0 0 0 0   0 0 0 0 0   0 0 0 0 0  0 0 0 0.0575747283 0" type="matrix" in="shadowBlurOuter1"></feColorMatrix>
        </filter>
        <path d="M2,0 L140.988057,0 C142.092627,-2.02906125e-16 142.988057,0.8954305 142.988057,2 L142.988057,20.4576271 C142.988057,21.5621966 142.092627,22.4576271 140.988057,22.4576271 L2,22.4576271 C0.8954305,22.4576271 1.3527075e-16,21.5621966 0,20.4576271 L0,2 C-1.3527075e-16,0.8954305 0.8954305,2.02906125e-16 2,0 Z" id="path-8"></path>
        <filter x="-2.4%" y="-11.1%" width="104.9%" height="131.2%" filterUnits="objectBoundingBox" id="filter-9">
            <feOffset dx="0" dy="1" in="SourceAlpha" result="shadowOffsetOuter1"></feOffset>
            <feGaussianBlur stdDeviation="1" in="shadowOffsetOuter1" result="shadowBlurOuter1"></feGaussianBlur>
            <feColorMatrix values="0 0 0 0 0   0 0 0 0 0   0 0 0 0 0  0 0 0 0.0575747283 0" type="matrix" in="shadowBlurOuter1"></feColorMatrix>
        </filter>
    </defs>
    <g id="R1.6---Empty-Bookmark---Ouyang" stroke="none" stroke-width="1" fill="none" fill-rule="evenodd">
        <g id="R1.6---Empty-Bookmark" transform="translate(-847.000000, -553.000000)">
            <g id="Get-Started-Copy-3" transform="translate(847.000000, 553.000000)">
                <g id="illustration_nobookmarked">
                    <rect id="Rectangle" x="0.996282528" y="0" width="267.003717" height="212"></rect>
                    <g id="Group-2">
                        <g id="Group-7">
                            <path d="M138.214906,210.506834 C196.840039,210.506834 229.176568,188.981297 229.176568,130.072379 C229.176568,118.601668 278.348194,105.937764 266.015081,56.4974745 C255.209249,13.1796646 159.235232,34.5196468 127.174189,29.7836799 C84.9123987,23.5408874 68.7804093,-3.692037 45.3464091,0.890651759 C1.8464456,9.39738521 32.0647122,57.8675652 32.0647122,103.842803 C32.0647122,126.908596 -10.1084146,173.351148 2.27730015,190.799784 C21.5241011,217.914119 102.54445,210.506834 138.214906,210.506834 Z" id="Oval" fill="url(#linearGradient-1)" fill-rule="nonzero"></path>
                            <g id="Group-12" transform="translate(41.843866, 46.000000)">
                                <g id="Group-10" transform="translate(0.000000, 112.647458)">
                                    <g id="Rectangle" fill-rule="nonzero">
                                        <use fill="black" fill-opacity="1" filter="url(#filter-3)" xlink:href="#path-2"></use>
                                        <use fill="#FFFFFF" xlink:href="#path-2"></use>
                                    </g>
                                    <path d="M9.14940286,4.49152542 L19.4482086,4.49152542 C20.5527781,4.49152542 21.4482086,5.38695592 21.4482086,6.49152542 L21.4482086,16.8644068 C21.4482086,17.9689763 20.5527781,18.8644068 19.4482086,18.8644068 L9.14940286,18.8644068 C8.04483336,18.8644068 7.14940286,17.9689763 7.14940286,16.8644068 L7.14940286,6.49152542 C7.14940286,5.38695592 8.04483336,4.49152542 9.14940286,4.49152542 Z" id="Rectangle-Copy-4" fill="#F5F5F5"></path>
                                    <g id="Group-9" transform="translate(24.129235, 5.389831)" fill="#E0EDF5" fill-rule="nonzero">
                                        <polygon id="Rectangle-22-Copy-3" points="0 -8.52651283e-14 108.134718 -8.52651283e-14 108.134718 3.43540999 0 3.43540999"></polygon>
                                        <polygon id="Rectangle-22-Copy" points="3.55271368e-14 8.08474576 29.091985 8.08474576 29.091985 11.5201557 3.55271368e-14 11.5201557"></polygon>
                                    </g>
                                </g>
                                <g id="Group-11" transform="translate(44.683768, 0.000000)">
                                    <g id="Rectangle" fill-rule="nonzero">
                                        <use fill="black" fill-opacity="1" filter="url(#filter-5)" xlink:href="#path-4"></use>
                                        <use fill="#FFFFFF" xlink:href="#path-4"></use>
                                    </g>
                                    <path d="M14.6562759,4.85084746 L14.6562759,4.85084746 C18.604782,4.85084746 21.8056787,8.05174415 21.8056787,12.0002503 L21.8056787,12.074326 C21.8056787,16.0228321 18.604782,19.2237288 14.6562759,19.2237288 L14.6562759,19.2237288 C10.7077697,19.2237288 7.506873,16.0228321 7.506873,12.074326 L7.506873,12.0002503 C7.506873,8.05174415 10.7077697,4.85084746 14.6562759,4.85084746 Z" id="Rectangle" fill="#F8E3DD"></path>
                                    <polygon id="Rectangle-22-Copy-3" fill="#E0EDF5" fill-rule="nonzero" points="24.6654399 7.00677966 68.9917376 7.00677966 68.9917376 10.6 24.6654399 10.6"></polygon>
                                    <polygon id="Rectangle-22-Copy" fill="#E0EDF5" fill-rule="nonzero" opacity="0.5" points="24.6654399 14.1932203 50.4032901 14.1932203 50.4032901 17.7864407 24.6654399 17.7864407"></polygon>
                                </g>
                                <g id="Group-6" transform="translate(0.000000, 36.000000)">
                                    <g id="Rectangle" fill-rule="nonzero">
                                        <use fill="black" fill-opacity="1" filter="url(#filter-7)" xlink:href="#path-6"></use>
                                        <use fill="#FFFFFF" xlink:href="#path-6"></use>
                                        <use fill="#6A5CC8" xlink:href="#path-6"></use>
                                    </g>
                                    <g id="Group-5" transform="translate(24.129235, 6.288136)" fill="#E0EDF5" fill-rule="nonzero">
                                        <polygon id="Rectangle-22-Copy-3" points="-1.63424829e-13 -8.52651283e-14 44.4936242 -8.52651283e-14 44.4936242 3.43540999 -1.63424829e-13 3.43540999"></polygon>
                                        <polygon id="Rectangle-22-Copy" opacity="0.5" points="-1.95399252e-14 7.18644068 25.6693986 7.18644068 25.6693986 10.6218507 -1.95399252e-14 10.6218507"></polygon>
                                    </g>
                                    <path d="M14.2988057,4.49152542 L14.2988057,4.49152542 C18.2473119,4.49152542 21.4482086,7.69242211 21.4482086,11.6409283 L21.4482086,11.7150039 C21.4482086,15.6635101 18.2473119,18.8644068 14.2988057,18.8644068 L14.2988057,18.8644068 C10.3502995,18.8644068 7.14940286,15.6635101 7.14940286,11.7150039 L7.14940286,11.6409283 C7.14940286,7.69242211 10.3502995,4.49152542 14.2988057,4.49152542 Z" id="Rectangle-Copy-3" fill="#E0EDF5"></path>
                                </g>
                                <g id="Group-8" transform="translate(32.172313, 72.403390)">
                                    <g id="Rectangle" fill-rule="nonzero">
                                        <use fill="black" fill-opacity="1" filter="url(#filter-9)" xlink:href="#path-8"></use>
                                        <use fill="#FFFFFF" xlink:href="#path-8"></use>
                                    </g>
                                    <path d="M9.14940286,4.49152542 L19.4482086,4.49152542 C20.5527781,4.49152542 21.4482086,5.38695592 21.4482086,6.49152542 L21.4482086,16.8644068 C21.4482086,17.9689763 20.5527781,18.8644068 19.4482086,18.8644068 L9.14940286,18.8644068 C8.04483336,18.8644068 7.14940286,17.9689763 7.14940286,16.8644068 L7.14940286,6.49152542 C7.14940286,5.38695592 8.04483336,4.49152542 9.14940286,4.49152542 Z" id="Rectangle-Copy-7" fill="#FCE9CD"></path>
                                    <g id="Group-7" transform="translate(24.129235, 5.389831)" fill="#E0EDF5" fill-rule="nonzero">
                                        <polygon id="Rectangle-22-Copy-3" points="0 -8.52651283e-14 102.772666 -8.52651283e-14 102.772666 3.43540999 0 3.43540999"></polygon>
                                        <polygon id="Rectangle-22-Copy" opacity="0.5" points="3.55271368e-14 8.08474576 29.091985 8.08474576 29.091985 11.5201557 3.55271368e-14 11.5201557"></polygon>
                                    </g>
                                </g>
                                <polygon id="icon/action/bookmark_border_24px" fill="#B2E3F4" fill-rule="nonzero" points="88.669145 36 88.669145 49 94.1486989 46.5625 99.6282528 49 99.6282528 36"></polygon>
                            </g>
                            <g id="Group-2-Copy" transform="translate(158.408922, 91.974054)" fill-rule="nonzero">
                                <path d="M31.2498806,17.8740745 C29.0467534,21.4487636 28.1358108,24.0496519 28.5170527,25.6767394 C28.8982947,27.3038269 31.0723802,28.2341601 35.0393095,28.4677391 L40.8692157,20.7090551 L31.2498806,17.8740745 Z" id="Path-14" fill="#F1DAD5"></path>
                                <path d="M30.6938785,16.4409431 C32.9850762,14.2577464 35.5122025,13.8873317 38.2752574,15.329699 C41.0383123,16.7720662 41.5939862,19.9772805 39.9422791,24.9453418 C37.4526116,28.2876664 35.3073171,29.2513978 33.5063956,27.836536 C32.7718314,27.2594387 32.5829614,26.6675822 32.3718125,26.0417087 C32.1674643,25.4359937 32.3178014,24.4728163 32.8228236,23.1521764 C32.0325688,23.4269545 31.4977898,23.5643436 31.2184867,23.5643436 C30.9391836,23.5643436 30.8641308,23.2940274 30.9933286,22.753395 L32.0678521,21.4224103 C31.1518697,19.6736802 30.6938785,18.4092384 30.6938785,17.6290848 C30.6938785,16.8489312 30.6938785,16.452884 30.6938785,16.4409431 Z" id="Path-15" fill="#42526E"></path>
                                <path d="M30.3170141,19.7658004 C29.2012383,21.1639328 28.4847503,21.862999 28.1675501,21.862999 C27.8503499,21.862999 28.2085939,22.1728532 29.2422821,22.7925617 L30.3170141,19.7658004 Z" id="Path-16" fill="#F1DAD5"></path>
                                <path d="M20.673957,29.8919486 C14.3062065,27.724515 11.1225213,26.3098045 11.1229016,25.6478172 C11.123472,24.6548363 7.3786929,10.373944 7.37921805,9.45973937 C7.37956815,8.85026962 7.70404667,7.45454958 8.3526536,5.27257925 C8.39832717,4.69892179 8.39854599,4.31800475 8.35331003,4.12982814 C8.27731408,3.81369329 7.9794899,3.57352623 7.92880279,3.57355545 C7.8530076,3.57359914 7.80369847,3.94307044 7.58539386,4.97785732 C7.54670606,5.16124157 7.47872614,5.35767674 7.38145408,5.56716283 C6.54861413,4.79777352 5.98195768,4.07119727 5.68148473,3.38743406 C5.17681801,2.23900277 5.66464846,1.27866074 5.1773695,1.27894165 C4.92338674,1.27908806 3.76279518,3.16561732 3.10630529,3.38891858 C2.4498154,3.61221983 4.13019133,6.31087679 4.12984066,6.92132316 C4.12974833,7.08206568 4.86662761,7.85974131 4.86606332,8.84208796 C4.86486516,10.9278965 5.15926904,23.4082453 5.66892548,25.2511535 C5.90425455,26.1020991 6.46242506,28.2572058 8.6237537,30.0994745 C10.0143944,31.2848259 13.115573,33.0809446 17.9272895,35.4878307 L20.673957,29.8919486 Z" id="Path-20" fill="#F1DAD5" transform="translate(11.814052, 18.383386) rotate(-9.000000) translate(-11.814052, -18.383386) "></path>
                                <path d="M45.9038736,38.6830585 C47.8235357,42.5742593 48.7833668,45.4688757 48.7833668,47.3669077 C48.7833668,50.2139557 47.5059428,62.6568057 48.2919592,65.0165945 C48.8159701,66.589787 48.8159701,69.0329264 48.2919592,72.3460127 L45.9038736,73.4908136 C45.4870281,72.8393691 45.2561461,72.2465424 45.2112275,71.7123335 C45.166309,71.1781247 45.2573282,70.3429816 45.4842854,69.2069042 C45.2805131,69.3019868 45.0528831,69.4553653 44.8013952,69.6670395 C44.6093526,69.8286794 44.5475608,70.2780328 44.3225386,70.6479677 C44.2761028,70.7243079 44.1559555,70.7876087 43.9620967,70.8378699 C43.783721,67.8409145 43.9038683,65.9822296 44.3225386,65.2618153 C44.3620147,65.193888 44.485546,64.9733341 44.5181156,64.8822054 C45.2717854,62.7734637 43.4461002,47.3418522 43.778697,46.7620616 C44.0100103,46.358831 43.1658046,44.7007584 41.24608,41.7878439 L45.9038736,38.6830585 Z" id="Path-19" fill="#F1DAD5"></path>
                                <path d="M20.8098841,28.0799931 C24.5008931,29.1904104 28.7177789,29.4850279 33.4605415,28.9638457 C38.2033041,28.4426635 41.5522123,29.7774365 43.5072661,32.9681648 C42.730516,38.2883827 41.9133633,41.5370525 41.055808,42.7141743 C39.769475,44.479857 39.8893325,56.7465177 39.6119228,56.7465177 C39.3345131,56.7465177 30.49465,61.6607145 21.7609559,54.3207058 C22.2858675,50.3054142 23.5575775,46.4351729 24.3296514,42.7141743 C24.5564043,41.6213423 24.7127785,40.0113504 24.7987742,37.8841989 C19.9994357,37.3858102 17.6971383,36.7130895 17.8918819,35.8660366 C18.0866255,35.0189838 19.0592929,32.4236359 20.8098841,28.0799931 Z" id="Path-17" fill="#FFC400"></path>
                                <path d="M43.5156436,33.0078811 C45.5200017,35.8251118 46.5221808,37.7218779 46.5221808,38.6981796 C46.5221808,39.5032006 45.4681302,40.8562689 43.0145177,42.3847583 C42.6664885,42.6015648 42.031323,42.8810455 41.1090211,43.2232005 L40.4923513,42.7332794 L43.5156436,33.0078811 Z" id="Path-18" fill="#FFC400"></path>
                                <path d="M30.6938785,69.8437633 C31.9321221,90.0508978 33.2042566,102.112476 34.5102822,106.028498 C36.6398236,106.028498 38.2569823,105.451677 39.3617583,104.298036 C38.3565544,95.7267223 37.8041664,89.6748036 37.7045943,86.1422805 C37.402096,75.4105424 38.3722685,67.9445343 38.543134,64.7049329 C38.6034708,63.5609494 39.4091848,58.882621 38.543134,57.8292806 C37.7101594,56.8161695 35.093741,56.584058 30.6938785,57.1329462 L30.6938785,69.8437633 Z" id="Path-22" fill="#FFAB00"></path>
                                <path d="M21.9042573,54.3194994 C20.0928357,58.6211897 18.9197222,62.3992502 18.3849167,65.6536808 C15.5216343,83.0775015 14.8655762,100.028711 14.8655762,107.555074 C17.2118032,108.5464 18.9242232,108.5464 20.0028362,107.555074 C22.0833956,92.8965335 23.6804131,83.4205755 24.7938888,79.1272003 C26.6658802,71.9091164 29.6508459,69.0202853 30.2356558,68.6869162 C30.968163,68.2693525 33.3639677,66.3870104 35.399695,64.0278481 C37.9769677,61.0411 40.115969,57.3890706 39.1065045,56.0711878 C37.90196,54.4986227 32.1678776,53.9147265 21.9042573,54.3194994 Z" id="Path-21" fill="#FFAB00"></path>
                                <path d="M34.0716409,104.910489 C37.7875042,103.465094 39.8125702,103.043528 40.146839,103.64579 C40.4811077,104.248052 40.8475214,106.264368 41.24608,109.694737 L38.2354395,110.645535 L38.2354395,109.311748 C36.9555018,110.328755 35.9073797,111.027328 35.0910733,111.407469 C33.3539269,112.216431 31.2330442,112.838711 28.9035599,112.838711 C27.9399792,112.838711 27.3118344,112.74591 27.0191254,112.560308 C26.4099848,112.174063 28.7648254,110.690425 34.0836475,108.109396 L34.0716409,104.910489 Z" id="Path-23" fill="#42526E"></path>
                                <path d="M13.9339898,107.096846 C17.0749721,106.197633 18.8371709,105.869483 19.2205861,106.112397 C19.6040013,106.35531 19.7856077,108.369145 19.7654053,112.153902 L16.7312703,112.841807 L16.7252988,111.840142 C15.4576736,112.687145 14.3289836,113.277383 13.3392288,113.610857 C12.1560921,114.009486 11.2636386,114.612046 9.2060306,114.881465 C8.11725679,115.024027 5.70512992,115.238871 5.48413711,114.986995 C5.1103958,114.561025 7.49038057,113.088186 12.6240914,110.568478 L13.9339898,107.096846 Z" id="Path-23-Copy" fill="#42526E" transform="translate(12.606508, 110.569081) rotate(13.000000) translate(-12.606508, -110.569081) "></path>
                            </g>
                        </g>
                    </g>
                </g>
            </g>
        </g>
    </g>
</svg>