<?xml version="1.0" encoding="UTF-8"?>
<svg width="268px" height="209px" viewBox="0 0 268 209" version="1.1" xmlns="http://www.w3.org/2000/svg" xmlns:xlink="http://www.w3.org/1999/xlink">
    <!-- Generator: Sketch 54.1 (76490) - https://sketchapp.com -->
    <title>illustration_nomentioned</title>
    <desc>Created with Sketch.</desc>
    <defs>
        <linearGradient x1="50%" y1="0%" x2="50%" y2="100%" id="linearGradient-1">
            <stop stop-color="#EBF6FB" offset="0%"></stop>
            <stop stop-color="#FFFFFF" offset="100%"></stop>
        </linearGradient>
        <path d="M2.35880399,0.538983051 L106,0.538983051 C107.104569,0.538983051 108,1.43441355 108,2.53898305 L108,145.538983 C108,146.643553 107.104569,147.538983 106,147.538983 L2.35880399,147.538983 C1.25423449,147.538983 0.358803987,146.643553 0.358803987,145.538983 L0.358803987,2.53898305 C0.358803987,1.43441355 1.25423449,0.538983051 2.35880399,0.538983051 Z" id="path-2"></path>
        <filter x="-3.3%" y="-1.7%" width="106.5%" height="104.8%" filterUnits="objectBoundingBox" id="filter-3">
            <feOffset dx="0" dy="1" in="SourceAlpha" result="shadowOffsetOuter1"></feOffset>
            <feGaussianBlur stdDeviation="1" in="shadowOffsetOuter1" result="shadowBlurOuter1"></feGaussianBlur>
            <feColorMatrix values="0 0 0 0 0   0 0 0 0 0   0 0 0 0 0  0 0 0 0.0575747283 0" type="matrix" in="shadowBlurOuter1"></feColorMatrix>
        </filter>
        <path d="M2,0 L105.641196,0 C106.745766,-2.02906125e-16 107.641196,0.8954305 107.641196,2 L107.641196,20.4576271 C107.641196,21.5621966 106.745766,22.4576271 105.641196,22.4576271 L2,22.4576271 C0.8954305,22.4576271 1.3527075e-16,21.5621966 0,20.4576271 L0,2 C-1.3527075e-16,0.8954305 0.8954305,2.02906125e-16 2,0 Z" id="path-4"></path>
        <filter x="-3.3%" y="-11.1%" width="106.5%" height="131.2%" filterUnits="objectBoundingBox" id="filter-5">
            <feOffset dx="0" dy="1" in="SourceAlpha" result="shadowOffsetOuter1"></feOffset>
            <feGaussianBlur stdDeviation="1" in="shadowOffsetOuter1" result="shadowBlurOuter1"></feGaussianBlur>
            <feColorMatrix values="0 0 0 0 0   0 0 0 0 0   0 0 0 0 0  0 0 0 0.0575747283 0" type="matrix" in="shadowBlurOuter1"></feColorMatrix>
        </filter>
        <polygon id="path-6" points="0.0114146341 0.0746035741 77.9242829 0.0746035741 77.9242829 76.4690365 0.0114146341 76.4690365"></polygon>
    </defs>
    <g id="R1.6---Empty-Bookmark---Ouyang" stroke="none" stroke-width="1" fill="none" fill-rule="evenodd">
        <g id="R1.6---Empty-Bookmark" transform="translate(-852.000000, -1467.000000)">
            <g id="Get-Started-Copy-5" transform="translate(852.000000, 1467.000000)">
                <g id="illustration_nomentioned">
                    <rect id="Rectangle" x="0" y="0" width="268" height="212"></rect>
                    <g id="Group-2">
                        <g id="Group-7">
                            <path d="M146.435736,207.734539 C204.504668,207.734539 184.555698,173.45516 223.104936,124.624969 C238.102465,105.627647 276.980021,102.076177 266.108031,53.0948195 C256.251291,8.68745251 188.193901,0 155.84901,0 C116.210331,0 79.4515996,20.0411372 56.2186829,49.3415189 C31.0008637,81.1451764 41.4075248,80.1239363 11.787827,107.755187 C-7.03960949,125.318689 -0.480379253,171.068179 11.787827,188.287023 C30.8520255,215.044272 111.1037,207.734539 146.435736,207.734539 Z" id="Oval" fill="url(#linearGradient-1)" fill-rule="nonzero" transform="translate(134.000000, 104.323540) scale(-1, 1) translate(-134.000000, -104.323540) "></path>
                            <g id="Group-12" transform="translate(66.000000, 45.000000)">
                                <g id="Group-11">
                                    <g id="Rectangle" fill-rule="nonzero">
                                        <use fill="black" fill-opacity="1" filter="url(#filter-3)" xlink:href="#path-2"></use>
                                        <use fill="#FFFFFF" xlink:href="#path-2"></use>
                                    </g>
                                    <path d="M14.1760797,5 L14.1760797,5 C18.1393191,5 21.3521595,8.21284033 21.3521595,12.1760797 L21.3521595,12.1968016 C21.3521595,16.160041 18.1393191,19.3728814 14.1760797,19.3728814 L14.1760797,19.3728814 C10.2128403,19.3728814 7,16.160041 7,12.1968016 L7,12.1760797 C7,8.21284033 10.2128403,5 14.1760797,5 Z" id="Rectangle" fill="#F8E3DD"></path>
                                    <polygon id="Rectangle-22-Copy-3" fill="#E0EDF5" fill-rule="nonzero" points="24.7574751 7.00677966 69.2491694 7.00677966 69.2491694 10.6 24.7574751 10.6"></polygon>
                                    <polygon id="Rectangle-22-Copy" fill="#E0EDF5" fill-rule="nonzero" opacity="0.5" points="24.7574751 14.1932203 50.5913621 14.1932203 50.5913621 17.7864407 24.7574751 17.7864407"></polygon>
                                </g>
                                <g id="Group-11-Copy" transform="translate(7.000000, 55.000000)">
                                    <path d="M7.17607973,0 L7.17607973,0 C11.1393191,-7.28035267e-16 14.3521595,3.21284033 14.3521595,7.17607973 L14.3521595,7.19680162 C14.3521595,11.160041 11.1393191,14.3728814 7.17607973,14.3728814 L7.17607973,14.3728814 C3.21284033,14.3728814 -1.29099999e-15,11.160041 -1.77635684e-15,7.19680162 L-8.8817842e-16,7.17607973 C-1.37353526e-15,3.21284033 3.21284033,7.28035267e-16 7.17607973,0 Z" id="Rectangle" fill="#FFD800" opacity="0.231956845"></path>
                                    <polygon id="Rectangle-22-Copy-3" fill="#E0EDF5" fill-rule="nonzero" points="17.7574751 2.00677966 62.2491694 2.00677966 62.2491694 5.6 17.7574751 5.6"></polygon>
                                    <polygon id="Rectangle-22-Copy" fill="#E0EDF5" fill-rule="nonzero" opacity="0.5" points="17.7574751 9.19322034 43.5913621 9.19322034 43.5913621 12.7864407 17.7574751 12.7864407"></polygon>
                                </g>
                                <g id="Group-11-Copy-2" transform="translate(7.000000, 105.000000)">
                                    <path d="M7.17607973,0 L7.17607973,0 C11.1393191,-7.28035267e-16 14.3521595,3.21284033 14.3521595,7.17607973 L14.3521595,7.19680162 C14.3521595,11.160041 11.1393191,14.3728814 7.17607973,14.3728814 L7.17607973,14.3728814 C3.21284033,14.3728814 -1.29099999e-15,11.160041 -1.77635684e-15,7.19680162 L-8.8817842e-16,7.17607973 C-1.37353526e-15,3.21284033 3.21284033,7.28035267e-16 7.17607973,0 Z" id="Rectangle" fill="#F8E3DD"></path>
                                    <polygon id="Rectangle-22-Copy-3" fill="#E0EDF5" fill-rule="nonzero" points="17.7574751 2.00677966 62.2491694 2.00677966 62.2491694 5.6 17.7574751 5.6"></polygon>
                                    <polygon id="Rectangle-22-Copy" fill="#E0EDF5" fill-rule="nonzero" opacity="0.5" points="17.7574751 9.19322034 43.5913621 9.19322034 43.5913621 12.7864407 17.7574751 12.7864407"></polygon>
                                </g>
                                <g id="Group-6" transform="translate(0.000000, 25.000000)">
                                    <g id="Rectangle" fill-rule="nonzero">
                                        <use fill="black" fill-opacity="1" filter="url(#filter-5)" xlink:href="#path-4"></use>
                                        <use fill="#B2E3F4" xlink:href="#path-4"></use>
                                    </g>
                                    <g id="Group-5" transform="translate(24.219269, 6.288136)" fill="#E0EDF5" fill-rule="nonzero">
                                        <polygon id="Rectangle-22-Copy-3" points="-1.63424829e-13 -8.52651283e-14 44.6596452 -8.52651283e-14 44.6596452 3.43540999 -1.63424829e-13 3.43540999"></polygon>
                                        <polygon id="Rectangle-22-Copy" opacity="0.5" points="-1.95399252e-14 7.18644068 25.7651799 7.18644068 25.7651799 10.6218507 -1.95399252e-14 10.6218507"></polygon>
                                    </g>
                                    <path d="M14.1760797,4 L14.1760797,4 C18.1393191,4 21.3521595,7.21284033 21.3521595,11.1760797 L21.3521595,11.1968016 C21.3521595,15.160041 18.1393191,18.3728814 14.1760797,18.3728814 L14.1760797,18.3728814 C10.2128403,18.3728814 7,15.160041 7,11.1968016 L7,11.1760797 C7,7.21284033 10.2128403,4 14.1760797,4 Z" id="Rectangle-Copy-3" fill="#E0EDF5"></path>
                                </g>
                                <g id="Group-6-Copy" transform="translate(7.000000, 79.000000)" fill="#E0EDF5">
                                    <g id="Group-5" transform="translate(17.219269, 2.288136)" fill-rule="nonzero">
                                        <polygon id="Rectangle-22-Copy-3" points="-1.63424829e-13 -8.52651283e-14 44.6596452 -8.52651283e-14 44.6596452 3.43540999 -1.63424829e-13 3.43540999"></polygon>
                                        <polygon id="Rectangle-22-Copy" opacity="0.5" points="-1.95399252e-14 7.18644068 25.7651799 7.18644068 25.7651799 10.6218507 -1.95399252e-14 10.6218507"></polygon>
                                    </g>
                                    <path d="M7.17607973,0 L7.17607973,0 C11.1393191,-7.28035267e-16 14.3521595,3.21284033 14.3521595,7.17607973 L14.3521595,7.19680162 C14.3521595,11.160041 11.1393191,14.3728814 7.17607973,14.3728814 L7.17607973,14.3728814 C3.21284033,14.3728814 -4.02821575e-16,11.160041 -8.8817842e-16,7.19680162 L0,7.17607973 C-4.85356845e-16,3.21284033 3.21284033,7.28035267e-16 7.17607973,0 Z" id="Rectangle-Copy-3"></path>
                                </g>
                                <g id="Group-6-Copy-2" transform="translate(7.000000, 129.000000)">
                                    <g id="Group-5" transform="translate(17.219269, 2.288136)" fill="#E0EDF5" fill-rule="nonzero">
                                        <polygon id="Rectangle-22-Copy-3" points="-1.63424829e-13 -8.52651283e-14 44.6596452 -8.52651283e-14 44.6596452 3.43540999 -1.63424829e-13 3.43540999"></polygon>
                                        <polygon id="Rectangle-22-Copy" opacity="0.5" points="-1.95399252e-14 7.18644068 25.7651799 7.18644068 25.7651799 10.6218507 -1.95399252e-14 10.6218507"></polygon>
                                    </g>
                                    <path d="M7.17607973,0 L7.17607973,0 C11.1393191,-7.28035267e-16 14.3521595,3.21284033 14.3521595,7.17607973 L14.3521595,7.19680162 C14.3521595,11.160041 11.1393191,14.3728814 7.17607973,14.3728814 L7.17607973,14.3728814 C3.21284033,14.3728814 -4.02821575e-16,11.160041 -8.8817842e-16,7.19680162 L0,7.17607973 C-4.85356845e-16,3.21284033 3.21284033,7.28035267e-16 7.17607973,0 Z" id="Rectangle-Copy-3" fill="#FFF6C4"></path>
                                </g>
                            </g>
                            <g id="Group-13" transform="translate(149.000000, 61.000000)">
                                <circle id="Oval" fill="#F97802" cx="11.5" cy="11.5" r="11.5"></circle>
                                <path d="M18.0097531,11.0703125 C17.9628779,12.2057348 17.6295479,13.1848917 17.0097531,14.0078125 C16.3899584,14.8307333 15.4628843,15.2421875 14.2285031,15.2421875 C13.8222511,15.2421875 13.4706921,15.1276053 13.1738156,14.8984375 C12.8769392,14.6692697 12.6660038,14.3489604 12.5410031,13.9375 C12.3118353,14.3645855 12.0266819,14.6848948 11.6855344,14.8984375 C11.3443868,15.1119802 10.9446513,15.21875 10.4863156,15.21875 C9.75193697,15.21875 9.18814052,14.9088573 8.79490939,14.2890625 C8.40167825,13.6692677 8.25714845,12.8489634 8.36131564,11.828125 C8.49152462,10.5052017 8.8652188,9.44531648 9.48240939,8.6484375 C10.0996,7.85155852 10.8482904,7.453125 11.7285031,7.453125 C12.3326728,7.453125 12.8183451,7.52083266 13.1855344,7.65625 C13.5527237,7.79166734 13.9550634,7.99999859 14.3925656,8.28125 L14.3691281,8.3125 L14.4081906,8.3125 L14.0097531,12.7890625 C13.9732946,13.2838566 14.0097526,13.6223949 14.1191281,13.8046875 C14.2285037,13.9869801 14.3769397,14.078125 14.5644406,14.078125 C15.163402,14.078125 15.6438659,13.7942737 16.0058469,13.2265625 C16.3678279,12.6588513 16.5696488,11.9401085 16.6113156,11.0703125 C16.6946494,9.23176164 16.3391842,7.79688016 15.5449094,6.765625 C14.7506346,5.73436984 13.5227823,5.21875 11.8613156,5.21875 C10.2831827,5.21875 9.02277868,5.77343195 8.08006564,6.8828125 C7.13735259,7.99219305 6.62694103,9.47915734 6.54881564,11.34375 C6.46027353,13.1927176 6.84047806,14.6510363 7.68944064,15.71875 C8.53840322,16.7864637 9.75974517,17.3203125 11.3535031,17.3203125 C11.7962137,17.3203125 12.2532404,17.2682297 12.7245969,17.1640625 C13.1959534,17.0598953 13.6008973,16.9296883 13.9394406,16.7734375 L14.2363156,17.921875 C13.8873556,18.1406261 13.4433496,18.3111973 12.9042844,18.4335938 C12.3652192,18.5559902 11.8378807,18.6171875 11.3222531,18.6171875 C9.25974282,18.6171875 7.66991497,17.9687565 6.55272189,16.671875 C5.4355288,15.3749935 4.92121103,13.5989696 5.00975314,11.34375 C5.10350361,9.11978055 5.76886154,7.33985043 7.00584689,6.00390625 C8.24283224,4.66796207 9.8717222,4 11.8925656,4 C13.9082007,4 15.4524561,4.6315041 16.5253781,5.89453125 C17.5983002,7.1575584 18.0930869,8.88280156 18.0097531,11.0703125 Z M10.1191281,11.828125 C10.0670445,12.4895866 10.1152211,12.9908837 10.2636594,13.3320312 C10.4120976,13.6731788 10.6529806,13.84375 10.9863156,13.84375 C11.2779838,13.84375 11.542304,13.7760423 11.7792844,13.640625 C12.0162647,13.5052077 12.2285022,13.2552102 12.4160031,12.890625 C12.4160031,12.8697916 12.4160031,12.8528646 12.4160031,12.8398438 C12.4160031,12.8268229 12.4186073,12.8098959 12.4238156,12.7890625 L12.7675656,8.9140625 C12.6477734,8.87760398 12.5279829,8.84895844 12.4081906,8.828125 C12.2883984,8.80729156 12.1633996,8.796875 12.0331906,8.796875 C11.4550627,8.796875 11.014963,9.04817457 10.7128781,9.55078125 C10.4107933,10.0533879 10.2128786,10.8124949 10.1191281,11.828125 Z" id="@" fill="#FFFFFF" fill-rule="nonzero"></path>
                            </g>
                            <g id="Group-27" transform="translate(154.000000, 131.000000)">
                                <g id="student">
                                    <g id="Group-3">
                                        <mask id="mask-7" fill="white">
                                            <use xlink:href="#path-6"></use>
                                        </mask>
                                        <g id="Clip-2"></g>
                                    </g>
                                    <g id="Group-28" transform="translate(31.777778, 14.000000)">
                                        <polygon id="Fill-4" fill="#F1DAD5" points="4.41265923 16.3333333 10.03105 16.3333333 10.4865674 21.0936856 11.294677 21.745653 14.4444444 22.8367487 7.22192815 36.5555556 5.68434189e-14 22.8367487 3.14917928 21.745653 3.95787703 21.0936856"></polygon>
                                        <path d="M13.4702773,7.31803619 C13.4702773,7.7755108 13.6238746,8.22411726 13.6122215,8.66309107 C15.0497744,8.37227666 14.3553573,13.0225551 13.5420216,13.6621327 C13.4778589,13.7128953 13.3189264,13.599444 13.1845638,13.5063284 C12.9026412,15.2168125 10.4943644,19.7877362 8.96316488,21.7109032 C8.53817487,22.2454391 5.9379717,22.2365709 5.51677248,21.7318504 C3.94878819,19.8516481 1.54388105,15.2270568 1.26041398,13.5063284 C1.12605143,13.599444 0.966978525,13.7128953 0.902254245,13.6621327 C0.0889185553,13.0225551 -0.605358156,8.37227666 0.832615975,8.66309107 C0.821103196,8.22411726 0.974138912,7.7755108 0.974138912,7.31803619 C1.05360516,3.70701411 4.05858079,1.90448461 7.22248891,1.88888889 C10.3858354,1.90448461 13.3906707,3.70701411 13.4702773,7.31803619 Z" id="Fill-8" fill="#F1DAD5"></path>
                                        <path d="M11.8088435,2.75991271 C10.8530591,2.43553574 13.2888389,3.01026296 14.1704981,5.0453498 C15.0521573,7.08043664 14.2764558,8.53270414 14.2764558,8.53270414 C14.2764558,8.53270414 13.688156,8.68821407 12.5115564,8.99923393 C11.0291626,8.05690846 12.5222826,6.66143725 11.0398888,6.33448399 C7.03683132,9.22955728 3.50485817,8.73434737 1.91215818,7.37211567 C1.91215818,7.37211567 1.57689106,8.49652307 0.75024671,8.50564188 C-2.38992919,3.24482719 7.55212514,-3.29100226 11.8088435,2.75991271 Z" id="Fill-9" fill="#42526E"></path>
                                    </g>
                                    <path d="M33.1604499,36.3269531 C31.8536234,36.1589522 28.3550142,37.2655115 22.6646221,39.6466309 C22.6646221,39.6466309 21.6437781,40.1732337 21.1051606,41.7023504 C17.9789312,45.0222138 5.37931034,55.8716072 5.37931034,58.626431 C5.37931034,61.8904032 14.0483268,69.7530521 14.0483268,69.7530521 L20.5695407,69.7530521 L20.5695407,71.2758621 L57.4304593,71.2758621 L57.4304593,69.7530521 L64.073814,69.7530521 C64.073814,69.7530521 72.6206897,61.8904032 72.6206897,58.626431 C72.6206897,55.8708644 60.0195701,45.0207284 56.8939027,41.7016076 C56.3547232,40.1732337 55.3344412,39.6466309 55.3344412,39.6466309 C49.4866778,37.5319714 46.0122985,36.4403907 44.9113033,36.3718889 C43.2598104,36.2691361 45.5910436,37.9069452 44.0264719,38.9430701 C42.4619002,39.979195 41.4816046,40.2874786 39,40.2866014 C36.5183954,40.2857242 35.4392346,39.8843647 34.0458434,38.9395421 C32.6524522,37.9947195 35.1206897,36.5789543 33.1604499,36.3269531 Z M58.7235628,67.297168 L57.6536343,68.4461873 L57.4230124,59.5461292 L57.6536343,55.64 L62.4594135,59.420049 L58.7235628,67.297168 Z M18.4864493,67.297168 L19.5563778,68.4461873 L19.7869997,59.5461292 L19.7795528,53.9013026 L14.4444444,59.5461292 L18.4864493,67.297168 Z" id="Fill-5" fill="#FFAB00"></path>
                                    <path d="M18.1546612,72.6206897 C20.7474431,72.6206897 22.862069,71.4119006 22.862069,69.9310345 C22.862069,68.4491726 20.7474431,67.2413793 18.1546612,67.2413793 C15.5616236,67.2413793 13.4482762,68.4491726 13.4482762,69.9310345 C13.4472534,71.4119006 15.5616236,72.6206897 18.1546612,72.6206897 Z" id="Fill-13" fill="#F1DAD5"></path>
                                    <path d="M59.8443164,72.6206897 C62.4370983,72.6206897 64.5517241,71.4119006 64.5517241,69.9310345 C64.5517241,68.4491726 62.4370983,67.2413793 59.8443164,67.2413793 C57.2512788,67.2413793 55.1379314,68.4491726 55.1379314,69.9310345 C55.1369086,71.4119006 57.2512788,72.6206897 59.8443164,72.6206897 Z" id="Fill-13-Copy" fill="#F1DAD5"></path>
                                    <path d="M15.2931411,71.5312882 L15.2931411,73.5176191 C15.2931411,73.7640638 15.0733524,73.9655172 14.8028432,73.9655172 L13.9385738,73.9655172 C13.6686159,73.9655172 13.4482759,73.7640638 13.4482759,73.5176191 L13.4482759,70.4432718 C13.4482759,70.3967696 13.456178,70.3514426 13.470512,70.3088016 L13.470512,69.632086 C13.470512,69.0564328 13.9858026,68.5862069 14.615398,68.5862069 L21.6949468,68.5862069 C22.3243585,68.5862069 22.8390977,69.0564328 22.8390977,69.632086 L22.8390977,70.3076265 C22.8541669,70.3502675 22.862069,70.3960981 22.862069,70.4439433 L22.862069,73.5176191 C22.862069,73.7640638 22.6417289,73.9655172 22.3717711,73.9655172 L21.5075016,73.9655172 C21.2375437,73.9655172 21.0172037,73.7640638 21.0172037,73.5176191 L21.0172037,71.5312882 L20.3396443,71.5312882 L20.3396443,73.5176191 C20.3396443,73.7640638 20.1191205,73.9655172 19.8486114,73.9655172 L18.9843419,73.9655172 C18.714384,73.9655172 18.494044,73.7640638 18.494044,73.5176191 L18.494044,71.5312882 L17.8163009,71.5312882 L17.8163009,73.5176191 C17.8163009,73.7640638 17.5959608,73.9655172 17.326003,73.9655172 L16.4609984,73.9655172 C16.1910405,73.9655172 15.9707005,73.7640638 15.9707005,73.5176191 L15.9707005,71.5312882 L15.2931411,71.5312882 Z" id="Fill-14" fill="#F1DAD5"></path>
                                    <path d="M62.7063039,71.5312882 L62.7063039,73.5176191 C62.7063039,73.7640638 62.9266224,73.9655172 63.1965539,73.9655172 L64.0614741,73.9655172 C64.3314056,73.9655172 64.5517241,73.7640638 64.5517241,73.5176191 L64.5517241,70.4432718 C64.5517241,70.3967696 64.5430878,70.3514426 64.5287552,70.3088016 L64.5287552,69.632086 C64.5287552,69.0564328 64.0140661,68.5862069 63.3837971,68.5862069 L56.3058581,68.5862069 C55.6763241,68.5862069 55.1609,69.0564328 55.1609,69.632086 L55.1609,70.3076265 C55.1458324,70.3502675 55.137931,70.3960981 55.137931,70.4439433 L55.137931,73.5176191 C55.137931,73.7640638 55.3584333,73.9655172 55.6281811,73.9655172 L56.4931012,73.9655172 C56.7622977,73.9655172 56.9833513,73.7640638 56.9833513,73.5176191 L56.9833513,71.5312882 L57.6602932,71.5312882 L57.6602932,73.5176191 C57.6602932,73.7640638 57.8813468,73.9655172 58.1512783,73.9655172 L59.0154634,73.9655172 C59.28613,73.9655172 59.5057135,73.7640638 59.5057135,73.5176191 L59.5057135,71.5312882 L60.1832067,71.5312882 L60.1832067,73.5176191 C60.1832067,73.7640638 60.403709,73.9655172 60.6741917,73.9655172 L61.5383769,73.9655172 C61.8083084,73.9655172 62.0286269,73.7640638 62.0286269,73.5176191 L62.0286269,71.5312882 L62.7063039,71.5312882 Z" id="Fill-17" fill="#F1DAD5"></path>
                                    <path d="M21.1269897,48.4137931 L55.5281827,48.4137931 C56.7932862,48.4137931 57.8275862,49.3561774 57.8275862,50.5081703 L57.8275862,69.180801 C57.8275862,70.3327939 56.7932862,71.2758621 55.5281827,71.2758621 L21.1269897,71.2758621 C19.8626368,71.2758621 18.8275862,70.3327939 18.8275862,69.180801 L18.8275862,50.5081703 C18.8275862,49.3561774 19.8626368,48.4137931 21.1269897,48.4137931 Z" id="Fill-18" fill="#6A5CC8"></path>
                                    <path d="M17.0138323,73.9655172 L59.6415285,73.9655172 C60.1234721,73.9655172 60.5172414,74.2737222 60.5172414,74.6509569 L60.5172414,77.3151491 C60.5172414,77.6923838 60.1234721,78 59.6415285,78 L17.0138323,78 C16.5317004,78 16.137931,77.6923838 16.137931,77.3151491 L16.137931,74.6509569 C16.137931,74.2737222 16.5317004,73.9655172 17.0138323,73.9655172 Z" id="Fill-19" fill="#6A5CC8"></path>
                                    <path d="M26.8965517,75.3103448 L30.7068966,75.3103448 L30.7068966,71.2758621 L26.8965517,71.2758621 L26.8965517,75.3103448 Z M45.9482759,75.3103448 L49.7586207,75.3103448 L49.7586207,71.2758621 L45.9482759,71.2758621 L45.9482759,75.3103448 Z" id="Fill-20" fill="#ECF0F1"></path>
                                </g>
                                <circle id="Oval" fill="#ECF0F1" cx="38" cy="60" r="2"></circle>
                            </g>
                        </g>
                    </g>
                </g>
            </g>
        </g>
    </g>
</svg>