<?xml version="1.0" encoding="UTF-8"?>
<svg width="267px" height="207px" viewBox="0 0 267 207" version="1.1" xmlns="http://www.w3.org/2000/svg" xmlns:xlink="http://www.w3.org/1999/xlink">
    <!-- Generator: Sketch 54.1 (76490) - https://sketchapp.com -->
    <title>Group 16</title>
    <desc>Created with Sketch.</desc>
    <defs>
        <linearGradient x1="52.788966%" y1="103.227435%" x2="52.788966%" y2="0%" id="linearGradient-1">
            <stop stop-color="#EBF6FB" offset="0%"></stop>
            <stop stop-color="#FFFFFF" offset="100%"></stop>
        </linearGradient>
        <path d="M45.1616541,75.9273869 L181.68797,75.9273869 C182.792539,75.9273869 183.68797,76.8228174 183.68797,77.9273869 L183.68797,161.927387 C183.68797,163.031956 182.792539,163.927387 181.68797,163.927387 L45.1616541,163.927387 C44.0570846,163.927387 43.1616541,163.031956 43.1616541,161.927387 L43.1616541,77.9273869 C43.1616541,76.8228174 44.0570846,75.9273869 45.1616541,75.9273869 Z" id="path-2"></path>
        <filter x="-2.5%" y="-2.8%" width="105.0%" height="108.0%" filterUnits="objectBoundingBox" id="filter-3">
            <feOffset dx="0" dy="1" in="SourceAlpha" result="shadowOffsetOuter1"></feOffset>
            <feGaussianBlur stdDeviation="1" in="shadowOffsetOuter1" result="shadowBlurOuter1"></feGaussianBlur>
            <feColorMatrix values="0 0 0 0 0   0 0 0 0 0   0 0 0 0 0  0 0 0 0.0575747283 0" type="matrix" in="shadowBlurOuter1"></feColorMatrix>
        </filter>
        <path d="M46.1654135,57.9273869 L182.691729,57.9273869 C183.796299,57.9273869 184.691729,58.8228174 184.691729,59.9273869 L184.691729,69.9273869 C184.691729,71.0319564 183.796299,71.9273869 182.691729,71.9273869 L46.1654135,71.9273869 C45.060844,71.9273869 44.1654135,71.0319564 44.1654135,69.9273869 L44.1654135,59.9273869 C44.1654135,58.8228174 45.060844,57.9273869 46.1654135,57.9273869 Z" id="path-4"></path>
        <filter x="-2.5%" y="-17.9%" width="105.0%" height="150.0%" filterUnits="objectBoundingBox" id="filter-5">
            <feOffset dx="0" dy="1" in="SourceAlpha" result="shadowOffsetOuter1"></feOffset>
            <feGaussianBlur stdDeviation="1" in="shadowOffsetOuter1" result="shadowBlurOuter1"></feGaussianBlur>
            <feColorMatrix values="0 0 0 0 0   0 0 0 0 0   0 0 0 0 0  0 0 0 0.0575747283 0" type="matrix" in="shadowBlurOuter1"></feColorMatrix>
        </filter>
        <polygon id="path-6" points="147.563647 114 222.75084 114 222.75084 188.356189 147.563647 188.356189"></polygon>
    </defs>
    <g id="R1.6---VxD---Helena" stroke="none" stroke-width="1" fill="none" fill-rule="evenodd">
        <g id="Empty-Call-log/Voicemail" transform="translate(-820.000000, -557.000000)">
            <g id="Group-13" transform="translate(160.000000, 288.000000)">
                <g id="Group-17" transform="translate(659.000000, 266.000000)">
                    <g id="Group-16">
                        <rect id="Rectangle" x="0" y="0" width="268" height="212"></rect>
                        <g id="Group-14" transform="translate(1.000000, 3.000000)">
                            <path d="M262.405544,28.1946709 C240.329289,-16.5344501 136.562209,7.91961964 97.7786013,5.10166402 C85.8275187,4.23331725 2.97776296,2.23649832 0.158603157,36.8340214 C-3.24490162,78.6027906 49.286394,78.1600442 46.5920728,144.499451 C43.8977516,210.838858 90.8974994,215.971609 137.206062,197.199223 C183.550622,178.412245 183.550622,183.530831 209.952671,180.850844 C233.976665,178.412245 273.975439,170.100823 262.405544,137.529562 C236.12057,63.5328013 279.006581,61.8303468 262.405544,28.1946709 Z" id="Combined-Shape" fill="url(#linearGradient-1)" fill-rule="nonzero" transform="translate(133.173409, 103.792332) rotate(-180.000000) translate(-133.173409, -103.792332) "></path>
                            <g id="Rectangle" fill-rule="nonzero">
                                <use fill="black" fill-opacity="1" filter="url(#filter-3)" xlink:href="#path-2"></use>
                                <use fill="#FFFFFF" xlink:href="#path-2"></use>
                            </g>
                            <path d="M136.232718,146.288676 C136.438658,146.405915 136.607819,146.486515 136.740209,146.53048 C136.872598,146.574444 136.990276,146.596426 137.093245,146.596426 C137.152085,146.537807 137.214601,146.471861 137.280796,146.398587 C137.346991,146.325312 137.431572,146.230057 137.534541,146.112819 L137.600736,146.046872 C137.630156,146.017562 137.659575,145.980926 137.688995,145.936961 C137.865514,145.746448 138.012611,145.596239 138.130291,145.486327 C138.24797,145.376416 138.380358,145.27017 138.527457,145.167586 C138.939335,144.918454 139.387982,144.815871 139.873409,144.859836 C140.358837,144.9038 140.756,145.09431 141.064908,145.431372 C141.565046,145.914982 142.083564,146.398584 142.620476,146.882194 C143.157389,147.365804 143.859778,147.973971 144.727664,148.706713 C145.110123,149.029119 145.360188,149.417467 145.477867,149.871767 C145.595547,150.326067 145.558772,150.751051 145.367543,151.146732 C145.235154,151.483793 144.959347,151.912441 144.540113,152.432688 C144.12088,152.952935 143.74946,153.337619 143.425841,153.586751 C143.131643,153.835883 142.793319,154.02273 142.410861,154.147296 C142.028402,154.271862 141.601821,154.334144 141.131103,154.334144 C140.336766,154.334144 139.498312,154.172944 138.615716,153.850537 C137.73312,153.52813 136.828472,153.062846 135.901747,152.45467 C134.975021,151.846494 134.048308,151.102772 133.121582,150.223481 C132.180147,149.358846 131.253434,148.376986 130.341418,147.277873 C129.135204,145.797734 128.149653,144.339599 127.384736,142.903424 C126.619819,141.481904 126.082915,140.155661 125.774006,138.924654 C125.465097,137.693647 125.391549,136.594551 125.553358,135.627331 C125.700457,134.660111 126.09762,133.898071 126.744857,133.341187 C127.053766,133.0774 127.509767,132.795298 128.112874,132.494874 C128.715982,132.19445 129.201402,132.01493 129.569151,131.956311 C130.025159,131.883037 130.46645,131.948983 130.893038,132.15415 C131.319626,132.359318 131.650595,132.68172 131.885954,133.121365 C132.194863,133.751524 132.547896,134.403654 132.945064,135.077777 C133.342232,135.7519 133.812943,136.491958 134.357211,137.297975 C134.62199,137.70831 134.724958,138.144285 134.666118,138.605913 C134.607278,139.06754 134.408697,139.474206 134.070369,139.825922 C133.952689,139.928506 133.831334,140.023761 133.706299,140.11169 C133.581265,140.199619 133.437845,140.287547 133.276036,140.375476 C133.246616,140.404786 133.217197,140.426768 133.187777,140.441423 L133.099518,140.485387 C133.084808,140.485387 133.055388,140.500042 133.011258,140.529351 C132.967129,140.558661 132.930354,140.580643 132.900934,140.595298 C132.797965,140.639262 132.706029,140.68689 132.625125,140.738182 C132.54422,140.789474 132.459639,140.851756 132.371379,140.92503 C132.356669,141.042269 132.364024,141.177824 132.393444,141.3317 C132.422864,141.485576 132.481703,141.672422 132.569963,141.892245 C132.687642,142.214651 132.871514,142.577353 133.121582,142.980362 C133.371651,143.38337 133.68791,143.819345 134.070369,144.2883 C134.482247,144.786564 134.868377,145.200558 135.22877,145.530291 C135.589164,145.860025 135.92381,146.112818 136.232718,146.288676 Z" id="" fill="#6A5CC8" opacity="0.8"></path>
                            <ellipse id="Oval" fill="#FCE9CD" cx="106.398496" cy="131.927387" rx="9.03383459" ry="9"></ellipse>
                            <polygon id="Path" fill="#FFFFFF" transform="translate(106.398496, 131.927387) scale(-1, -1) translate(-106.398496, -131.927387) " points="110.413534 128.679387 109.658707 127.927387 103.454135 134.10872 103.454135 130.594054 102.383459 130.594054 102.383459 135.927387 107.736842 135.927387 107.736842 134.86072 104.208962 134.86072"></polygon>
                            <ellipse id="Oval-Copy-3" fill="#F8E3DD" cx="134.503759" cy="114.927387" rx="9.03383459" ry="9"></ellipse>
                            <polygon id="Path" fill="#FFFFFF" points="138.736278 112.927387 134.503759 117.144054 131.386529 114.038498 133.946115 114.038498 133.946115 112.927387 129.484962 112.927387 129.484962 117.371831 130.600251 117.371831 130.600251 114.821831 134.503759 118.71072 139.522556 113.71072"></polygon>
                            <ellipse id="Oval-Copy-4" fill="#D1E4F1" cx="162.609023" cy="131.927387" rx="9.03383459" ry="9"></ellipse>
                            <polygon id="Path" fill="#FFFFFF" points="166.62406 128.679387 165.869233 127.927387 159.664662 134.10872 159.664662 130.594054 158.593985 130.594054 158.593985 135.927387 163.947368 135.927387 163.947368 134.86072 160.419489 134.86072"></polygon>
                            <path d="M45.1616541,75.9273869 L181.68797,75.9273869 C182.792539,75.9273869 183.68797,76.8228174 183.68797,77.9273869 L183.68797,85.9273869 L43.1616541,85.9273869 L43.1616541,77.9273869 C43.1616541,76.8228174 44.0570846,75.9273869 45.1616541,75.9273869 Z" id="Rectangle-Copy-7" fill="#AAB2C5" fill-rule="nonzero" opacity="0.2"></path>
                            <rect id="Rectangle" fill="#AAB2C5" opacity="0.1" x="43.1616541" y="85.9273869" width="42.1578947" height="78"></rect>
                            <rect id="Rectangle" fill="#E5E7ED" x="49.1842105" y="94.9273869" width="30.112782" height="2" rx="1"></rect>
                            <path d="M50.1842105,98.9273869 L68.2593985,98.9273869 C68.8116832,98.9273869 69.2593985,99.3751021 69.2593985,99.9273869 L69.2593985,99.9273869 C69.2593985,100.479672 68.8116832,100.927387 68.2593985,100.927387 L50.1842105,100.927387 C49.6319258,100.927387 49.1842105,100.479672 49.1842105,99.9273869 L49.1842105,99.9273869 C49.1842105,99.3751021 49.6319258,98.9273869 50.1842105,98.9273869 Z" id="Rectangle-Copy-8" fill="#E5E7ED"></path>
                            <rect id="Rectangle-Copy-9" fill="#E5E7ED" x="49.1842105" y="102.927387" width="10.037594" height="2" rx="1"></rect>
                            <path d="M50.1842105,114.927387 L68.2593985,114.927387 C68.8116832,114.927387 69.2593985,115.375102 69.2593985,115.927387 L69.2593985,115.927387 C69.2593985,116.479672 68.8116832,116.927387 68.2593985,116.927387 L50.1842105,116.927387 C49.6319258,116.927387 49.1842105,116.479672 49.1842105,115.927387 L49.1842105,115.927387 C49.1842105,115.375102 49.6319258,114.927387 50.1842105,114.927387 Z" id="Rectangle-Copy-11" fill="#E5E7ED"></path>
                            <rect id="Rectangle-Copy-10" fill="#E5E7ED" x="49.1842105" y="118.927387" width="10.037594" height="2" rx="1"></rect>
                            <path d="M50.1842105,130.927387 L68.2593985,130.927387 C68.8116832,130.927387 69.2593985,131.375102 69.2593985,131.927387 L69.2593985,131.927387 C69.2593985,132.479672 68.8116832,132.927387 68.2593985,132.927387 L50.1842105,132.927387 C49.6319258,132.927387 49.1842105,132.479672 49.1842105,131.927387 L49.1842105,131.927387 C49.1842105,131.375102 49.6319258,130.927387 50.1842105,130.927387 Z" id="Rectangle-Copy-13" fill="#E5E7ED"></path>
                            <rect id="Rectangle-Copy-12" fill="#E5E7ED" x="49.1842105" y="134.927387" width="30.112782" height="2" rx="1"></rect>
                            <rect id="Rectangle-Copy-15" fill="#E5E7ED" x="49.1842105" y="146.927387" width="10.037594" height="2" rx="1"></rect>
                            <path d="M50.1842105,150.927387 L68.2593985,150.927387 C68.8116832,150.927387 69.2593985,151.375102 69.2593985,151.927387 L69.2593985,151.927387 C69.2593985,152.479672 68.8116832,152.927387 68.2593985,152.927387 L50.1842105,152.927387 C49.6319258,152.927387 49.1842105,152.479672 49.1842105,151.927387 L49.1842105,151.927387 C49.1842105,151.375102 49.6319258,150.927387 50.1842105,150.927387 Z" id="Rectangle-Copy-14" fill="#E5E7ED"></path>
                            <g id="Rectangle-Copy-4" fill-rule="nonzero">
                                <use fill="black" fill-opacity="1" filter="url(#filter-5)" xlink:href="#path-4"></use>
                                <use fill="#FFFFFF" xlink:href="#path-4"></use>
                            </g>
                            <ellipse id="Oval" fill="#F8E3DD" cx="51.1917293" cy="64.9273869" rx="3.0112782" ry="3"></ellipse>
                            <ellipse id="Oval-Copy" fill="#FCE9CD" cx="61.2293233" cy="64.9273869" rx="3.0112782" ry="3"></ellipse>
                            <ellipse id="Oval-Copy-2" fill="#DDF8DF" cx="71.2669173" cy="64.9273869" rx="3.0112782" ry="3"></ellipse>
                            <mask id="mask-7" fill="white">
                                <use xlink:href="#path-6"></use>
                            </mask>
                            <g id="Clip-2"></g>
                            <polygon id="Fill-4" fill="#F1DAD5" mask="url(#mask-7)" points="181.622732 144.91087 187.044571 144.91087 187.484153 149.544214 188.263992 150.178786 191.303569 151.240771 184.333723 164.593553 177.364444 151.240771 180.403453 150.178786 181.18386 149.544214"></polygon>
                            <path d="M190.363482,136.136106 C190.363482,136.581375 190.511706,137.018012 190.50046,137.445274 C191.887723,137.162219 191.217599,141.688425 190.432716,142.310939 C190.370798,142.360347 190.217426,142.249923 190.087764,142.159291 C189.815704,143.824139 187.491677,148.273108 186.014045,150.144964 C185.603922,150.665238 183.094684,150.656606 182.68822,150.165352 C181.175089,148.335315 178.854314,143.83411 178.580764,142.159291 C178.451102,142.249923 178.297594,142.360347 178.235134,142.310939 C177.450252,141.688425 176.780263,137.162219 178.167932,137.445274 C178.156822,137.018012 178.304504,136.581375 178.304504,136.136106 C178.38119,132.621428 181.281041,130.866991 184.334264,130.851811 C187.386945,130.866991 190.28666,132.621428 190.363482,136.136106 Z" id="Fill-8" fill="#F1DAD5" mask="url(#mask-7)"></path>
                            <path d="M188.760171,131.699596 C187.837824,131.383873 190.188391,131.943267 191.039206,133.924056 C191.890022,135.904846 191.141457,137.318366 191.141457,137.318366 C191.141457,137.318366 190.573738,137.469727 189.438301,137.772449 C188.007766,136.855265 189.448652,135.497026 188.018117,135.178796 C184.155101,137.996627 180.746689,137.514629 179.209708,136.188743 C179.209708,136.188743 178.88617,137.28315 178.088444,137.292026 C175.058123,132.171572 184.652368,125.810122 188.760171,131.699596 Z" id="Fill-9" fill="#42526E" mask="url(#mask-7)"></path>
                            <path d="M178.698745,150.744577 C177.437636,150.581059 174.061421,151.658094 168.5701,153.975684 C168.5701,153.975684 167.584968,154.488237 167.065194,155.976556 C164.048331,159.207844 151.889491,169.76777 151.889491,172.449093 C151.889491,175.625981 160.255234,183.27885 160.255234,183.27885 L166.548312,183.27885 L166.548312,184.761031 L202.119701,184.761031 L202.119701,183.27885 L208.530647,183.27885 C208.530647,183.27885 216.778522,175.625981 216.778522,172.449093 C216.778522,169.767047 204.618236,159.206398 201.601915,155.975833 C201.081598,154.488237 200.09701,153.975684 200.09701,153.975684 C194.453822,151.917445 191.100989,150.854988 190.038511,150.788314 C188.444793,150.688303 190.694472,152.282414 189.184634,153.290895 C187.674797,154.299375 186.728796,154.599434 184.334007,154.59858 C181.939218,154.597726 180.89781,154.207075 179.553164,153.287461 C178.208519,152.367847 180.590409,150.989855 178.698745,150.744577 Z M203.367567,180.888491 L202.335069,182.006853 L202.112515,173.344253 L202.335069,169.542342 L206.972725,173.221537 L203.367567,180.888491 Z M164.538094,180.888491 L165.570593,182.006853 L165.793147,173.344253 L165.78596,167.850034 L160.637494,173.344253 L164.538094,180.888491 Z" id="Fill-5" fill="#FFAB00" mask="url(#mask-7)"></path>
                            <path d="M164.217913,186.069978 C166.71999,186.069978 168.760639,184.89344 168.760639,183.452084 C168.760639,182.009759 166.71999,180.83419 164.217913,180.83419 C161.71559,180.83419 159.676175,182.009759 159.676175,183.452084 C159.675188,184.89344 161.71559,186.069978 164.217913,186.069978 Z" id="Fill-13" fill="#F1DAD5" mask="url(#mask-7)"></path>
                            <path d="M204.449113,186.069978 C206.95119,186.069978 208.991839,184.89344 208.991839,183.452084 C208.991839,182.009759 206.95119,180.83419 204.449113,180.83419 C201.946789,180.83419 199.907374,182.009759 199.907374,183.452084 C199.906387,184.89344 201.946789,186.069978 204.449113,186.069978 Z" id="Fill-13-Copy" fill="#F1DAD5" mask="url(#mask-7)"></path>
                            <path d="M161.4565,185.009642 L161.4565,186.942977 C161.4565,187.182846 161.2444,187.378925 160.983354,187.378925 L160.14932,187.378925 C159.888806,187.378925 159.676175,187.182846 159.676175,186.942977 L159.676175,183.950655 C159.676175,183.905393 159.6838,183.861275 159.697633,183.819772 L159.697633,183.161112 C159.697633,182.600817 160.194897,182.143137 160.802467,182.143137 L167.634347,182.143137 C168.24174,182.143137 168.738471,182.600817 168.738471,183.161112 L168.738471,183.818628 C168.753013,183.860132 168.760639,183.90474 168.760639,183.951308 L168.760639,186.942977 C168.760639,187.182846 168.548007,187.378925 168.287493,187.378925 L167.453459,187.378925 C167.192946,187.378925 166.980314,187.182846 166.980314,186.942977 L166.980314,185.009642 L166.326458,185.009642 L166.326458,186.942977 C166.326458,187.182846 166.113649,187.378925 165.852603,187.378925 L165.018569,187.378925 C164.758055,187.378925 164.545423,187.182846 164.545423,186.942977 L164.545423,185.009642 L163.89139,185.009642 L163.89139,186.942977 C163.89139,187.182846 163.678758,187.378925 163.418245,187.378925 L162.583501,187.378925 C162.322987,187.378925 162.110356,187.182846 162.110356,186.942977 L162.110356,185.009642 L161.4565,185.009642 Z" id="Fill-14" fill="#F1DAD5" mask="url(#mask-7)"></path>
                            <path d="M207.210978,185.009642 L207.210978,186.942977 C207.210978,187.182846 207.423589,187.378925 207.684077,187.378925 L208.518739,187.378925 C208.779228,187.378925 208.991839,187.182846 208.991839,186.942977 L208.991839,183.950655 C208.991839,183.905393 208.983504,183.861275 208.969673,183.819772 L208.969673,183.161112 C208.969673,182.600817 208.47299,182.143137 207.86477,182.143137 L201.034443,182.143137 C200.426932,182.143137 199.92954,182.600817 199.92954,183.161112 L199.92954,183.818628 C199.914999,183.860132 199.907374,183.90474 199.907374,183.951308 L199.907374,186.942977 C199.907374,187.182846 200.120162,187.378925 200.380473,187.378925 L201.215136,187.378925 C201.474915,187.378925 201.688235,187.182846 201.688235,186.942977 L201.688235,185.009642 L202.341495,185.009642 L202.341495,186.942977 C202.341495,187.182846 202.554815,187.378925 202.815304,187.378925 L203.649256,187.378925 C203.910454,187.378925 204.122356,187.182846 204.122356,186.942977 L204.122356,185.009642 L204.776148,185.009642 L204.776148,186.942977 C204.776148,187.182846 204.988936,187.378925 205.249956,187.378925 L206.083909,187.378925 C206.344397,187.378925 206.557008,187.182846 206.557008,186.942977 L206.557008,185.009642 L207.210978,185.009642 Z" id="Fill-17" fill="#F1DAD5" mask="url(#mask-7)"></path>
                            <path d="M167.086259,162.508934 L200.283973,162.508934 C201.504819,162.508934 202.502935,163.426175 202.502935,164.547432 L202.502935,182.721867 C202.502935,183.843124 201.504819,184.761031 200.283973,184.761031 L167.086259,184.761031 C165.866138,184.761031 164.867297,183.843124 164.867297,182.721867 L164.867297,164.547432 C164.867297,163.426175 165.866138,162.508934 167.086259,162.508934 Z" id="Fill-18" fill="#6A5CC8" mask="url(#mask-7)"></path>
                            <path d="M163.116995,187.378925 L204.253419,187.378925 C204.718503,187.378925 205.098497,187.678907 205.098497,188.046076 L205.098497,190.639187 C205.098497,191.006356 204.718503,191.305765 204.253419,191.305765 L163.116995,191.305765 C162.65173,191.305765 162.271736,191.006356 162.271736,190.639187 L162.271736,188.046076 C162.271736,187.678907 162.65173,187.378925 163.116995,187.378925 Z" id="Fill-19" fill="#6A5CC8" mask="url(#mask-7)"></path>
                            <path d="M172.653981,188.687872 L176.331026,188.687872 L176.331026,184.761031 L172.653981,184.761031 L172.653981,188.687872 Z M191.039206,188.687872 L194.716252,188.687872 L194.716252,184.761031 L191.039206,184.761031 L191.039206,188.687872 Z" id="Fill-20" fill="#ECF0F1" mask="url(#mask-7)"></path>
                            <ellipse id="Oval" fill="#ECF0F1" mask="url(#mask-7)" cx="183.63705" cy="173.731941" rx="2.09086879" ry="2.10885886"></ellipse>
                            <rect id="Rectangle" fill="#F3F4F6" mask="url(#mask-7)" x="90.3383459" y="95.9273869" width="89.3345865" height="2" rx="1"></rect>
                            <rect id="Rectangle" fill="#F3F4F6" mask="url(#mask-7)" x="90.3383459" y="88.9273869" width="22.0827068" height="3" rx="1.5"></rect>
                        </g>
                    </g>
                </g>
            </g>
        </g>
    </g>
</svg>