<?xml version="1.0" encoding="UTF-8"?>
<svg width="266px" height="207px" viewBox="0 0 266 207" version="1.1" xmlns="http://www.w3.org/2000/svg" xmlns:xlink="http://www.w3.org/1999/xlink">
    <!-- Generator: Sketch 54.1 (76490) - https://sketchapp.com -->
    <title>Group 16</title>
    <desc>Created with Sketch.</desc>
    <defs>
        <linearGradient x1="52.788966%" y1="103.227435%" x2="52.788966%" y2="0%" id="linearGradient-1">
            <stop stop-color="#EBF6FB" offset="0%"></stop>
            <stop stop-color="#FFFFFF" offset="100%"></stop>
        </linearGradient>
        <path d="M46,74.9273869 L182,74.9273869 C183.104569,74.9273869 184,75.8228174 184,76.9273869 L184,160.927387 C184,162.031956 183.104569,162.927387 182,162.927387 L46,162.927387 C44.8954305,162.927387 44,162.031956 44,160.927387 L44,76.9273869 C44,75.8228174 44.8954305,74.9273869 46,74.9273869 Z" id="path-2"></path>
        <filter x="-2.5%" y="-2.8%" width="105.0%" height="108.0%" filterUnits="objectBoundingBox" id="filter-3">
            <feOffset dx="0" dy="1" in="SourceAlpha" result="shadowOffsetOuter1"></feOffset>
            <feGaussianBlur stdDeviation="1" in="shadowOffsetOuter1" result="shadowBlurOuter1"></feGaussianBlur>
            <feColorMatrix values="0 0 0 0 0   0 0 0 0 0   0 0 0 0 0  0 0 0 0.0575747283 0" type="matrix" in="shadowBlurOuter1"></feColorMatrix>
        </filter>
        <path d="M46,57.9273869 L182,57.9273869 C183.104569,57.9273869 184,58.8228174 184,59.9273869 L184,69.9273869 C184,71.0319564 183.104569,71.9273869 182,71.9273869 L46,71.9273869 C44.8954305,71.9273869 44,71.0319564 44,69.9273869 L44,59.9273869 C44,58.8228174 44.8954305,57.9273869 46,57.9273869 Z" id="path-4"></path>
        <filter x="-2.5%" y="-17.9%" width="105.0%" height="150.0%" filterUnits="objectBoundingBox" id="filter-5">
            <feOffset dx="0" dy="1" in="SourceAlpha" result="shadowOffsetOuter1"></feOffset>
            <feGaussianBlur stdDeviation="1" in="shadowOffsetOuter1" result="shadowBlurOuter1"></feGaussianBlur>
            <feColorMatrix values="0 0 0 0 0   0 0 0 0 0   0 0 0 0 0  0 0 0 0.0575747283 0" type="matrix" in="shadowBlurOuter1"></feColorMatrix>
        </filter>
        <polygon id="path-6" points="146.15991 115.459459 221.065503 115.459459 221.065503 189.815649 146.15991 189.815649"></polygon>
    </defs>
    <g id="R1.6---VxD---Helena" stroke="none" stroke-width="1" fill="none" fill-rule="evenodd">
        <g id="Empty-Call-log/Voicemail" transform="translate(-818.000000, -1544.000000)">
            <g id="Group-13" transform="translate(159.000000, 1275.000000)">
                <g id="Group-17" transform="translate(658.000000, 266.000000)">
                    <g id="Group-16">
                        <rect id="Rectangle" x="0" y="0" width="268" height="212"></rect>
                        <g id="Group" transform="translate(1.000000, 3.000000)">
                            <path d="M261.422752,28.1946709 C239.42918,-16.5344501 136.05074,7.91961964 97.4123893,5.10166402 C85.5060674,4.23331725 2.96661029,2.23649832 0.158009137,36.8340214 C-3.23274843,78.6027906 49.1018007,78.1600442 46.4175706,144.499451 C43.7333405,210.838858 90.5570593,215.971609 136.692182,197.199223 C182.863166,178.412245 182.863166,183.530831 209.166332,180.850844 C233.100348,178.412245 272.949314,170.100823 261.422752,137.529562 C235.236223,63.5328013 277.961612,61.8303468 261.422752,28.1946709 Z" id="Combined-Shape" fill="url(#linearGradient-1)" fill-rule="nonzero" transform="translate(132.674632, 103.792332) rotate(-180.000000) translate(-132.674632, -103.792332) "></path>
                            <g id="Rectangle" fill-rule="nonzero">
                                <use fill="black" fill-opacity="1" filter="url(#filter-3)" xlink:href="#path-2"></use>
                                <use fill="#FFFFFF" xlink:href="#path-2"></use>
                            </g>
                            <path d="M101,109.927387 C100.447715,109.927387 100,110.375102 100,110.927387 L100,148.927387 C100,149.479672 100.447715,149.927387 101,149.927387 L167,149.927387 C167.552285,149.927387 168,149.479672 168,148.927387 L168,110.927387 C168,110.375102 167.552285,109.927387 167,109.927387 L101,109.927387 Z" id="Rectangle" stroke="#F3F4F6" stroke-width="2"></path>
                            <path d="M143.252277,139.927387 L148,139.927387 C153.522847,139.927387 158,135.450234 158,129.927387 C158,124.404539 153.522847,119.927387 148,119.927387 C142.477153,119.927387 138,124.404539 138,129.927387 C138,133.223034 139.604687,136.247219 142.249607,138.109772 L144.830713,139.927387 L143.252277,139.927387 Z M143.252277,139.927387 L123.169287,139.927387 L125.750393,138.109772 C128.395313,136.247219 130,133.223034 130,129.927387 C130,124.404539 125.522847,119.927387 120,119.927387 C114.477153,119.927387 110,124.404539 110,129.927387 C110,135.450234 114.477153,139.927387 120,139.927387 L143.252277,139.927387 Z" id="Combined-Shape" stroke="#6A5CC8" stroke-width="2" opacity="0.8"></path>
                            <path d="M46,74.9273869 L182,74.9273869 C183.104569,74.9273869 184,75.8228174 184,76.9273869 L184,84.9273869 L44,84.9273869 L44,76.9273869 C44,75.8228174 44.8954305,74.9273869 46,74.9273869 Z" id="Rectangle-Copy-7" fill="#AAB2C5" fill-rule="nonzero" opacity="0.2"></path>
                            <rect id="Rectangle" fill="#AAB2C5" opacity="0.1" x="44" y="84.9273869" width="42" height="78"></rect>
                            <rect id="Rectangle" fill="#E5E7ED" x="49" y="94.9273869" width="30" height="2" rx="1"></rect>
                            <path d="M50,98.9273869 L68,98.9273869 C68.5522847,98.9273869 69,99.3751021 69,99.9273869 L69,99.9273869 C69,100.479672 68.5522847,100.927387 68,100.927387 L50,100.927387 C49.4477153,100.927387 49,100.479672 49,99.9273869 L49,99.9273869 C49,99.3751021 49.4477153,98.9273869 50,98.9273869 Z" id="Rectangle-Copy-8" fill="#E5E7ED"></path>
                            <rect id="Rectangle-Copy-9" fill="#E5E7ED" x="49" y="102.927387" width="10" height="2" rx="1"></rect>
                            <path d="M50,114.927387 L68,114.927387 C68.5522847,114.927387 69,115.375102 69,115.927387 L69,115.927387 C69,116.479672 68.5522847,116.927387 68,116.927387 L50,116.927387 C49.4477153,116.927387 49,116.479672 49,115.927387 L49,115.927387 C49,115.375102 49.4477153,114.927387 50,114.927387 Z" id="Rectangle-Copy-11" fill="#E5E7ED"></path>
                            <rect id="Rectangle-Copy-10" fill="#E5E7ED" x="49" y="118.927387" width="10" height="2" rx="1"></rect>
                            <path d="M50,130.927387 L68,130.927387 C68.5522847,130.927387 69,131.375102 69,131.927387 L69,131.927387 C69,132.479672 68.5522847,132.927387 68,132.927387 L50,132.927387 C49.4477153,132.927387 49,132.479672 49,131.927387 L49,131.927387 C49,131.375102 49.4477153,130.927387 50,130.927387 Z" id="Rectangle-Copy-13" fill="#E5E7ED"></path>
                            <rect id="Rectangle-Copy-12" fill="#E5E7ED" x="49" y="134.927387" width="30" height="2" rx="1"></rect>
                            <rect id="Rectangle-Copy-15" fill="#E5E7ED" x="49" y="146.927387" width="10" height="2" rx="1"></rect>
                            <path d="M50,150.927387 L68,150.927387 C68.5522847,150.927387 69,151.375102 69,151.927387 L69,151.927387 C69,152.479672 68.5522847,152.927387 68,152.927387 L50,152.927387 C49.4477153,152.927387 49,152.479672 49,151.927387 L49,151.927387 C49,151.375102 49.4477153,150.927387 50,150.927387 Z" id="Rectangle-Copy-14" fill="#E5E7ED"></path>
                            <g id="Rectangle-Copy-4" fill-rule="nonzero">
                                <use fill="black" fill-opacity="1" filter="url(#filter-5)" xlink:href="#path-4"></use>
                                <use fill="#FFFFFF" xlink:href="#path-4"></use>
                            </g>
                            <circle id="Oval" fill="#F8E3DD" cx="51" cy="64.9273869" r="3"></circle>
                            <circle id="Oval-Copy" fill="#FCE9CD" cx="61" cy="64.9273869" r="3"></circle>
                            <circle id="Oval-Copy-2" fill="#DDF8DF" cx="71" cy="64.9273869" r="3"></circle>
                            <mask id="mask-7" fill="white">
                                <use xlink:href="#path-6"></use>
                            </mask>
                            <g id="Clip-2"></g>
                            <polygon id="Fill-4" fill="#F1DAD5" mask="url(#mask-7)" points="180.942497 144.91087 186.34403 144.91087 186.781965 149.544214 187.558884 150.178786 190.587076 151.240771 183.643334 164.593553 176.700158 151.240771 179.727785 150.178786 180.505269 149.544214"></polygon>
                            <path d="M189.65051,136.136106 C189.65051,136.581375 189.798179,137.018012 189.786976,137.445274 C191.169042,137.162219 190.501428,141.688425 189.719485,142.310939 C189.657799,142.360347 189.505001,142.249923 189.375825,142.159291 C189.104784,143.824139 186.789461,148.273108 185.317363,150.144964 C184.908777,150.665238 182.408936,150.656606 182.003994,150.165352 C180.496531,148.335315 178.184448,143.83411 177.911922,142.159291 C177.782746,142.249923 177.629813,142.360347 177.567587,142.310939 C176.785644,141.688425 176.118165,137.162219 177.500636,137.445274 C177.489568,137.018012 177.636697,136.581375 177.636697,136.136106 C177.713096,132.621428 180.602086,130.866991 183.643873,130.851811 C186.685121,130.866991 189.573976,132.621428 189.65051,136.136106 Z" id="Fill-8" fill="#F1DAD5" mask="url(#mask-7)"></path>
                            <path d="M188.053204,131.699596 C187.134311,131.383873 189.476075,131.943267 190.323704,133.924056 C191.171333,135.904846 190.425572,137.318366 190.425572,137.318366 C190.425572,137.318366 189.859979,137.469727 188.728794,137.772449 C187.303617,136.855265 188.739106,135.497026 187.31393,135.178796 C183.465382,137.996627 180.069736,137.514629 178.53851,136.188743 C178.53851,136.188743 178.216184,137.28315 177.421446,137.292026 C174.402475,132.171572 183.960786,125.810122 188.053204,131.699596 Z" id="Fill-9" fill="#42526E" mask="url(#mask-7)"></path>
                            <path d="M178.029461,150.744577 C176.773076,150.581059 173.409506,151.658094 167.938751,153.975684 C167.938751,153.975684 166.957309,154.488237 166.439481,155.976556 C163.433918,159.207844 151.320616,169.76777 151.320616,172.449093 C151.320616,175.625981 159.655027,183.27885 159.655027,183.27885 L165.924535,183.27885 L165.924535,184.761031 L201.362699,184.761031 L201.362699,183.27885 L207.749634,183.27885 C207.749634,183.27885 215.966618,175.625981 215.966618,172.449093 C215.966618,169.767047 203.851875,159.206398 200.846852,155.975833 C200.328484,154.488237 199.347583,153.975684 199.347583,153.975684 C193.725531,151.917445 190.385255,150.854988 189.326756,150.788314 C187.739008,150.688303 189.98026,152.282414 188.476078,153.290895 C186.971895,154.299375 186.029437,154.599434 183.643617,154.59858 C181.257797,154.597726 180.22029,154.207075 178.880681,153.287461 C177.541071,152.367847 179.91404,150.989855 178.029461,150.744577 Z M202.605891,180.888491 L201.57726,182.006853 L201.355539,173.344253 L201.57726,169.542342 L206.197546,173.221537 L202.605891,180.888491 Z M163.921847,180.888491 L164.950478,182.006853 L165.172199,173.344253 L165.165039,167.850034 L160.035855,173.344253 L163.921847,180.888491 Z" id="Fill-5" fill="#FFAB00" mask="url(#mask-7)"></path>
                            <path d="M163.602865,186.069978 C166.095571,186.069978 168.128577,184.89344 168.128577,183.452084 C168.128577,182.009759 166.095571,180.83419 163.602865,180.83419 C161.109913,180.83419 159.078137,182.009759 159.078137,183.452084 C159.077154,184.89344 161.109913,186.069978 163.602865,186.069978 Z" id="Fill-13" fill="#F1DAD5" mask="url(#mask-7)"></path>
                            <path d="M203.683386,186.069978 C206.176092,186.069978 208.209098,184.89344 208.209098,183.452084 C208.209098,182.009759 206.176092,180.83419 203.683386,180.83419 C201.190434,180.83419 199.158658,182.009759 199.158658,183.452084 C199.157674,184.89344 201.190434,186.069978 203.683386,186.069978 Z" id="Fill-13-Copy" fill="#F1DAD5" mask="url(#mask-7)"></path>
                            <path d="M160.851794,185.009642 L160.851794,186.942977 C160.851794,187.182846 160.640488,187.378925 160.38042,187.378925 L159.54951,187.378925 C159.289972,187.378925 159.078136,187.182846 159.078136,186.942977 L159.078136,183.950655 C159.078136,183.905393 159.085734,183.861275 159.099514,183.819772 L159.099514,183.161112 C159.099514,182.600817 159.594916,182.143137 160.20021,182.143137 L167.006503,182.143137 C167.611621,182.143137 168.106492,182.600817 168.106492,183.161112 L168.106492,183.818628 C168.12098,183.860132 168.128577,183.90474 168.128577,183.951308 L168.128577,186.942977 C168.128577,187.182846 167.916741,187.378925 167.657203,187.378925 L166.826293,187.378925 C166.566755,187.378925 166.354919,187.182846 166.354919,186.942977 L166.354919,185.009642 L165.703512,185.009642 L165.703512,186.942977 C165.703512,187.182846 165.4915,187.378925 165.231432,187.378925 L164.400522,187.378925 C164.140984,187.378925 163.929148,187.182846 163.929148,186.942977 L163.929148,185.009642 L163.277565,185.009642 L163.277565,186.942977 C163.277565,187.182846 163.065729,187.378925 162.806191,187.378925 L161.974574,187.378925 C161.715036,187.378925 161.503201,187.182846 161.503201,186.942977 L161.503201,185.009642 L160.851794,185.009642 Z" id="Fill-14" fill="#F1DAD5" mask="url(#mask-7)"></path>
                            <path d="M206.434907,185.009642 L206.434907,186.942977 C206.434907,187.182846 206.646721,187.378925 206.906234,187.378925 L207.73777,187.378925 C207.997283,187.378925 208.209098,187.182846 208.209098,186.942977 L208.209098,183.950655 C208.209098,183.905393 208.200795,183.861275 208.187015,183.819772 L208.187015,183.161112 C208.187015,182.600817 207.692192,182.143137 207.08625,182.143137 L200.281505,182.143137 C199.67627,182.143137 199.18074,182.600817 199.18074,183.161112 L199.18074,183.818628 C199.166254,183.860132 199.158657,183.90474 199.158657,183.951308 L199.158657,186.942977 C199.158657,187.182846 199.370649,187.378925 199.629985,187.378925 L200.461521,187.378925 C200.720327,187.378925 200.932848,187.182846 200.932848,186.942977 L200.932848,185.009642 L201.583662,185.009642 L201.583662,186.942977 C201.583662,187.182846 201.796183,187.378925 202.055696,187.378925 L202.886525,187.378925 C203.146744,187.378925 203.357852,187.182846 203.357852,186.942977 L203.357852,185.009642 L204.009196,185.009642 L204.009196,186.942977 C204.009196,187.182846 204.221187,187.378925 204.48123,187.378925 L205.312059,187.378925 C205.571572,187.378925 205.783387,187.182846 205.783387,186.942977 L205.783387,185.009642 L206.434907,185.009642 Z" id="Fill-17" fill="#F1DAD5" mask="url(#mask-7)"></path>
                            <path d="M166.460468,162.508934 L199.533846,162.508934 C200.750119,162.508934 201.744497,163.426175 201.744497,164.547432 L201.744497,182.721867 C201.744497,183.843124 200.750119,184.761031 199.533846,184.761031 L166.460468,184.761031 C165.244916,184.761031 164.249817,183.843124 164.249817,182.721867 L164.249817,164.547432 C164.249817,163.426175 165.244916,162.508934 166.460468,162.508934 Z" id="Fill-18" fill="#6A5CC8" mask="url(#mask-7)"></path>
                            <path d="M162.50607,187.378925 L203.488425,187.378925 C203.951767,187.378925 204.330337,187.678907 204.330337,188.046076 L204.330337,190.639187 C204.330337,191.006356 203.951767,191.305765 203.488425,191.305765 L162.50607,191.305765 C162.042547,191.305765 161.663977,191.006356 161.663977,190.639187 L161.663977,188.046076 C161.663977,187.678907 162.042547,187.378925 162.50607,187.378925 Z" id="Fill-19" fill="#6A5CC8" mask="url(#mask-7)"></path>
                            <path d="M172.007337,188.687872 L175.67061,188.687872 L175.67061,184.761031 L172.007337,184.761031 L172.007337,188.687872 Z M190.323704,188.687872 L193.986977,188.687872 L193.986977,184.761031 L190.323704,184.761031 L190.323704,188.687872 Z" id="Fill-20" fill="#ECF0F1" mask="url(#mask-7)"></path>
                            <ellipse id="Oval" fill="#ECF0F1" mask="url(#mask-7)" cx="182.949271" cy="173.731941" rx="2.08303783" ry="2.10885886"></ellipse>
                            <rect id="Rectangle" fill="#F3F4F6" mask="url(#mask-7)" x="90" y="95.9273869" width="89" height="2" rx="1"></rect>
                            <rect id="Rectangle" fill="#F3F4F6" mask="url(#mask-7)" x="90" y="88.9273869" width="22" height="3" rx="1.5"></rect>
                        </g>
                    </g>
                </g>
            </g>
        </g>
    </g>
</svg>