<?xml version="1.0" encoding="UTF-8"?>
<svg width="269px" height="212px" viewBox="0 0 269 212" version="1.1" xmlns="http://www.w3.org/2000/svg" xmlns:xlink="http://www.w3.org/1999/xlink">
    <!-- Generator: Sketch 52.2 (67145) - http://www.bohemiancoding.com/sketch -->
    <title>illustrator</title>
    <desc>Created with Sketch.</desc>
    <defs>
        <linearGradient x1="50%" y1="0%" x2="50%" y2="100%" id="linearGradient-1">
            <stop stop-color="#EBF6FB" offset="0%"></stop>
            <stop stop-color="#FFFFFF" offset="100%"></stop>
        </linearGradient>
        <polygon id="path-2" points="6.94984802 17.3037838 111.917082 17.3037838 111.917082 85.4875676 6.94984802 85.4875676"></polygon>
        <filter x="-4.8%" y="-5.9%" width="109.5%" height="114.7%" filterUnits="objectBoundingBox" id="filter-3">
            <feOffset dx="0" dy="1" in="SourceAlpha" result="shadowOffsetOuter1"></feOffset>
            <feGaussianBlur stdDeviation="1.5" in="shadowOffsetOuter1" result="shadowBlurOuter1"></feGaussianBlur>
            <feColorMatrix values="0 0 0 0 0   0 0 0 0 0   0 0 0 0 0  0 0 0 0.0575747283 0" type="matrix" in="shadowBlurOuter1"></feColorMatrix>
        </filter>
        <polygon id="path-4" points="116.724742 17.3037838 188.038359 17.3037838 188.038359 85.4875676 116.724742 85.4875676"></polygon>
        <filter x="-7.0%" y="-5.9%" width="114.0%" height="114.7%" filterUnits="objectBoundingBox" id="filter-5">
            <feOffset dx="0" dy="1" in="SourceAlpha" result="shadowOffsetOuter1"></feOffset>
            <feGaussianBlur stdDeviation="1.5" in="shadowOffsetOuter1" result="shadowBlurOuter1"></feGaussianBlur>
            <feColorMatrix values="0 0 0 0 0   0 0 0 0 0   0 0 0 0 0  0 0 0 0.0575747283 0" type="matrix" in="shadowBlurOuter1"></feColorMatrix>
        </filter>
        <polygon id="path-6" points="6.94984802 0.458378378 188.038359 0.458378378 188.038359 14.0951351 6.94984802 14.0951351"></polygon>
        <filter x="-2.8%" y="-29.3%" width="105.5%" height="173.3%" filterUnits="objectBoundingBox" id="filter-7">
            <feOffset dx="0" dy="1" in="SourceAlpha" result="shadowOffsetOuter1"></feOffset>
            <feGaussianBlur stdDeviation="1.5" in="shadowOffsetOuter1" result="shadowBlurOuter1"></feGaussianBlur>
            <feColorMatrix values="0 0 0 0 0   0 0 0 0 0   0 0 0 0 0  0 0 0 0.0575747283 0" type="matrix" in="shadowBlurOuter1"></feColorMatrix>
        </filter>
    </defs>
    <g id="SPEC" stroke="none" stroke-width="1" fill="none" fill-rule="evenodd">
        <g id="Conversation-Card-/-Empty-Screen" transform="translate(-674.000000, -1313.000000)" fill-rule="nonzero">
            <g id="Get-Started-Copy-2" transform="translate(489.000000, 1276.000000)">
                <g id="illustrator" transform="translate(160.000000, 37.000000)">
                    <rect id="Rectangle-4" opacity="0.103794643" x="0" y="0" width="320" height="212"></rect>
                    <g id="Group-2" transform="translate(25.000000, 0.000000)">
                        <g id="Group-7">
                            <path d="M138.730633,210.506834 C197.574517,210.506834 230.031705,188.981297 230.031705,130.072379 C230.031705,118.601668 279.386807,105.937764 267.007674,56.4974745 C256.161522,13.1796646 159.829394,34.5196468 127.64872,29.7836799 C85.229236,23.5408874 69.0370527,-3.692037 45.5156121,0.890651759 C1.85333532,9.39738521 32.1843567,57.8675652 32.1843567,103.842803 C32.1843567,126.908596 -10.1461326,173.351148 2.28579754,190.799784 C21.6044149,217.914119 102.927078,210.506834 138.730633,210.506834 Z" id="Oval" fill="url(#linearGradient-1)"></path>
                            <g id="Group-6" transform="translate(43.988450, 53.974054)">
                                <g id="Rectangle-19">
                                    <use fill="black" fill-opacity="1" filter="url(#filter-3)" xlink:href="#path-2"></use>
                                    <use fill="#FFFFFF" xlink:href="#path-2"></use>
                                </g>
                                <g id="Rectangle-19-Copy-2">
                                    <use fill="black" fill-opacity="1" filter="url(#filter-5)" xlink:href="#path-4"></use>
                                    <use fill="#FFFFFF" xlink:href="#path-4"></use>
                                </g>
                                <g id="Rectangle-21">
                                    <use fill="black" fill-opacity="1" filter="url(#filter-7)" xlink:href="#path-6"></use>
                                    <use fill="#FFFFFF" xlink:href="#path-6"></use>
                                </g>
                                <ellipse id="Oval-2" fill="#E0EDF5" cx="20.9721884" cy="32.9459459" rx="6.81085106" ry="6.81837838"></ellipse>
                                <polygon id="Rectangle-22" fill="#E0EDF5" points="33.3919757 26.1275676 104.705593 26.1275676 104.705593 29.3362162 33.3919757 29.3362162"></polygon>
                                <polygon id="Rectangle-22-Copy" fill="#E0EDF5" points="33.3919757 30.9405405 104.705593 30.9405405 104.705593 34.1491892 33.3919757 34.1491892"></polygon>
                                <polygon id="Rectangle-22-Copy-2" fill="#E0EDF5" points="33.3919757 36.5556757 67.0455927 36.5556757 67.0455927 39.7643243 33.3919757 39.7643243"></polygon>
                                <ellipse id="Oval-2" fill="#E0EDF5" cx="69.0487842" cy="50.5935135" rx="6.81085106" ry="6.81837838"></ellipse>
                                <polygon id="Rectangle-22" fill="#E0EDF5" points="79.8660182 43.7751351 103.10304 43.7751351 103.10304 46.9837838 79.8660182 46.9837838"></polygon>
                                <polygon id="Rectangle-22-Copy" fill="#E0EDF5" points="79.8660182 49.3902703 103.10304 49.3902703 103.10304 52.5989189 79.8660182 52.5989189"></polygon>
                                <polygon id="Rectangle-22-Copy-2" fill="#E0EDF5" points="79.8660182 54.2032432 91.0838906 54.2032432 91.0838906 57.4118919 79.8660182 57.4118919"></polygon>
                                <ellipse id="Oval-2-Copy" fill="#E0EDF5" cx="20.9721884" cy="51.3956757" rx="6.81085106" ry="6.81837838"></ellipse>
                                <polygon id="Rectangle-22-Copy-3" fill="#D9F4FF" points="33.3919757 44.5772973 58.2315502 44.5772973 58.2315502 47.7859459 33.3919757 47.7859459"></polygon>
                                <polygon id="Rectangle-22-Copy-4" fill="#D9F4FF" points="33.3919757 49.3902703 58.2315502 49.3902703 58.2315502 52.5989189 33.3919757 52.5989189"></polygon>
                                <polygon id="Rectangle-22-Copy-5" fill="#D9F4FF" points="33.3919757 55.0054054 49.4175076 55.0054054 49.4175076 58.2140541 33.3919757 58.2140541"></polygon>
                                <ellipse id="Oval-2-Copy-2" fill="#E0EDF5" cx="20.9721884" cy="69.8454054" rx="6.81085106" ry="6.81837838"></ellipse>
                                <polygon id="Rectangle-22-Copy-6" fill="#E0EDF5" points="33.3919757 63.027027 104.705593 63.027027 104.705593 66.2356757 33.3919757 66.2356757"></polygon>
                                <polygon id="Rectangle-22-Copy-7" fill="#E0EDF5" points="33.3919757 67.84 104.705593 67.84 104.705593 71.0486486 33.3919757 71.0486486"></polygon>
                                <polygon id="Rectangle-22-Copy-8" fill="#E0EDF5" points="33.3919757 73.4551351 67.0455927 73.4551351 67.0455927 76.6637838 33.3919757 76.6637838"></polygon>
                                <path d="M166.661876,51.4699211 C166.04171,44.3089714 159.900755,38.6860726 152.416663,38.6860726 C151.653087,38.6860726 150.903492,38.7446038 150.172316,38.8573277 C143.962391,39.8146987 139.080999,44.6811081 138.246233,50.7988462 L138.246233,50.3950275 C134.819117,50.5845211 130.607917,50.6806739 125.612633,50.6834861 C126.639512,36.9526367 138.247741,26.1275676 152.416663,26.1275676 C166.602455,26.1275676 178.221452,37.1344689 179.224316,50.8885824 C174.837016,51.0550057 170.649536,51.2487853 166.661876,51.4699211 Z M166.712541,52.8207338 C175.053724,52.2114059 179.224316,52.0192151 179.224316,52.2441613 C179.224316,66.9007973 167.730312,79.0702703 152.886069,79.0702703 C152.545602,79.0702703 152.541609,74.9259614 152.87409,66.6373438 C160.019219,66.4177516 165.842303,61.0718446 166.624133,54.2362096 C166.677352,53.7709048 166.707213,53.2986972 166.712541,52.8207338 Z M151.02057,66.578562 C150.842964,71.0113596 150.689408,75.1752624 150.559902,79.0702703 C136.990481,77.7265483 125.538784,66.4176836 125.538784,52.6657546 C125.538784,52.4221239 129.735022,52.2687796 138.127497,52.2057219 C138.122458,52.3582822 138.119919,52.5114602 138.119919,52.665218 C138.119919,53.2980437 138.162924,53.9210482 138.246233,54.5315897 C139.118656,60.9253003 144.411026,65.9522405 151.02057,66.578562 Z" id="Combined-Shape" fill="#D9F4FF"></path>
                                <path d="M166.661876,51.4699211 C166.04171,44.3089714 159.900755,38.6860726 152.416663,38.6860726 C151.653087,38.6860726 150.903492,38.7446038 150.172316,38.8573277 C143.962391,39.8146987 139.080999,44.6811081 138.246233,50.7988462 L138.246233,50.3950275 C134.819117,50.5845211 130.607917,50.6806739 125.612633,50.6834861 C126.639512,36.9526367 138.247741,26.1275676 152.416663,26.1275676 C166.602455,26.1275676 178.221452,37.1344689 179.224316,50.8885824 C174.837016,51.0550057 170.649536,51.2487853 166.661876,51.4699211 Z M166.712541,52.8207338 C175.053724,52.2114059 179.224316,52.0192151 179.224316,52.2441613 C179.224316,66.9007973 167.730312,79.0702703 152.886069,79.0702703 C152.545602,79.0702703 152.541609,74.9259614 152.87409,66.6373438 C160.019219,66.4177516 165.842303,61.0718446 166.624133,54.2362096 C166.677352,53.7709048 166.707213,53.2986972 166.712541,52.8207338 Z M151.02057,66.578562 C150.842964,71.0113596 150.689408,75.1752624 150.559902,79.0702703 C136.990481,77.7265483 125.538784,66.4176836 125.538784,52.6657546 C125.538784,52.4221239 129.735022,52.2687796 138.127497,52.2057219 C138.122458,52.3582822 138.119919,52.5114602 138.119919,52.665218 C138.119919,53.2980437 138.162924,53.9210482 138.246233,54.5315897 C139.118656,60.9253003 144.411026,65.9522405 151.02057,66.578562 Z" id="Combined-Shape" fill="#F8E3DD"></path>
                                <g id="Group-2-Copy" transform="translate(24.917508, 89.224638) scale(-1, 1) translate(-24.917508, -89.224638) translate(0.417508, 30.724638)">
                                    <path d="M31.3664846,17.8740745 C29.1551368,21.4487636 28.2407952,24.0496519 28.6234596,25.6767394 C29.0061241,27.3038269 31.188322,28.2341601 35.1700532,28.4677391 L41.0217128,20.7090551 L31.3664846,17.8740745 Z" id="Path-14" fill="#F1DAD5"></path>
                                    <path d="M30.8084079,16.4409431 C33.1081548,14.2577464 35.6447107,13.8873317 38.4180755,15.329699 C41.1914403,16.7720662 41.7491876,19.9772805 40.0913175,24.9453418 C37.5923602,28.2876664 35.4390609,29.2513978 33.6314195,27.836536 C32.8941143,27.2594387 32.7045396,26.6675822 32.4926028,26.0417087 C32.2874922,25.4359937 32.4383902,24.4728163 32.9452968,23.1521764 C32.1520933,23.4269545 31.6153189,23.5643436 31.3349736,23.5643436 C31.0546283,23.5643436 30.9792955,23.2940274 31.1089753,22.753395 L32.1875082,21.4224103 C31.268108,19.6736802 30.8084079,18.4092384 30.8084079,17.6290848 C30.8084079,16.8489312 30.8084079,16.452884 30.8084079,16.4409431 Z" id="Path-15" fill="#42526E"></path>
                                    <path d="M30.4301373,19.7658004 C29.3101982,21.1639328 28.5910367,21.862999 28.2726529,21.862999 C27.9542691,21.862999 28.3138499,22.1728532 29.3513951,22.7925617 L30.4301373,19.7658004 Z" id="Path-16" fill="#F1DAD5"></path>
                                    <path d="M20.7569123,29.8982535 C14.3647334,27.7269508 11.168644,26.3102757 11.168644,25.6482282 C11.168644,24.6551569 7.40200046,10.3708016 7.40200046,9.45651382 C7.40200046,8.84698862 7.72685542,7.4513282 8.37656534,5.26953257 C8.42207444,4.69584906 8.42207444,4.31489737 8.37656534,4.12667749 C8.3001105,3.81046996 8.00106377,3.57010927 7.95019217,3.57010927 C7.87412111,3.57010927 7.8248455,3.93958587 7.60634284,4.97434138 C7.56761994,5.15772007 7.49950581,5.35413399 7.40200046,5.56358313 C6.56568537,4.79364342 5.99654739,4.06667412 5.6945865,3.38267525 C5.18742068,2.23384814 5.67647319,1.27369967 5.18742068,1.27369967 C4.9325135,1.27369967 3.76878498,3.15973209 3.11003418,3.38267525 C2.45128339,3.60561841 4.13933178,6.30549057 4.13933178,6.91599247 C4.13933178,7.07674962 4.87934167,7.85492109 4.87934167,8.83735712 C4.87934167,10.9233555 5.18201242,23.4050136 5.6945865,25.2483839 C5.93126277,26.0995428 6.4927075,28.2551681 8.66296556,30.0988511 C10.0593516,31.2851124 13.1728541,33.0831831 18.003473,35.493063 L20.7569123,29.8982535 Z" id="Path-20" fill="#F1DAD5" transform="translate(11.857200, 18.383381) rotate(-9.000000) translate(-11.857200, -18.383381) "></path>
                                    <path d="M46.0751567,38.6830585 C48.0019818,42.5742593 48.9653943,45.4688757 48.9653943,47.3669077 C48.9653943,50.2139557 47.6832037,62.6568057 48.472153,65.0165945 C48.9981193,66.589787 48.9981193,69.0329264 48.472153,72.3460127 L46.0751567,73.4908136 C45.6567558,72.8393691 45.4250123,72.2465424 45.3799261,71.7123335 C45.33484,71.1781247 45.4261989,70.3429816 45.6540029,69.2069042 C45.4494702,69.3019868 45.2209908,69.4553653 44.9685646,69.6670395 C44.7758054,69.8286794 44.7137831,70.2780328 44.4879212,70.6479677 C44.4413121,70.7243079 44.3207165,70.7876087 44.1261344,70.8378699 C43.9470931,67.8409145 44.0676888,65.9822296 44.4879212,65.2618153 C44.5275446,65.193888 44.6515369,64.9733341 44.684228,64.8822054 C45.44071,62.7734637 43.6082125,47.3418522 43.9420504,46.7620616 C44.1742267,46.358831 43.326871,44.7007584 41.3999833,41.7878439 L46.0751567,38.6830585 Z" id="Path-19" fill="#F1DAD5"></path>
                                    <path d="M20.8875329,28.0799931 C24.5923143,29.1904104 28.8249348,29.4850279 33.5853943,28.9638457 C38.3458538,28.4426635 41.7072579,29.7774365 43.6696066,32.9681648 C42.8899582,38.2883827 42.0697564,41.5370525 41.2090013,42.7141743 C39.9178686,44.479857 40.0381733,56.7465177 39.7597285,56.7465177 C39.4812837,56.7465177 30.6084361,61.6607145 21.8421535,54.3207058 C22.3690237,50.3054142 23.6454789,46.4351729 24.4204337,42.7141743 C24.6480327,41.6213423 24.8049904,40.0113504 24.8913069,37.8841989 C20.0740605,37.3858102 17.7631724,36.7130895 17.9586427,35.8660366 C18.1541129,35.0189838 19.1304097,32.4236359 20.8875329,28.0799931 Z" id="Path-17" fill="#FFC400"></path>
                                    <path d="M43.6780154,33.0078811 C45.6898525,35.8251118 46.695771,37.7218779 46.695771,38.6981796 C46.695771,39.5032006 45.6377874,40.8562689 43.1750197,42.3847583 C42.8256918,42.6015648 42.1881563,42.8810455 41.262413,43.2232005 L40.6434422,42.7332794 L43.6780154,33.0078811 Z" id="Path-18" fill="#FFC400"></path>
                                    <path d="M30.8084079,69.8437633 C32.0512718,90.0508978 33.3281531,102.112476 34.6390519,106.028498 C36.7765393,106.028498 38.3997322,105.451677 39.5086306,104.298036 C38.4996759,95.7267223 37.9452267,89.6748036 37.8452831,86.1422805 C37.5416561,75.4105424 38.5154486,67.9445343 38.6869516,64.7049329 C38.7475136,63.5609494 39.556234,58.882621 38.6869516,57.8292806 C37.850869,56.8161695 35.2246878,56.584058 30.8084079,57.1329462 L30.8084079,69.8437633 Z" id="Path-22" fill="#FFAB00"></path>
                                    <path d="M21.9859896,54.3194994 C20.167809,58.6211897 18.9903182,62.3992502 18.4535172,65.6536808 C15.5795508,83.0775015 14.9210448,100.028711 14.9210448,107.555074 C17.2760264,108.5464 18.994836,108.5464 20.0774737,107.555074 C22.1657963,92.8965335 23.7687729,83.4205755 24.8864033,79.1272003 C26.7653797,71.9091164 29.7614834,69.0202853 30.3484754,68.6869162 C31.0837159,68.2693525 33.4884601,66.3870104 35.5317834,64.0278481 C38.1186728,61.0411 40.2656555,57.3890706 39.2524243,56.0711878 C38.0433852,54.4986227 32.287907,53.9147265 21.9859896,54.3194994 Z" id="Path-21" fill="#FFAB00"></path>
                                    <path d="M34.1987739,104.910489 C37.9285023,103.465094 39.9611246,103.043528 40.2966406,103.64579 C40.6321567,104.248052 40.9999376,106.264368 41.3999833,109.694737 L38.3781091,110.645535 L38.3781091,109.311748 C37.0933955,110.328755 36.0413625,111.027328 35.2220101,111.407469 C33.4783819,112.216431 31.3495854,112.838711 29.011409,112.838711 C28.0442328,112.838711 27.4137442,112.74591 27.1199431,112.560308 C26.5085295,112.174063 28.8721569,110.690425 34.2108253,108.109396 L34.1987739,104.910489 Z" id="Path-23" fill="#42526E"></path>
                                    <path d="M13.9886163,107.094615 C17.141461,106.192663 18.9101708,105.86301 19.2947456,106.105656 C19.6793204,106.348302 19.8599232,108.362369 19.8365538,112.147856 L16.7911077,112.838373 L16.7859342,111.836524 C15.5131257,112.684724 14.3799545,113.275996 13.3864208,113.610343 C12.1987668,114.010015 11.3026589,114.613419 9.23754146,114.884571 C8.14479404,115.028051 5.72394644,115.244908 5.50237676,114.993165 C5.12765985,114.56742 7.51728034,113.092357 12.6712382,110.567974 L13.9886163,107.094615 Z" id="Path-23-Copy" fill="#42526E" transform="translate(12.651421, 110.568640) rotate(13.000000) translate(-12.651421, -110.568640) "></path>
                                </g>
                                <path d="M151.980912,66.5697234 L151.980912,79.0702703 C154.464777,78.9533249 156.142094,78.8152954 157.012864,78.6561818 C159.659967,78.1724829 161.579913,77.3833424 162.86088,76.8735394 C166.894908,75.2680642 170.187095,72.6856944 172.102799,70.7223318 C172.555844,70.258016 175.213336,67.8190618 177.462396,61.9562873 C178.120213,60.2415097 178.70752,56.8549996 179.224316,51.7967568 L166.382101,51.8044796 C166.021977,55.0955624 165.635777,57.2374383 165.2235,58.2301072 C164.313569,60.4210158 162.723371,61.7516938 161.728514,62.7512892 C160.560968,63.9243972 158.819171,65.2341801 156.29632,66.0107326 C155.571089,66.233964 154.13262,66.4202943 151.980912,66.5697234 Z" id="Path-24" fill="#FAFAFA"></path>
                            </g>
                        </g>
                    </g>
                </g>
            </g>
        </g>
    </g>
</svg>