<svg id="Layer_1" data-name="Layer 1" xmlns="http://www.w3.org/2000/svg" viewBox="0 0 40 40"><defs><style>.cls-1{fill:#69a3eb;}</style></defs><title>singleavatar1</title><path class="cls-1" d="M7,34.46c.06,0,.12-.06.17-.06a64.25,64.25,0,0,1,8.2-3c.17,0,.17,0,.17-.91a6.75,6.75,0,0,0-.34-2.23c-.17-.75-.57-1.83-.75-3a6.86,6.86,0,0,1-1.31-3,3.94,3.94,0,0,1,0-2.57V19.6c0-.34-.18-2.06-.35-3.54a6.33,6.33,0,0,1,1.32-4.63,6.63,6.63,0,0,1,5.22-2.57H21a6.58,6.58,0,0,1,5.21,2.57,6.33,6.33,0,0,1,1.32,4.63,32,32,0,0,0-.17,3.54v.17a4.12,4.12,0,0,1,0,2.57,7,7,0,0,1-1.43,3,6.75,6.75,0,0,1-.75,3,10.59,10.59,0,0,0-.57,2.23c0,.91,0,.91.17.91a74.77,74.77,0,0,1,8.31,3A19.5,19.5,0,0,1,7,34.46Zm28-1.26,0-.06c.18-.22.4-.45.58-.68,0-.06,0-.06,0-.12.18-.22.35-.45.52-.68.06-.06.06-.12.11-.12.18-.22.29-.45.46-.68.06-.06.06-.12.12-.17.11-.23.28-.46.4-.69.06-.06.06-.11.11-.17l.35-.69c.06-.05.06-.17.11-.23a3.09,3.09,0,0,0,.29-.68c.06-.12.06-.17.12-.29s.17-.45.28-.63.06-.17.12-.28.17-.4.23-.63.05-.23.11-.34.12-.4.17-.63.06-.23.12-.34l.17-.63c0-.12.06-.23.06-.35s.06-.4.11-.62.06-.23.06-.4.06-.46.12-.63,0-.23,0-.4.06-.46.06-.74V19.94A19.81,19.81,0,0,0,37.08,9.6,16.65,16.65,0,0,0,36,8c-.4-.51-.8-1-1.2-1.49a16.27,16.27,0,0,0-1.38-1.37,9.71,9.71,0,0,0-.74-.63A19.15,19.15,0,0,0,28.6,1.94c-.58-.28-1.21-.51-1.78-.74A17.38,17.38,0,0,0,24.93.63,18.58,18.58,0,0,0,20.06,0,20.05,20.05,0,0,0,0,20v1.43c0,.23.06.46.06.69s.05.28.05.39.06.4.06.63.06.29.06.4.06.4.11.63.06.29.12.4.11.4.17.57.06.29.12.4.11.4.17.57a2.49,2.49,0,0,1,.11.4,2.72,2.72,0,0,0,.23.57l.18.35c.05.17.17.4.22.57l.18.34c.11.17.17.4.28.57l.18.35a2.5,2.5,0,0,1,.28.57c.06.11.12.17.18.28s.23.4.34.57.11.18.17.29.29.4.4.57.12.17.18.23.28.4.45.57l.18.17c.17.23.34.4.51.63.06.06.12.12.12.17.17.23.4.4.57.63l.11.12.69.68a20.08,20.08,0,0,0,28-.85h0"/></svg>