<?xml version="1.0" encoding="UTF-8"?>
<svg width="280px" height="280px" viewBox="0 0 280 280" version="1.1" xmlns="http://www.w3.org/2000/svg" xmlns:xlink="http://www.w3.org/1999/xlink">
    <!-- Generator: Sketch 53.2 (72643) - https://sketchapp.com -->
    <title>Artboard</title>
    <desc>Created with Sketch.</desc>
    <defs>
        <path d="M113.656257,111.823507 C114.412724,111.069329 115.169319,110.314893 115.736605,109.560715 L115.925786,109.372074 C116.493072,108.618024 117.24941,107.86346 117.816825,107.108896 C117.816825,106.920512 118.006006,106.920512 118.006006,106.731871 C118.573163,105.977436 119.140449,105.223385 119.707735,104.469207 C119.897044,104.280438 119.897044,104.091925 120.085968,104.091925 C120.653125,103.337618 121.031487,102.583311 121.598902,101.829132 C121.788083,101.640491 121.788083,101.451851 121.977007,101.263338 C122.355497,100.508903 122.923041,99.754724 123.301145,99.0004171 C123.490326,98.8119045 123.490326,98.6232636 123.67925,98.434751 C124.057355,97.6805723 124.435846,96.926137 124.813822,96.1719584 C125.00326,95.9833175 125.00326,95.6060357 125.192055,95.4173947 C125.570289,94.6633444 125.948651,93.9089091 126.137575,93.1547305 C126.326756,92.7774486 126.326756,92.5889361 126.515937,92.2116542 C126.894041,91.4574756 127.083223,90.7031686 127.461456,90.1373742 C127.65038,89.760349 127.65038,89.5718365 127.839561,89.1945547 C128.028742,88.4402477 128.406847,87.8745816 128.596285,87.1201463 C128.785466,86.7431211 128.785466,86.3659676 128.97439,85.9886858 C129.163571,85.2345072 129.352623,84.6688411 129.541804,83.9145341 C129.730985,83.537509 129.730985,83.1603555 129.919909,82.7833303 C130.109219,82.028895 130.298014,81.4631006 130.487066,80.7090503 C130.487066,80.3317685 130.676376,79.954615 130.676376,79.5774615 C130.865428,78.8231545 130.865428,78.2574884 131.054481,77.5031814 C131.054481,77.1261563 131.243662,76.7490028 131.243662,76.1832084 C131.432843,75.4290297 131.432843,74.6744661 131.621767,74.1088 C131.621767,73.7317749 131.810819,73.354878 131.810819,72.7890836 C131.810819,72.03452 132,71.2804697 132,70.3375218 L132,69.2060613 L132,65.8118082 C132.000129,53.3659997 128.407104,41.4858573 122.355497,31.6802515 C121.220668,29.7946124 120.085968,28.0973575 118.762344,26.4001027 C117.438591,24.7029761 116.114838,23.0059779 114.790957,21.4972356 C113.467076,19.98875 111.954271,18.480136 110.252284,16.9715221 C109.495817,16.2173434 108.739608,15.651549 107.793703,14.897242 C103.633263,11.502989 99.2836429,8.67440194 94.3668654,6.411481 C92.4758269,5.46878977 90.3956072,4.71422613 88.5043113,3.96004748 C86.6132727,3.2057405 84.3440007,2.64020276 82.2636524,2.07440836 C77.5357986,0.75430698 71.8625542,0 66.1891811,0 C29.6906182,0 0,29.6058432 0,66.0001925 L0,69.5832148 L0,70.7146753 C0,71.4688539 0.189052379,72.2231609 0.189052379,72.9774679 C0.189052379,73.3547497 0.378233452,73.9201591 0.378233452,74.2974409 C0.378233452,75.0517479 0.567285831,75.617414 0.567285831,76.3718493 C0.567285831,76.7488745 0.756595599,77.3147972 0.756595599,77.691694 C0.945647977,78.446001 0.945647977,79.0117954 1.13470036,79.7661024 C1.32388143,80.1431275 1.32388143,80.7090503 1.51293381,81.0859471 C1.70198619,81.6516132 1.89103857,82.4059202 2.08021964,82.9717146 C2.26927202,83.348868 2.26927202,83.9145341 2.4583244,84.2916876 C2.64750547,84.8573537 2.83655785,85.6116607 3.02561023,86.1773267 C3.2147913,86.5543519 3.2147913,86.931762 3.40384368,87.4974281 C3.59289606,88.0630942 3.78194844,88.8172728 4.16031058,89.3830672 C4.34936296,89.7602207 4.53841534,90.1372459 4.72759641,90.5145277 C4.91677749,91.0803221 5.29488224,91.8343724 5.48406332,92.4001668 C5.67324439,92.777192 5.86216808,93.1544738 6.05134915,93.531499 C6.42945391,94.097165 6.61863498,94.851472 6.99686843,95.4170098 C7.1861782,95.7940349 7.37523058,96.1715734 7.56428296,96.5487269 C7.94238771,97.1142646 8.32062117,97.8684433 8.50993093,98.4342377 C8.69898331,98.8113912 8.88803569,98.9999038 9.07708807,99.3770572 C9.45532152,99.9427233 9.83355497,100.69703 10.2117884,101.262825 C10.4008408,101.639978 10.5900219,101.828619 10.779203,102.205644 C11.1573077,102.771439 11.7247222,103.525617 12.1029557,104.091412 C12.2920081,104.280181 12.4810604,104.657078 12.6702415,104.845719 C13.2373987,105.411513 13.6157608,106.165563 14.1831753,106.731358 C14.3722277,106.919999 14.5612801,107.108511 14.7503325,107.297024 C15.317747,108.051331 15.8850328,108.617382 16.4523186,109.371432 C16.6416284,109.560073 16.8305521,109.748457 16.8305521,109.937227 C17.3979666,110.691405 18.1544335,111.256943 18.7217194,112.011507 C18.9109004,112.200019 18.9109004,112.200019 19.0998241,112.388532 C19.856291,113.142582 20.6127579,113.896889 21.3692248,114.651196 L21.3692248,114.651196 L21.3692248,114.651196 C33.2832568,125.400135 48.979752,132 66.1889237,132 C84.7222341,132.00077 101.553172,124.269316 113.656257,111.823507 C113.656257,112.012277 113.656257,111.823507 113.656257,111.823507 L113.656257,111.823507 Z M23.2605208,113.709147 C23.4495732,113.709147 23.6386255,113.520634 23.8276779,113.520634 C28.7447128,111.0692 42.1716786,106.166077 50.8709193,103.7149 C51.4382051,103.7149 51.4382051,103.7149 51.4382051,100.697544 C51.4382051,97.1147779 50.8709193,95.2291388 50.3035048,93.343243 C49.7363476,90.8918095 48.4124662,87.3089155 47.8450517,83.537509 C46.7103513,82.4060485 44.8191841,79.2004363 43.4954313,73.7317749 C42.3608597,68.8287795 42.9280168,66.9431404 43.4954313,65.2461422 L43.4954313,64.6802194 C43.4954313,63.5488873 42.9280168,57.8917133 42.3608597,52.9888462 C41.7935738,49.9716183 42.3608597,43.1829838 46.7103513,37.7143224 C49.1689331,34.1315567 54.6532538,29.7944841 63.9197804,29.2285613 L69.4041011,29.2285613 C78.6703702,29.7944841 84.1548196,34.1315567 86.613144,37.7143224 C90.9627644,43.1829838 91.5299215,49.9716183 90.9627644,52.9888462 C90.3954785,57.3257905 90.3954785,63.3602464 90.3954785,64.6802194 L90.3954785,65.2461422 C90.9627644,67.1317813 91.5299215,68.8287795 90.3954785,73.7317749 C88.8822873,79.2004363 86.9915062,82.2174076 85.6677534,83.537509 C85.6677534,87.1202746 84.5329244,90.8919378 83.2091716,93.343243 C82.6421432,95.7945482 81.3181331,98.2462384 81.3181331,100.697544 C81.3181331,103.7149 81.3181331,103.7149 81.8856763,103.7149 C90.3956072,106.166205 103.633263,110.880688 109.306636,113.520634 C98.1494573,123.703522 82.8310669,130.114874 66.1891811,130.114874 C49.7363476,130.115003 34.607267,123.892034 23.2605208,113.709147 L23.2605208,113.709147 Z" id="path-1"></path>
    </defs>
    <g id="Artboard" stroke="none" stroke-width="1" fill="none" fill-rule="evenodd">
        <g id="Avatars/72px/Unknown" transform="translate(74.000000, 74.000000)">
            <g id="Avatars/img/Unknown">
                <g id="Group">
                    <mask id="mask-2" fill="white">
                        <use xlink:href="#path-1"></use>
                    </mask>
                    <use id="Shape" fill="#8EC7E1" xlink:href="#path-1"></use>
                    <g id="Color/Common/White" mask="url(#mask-2)" fill="#FFFFFF" fill-rule="nonzero">
                        <rect id="Color/Gray/0" x="0" y="0" width="132" height="132"></rect>
                    </g>
                </g>
            </g>
        </g>
    </g>
</svg>
