<?xml version="1.0" encoding="UTF-8"?>
<svg width="24px" height="24px" viewBox="0 0 24 24" version="1.1" xmlns="http://www.w3.org/2000/svg" xmlns:xlink="http://www.w3.org/1999/xlink">
    <!-- Generator: Sketch 54.1 (76490) - https://sketchapp.com -->
    <title>Argentina</title>
    <desc>Created with Sketch.</desc>
    <g id="Argentina" stroke="none" stroke-width="1" fill="none" fill-rule="evenodd">
        <g id="arg" transform="translate(0.000000, 5.000000)">
            <polygon id="Fill-2-Copy" fill="#75AADB" points="0 8.86956522 24 8.86956522 24 13.5630059 0 13.5630059"></polygon>
            <polygon id="Fill-4-Copy" fill="#75AADB" points="0 0 24 0 24 4.69344072 0 4.69344072"></polygon>
            <polygon id="Fill-3-Copy" fill="#FFFFFF" points="0 3.92347826 24 3.92347826 24 8.42617755 0 8.42617755"></polygon>
            <path d="M11.7726287,4.90434783 L11.8221521,4.90960448 L11.8325002,4.99295999 C11.8465442,5.36468049 11.8583706,5.73865385 11.8738929,6.11187625 L11.9130681,5.87382494 C11.9182421,5.77845423 11.9441125,5.68608731 11.9862443,5.6012299 L12.0675513,5.36843524 L12.0705079,5.20472803 L12.1399884,4.99070714 L12.2124256,4.94715201 L12.238296,4.97643908 L12.1872943,5.04777937 L12.1680763,5.1566672 L12.1813811,5.36768429 L12.1207704,5.60723751 L12.0705079,5.74991811 C12.046855,5.87382494 12.0586815,6.00148653 12.0387243,6.12539336 C12.195425,5.77770327 12.3528649,5.43001319 12.5103048,5.08307405 L12.5576106,5.04627747 L12.5731329,5.10560256 C12.4400851,5.47356832 12.3033416,5.83928122 12.1732504,6.20874887 C12.2612098,6.1096234 12.29595,5.97370136 12.3787353,5.87082114 L12.5723937,5.675574 L12.6640489,5.53139151 L12.7453559,5.35491813 L12.8931867,5.25504172 L12.9404926,5.29183829 L12.8614031,5.34440483 L12.784531,5.50736109 C12.7586606,5.5982261 12.7217029,5.69059301 12.6588748,5.76418617 L12.516218,5.91287437 C12.4297369,6.02401504 12.3949967,6.16369184 12.3188638,6.28234202 C12.5864377,6.03002265 12.8547507,5.77770327 13.1223246,5.52613485 L13.1829352,5.47882497 L13.2176755,5.51411964 L13.167413,5.58020329 C12.9168397,5.85655308 12.6640489,6.13065002 12.4134756,6.40775076 C12.5154789,6.36194278 12.5864377,6.27408156 12.6758753,6.21250362 L12.8628814,6.12163861 L13.0979325,5.99773178 L13.2546332,5.84904357 L13.4320302,5.8077413 L13.4734229,5.84904357 L13.4238995,5.87007019 L13.3011999,5.92714243 L13.1718479,6.08108728 L12.9501016,6.22301693 L12.8089231,6.29060248 C12.7054415,6.36044087 12.6248737,6.46031729 12.5236095,6.53240854 C12.8769253,6.40024125 13.2309803,6.26657206 13.584296,6.13290287 L13.6441675,6.14942378 L13.613123,6.19598271 C13.263503,6.35968992 12.9116656,6.52189523 12.5613064,6.6878553 C12.6559182,6.6848515 12.7423992,6.64655302 12.8296194,6.62026975 L13.0787145,6.59623934 C13.1696304,6.60374884 13.2642422,6.60374884 13.3507233,6.57220892 L13.5340335,6.50086862 L13.69443,6.51063098 L13.7513449,6.55568801 L13.7365618,6.59398648 L13.6486025,6.57220892 L13.5421642,6.59699029 L13.3433317,6.6953648 L13.1104981,6.72540282 L12.9501016,6.73591613 C12.8318369,6.7652032 12.7231812,6.82227544 12.6041774,6.84780776 C12.7778786,6.84930966 12.9523191,6.85982297 13.1260203,6.86583057 C13.3322444,6.87258912 13.5377293,6.88084958 13.7439534,6.88835909 L13.7934767,6.92290281 L13.7513449,6.95819748 C13.3662455,6.97396744 12.9804069,6.98448075 12.5938292,7.00325451 L12.8458808,7.04380584 L13.0971933,7.11589709 L13.3433317,7.2022564 L13.5761653,7.21201876 L13.7099523,7.28411001 L13.7409967,7.3479408 L13.7121697,7.37272217 L13.6301236,7.31489898 L13.4638139,7.30889137 C13.3677238,7.32090658 13.267938,7.32015563 13.177022,7.28861571 L12.9944509,7.21276971 C12.8599248,7.17522218 12.717268,7.19249404 12.5805244,7.17071648 C12.913883,7.32315943 13.2465025,7.48085904 13.5813394,7.63555485 L13.6441675,7.68061188 L13.5924267,7.71590655 C13.2272845,7.58073546 12.8650989,7.44030771 12.5006958,7.30663852 L12.7453559,7.45682863 L12.9294053,7.61227538 L13.1075415,7.77448069 L13.2561115,7.83981339 L13.4231604,7.99075444 L13.4320302,8.07260805 L13.3928551,8.0778647 L13.3381576,7.99300729 L13.1895876,7.9276746 C13.0994108,7.90139133 13.0099731,7.8638438 12.937536,7.80076396 L12.7911834,7.65507956 C12.6803103,7.56721835 12.5398709,7.53117273 12.4238237,7.45232292 C12.6825277,7.73242746 12.937536,8.01553581 13.1955008,8.2948894 L13.2088056,8.35947114 L13.1504124,8.34820689 C12.9072307,8.11841603 12.6625706,7.88862517 12.4193888,7.65808336 L12.3033416,7.55144839 C12.3454734,7.64757006 12.425302,7.71891036 12.4859127,7.80376776 L12.583481,8.0020187 L12.6928759,8.22730385 L12.8007924,8.33844453 L12.8976216,8.53669547 L12.8747079,8.62080192 L12.8355327,8.61179052 L12.8185321,8.51266505 L12.7054415,8.39326392 L12.5206529,8.18149587 L12.4371285,7.98174304 C12.3683871,7.8623419 12.2589923,7.77448069 12.1799028,7.66334002 C12.3107331,8.02229436 12.4423026,8.38124871 12.5731329,8.7394521 L12.5576106,8.80103005 L12.5103048,8.76348252 C12.3639522,8.44282665 12.2183388,8.12066888 12.0734646,7.79851111 L12.0283761,7.70238944 C12.0305936,7.79625826 12.0682905,7.88487042 12.0934217,7.97423353 L12.118553,8.21829245 L12.1311186,8.47061182 L12.1909901,8.62305477 L12.2020774,8.85209468 L12.1488583,8.91367262 L12.1207704,8.88663841 L12.1429451,8.78826389 L12.0838127,8.63506998 C12.037246,8.55171448 12.0002883,8.46160041 11.9928967,8.3662297 L11.9899401,8.1537107 C11.9729396,8.01103011 11.8975458,7.88487042 11.8716754,7.74444267 C11.8605881,8.12817839 11.8421092,8.5104122 11.8317611,8.89414791 L11.7955425,8.953473 L11.7615414,8.90691407 C11.7482366,8.5164198 11.7334536,8.12592553 11.7171922,7.73543127 L11.6794953,7.97498448 C11.6721037,8.06885329 11.6484508,8.16197116 11.606319,8.24532667 L11.5213163,8.49464224 L11.5072723,8.74846351 L11.4030516,8.89414791 L11.3535282,8.87011749 L11.4104431,8.78751294 L11.4200521,8.65008899 C11.4074865,8.54645782 11.4023124,8.43982285 11.4318786,8.33994643 L11.5146639,8.12742743 C11.5471867,7.99300729 11.5316644,7.85408145 11.5523607,7.71891036 C11.3993558,8.06735139 11.2404376,8.41203768 11.0852152,8.75822587 L11.0342136,8.80103005 L11.0179522,8.74020305 C11.1517391,8.37298825 11.2870043,8.0065244 11.4185738,7.6393096 C11.3372668,7.72867271 11.3032657,7.8503267 11.2330461,7.94795026 L11.1059115,8.08687611 L10.9373843,8.29714225 L10.8486858,8.48638178 L10.706029,8.59001295 L10.648375,8.56147683 L10.6956809,8.52468026 L10.7851185,8.41429053 C10.8139456,8.32042172 10.8375985,8.2220472 10.8915568,8.13869169 L11.0334744,7.98024113 C11.1509999,7.86759856 11.1857402,7.69938564 11.2736996,7.5649655 C11.0046474,7.81653392 10.7378127,8.06960425 10.4702388,8.32192362 L10.4096281,8.3677316 L10.3741487,8.33318788 L10.4162805,8.27461374 C10.6335919,8.03731337 10.8523816,7.79851111 11.0674755,7.5604598 L11.1768703,7.43805486 C11.0711713,7.48686665 10.9972558,7.58073546 10.9011658,7.64306435 L10.7215513,7.72867271 L10.485761,7.85708525 L10.3504958,7.98850159 L10.1923168,8.04181908 L10.1243146,8.02004151 L10.1331844,7.98024113 L10.2322311,7.96221832 L10.3312778,7.86985141 L10.5027616,7.69487994 L10.6927242,7.60476588 C10.8442509,7.54468984 10.9381235,7.40651494 11.0667363,7.31489898 C10.7318994,7.43805486 10.3963234,7.56721835 10.0607473,7.69337804 L9.97574453,7.71891036 L9.94765667,7.67986093 L9.98535354,7.64832101 C10.3320169,7.4861157 10.6801586,7.32315943 11.0297786,7.16095412 C10.9137314,7.16095412 10.8095106,7.22178111 10.6978983,7.24055488 C10.5618939,7.27134385 10.4236721,7.22628682 10.289146,7.26007959 L10.068878,7.34268415 L9.86634969,7.32015563 L9.84343591,7.26007959 L9.89222009,7.26233244 L10.0149197,7.26458529 L10.1583157,7.19099214 L10.3926276,7.12040279 L10.5774162,7.12040279 C10.720073,7.10538378 10.8472075,7.02803588 10.9876468,7.00025071 C10.6158522,6.98973741 10.2440576,6.97096364 9.87152377,6.95969938 L9.80869565,6.94768418 L9.80869565,6.89887239 L9.84639252,6.88835909 C10.2300136,6.87409103 10.6136347,6.86057392 10.9957775,6.84480396 C10.8812086,6.79674312 10.7525957,6.81701879 10.6335919,6.78322601 C10.5323278,6.75994655 10.4465858,6.69761766 10.3475392,6.66682868 L10.1841861,6.64129637 L10.0060499,6.63228496 L9.85821899,6.52940474 L9.87891531,6.4738344 L9.94987413,6.52564999 L10.0570515,6.54592565 L10.2714063,6.53165759 L10.5012833,6.59398648 L10.648375,6.64655302 C10.768118,6.66682868 10.8922959,6.65631538 11.0127781,6.67734199 C10.6727671,6.51964238 10.3312778,6.35968992 9.99126677,6.20199032 L9.94765667,6.16519374 L9.97574453,6.12839716 L10.0607473,6.15317853 C10.4051932,6.28234202 10.7474217,6.41375836 11.0911284,6.540669 C11.0002125,6.45506064 10.8745562,6.42051692 10.7769878,6.34391996 L10.6505924,6.22151503 L10.4547165,6.05480401 L10.2529274,5.9579314 L10.1538807,5.80849225 L10.1908384,5.76043141 L10.2418401,5.83928122 L10.4014974,5.91888197 C10.4916743,5.94441429 10.5825902,5.98346372 10.6542882,6.04579261 L10.8006408,6.19222796 C10.9122531,6.28008917 11.0512141,6.31613479 11.1687396,6.39423365 C10.9122531,6.11713291 10.6594623,5.83702837 10.4029757,5.55842572 L10.3734096,5.50736109 L10.4162805,5.48182877 L10.4783695,5.53289341 C10.7481608,5.78746563 11.017213,6.04278881 11.2884826,6.29510818 C11.2404376,6.18922416 11.1495216,6.11187625 11.0874327,6.01500364 L11.0039082,5.83177171 L10.8767737,5.59296945 L10.7400301,5.44578315 L10.6956809,5.27081168 L10.7378127,5.21824514 L10.7592481,5.26930978 L10.8205979,5.39772231 L11.0201696,5.58771279 L11.1214338,5.79197133 C11.1768703,5.94967094 11.3195271,6.05104926 11.4119214,6.18321655 C11.2818303,5.82726601 11.1517391,5.46981356 11.0209088,5.11311207 L11.0142564,5.06655314 L11.0578665,5.05078318 L11.0970417,5.11686682 C11.2530032,5.45854931 11.4074865,5.80023179 11.5627089,6.14266522 C11.5627089,6.02326409 11.4991416,5.91587817 11.4814019,5.79948084 C11.4562707,5.6650607 11.496185,5.5283877 11.4651405,5.39622041 L11.3845727,5.17694286 L11.4082256,4.95841626 L11.4710538,4.95165771 L11.4503574,5.04177177 L11.4747495,5.14690484 L11.5737962,5.35717099 L11.6004058,5.58771279 L11.6151889,5.76794092 C11.6440159,5.8805835 11.6987133,5.98721847 11.7201488,6.10136295 C11.7304969,5.72063104 11.7482366,5.34065008 11.7608023,4.95991816 L11.7726287,4.90434783" id="Fill-5-Copy" fill="#843511"></path>
            <path d="M11.8133057,4.9351368 L11.8340021,4.90434783 L11.8436111,4.9351368 C11.857655,5.32563106 11.8724381,5.71462343 11.8872212,6.1036158 L11.848046,6.09911009 C11.8421328,5.92413862 11.8362195,5.7484162 11.8280888,5.57269378 C11.8206973,5.7484162 11.814784,5.92413862 11.80961,6.100612 L11.7704348,6.1036158 C11.7830004,5.71462343 11.7992618,5.32563106 11.8133057,4.9351368" id="Fill-6-Copy" fill="#FCBF49"></path>
            <path d="M11.7963052,4.92612539 L11.8273497,4.90434783 L11.8059142,5.02074516 L11.8613508,5.16342575 L11.9530059,5.41949988 L11.9552234,5.63126792 C11.9692673,5.78371088 12.0513134,5.91813102 12.0794013,6.06681922 L12.0365303,6.07357778 C12.0136166,5.94141049 11.9426577,5.82276031 11.9190048,5.68984206 L11.9108741,5.55617287 L11.9123524,5.7379029 C11.9404403,5.85279833 11.9877462,5.96318805 11.9951377,6.08409108 L11.9574408,6.09160059 C11.9507884,5.9669428 11.8879603,5.85430023 11.8709598,5.73039339 L11.8687423,5.54190481 L11.8354804,5.27156263 L11.7704348,5.09508926 L11.7963052,4.92612539" id="Fill-7-Copy" fill="#FCBF49"></path>
            <path d="M13.0432703,4.91185733 L13.0780106,4.90434783 L13.0144433,5.0049752 L13.012965,5.17619191 L12.9967036,5.44428125 L12.9205707,5.63427173 C12.879178,5.77845423 12.9013527,5.93089718 12.8717865,6.07733253 L12.831133,6.06606827 C12.8592209,5.93915764 12.840742,5.8077413 12.8636558,5.68083066 L12.9087442,5.54565957 L12.8422203,5.71161963 C12.8244806,5.82651506 12.8259589,5.94441429 12.7882621,6.05480401 L12.7513043,6.05255116 C12.7823488,5.9594333 12.7801314,5.85880593 12.7919578,5.76193331 L12.8606992,5.54115386 C12.9013527,5.46005121 12.9375712,5.37294095 12.9442236,5.28057403 L12.9553109,5.05228508 L13.0432703,4.91185733" id="Fill-8-Copy" fill="#FCBF49"></path>
            <path d="M11.7704348,4.90434783 L11.8029576,4.92988014 C11.9618758,5.28357784 12.1215331,5.63652458 12.2797121,5.98872037 L12.2442327,6.00148653 C12.1762305,5.84829262 12.1045325,5.69434777 12.0365303,5.54040291 L12.0705314,5.64403408 C12.116359,5.76794092 12.1607083,5.89184775 12.2087533,6.01650554 L12.1732739,6.0337774 C12.0402261,5.67031735 11.9064392,5.30610635 11.7733914,4.9411444 L11.7704348,4.90434783" id="Fill-9-Copy" fill="#FCBF49"></path>
            <path d="M13.2450594,4.90434783 L13.2605817,4.9351368 C13.1267948,5.3008497 12.9930078,5.6665626 12.8592209,6.0322755 L12.8237415,6.01800744 C12.8673516,5.89334965 12.9153966,5.77019377 12.9590067,5.64778884 L12.9959644,5.53890101 C12.9250056,5.69284587 12.8570034,5.84679072 12.7875229,6.00148653 L12.7513043,5.98721847 C12.893222,5.67181925 13.0366179,5.35642004 13.1785356,5.04026987 L13.2450594,4.90434783" id="Fill-10-Copy" fill="#FCBF49"></path>
            <path d="M10.7895652,4.9336349 L10.8087832,4.90434783 L10.8361319,5.02750371 L10.9270479,5.12362538 L11.123663,5.33914817 L11.2020133,5.5268858 C11.2700155,5.6620569 11.3986284,5.75367286 11.4777179,5.88283635 L11.4414993,5.90311201 C11.3720188,5.79197133 11.2655806,5.71086868 11.1938826,5.6012299 L11.1325328,5.46981356 L11.2264054,5.6740721 C11.2899727,5.75517476 11.3594532,5.83402456 11.4060199,5.92639148 L11.3749755,5.95117284 C11.3232347,5.83777932 11.2219705,5.75892951 11.1598815,5.65154359 L11.0926185,5.49309303 L10.9588316,5.24603031 L10.8265229,5.10259876 L10.7895652,4.9336349" id="Fill-11-Copy" fill="#FCBF49"></path>
            <path d="M13.3152791,5.00272234 L13.4461094,4.90434783 L13.4860238,4.90810258 L13.3958469,4.97118242 L13.3248881,5.12963298 L13.2081017,5.3751938 L13.0617492,5.5283877 C12.9715723,5.64253218 12.9353538,5.79272228 12.8540468,5.91362532 L12.8200457,5.8895949 C12.8858304,5.79046943 12.9205707,5.67632496 12.9782247,5.57269378 L13.0905762,5.43602079 L12.9479194,5.5907166 C12.8969178,5.68383446 12.8540468,5.78295993 12.7808705,5.86256068 L12.7513043,5.84378692 C12.8377854,5.7439105 12.8717865,5.61099226 12.9545718,5.50811204 L13.0890979,5.3751938 L13.233233,5.18144857 L13.3152791,5.00272234" id="Fill-12-Copy" fill="#FCBF49"></path>
            <path d="M10.7895652,4.90735163 L10.8243055,4.90434783 C11.1059233,5.16943336 11.3860628,5.43451889 11.6669414,5.69960442 L11.6403319,5.72663864 C11.5161539,5.61099226 11.3964109,5.49309303 11.2707547,5.38045045 C11.382367,5.50736109 11.4984142,5.62901507 11.6115048,5.75517476 L11.5856344,5.78446183 C11.3358003,5.51036489 11.0867053,5.2370189 10.8376102,4.96517482 L10.7895652,4.90735163" id="Fill-13-Copy" fill="#FCBF49"></path>
            <path d="M13.5968969,4.91711398 L13.6286806,4.90434783 L13.6124192,4.9441482 C13.3537151,5.22725655 13.094272,5.51261774 12.8340896,5.79722799 L12.8082192,5.76718997 C12.9213098,5.64178123 13.0388354,5.52012725 13.1497085,5.39171471 C13.0240523,5.50585919 12.9043093,5.62375842 12.7801314,5.7394048 L12.7513043,5.71237058 C13.0329222,5.44728505 13.31454,5.18219952 13.5968969,4.91711398" id="Fill-14-Copy" fill="#FCBF49"></path>
            <path d="M10.793261,5.88521739 L10.8583066,5.97983716 L11.0090941,6.0474227 L11.2537541,6.16682383 L11.4030633,6.31626299 C11.5168931,6.40787895 11.6639848,6.44467552 11.7822495,6.52803103 L11.7593357,6.56182381 C11.6639848,6.49574016 11.5531117,6.46044549 11.4525867,6.4041242 L11.3121473,6.28547402 L11.4865878,6.44317362 L11.7327262,6.60012228 L11.7149865,6.6331641 C11.6196355,6.54605384 11.492501,6.51151012 11.3927152,6.43190937 L11.2604065,6.29748922 L11.0623132,6.14204247 L10.8856553,6.05943791 L10.7895652,5.92651967 L10.793261,5.88521739" id="Fill-15-Copy" fill="#FCBF49"></path>
            <path d="M13.5872879,5.92351587 L13.7550759,5.88521739 L13.7816855,5.90549306 L13.6656383,5.92952347 L13.5843313,6.00236567 L13.4350221,6.16907669 L13.2465378,6.27045501 L13.0196174,6.4131356 L12.8200457,6.58435232 L12.7986102,6.54905765 C12.8954394,6.48522685 12.9686157,6.39511279 13.0573142,6.32302154 L13.2258414,6.23365843 L13.0587926,6.30124398 C12.9656591,6.37183332 12.8806564,6.45669073 12.7756964,6.51075917 L12.7513043,6.48072115 C12.8614383,6.42740366 12.9368321,6.32827819 13.0410528,6.26519835 L13.2021885,6.19235615 L13.4453703,6.05793601 L13.5872879,5.92351587" id="Fill-16-Copy" fill="#FCBF49"></path>
            <path d="M12.5077584,5.88687017 C12.6681549,5.87635687 12.8322472,5.91615724 12.970469,6.0017656 C13.1404745,6.10689867 13.2690874,6.27961729 13.3215673,6.47486443 C13.3740473,6.67161346 13.3518727,6.88863816 13.2550434,7.06811533 C13.171519,7.22506399 13.0355146,7.35272558 12.874379,7.42406588 C12.6807205,7.51042519 12.4515827,7.51117614 12.2564459,7.42782063 C12.0901362,7.35798223 11.9496969,7.22881874 11.8654333,7.06811533 C11.7715607,6.89464576 11.7464294,6.68362867 11.7937353,6.49213629 C11.8388237,6.30514961 11.954871,6.13768765 12.1115717,6.02804887 C12.2268798,5.94544431 12.3651016,5.89663253 12.5077584,5.88687017" id="Fill-17-Copy" fill="#FCBF49"></path>
            <path d="M10.7895652,5.88521739 L10.8516542,5.8987345 C11.2020133,6.03090179 11.5523725,6.16306908 11.9027317,6.29448542 L11.8857311,6.331282 C11.7438135,6.27496071 11.6018958,6.22314512 11.4614565,6.16982764 L11.4163681,6.15631053 C11.5678947,6.22614892 11.7186822,6.29748922 11.8702089,6.36807857 L11.8576432,6.4041242 C11.5102407,6.24342079 11.1628382,6.08046453 10.8161748,5.91901016 L10.7895652,5.88521739" id="Fill-18-Copy" fill="#FCBF49"></path>
            <path d="M13.8238173,5.89047404 L13.8629925,5.88521739 L13.8326871,5.92051207 C13.4860238,6.08196643 13.1408387,6.24342079 12.7956536,6.4041242 L12.783088,6.36807857 C12.9338755,6.29748922 13.0861413,6.22539797 13.2376679,6.15781243 L13.1356646,6.1901033 C13.012965,6.23816413 12.8895262,6.28322116 12.7683049,6.331282 L12.7513043,6.29448542 C13.1075767,6.16006528 13.4660666,6.02489419 13.8238173,5.89047404" id="Fill-19-Copy" fill="#FCBF49"></path>
            <path d="M10.7895652,5.88521739 L10.8886119,5.95130104 L11.0482692,5.95205199 C11.1384461,5.94228963 11.2330578,5.94228963 11.3210172,5.96932385 L11.5080232,6.04667175 C11.6499409,6.08872498 11.8007284,6.06544551 11.9441243,6.09623449 L11.9322978,6.13753676 C11.8066416,6.10900064 11.6758113,6.12852536 11.5494159,6.10299304 L11.420803,6.05793601 L11.5996784,6.12852536 C11.7090732,6.14204247 11.8192072,6.14504627 11.9241671,6.18034094 L11.9197322,6.21863942 C11.7962934,6.17583524 11.6610282,6.19535995 11.5368503,6.15480863 C11.4466734,6.13002726 11.3668448,6.07445692 11.2774071,6.04667175 L11.0563999,6.02113943 L10.831697,5.96181434 L10.7895652,5.88521739" id="Fill-20-Copy" fill="#FCBF49"></path>
            <path d="M13.5481127,5.95505579 L13.7321622,5.88521739 L13.8984719,5.91225161 L13.9199074,5.94454248 L13.7994252,5.92201397 L13.6745081,5.9730786 L13.4461094,6.06619647 L13.2450594,6.07220407 C13.0780106,6.07220407 12.9338755,6.16757478 12.7756964,6.19911471 L12.7683049,6.15631053 C12.8998744,6.13378201 13.0159216,6.06093981 13.1460128,6.0369094 L13.2768431,6.02714704 L13.1001852,6.02939989 C12.9870946,6.05793601 12.8776997,6.10599684 12.7586959,6.1127554 L12.7513043,6.07520787 C12.8466553,6.06844932 12.9353538,6.03015084 13.0270089,6.00536947 L13.2605817,5.98359191 C13.3566718,5.99110141 13.4564576,5.98959951 13.5481127,5.95505579" id="Fill-21-Copy" fill="#FCBF49"></path>
            <path d="M9.87152377,6.90814019 C10.2440576,6.89387213 10.6165913,6.87960407 10.988386,6.86608696 L10.9861685,6.90513638 C10.816163,6.91114399 10.6439401,6.91564969 10.4739346,6.9246611 C10.6439401,6.93292155 10.816163,6.93968011 10.9846902,6.94493676 L10.988386,6.98398619 C10.6062432,6.97046908 10.2226221,6.95469912 9.83974013,6.94118201 L9.80869565,6.91790254 L9.87152377,6.90814019" id="Fill-22-Copy" fill="#FCBF49"></path>
            <path d="M12.7513043,6.86608696 C13.1186641,6.87960407 13.4889804,6.89387213 13.8585576,6.90814019 L13.9191682,6.91339684 L13.9295164,6.93141965 L13.899211,6.94118201 C13.5163291,6.95469912 13.1334471,6.97046908 12.7513043,6.98398619 L12.754261,6.94493676 C12.9205707,6.93968011 13.0890979,6.9336725 13.2576251,6.9246611 C13.089837,6.91564969 12.9205707,6.91114399 12.754261,6.90513638 L12.7513043,6.86608696" id="Fill-23-Copy" fill="#FCBF49"></path>
            <path d="M11.4651523,6.99299759 C11.6322012,6.99299759 11.7763363,6.89837783 11.9359936,6.86608696 L11.9411677,6.90964209 C11.8044241,6.93292155 11.6846811,7.01026946 11.5486767,7.03054512 L11.4378036,7.03805462 L11.6166789,7.03429987 C11.7275521,7.0050128 11.8339903,6.95920482 11.9507767,6.95319722 L11.9596465,6.98999379 C11.8362078,6.9975033 11.7260738,7.06133409 11.6041133,7.0763531 L11.4244988,7.08010785 C11.3328437,7.07410025 11.2382319,7.0793569 11.15249,7.11390063 L10.9691797,7.18073522 L10.8065658,7.14994625 L10.7895652,7.12141013 L10.9115257,7.1431877 L11.0401385,7.09062116 L11.2663198,6.9990052 L11.4651523,6.99299759" id="Fill-24-Copy" fill="#FCBF49"></path>
            <path d="M12.7705224,6.90588733 L12.7764356,6.86608696 C12.8776997,6.90363448 12.989312,6.89537403 13.094272,6.91414779 L13.2790605,6.97872953 C13.3618458,7.02153371 13.449066,7.05908124 13.5421995,7.06508884 L13.76025,7.07560215 L13.8984719,7.16346336 L13.9058634,7.20025994 L13.81273,7.13642914 L13.7055526,7.12741774 L13.4697624,7.13642914 L13.2731473,7.0748512 L13.0550968,7.01552611 C12.9538326,7.00726565 12.8510902,7.01026946 12.7513043,6.99074474 L12.7631308,6.94869151 C12.8769606,6.97497478 12.9959644,6.96220862 13.1112725,6.97722763 L13.2738865,7.02829227 L13.1060984,6.95920482 C12.9952253,6.94343486 12.8799172,6.94343486 12.7705224,6.90588733" id="Fill-25-Copy" fill="#FCBF49"></path>
            <path d="M11.7445526,6.91940444 L11.8539475,6.86608696 L11.8716872,6.90288353 C11.7194214,6.97347288 11.5678947,7.04406223 11.4163681,7.11314968 L11.5235455,7.07860595 C11.6447668,7.03279797 11.7667273,6.98398619 11.8879486,6.94193296 L11.9012533,6.97572573 C11.5523725,7.10939492 11.2020133,7.24006031 10.8516542,7.37147665 L10.7895652,7.38424281 L10.8161748,7.35270289 C11.1251413,7.20852039 11.4355861,7.06283599 11.7445526,6.91940444" id="Fill-26-Copy" fill="#FCBF49"></path>
            <path d="M12.7823488,6.90288353 L12.7978711,6.86608696 C13.1460128,7.03279797 13.4985894,7.19199948 13.8474702,7.35720859 L13.8615142,7.38424281 L13.8245565,7.38123901 C13.4660666,7.24606792 13.109055,7.11089682 12.7513043,6.97722763 L12.7779139,6.94493676 C12.9183532,6.99825425 13.0573142,7.05006983 13.1977536,7.10413827 L13.2376679,7.11465158 C13.0861413,7.04556413 12.9338755,6.97347288 12.7823488,6.90288353" id="Fill-27-Copy" fill="#FCBF49"></path>
            <path d="M11.4156289,7.14018389 C11.5420243,7.06959455 11.6299837,6.94418581 11.7526833,6.86608696 L11.7733796,6.90213258 C11.6639848,6.97347288 11.5848953,7.0823607 11.4762396,7.15445195 L11.3468876,7.2160299 L11.530937,7.13567819 C11.6166789,7.06734169 11.6979859,6.98999379 11.7970326,6.93892916 L11.8199464,6.96971813 C11.7090732,7.02453752 11.631462,7.12591583 11.5250238,7.18824473 L11.3690622,7.25733217 L11.1258804,7.39400517 L10.9854411,7.52617246 L10.8176531,7.56597284 L10.7895652,7.54569717 L10.913004,7.5164101 L11.0046591,7.42554509 L11.2167964,7.2265432 L11.4156289,7.14018389" id="Fill-28-Copy" fill="#FCBF49"></path>
            <path d="M12.8000885,6.90138163 L12.8185674,6.86608696 C12.9198315,6.95394817 13.0521402,6.98999379 13.1526652,7.07710405 L13.3204532,7.24982267 L13.4778931,7.35946144 L13.6486377,7.4390622 L13.7425103,7.57198044 L13.7388145,7.61328272 L13.6774647,7.52091581 L13.5651133,7.46309262 L13.3418887,7.37448045 L13.2007102,7.24982267 L13.0491835,7.12666679 C12.950876,7.0718474 12.8436986,7.03429987 12.7513043,6.97046908 L12.7742181,6.9366763 C12.8725257,7.00275995 12.9848771,7.03880557 13.0883587,7.09737972 L13.2221457,7.21377704 L13.0780106,7.0718474 C12.9833988,7.02003181 12.883613,6.97197098 12.8000885,6.90138163" id="Fill-29-Copy" fill="#FCBF49"></path>
            <path d="M10.7895652,7.72292149 C11.0504867,7.4375603 11.3114082,7.1521991 11.5730688,6.86608696 L11.5967218,6.89462308 C11.5109799,6.99074474 11.4237596,7.08536451 11.3365394,7.18073522 L11.2774071,7.24982267 L11.3454093,7.18824473 C11.4392819,7.10113447 11.5324153,7.01252231 11.6255488,6.9246611 L11.6543758,6.94944246 C11.3868019,7.20326374 11.1162714,7.45708501 10.8479584,7.71015533 L10.7925218,7.75821617 L10.7895652,7.72292149" id="Fill-30-Copy" fill="#FCBF49"></path>
            <path d="M12.8082192,6.89387213 L12.8348288,6.86608696 C13.094272,7.1506972 13.3537151,7.43530745 13.6131583,7.71841579 L13.6294197,7.75671427 L13.5909837,7.74169526 C13.3115833,7.47736068 13.032183,7.214528 12.7513043,6.94944246 L12.7801314,6.92391015 C12.8769606,7.01477516 12.9737898,7.10564017 13.0698799,7.19575423 L13.1297514,7.24982267 C13.0262698,7.12741774 12.9153966,7.01477516 12.8082192,6.89387213" id="Fill-31-Copy" fill="#FCBF49"></path>
            <path d="M11.2138398,7.25207552 C11.3032775,7.13642914 11.339496,6.98698999 11.4222813,6.86608696 L11.4548041,6.89086832 C11.3904977,6.98849189 11.3550183,7.10488922 11.2966251,7.20701849 L11.1842736,7.34369148 L11.3128865,7.214528 C11.3705405,7.11314968 11.4141506,7.0035109 11.4932402,6.91640064 L11.5257629,6.9366763 C11.4385427,7.03880557 11.4030633,7.17322572 11.3180606,7.27460404 L11.1480551,7.4450698 L11.0401385,7.60502226 L10.9617882,7.77849183 L10.8302187,7.87536445 L10.7895652,7.8716097 L10.8790029,7.80852985 L10.9499617,7.65083024 L11.071183,7.40076372 L11.2138398,7.25207552" id="Fill-32-Copy" fill="#FCBF49"></path>
            <path d="M12.8244806,6.88936642 L12.8540468,6.86608696 L13.0277481,7.10338732 L13.1282731,7.2993854 L13.2406245,7.53668577 L13.3485411,7.64632454 L13.4431528,7.82580171 L13.4217173,7.91216102 L13.3906729,7.78374849 L13.2805389,7.67561161 L13.103881,7.47210402 L13.0255306,7.28286449 C12.9553109,7.1506972 12.831133,7.06058314 12.7513043,6.9351744 L12.7867838,6.91339684 C12.8510902,7.01327326 12.9405279,7.08911926 13.012965,7.18148617 L13.0972286,7.34744624 C13.0905762,7.23855841 13.0137041,7.15445195 12.9501369,7.07410025 L12.8244806,6.88936642" id="Fill-33-Copy" fill="#FCBF49"></path>
            <path d="M12.0136166,8.28551162 C12.0668357,8.13982722 12.1178373,7.99188997 12.1762305,7.84695652 L12.2080142,7.86723219 C12.1525776,8.00916183 12.1023151,8.15409528 12.0505743,8.29752683 L12.0372695,8.34333481 C12.1045325,8.18788806 12.1762305,8.03469415 12.2442327,7.88074929 L12.2797121,7.8942664 C12.1215331,8.24721315 11.9618758,8.60015989 11.8029576,8.95235568 L11.7704348,8.97863895 L11.7748697,8.93883857 C11.8532201,8.72181387 11.9323096,8.50403822 12.0136166,8.28551162" id="Fill-34-Copy" fill="#FCBF49"></path>
            <path d="M12.8207849,7.86122458 L12.8562643,7.84695652 C12.9856163,8.20215612 13.1157074,8.55735571 13.2465378,8.9125553 L13.2576251,8.9763861 L13.2258414,8.95085378 C13.0794889,8.62494125 12.9323972,8.29977968 12.7860446,7.97311621 L12.7513043,7.89201355 L12.7845663,7.87774549 C12.8533076,8.0324413 12.9242665,8.1871371 12.9930078,8.34183291 L12.9560501,8.23069223 C12.9109617,8.1082873 12.864395,7.98438047 12.8207849,7.86122458" id="Fill-35-Copy" fill="#FCBF49"></path>
            <path d="M11.9781372,7.84695652 L12.0195298,7.85897173 C11.9936594,7.97386716 12.0054859,8.09401924 11.9907028,8.21041657 L11.9404403,8.37787854 L12.006225,8.22092988 C12.0239647,8.1022797 12.0232256,7.98137666 12.0609224,7.86648124 L12.0986193,7.87098694 C12.0579658,7.99714662 12.0749664,8.13457057 12.0365303,8.26073026 C12.0113991,8.35384812 11.9567017,8.43269792 11.9300921,8.52431389 L11.9042217,8.74884809 L11.8487851,8.97263134 L11.7704348,9.01994123 L11.8332629,8.92607241 L11.8436111,8.82169029 L11.8332629,8.58589183 L11.8931344,8.38163329 L11.9515276,8.16986524 C11.9618758,8.06247932 11.9567017,7.95359149 11.9781372,7.84695652" id="Fill-36-Copy" fill="#FCBF49"></path>
            <path d="M12.8363071,7.86047363 L12.8717865,7.84695652 C12.8799172,7.94307819 12.9153966,8.0309394 12.9405279,8.12105346 L12.9627025,8.36661428 C12.9567893,8.45823024 12.9575284,8.55360096 12.9863554,8.64371502 L13.06101,8.85473211 L13.0307047,9.01919028 L13.0018777,9.03571119 L13.0173999,8.87876253 L12.9368321,8.71355342 L12.874004,8.49502682 L12.8732648,8.29752683 C12.8584817,8.14883863 12.7801314,8.01817324 12.7513043,7.87399074 L12.7949145,7.86573028 C12.8163499,7.99864853 12.8880479,8.11729871 12.9109617,8.25021695 L12.9190924,8.38388614 L12.9161358,8.19614851 C12.8880479,8.08425688 12.8444378,7.97536906 12.8363071,7.86047363" id="Fill-37-Copy" fill="#FCBF49"></path>
            <path d="M11.7704348,7.84695652 L11.80961,7.84920937 C11.814784,8.02568274 11.8206973,8.20140516 11.8280888,8.37637663 C11.8362195,8.20140516 11.8421328,8.02568274 11.848046,7.84996032 L11.8872212,7.84695652 C11.8731772,8.22468463 11.8591333,8.60316369 11.8458285,8.9808918 L11.8362195,9.04547354 L11.8221756,9.04547354 L11.8118274,8.9808918 C11.7985226,8.60316369 11.7830004,8.22468463 11.7704348,7.84695652" id="Fill-38-Copy" fill="#FCBF49"></path>
            <path d="M12.1947094,6.1425181 L12.0269213,6.20802718 L11.857655,6.17251021 C12.0697923,6.32168148 12.1947094,6.1425181 12.1947094,6.1425181 L12.1947094,6.1425181 Z M12.087532,6.17172094 L12.1599691,6.13304691 L12.1008368,6.06990563 L11.9633541,6.05175251 L11.8473068,6.13304691 L12.0017901,6.18277067 L12.087532,6.17172094 L12.087532,6.17172094 Z M12.0668357,6.07227343 L12.1318813,6.13304691 L12.0564875,6.17329947 L12.0668357,6.07227343 L12.0668357,6.07227343 Z M11.8909169,6.12120792 L11.9618758,6.06674857 L11.9633541,6.06674857 L11.9722239,6.17251021 L11.8909169,6.12120792 L11.8909169,6.12120792 Z M12.1947094,6.11410453 L12.1924919,6.11331526 L12.1947094,6.11410453 L12.1947094,6.11410453 Z M12.0794013,5.92468069 C12.1244897,5.93257335 12.2227972,5.95151573 12.2545809,6.08884801 C12.2863645,6.2238125 12.1917528,6.36745891 12.1917528,6.36745891 L12.2227972,6.37535157 C12.2848862,6.27353625 12.3070608,6.03202086 12.2375803,5.96651179 L12.0550092,5.88521739 L11.919744,5.90337051 L11.7704348,6.03044233 C11.8657857,5.94914794 12.0335737,5.9175773 12.0794013,5.92468069 L12.0794013,5.92468069 Z M12.2996693,6.64685906 L12.2996693,6.64685906 L12.1422294,6.65711952 L12.2996693,6.67606191 L12.4571092,6.65711952 L12.2996693,6.64685906 L12.2996693,6.64685906 Z M12.2227972,6.42586459 C12.207275,6.43296798 12.1385336,6.50952678 12.1392728,6.38008716 L12.1267072,6.47164202 L12.15923,6.49374146 L12.2338846,6.48190247 L12.2996693,6.49216293 L12.3669323,6.48190247 L12.4401086,6.49374146 L12.4726314,6.47164202 L12.4600658,6.38008716 C12.4600658,6.50952678 12.3935419,6.43296798 12.3758022,6.42586459 L12.2996693,6.47006348 L12.2227972,6.42586459 L12.2227972,6.42586459 Z M12.0794013,6.03517793 L12.1348379,6.07227343 L12.1924919,6.11331526 L12.2191015,6.10384407 L12.145186,6.05964517 L12.0269213,6.00281802 L11.8783513,6.03754573 L11.795566,6.12120792 L11.9803546,6.0241282 L12.0794013,6.03517793 L12.0794013,6.03517793 Z M12.4090641,6.36745891 C12.4090641,6.36745891 12.3129741,6.2238125 12.3447577,6.08884801 C12.3758022,5.95151573 12.4748489,5.93257335 12.5214156,5.92468069 C12.5642865,5.9175773 12.7335529,5.94914794 12.8303821,6.03044233 L12.6795946,5.90337051 L12.5458077,5.88521739 L12.3624974,5.96651179 C12.2937561,6.03202086 12.3144524,6.27353625 12.3758022,6.37535157 L12.4090641,6.36745891 L12.4090641,6.36745891 Z M12.6367237,6.05175251 L12.4985018,6.06990563 L12.4401086,6.13304691 L12.5118066,6.17172094 L12.5975485,6.18277067 L12.7520317,6.13304691 L12.6367237,6.05175251 L12.6367237,6.05175251 Z M12.465979,6.13304691 L12.5325029,6.07227343 L12.5428511,6.17329947 L12.465979,6.13304691 L12.465979,6.13304691 Z M12.6271147,6.17251021 L12.6367237,6.06674857 L12.6374628,6.06674857 L12.7091608,6.12120792 L12.6271147,6.17251021 L12.6271147,6.17251021 Z M12.3817154,6.56556467 L12.2996693,6.57266806 L12.2176232,6.56556467 L12.1089675,6.65238393 L12.2109708,6.59239971 L12.2996693,6.60108164 L12.3876287,6.59239971 L12.4911103,6.65238393 L12.3817154,6.56556467 L12.3817154,6.56556467 Z M12.5738956,6.20802718 L12.4053684,6.1425181 C12.4053684,6.1425181 12.5302854,6.32168148 12.7424227,6.17251021 L12.5738956,6.20802718 L12.5738956,6.20802718 Z M12.480023,6.66895851 L12.3802371,6.71868227 L12.2996693,6.74630658 L12.2183623,6.71868227 L12.1193156,6.66895851 L12.2227972,6.74867438 L12.288582,6.77156309 L12.2161449,6.80865859 L12.1814046,6.88521739 L12.2375803,6.82049758 L12.2996693,6.80076593 L12.3624974,6.82049758 L12.4194123,6.88521739 L12.3824546,6.80865859 L12.3107566,6.77156309 L12.3758022,6.74867438 L12.480023,6.66895851 L12.480023,6.66895851 Z M12.7209873,6.03754573 L12.5738956,6.00281802 L12.4541525,6.05964517 L12.3802371,6.10384407 L12.4068467,6.11331526 L12.465979,6.07227343 L12.5214156,6.03517793 L12.6197231,6.0241282 L12.8052509,6.12120792 L12.7209873,6.03754573 L12.7209873,6.03754573 Z M12.4068467,6.11331526 L12.4053684,6.11410453 L12.4068467,6.11331526 L12.4068467,6.11331526 Z" id="Fill-39-Copy" fill="#843511"></path>
        </g>
    </g>
</svg>