<?xml version="1.0" encoding="UTF-8"?>
<svg width="24px" height="24px" viewBox="0 0 24 24" version="1.1" xmlns="http://www.w3.org/2000/svg" xmlns:xlink="http://www.w3.org/1999/xlink">
    <!-- Generator: Sketch 54.1 (76490) - https://sketchapp.com -->
    <title>Australia</title>
    <desc>Created with Sketch.</desc>
    <g id="Australia" stroke="none" stroke-width="1" fill="none" fill-rule="evenodd">
        <polygon id="Fill-2" fill="#004990" points="0.0223546599 5.00738072 23.7084375 5.00738072 23.7084375 18.4614958 0.0223546599 18.4614958"></polygon>
        <polygon id="Fill-3" fill="#004990" points="0.0223546599 5.00738072 11.4806156 5.00738072 11.4806156 11.3695405 0.0223546599 11.3695405"></polygon>
        <polyline id="Fill-4" fill="#FFFFFF" points="11.4806156 7.23491476 6.89731123 7.23491476 6.89731123 5.00738072 4.60565904 5.00738072 4.60565904 7.23491476 0.0223546599 7.23491476 0.0223546599 9.14271384 4.60565904 9.14271384 4.60565904 11.3695405 6.89731123 11.3695405 6.89731123 9.14271384 11.4806156 9.14271384 11.4806156 7.23491476"></polyline>
        <polyline id="Fill-5" fill="#FFFFFF" points="11.4806156 10.6381114 1.3380586 5.00738072 0.0223546599 5.00738072 0.0223546599 5.74517622 10.1564178 11.3695405 11.4806156 11.3695405 11.4806156 10.6381114"></polyline>
        <polyline id="Fill-6" fill="#FFFFFF" points="0.0223546599 10.6381114 10.1649117 5.00738072 11.4806156 5.00738072 11.4806156 5.74517622 1.3465525 11.3695405 0.0223546599 11.3695405 0.0223546599 10.6381114"></polyline>
        <polyline id="Fill-7" fill="#EF3E42" points="11.4806156 7.63175395 6.41910508 7.63175395 6.41910508 5.00738072 5.08386518 5.00738072 5.08386518 7.63175395 0.0223546599 7.63175395 0.0223546599 8.74587465 5.08386518 8.74587465 5.08386518 11.3695405 6.41910508 11.3695405 6.41910508 8.74587465 11.4806156 8.74587465 11.4806156 7.63175395"></polyline>
        <polyline id="Fill-8" fill="#EF3E42" points="11.4806156 11.3511487 11.4806156 10.8489101 8.40073019 9.14271384 7.49358248 9.14271384 11.4806156 11.3511487"></polyline>
        <polyline id="Fill-9" fill="#EF3E42" points="11.4806156 5.00738072 10.5760161 5.00738072 6.89731123 7.04463002 6.89731123 7.23491476 7.46300446 7.23491476 11.4806156 5.00879548 11.4806156 5.00738072"></polyline>
        <polyline id="Fill-10" fill="#EF3E42" points="4.01023717 9.14271384 0.0223546599 11.351856 0.0223546599 11.3695405 0.897225584 11.3695405 4.60565904 9.31602151 4.60565904 9.14271384 4.01023717 9.14271384"></polyline>
        <polyline id="Fill-11" fill="#EF3E42" points="0.0223546599 5.01233237 0.0223546599 5.51457091 3.12772175 7.23491476 4.03571885 7.23491476 0.0223546599 5.01233237"></polyline>
        <polyline id="Fill-12" fill="#FFFFFF" points="5.75148513 13.0877622 6.09973472 13.9910842 7.16571823 13.6550796 6.5363208 14.445221 7.5156666 14.9297751 6.38173195 15.011831 6.5363208 15.9512293 5.75148513 15.2636576 4.96749886 15.9512293 5.12293709 15.011831 3.98985183 14.9297751 4.96749886 14.445221 4.33640265 13.6550796 5.40408493 13.9910842 5.75148513 13.0877622"></polyline>
        <polyline id="Fill-13" fill="#FFFFFF" points="17.2097461 14.8993579 17.3804733 15.3414692 17.9019983 15.1773575 17.59367 15.563586 18.0718762 15.7998503 17.5180744 15.8401709 17.59367 16.2992594 17.2097461 15.9632547 16.8266715 16.2992594 16.9022672 15.8401709 16.3493148 15.7998503 16.8266715 15.563586 16.520042 15.1773575 17.0398682 15.3414692 17.2097461 14.8993579"></polyline>
        <polyline id="Fill-14" fill="#FFFFFF" points="14.3473043 9.86423963 14.5180316 10.3056436 15.0387072 10.1415319 14.7295295 10.5277604 15.2102838 10.7640247 14.6539338 10.8036379 14.7312283 11.2634338 14.3473043 10.9281365 13.9633804 11.2634338 14.0406748 10.8036379 13.4860236 10.7640247 13.9650792 10.5277604 13.6576002 10.1415319 14.1765771 10.3056436 14.3473043 9.86423963"></polyline>
        <polyline id="Fill-15" fill="#FFFFFF" points="17.2097461 6.42708883 17.3804733 6.86778546 17.9019983 6.70367371 17.59367 7.08919485 18.0718762 7.32616655 17.5180744 7.36719449 17.59367 7.82628296 17.2097461 7.4902783 16.8266715 7.82628296 16.9022672 7.36719449 16.3493148 7.32616655 16.8266715 7.08919485 16.520042 6.70367371 17.0398682 6.86778546 17.2097461 6.42708883"></polyline>
        <polyline id="Fill-16" fill="#FFFFFF" points="19.7553656 9.0238743 19.9252435 9.46598569 20.4467685 9.30187394 20.1384402 9.68880983 20.6174957 9.92436678 20.0619952 9.96468734 20.1384402 10.4237758 19.7553656 10.0870638 19.3722911 10.4237758 19.4487361 9.96468734 18.894085 9.92436678 19.3722911 9.68880983 19.0639628 9.30187394 19.583789 9.46598569 19.7553656 9.0238743"></polyline>
        <polyline id="Fill-17" fill="#FFFFFF" points="18.3623673 11.5180899 18.4931732 11.7854789 18.839724 11.8059929 18.5747146 11.9934481 18.6571054 12.2735699 18.3623673 12.1214836 18.0676292 12.2735699 18.1508694 11.9934481 17.8841611 11.8059929 18.2315613 11.7854789 18.3623673 11.5180899"></polyline>
        <polygon id="Fill-2-Copy" fill="#004990" points="1.59872116e-14 5.00738072 24 5.00738072 24 18.4614958 1.59872116e-14 18.4614958"></polygon>
        <polygon id="Fill-3-Copy" fill="#004990" points="0.0223546599 5.00738072 11.4806156 5.00738072 11.4806156 11.3695405 0.0223546599 11.3695405"></polygon>
        <polyline id="Fill-4-Copy" fill="#FFFFFF" points="11.4806156 7.23491476 6.89731123 7.23491476 6.89731123 5.00738072 4.60565904 5.00738072 4.60565904 7.23491476 0.0223546599 7.23491476 0.0223546599 9.14271384 4.60565904 9.14271384 4.60565904 11.3695405 6.89731123 11.3695405 6.89731123 9.14271384 11.4806156 9.14271384 11.4806156 7.23491476"></polyline>
        <polyline id="Fill-5-Copy" fill="#FFFFFF" points="11.4806156 10.6381114 1.3380586 5.00738072 0.0223546599 5.00738072 0.0223546599 5.74517622 10.1564178 11.3695405 11.4806156 11.3695405 11.4806156 10.6381114"></polyline>
        <polyline id="Fill-6-Copy" fill="#FFFFFF" points="0.0223546599 10.6381114 10.1649117 5.00738072 11.4806156 5.00738072 11.4806156 5.74517622 1.3465525 11.3695405 0.0223546599 11.3695405 0.0223546599 10.6381114"></polyline>
        <polyline id="Fill-7-Copy" fill="#EF3E42" points="11.4806156 7.63175395 6.41910508 7.63175395 6.41910508 5.00738072 5.08386518 5.00738072 5.08386518 7.63175395 0.0223546599 7.63175395 0.0223546599 8.74587465 5.08386518 8.74587465 5.08386518 11.3695405 6.41910508 11.3695405 6.41910508 8.74587465 11.4806156 8.74587465 11.4806156 7.63175395"></polyline>
        <polyline id="Fill-8-Copy" fill="#EF3E42" points="11.4806156 11.3511487 11.4806156 10.8489101 8.40073019 9.14271384 7.49358248 9.14271384 11.4806156 11.3511487"></polyline>
        <polyline id="Fill-9-Copy" fill="#EF3E42" points="11.4806156 5.00738072 10.5760161 5.00738072 6.89731123 7.04463002 6.89731123 7.23491476 7.46300446 7.23491476 11.4806156 5.00879548 11.4806156 5.00738072"></polyline>
        <polyline id="Fill-10-Copy" fill="#EF3E42" points="4.01023717 9.14271384 0.0223546599 11.351856 0.0223546599 11.3695405 0.897225584 11.3695405 4.60565904 9.31602151 4.60565904 9.14271384 4.01023717 9.14271384"></polyline>
        <polyline id="Fill-11-Copy" fill="#EF3E42" points="0.0223546599 5.01233237 0.0223546599 5.51457091 3.12772175 7.23491476 4.03571885 7.23491476 0.0223546599 5.01233237"></polyline>
        <polyline id="Fill-12-Copy" fill="#FFFFFF" points="5.75148513 13.0877622 6.09973472 13.9910842 7.16571823 13.6550796 6.5363208 14.445221 7.5156666 14.9297751 6.38173195 15.011831 6.5363208 15.9512293 5.75148513 15.2636576 4.96749886 15.9512293 5.12293709 15.011831 3.98985183 14.9297751 4.96749886 14.445221 4.33640265 13.6550796 5.40408493 13.9910842 5.75148513 13.0877622"></polyline>
        <polyline id="Fill-13-Copy" fill="#FFFFFF" points="17.2097461 14.8993579 17.3804733 15.3414692 17.9019983 15.1773575 17.59367 15.563586 18.0718762 15.7998503 17.5180744 15.8401709 17.59367 16.2992594 17.2097461 15.9632547 16.8266715 16.2992594 16.9022672 15.8401709 16.3493148 15.7998503 16.8266715 15.563586 16.520042 15.1773575 17.0398682 15.3414692 17.2097461 14.8993579"></polyline>
        <polyline id="Fill-14-Copy" fill="#FFFFFF" points="14.3473043 9.86423963 14.5180316 10.3056436 15.0387072 10.1415319 14.7295295 10.5277604 15.2102838 10.7640247 14.6539338 10.8036379 14.7312283 11.2634338 14.3473043 10.9281365 13.9633804 11.2634338 14.0406748 10.8036379 13.4860236 10.7640247 13.9650792 10.5277604 13.6576002 10.1415319 14.1765771 10.3056436 14.3473043 9.86423963"></polyline>
        <polyline id="Fill-15-Copy" fill="#FFFFFF" points="17.2097461 6.42708883 17.3804733 6.86778546 17.9019983 6.70367371 17.59367 7.08919485 18.0718762 7.32616655 17.5180744 7.36719449 17.59367 7.82628296 17.2097461 7.4902783 16.8266715 7.82628296 16.9022672 7.36719449 16.3493148 7.32616655 16.8266715 7.08919485 16.520042 6.70367371 17.0398682 6.86778546 17.2097461 6.42708883"></polyline>
        <polyline id="Fill-16-Copy" fill="#FFFFFF" points="19.7553656 9.0238743 19.9252435 9.46598569 20.4467685 9.30187394 20.1384402 9.68880983 20.6174957 9.92436678 20.0619952 9.96468734 20.1384402 10.4237758 19.7553656 10.0870638 19.3722911 10.4237758 19.4487361 9.96468734 18.894085 9.92436678 19.3722911 9.68880983 19.0639628 9.30187394 19.583789 9.46598569 19.7553656 9.0238743"></polyline>
        <polyline id="Fill-17-Copy" fill="#FFFFFF" points="18.3623673 11.5180899 18.4931732 11.7854789 18.839724 11.8059929 18.5747146 11.9934481 18.6571054 12.2735699 18.3623673 12.1214836 18.0676292 12.2735699 18.1508694 11.9934481 17.8841611 11.8059929 18.2315613 11.7854789 18.3623673 11.5180899"></polyline>
    </g>
</svg>