<?xml version="1.0" encoding="UTF-8"?>
<svg width="24px" height="24px" viewBox="0 0 24 24" version="1.1" xmlns="http://www.w3.org/2000/svg" xmlns:xlink="http://www.w3.org/1999/xlink">
    <!-- Generator: Sketch 54.1 (76490) - https://sketchapp.com -->
    <title>Brazil</title>
    <desc>Created with Sketch.</desc>
    <g id="Brazil" stroke="none" stroke-width="1" fill="none" fill-rule="evenodd">
        <g id="bra" transform="translate(0.000000, 5.000000)">
            <polygon id="Fill-2" fill="#00923E" points="0 0 24 0 24 13.8947368 0 13.8947368"></polygon>
            <polyline id="Fill-3" fill="#F8C100" points="2.40444774 6.97194613 12 13.3124532 21.5955523 6.97194613 12 0.630518591 2.40444774 6.97194613"></polyline>
            <path d="M12,2.71824651 C14.2692365,2.71824651 16.1088213,4.62279196 16.1088213,6.97194613 C16.1088213,9.3211003 14.2692365,11.2247252 12,11.2247252 C9.72809489,11.2247252 7.88939956,9.3211003 7.88939956,6.97194613 C7.88939956,4.62279196 9.72809489,2.71824651 12,2.71824651" id="Fill-4" fill="#28166F"></path>
            <path d="M16.0883617,7.39906507 C14.2905856,5.91519496 11.9937732,5.06003657 9.51549296,5.15208806 C9.07783543,5.1668163 8.64640474,5.21560359 8.22475908,5.28740376 C8.1358043,5.49820169 8.06464047,5.71820476 8.01126761,5.94465144 C8.50496664,5.84247428 9.01378799,5.77711772 9.53684211,5.75870742 C11.982209,5.66941747 14.2434396,6.55587337 15.9682728,8.07932563 C16.0252039,7.86024307 16.0661231,7.63195536 16.0883617,7.39906507" id="Fill-5" fill="#FFFFFF"></path>
            <path d="M8.34217939,5.5919859 L8.34717939,5.4739859 L8.37817939,5.4079859 L8.43117939,5.3589859 L8.52517939,5.3269859 L8.69117939,5.3659859 L8.77617939,5.5269859 L8.74017939,5.7059859 L8.59317939,5.7889859 L8.42617939,5.7509859 L8.34217939,5.5919859 L8.34217939,5.5919859 Z M8.43517939,5.5759859 L8.48617939,5.6859859 L8.58117939,5.7119859 L8.66417939,5.6609859 L8.68117939,5.5389859 L8.63117939,5.4289859 L8.53617939,5.4049859 L8.45117939,5.4559859 L8.43517939,5.5759859 L8.43517939,5.5759859 Z" id="Fill-6" fill="#00923E"></path>
            <path d="M8.91312898,5.73691398 L8.87412898,5.28791398 L9.06312898,5.26991398 L9.17112898,5.27291398 L9.22712898,5.31091398 L9.25212898,5.38091398 L9.23112898,5.46591398 L9.14412898,5.51591398 L9.19712898,5.54891398 L9.25312898,5.61791398 L9.31712898,5.70091398 L9.20912898,5.71091398 L9.13412898,5.61891398 L9.08212898,5.55691398 L9.05212898,5.53991398 L9.00512898,5.53891398 L8.98712898,5.54091398 L9.00412898,5.72891398 L8.91312898,5.73691398 L8.91312898,5.73691398 Z M8.98112898,5.46891398 L9.04712898,5.46291398 L9.12812898,5.45091398 L9.15312898,5.42891398 L9.16012898,5.39491398 L9.14412898,5.35791398 L9.10812898,5.34491398 L9.04112898,5.34891398 L8.97012898,5.35491398 L8.98112898,5.46891398 L8.98112898,5.46891398 Z" id="Fill-7" fill="#00923E"></path>
            <path d="M9.39451446,5.24261647 L9.56251446,5.23861647 L9.64751446,5.24361647 L9.71651446,5.28461647 L9.76251446,5.35561647 L9.77951446,5.46261647 L9.76751446,5.55861647 L9.72351446,5.63961647 L9.65951446,5.67761647 L9.57851446,5.68961647 L9.40751446,5.69361647 L9.39451446,5.24261647 L9.39451446,5.24261647 Z M9.48851446,5.31661647 L9.49651446,5.61561647 L9.56451446,5.61361647 L9.62051446,5.60761647 L9.65551446,5.58761647 L9.67851446,5.54261647 L9.68651446,5.46061647 L9.67451446,5.38061647 L9.64551446,5.33761647 L9.60351446,5.31761647 L9.52851446,5.31561647 L9.48851446,5.31661647 L9.48851446,5.31661647 Z" id="Fill-8" fill="#00923E"></path>
            <polyline id="Fill-9" fill="#00923E" points="9.90066716 5.64640459 9.9051149 5.23033183 10.204003 5.23493441 10.2031134 5.30581406 9.9851742 5.302132 9.98428466 5.3941835 10.1853225 5.39694504 10.1844329 5.46782469 9.98250556 5.46414263 9.98072646 5.57828649 10.2057821 5.58012752 10.2048925 5.65100717 9.90066716 5.64640459"></polyline>
            <polyline id="Fill-10" fill="#00923E" points="10.3667902 5.65745077 10.3943662 5.24229853 10.5153447 5.25058316 10.5696071 5.53870434 10.6594514 5.26162934 10.7813195 5.26991398 10.752854 5.68506622 10.6790215 5.68046365 10.7003706 5.35276032 10.5980726 5.67402004 10.5215715 5.66849695 10.4646405 5.33527054 10.4406227 5.66113283 10.3667902 5.65745077"></polyline>
            <polyline id="Fill-11" fill="#00923E" points="11.1691623 5.73477403 11.228762 5.32330384 11.5240919 5.37025011 11.5134173 5.43928873 11.2999259 5.40615019 11.2848036 5.49728117 11.4858414 5.52765817 11.4742772 5.5976173 11.2759081 5.56631979 11.2590067 5.67862262 11.4822832 5.71268167 11.4707191 5.78264081 11.1691623 5.73477403"></polyline>
            <path d="M11.8674574,5.895858 L11.9694574,5.455858 L12.1114574,5.488858 L12.2154574,5.518858 L12.2694574,5.576858 L12.2754574,5.668858 L12.2444574,5.733858 L12.1974574,5.768858 L12.1454574,5.777858 L12.0514574,5.762858 L11.9944574,5.749858 L11.9564574,5.916858 L11.8674574,5.895858 L11.8674574,5.895858 Z M12.0414574,5.550858 L12.0104574,5.674858 L12.0594574,5.686858 L12.1324574,5.696858 L12.1654574,5.680858 L12.1824574,5.648858 L12.1764574,5.605858 L12.1454574,5.577858 L12.0834574,5.559858 L12.0414574,5.550858 L12.0414574,5.550858 Z" id="Fill-12" fill="#00923E"></path>
            <path d="M12.3237954,6.00860443 L12.4477954,5.57460443 L12.6317954,5.62760443 L12.7297954,5.66760443 L12.7687954,5.72360443 L12.7687954,5.79760443 L12.7157954,5.87060443 L12.6187954,5.88560443 L12.6547954,5.93560443 L12.6837954,6.02060443 L12.7147954,6.12160443 L12.6097954,6.09060443 L12.5717954,5.97760443 L12.5447954,5.90060443 L12.5237954,5.87460443 L12.4807954,5.85760443 L12.4627954,5.85260443 L12.4117954,6.03360443 L12.3237954,6.00860443 L12.3237954,6.00860443 Z M12.4837954,5.78360443 L12.5477954,5.80260443 L12.6277954,5.81860443 L12.6577954,5.80860443 L12.6767954,5.77760443 L12.6747954,5.73960443 L12.6467954,5.71260443 L12.5817954,5.69260443 L12.5157954,5.67360443 L12.4837954,5.78360443 L12.4837954,5.78360443 Z" id="Fill-13" fill="#00923E"></path>
            <path d="M12.84596,5.93215102 L12.90296,5.82915102 L12.96096,5.78515102 L13.03096,5.76515102 L13.12996,5.78115102 L13.25896,5.89115102 L13.25896,6.07415102 L13.14796,6.21615102 L12.97796,6.22215102 L12.84596,6.11215102 L12.84596,5.93215102 L12.84596,5.93215102 Z M12.93596,5.96015102 L12.92996,6.08115102 L13.00396,6.14915102 L13.09896,6.14015102 L13.17096,6.04115102 L13.17796,5.92015102 L13.10396,5.85415102 L13.00696,5.86115102 L12.93596,5.96015102 L12.93596,5.96015102 Z" id="Fill-14" fill="#00923E"></path>
            <polyline id="Fill-15" fill="#00923E" points="13.5229059 6.23553417 13.5495923 6.17017761 13.71149 6.23921623 13.6518903 6.39202171 13.5656042 6.40490892 13.4677539 6.38465759 13.3761305 6.31653948 13.3405486 6.21620335 13.3592291 6.10298001 13.4268347 6.00724646 13.5255745 5.96582328 13.6216457 5.9851541 13.7186064 6.06063633 13.7337287 6.16557503 13.6545589 6.14808525 13.6429948 6.0900928 13.5958488 6.05143118 13.5051149 6.04959015 13.4366197 6.13335701 13.4268347 6.24842138 13.4899926 6.31653948 13.5406968 6.32574463 13.5905115 6.32114206 13.6109711 6.27143425 13.5229059 6.23553417"></polyline>
            <path d="M13.7835434,6.54864164 L13.9775434,6.14164164 L14.1495434,6.22364164 L14.2395434,6.27964164 L14.2695434,6.34164164 L14.2555434,6.41464164 L14.1935434,6.47864164 L14.0955434,6.47664164 L14.1215434,6.53164164 L14.1385434,6.62064164 L14.1495434,6.72364164 L14.0515434,6.67664164 L14.0345434,6.55964164 L14.0195434,6.47864164 L14.0025434,6.44964164 L13.9635434,6.42564164 L13.9465434,6.41864164 L13.8655434,6.58864164 L13.7835434,6.54864164 L13.7835434,6.54864164 Z M13.9775434,6.35264164 L14.0395434,6.38164164 L14.1145434,6.41164164 L14.1455434,6.40564164 L14.1695434,6.37964164 L14.1735434,6.34064164 L14.1495434,6.30964164 L14.0925434,6.27964164 L14.0255434,6.24964164 L13.9775434,6.35264164 L13.9775434,6.35264164 Z" id="Fill-16" fill="#00923E"></path>
            <polyline id="Fill-17" fill="#00923E" points="14.2265382 6.74089688 14.4195701 6.37545244 14.6802076 6.52181432 14.6481838 6.58348882 14.4560415 6.47670909 14.4142328 6.55863492 14.5921423 6.65713002 14.5592291 6.71972503 14.3830986 6.6193889 14.3315048 6.71972503 14.5280949 6.82926631 14.4960712 6.89186133 14.2265382 6.74089688"></polyline>
            <polyline id="Fill-18" fill="#00923E" points="14.6846553 6.8467561 14.7549296 6.88173567 14.7487027 6.94985377 14.7896219 6.99772055 14.8483321 7.01428982 14.8865827 6.99127695 14.8928095 6.9636615 14.8750185 6.93420502 14.8296516 6.8835767 14.7709414 6.79980984 14.7825056 6.70775834 14.826983 6.66633517 14.8901408 6.65713002 14.9648629 6.68750701 15.0449222 6.77771748 15.0342476 6.87805361 14.9621942 6.83755095 14.9675315 6.78600211 14.9301705 6.74549945 14.8750185 6.72893018 14.8510007 6.74457894 14.8483321 6.77219439 14.8990363 6.83570992 14.9577465 6.9084306 14.9746479 6.96918459 14.9550778 7.03362064 14.9061527 7.08148741 14.836768 7.09161308 14.75404 7.05755402 14.6722016 6.9636615 14.6846553 6.8467561"></polyline>
            <polyline id="Fill-19" fill="#00923E" points="15.0858414 7.10357977 15.1552261 7.14316192 15.1463306 7.20851848 15.1854707 7.2591468 15.2441809 7.27939813 15.2815419 7.25730577 15.2877687 7.23245187 15.2744255 7.20023384 15.2299481 7.14776449 15.1756857 7.06031557 15.1916976 6.9701051 15.237954 6.93052296 15.302891 6.92499987 15.3749444 6.95813841 15.450556 7.05295145 15.4354337 7.15236707 15.3651594 7.10910286 15.3713862 7.05755402 15.3375834 7.01613085 15.283321 6.99680004 15.2575241 7.00968725 15.2548554 7.03822321 15.3011119 7.10450029 15.358043 7.179062 15.3713862 7.2407365 15.3500371 7.30425203 15.2966642 7.34935727 15.2272795 7.35672139 15.1463306 7.31805976 15.06894 7.22048517 15.0858414 7.10357977"></polyline>
            <path d="M15.525126,7.33369032 L15.612126,7.25469032 L15.682126,7.22969032 L15.753126,7.23269032 L15.843126,7.27769032 L15.932126,7.42369032 L15.876126,7.59769032 L15.725126,7.69769032 L15.561126,7.65169032 L15.470126,7.50569032 L15.525126,7.33369032 L15.525126,7.33369032 Z M15.601126,7.38869032 L15.561126,7.50369032 L15.608126,7.58869032 L15.703126,7.61169032 L15.804126,7.53869032 L15.845126,7.42569032 L15.796126,7.34069032 L15.700126,7.31669032 L15.601126,7.38869032 L15.601126,7.38869032 Z" id="Fill-20" fill="#00923E"></path>
            <polyline id="Fill-21" fill="#FFFFFF" points="13.3049666 5.3573629 13.3432172 5.47702984 13.4650852 5.47702984 13.3663454 5.55159155 13.4037064 5.6712585 13.3049666 5.5976173 13.2062268 5.6712585 13.2453669 5.55159155 13.1466271 5.47702984 13.2676056 5.47702984 13.3049666 5.3573629"></polyline>
            <polyline id="Fill-22" fill="#FFFFFF" points="12.0169014 8.79272472 12.0542624 8.91239166 12.1761305 8.91239166 12.0773907 8.98695338 12.1147517 9.10754083 12.0169014 9.03297912 11.9181616 9.10754083 11.9555226 8.98695338 11.8576723 8.91239166 11.9786509 8.91239166 12.0169014 8.79272472"></polyline>
            <polyline id="Fill-23" fill="#FFFFFF" points="14.9337287 8.37020835 14.9719792 8.49355736 15.0965159 8.49355736 14.9951075 8.56811907 15.0342476 8.69054756 14.9337287 8.61506533 14.8340993 8.69054756 14.8714603 8.56811907 14.7709414 8.49355736 14.8945886 8.49355736 14.9337287 8.37020835"></polyline>
            <polyline id="Fill-24" fill="#FFFFFF" points="15.5092661 8.47238551 15.5332839 8.54970877 15.6133432 8.54970877 15.5484062 8.59849606 15.5733136 8.67673983 15.5092661 8.62887306 15.4452187 8.67673983 15.4692365 8.59849606 15.4060786 8.54970877 15.4852483 8.54970877 15.5092661 8.47238551"></polyline>
            <polyline id="Fill-25" fill="#FFFFFF" points="15.1009637 8.77615545 15.1338769 8.88201467 15.2424018 8.88201467 15.1543365 8.94737123 15.1872498 9.05415097 15.1009637 8.98787389 15.0128984 9.05415097 15.0475908 8.94737123 14.958636 8.88201467 15.0662713 8.88201467 15.1009637 8.77615545"></polyline>
            <polyline id="Fill-26" fill="#FFFFFF" points="14.8429948 9.12687165 14.8750185 9.23181035 14.9817643 9.23181035 14.8972572 9.29532589 14.9301705 9.40026459 14.8429948 9.33490803 14.7584878 9.40026459 14.7922906 9.29532589 14.7042254 9.23181035 14.8109711 9.23181035 14.8429948 9.12687165"></polyline>
            <polyline id="Fill-27" fill="#FFFFFF" points="14.5138621 9.38185429 14.5405486 9.46193909 14.6197183 9.46193909 14.5547813 9.5116469 14.5814678 9.5917317 14.5138621 9.54202389 14.4480356 9.5917317 14.4729429 9.5116469 14.4071164 9.46193909 14.4889548 9.46193909 14.5138621 9.38185429"></polyline>
            <polyline id="Fill-28" fill="#FFFFFF" points="14.0806523 9.29532589 14.1073388 9.37449017 14.1865085 9.37449017 14.1224611 9.42327747 14.1464789 9.50336227 14.0806523 9.45365446 14.0174944 9.50336227 14.0415122 9.42327747 13.9765752 9.37449017 14.0584136 9.37449017 14.0806523 9.29532589"></polyline>
            <polyline id="Fill-29" fill="#FFFFFF" points="13.6154188 9.44168776 13.6429948 9.52729566 13.7292809 9.52729566 13.6598962 9.58068552 13.6865827 9.66629341 13.6154188 9.61290355 13.5451446 9.66629341 13.5727205 9.58068552 13.5033358 9.52729566 13.5887324 9.52729566 13.6154188 9.44168776"></polyline>
            <polyline id="Fill-30" fill="#FFFFFF" points="14.0895478 10.1431202 14.1144552 10.225046 14.1962936 10.225046 14.130467 10.2738333 14.1562639 10.3548386 14.0895478 10.3051308 14.0237213 10.3548386 14.0486286 10.2738333 13.9828021 10.225046 14.0637509 10.225046 14.0895478 10.1431202"></polyline>
            <polyline id="Fill-31" fill="#FFFFFF" points="13.2507042 9.77399366 13.284507 9.88261443 13.3957005 9.88261443 13.3058562 9.95073254 13.3405486 10.0602738 13.2507042 9.99215571 13.1599703 10.0602738 13.1955523 9.95073254 13.1048184 9.88261443 13.2160119 9.88261443 13.2507042 9.77399366"></polyline>
            <polyline id="Fill-32" fill="#FFFFFF" points="12.9277984 9.33030545 12.9544848 9.41407232 13.0407709 9.41407232 12.9713862 9.46470064 12.9989622 9.5484675 12.9277984 9.49783918 12.8601927 9.5484675 12.8859896 9.46470064 12.818384 9.41407232 12.9020015 9.41407232 12.9277984 9.33030545"></polyline>
            <polyline id="Fill-33" fill="#FFFFFF" points="14.1020015 9.67826011 14.1358043 9.78411933 14.2443291 9.78411933 14.1562639 9.85039641 14.1891772 9.95625563 14.1020015 9.88997855 14.0166049 9.95625563 14.0486286 9.85039641 13.9614529 9.78411933 14.0699778 9.78411933 14.1020015 9.67826011"></polyline>
            <polyline id="Fill-34" fill="#FFFFFF" points="12.0124537 10.3612822 12.0231282 10.4008643 12.0622683 10.4008643 12.0302446 10.4238772 12.0418087 10.4616183 12.0124537 10.4386055 11.9804299 10.4616183 11.9911045 10.4238772 11.9617494 10.4008643 12 10.4008643 12.0124537 10.3612822"></polyline>
            <polyline id="Fill-35" fill="#FFFFFF" points="13.1021497 6.65068641 13.1297257 6.73905585 13.2169014 6.73905585 13.1466271 6.79244572 13.1742031 6.87897412 13.1021497 6.82558426 13.0309859 6.87897412 13.0585619 6.79244572 12.9873981 6.73905585 13.0745738 6.73905585 13.1021497 6.65068641"></polyline>
            <polyline id="Fill-36" fill="#FFFFFF" points="12.0142328 7.58869115 12.0435878 7.68074265 12.1361008 7.68074265 12.0613788 7.73689406 12.0907339 7.82986607 12.0142328 7.77187363 11.9395107 7.82986607 11.9688658 7.73689406 11.8923647 7.68074265 11.9866568 7.68074265 12.0142328 7.58869115"></polyline>
            <polyline id="Fill-37" fill="#FFFFFF" points="12.4972572 7.97530744 12.5275019 8.07380254 12.6280208 8.07380254 12.5470719 8.13455652 12.5799852 8.23213111 12.4972572 8.17229764 12.4163084 8.23213111 12.4474426 8.13455652 12.3656042 8.07380254 12.4670126 8.07380254 12.4972572 7.97530744"></polyline>
            <polyline id="Fill-38" fill="#FFFFFF" points="11.5970348 7.98911516 11.6201631 8.06643842 11.7002224 8.06643842 11.6352854 8.11338468 11.6601927 8.19254897 11.5970348 8.14468219 11.5329874 8.19254897 11.5570052 8.11338468 11.4929577 8.06643842 11.571238 8.06643842 11.5970348 7.98911516"></polyline>
            <polyline id="Fill-39" fill="#FFFFFF" points="11.7962936 8.33799033 11.8123054 8.39230071 11.8656783 8.39230071 11.8212009 8.42267771 11.8389918 8.47422654 11.7962936 8.44292904 11.7544848 8.47422654 11.7696071 8.42267771 11.7277984 8.39230071 11.7793921 8.39230071 11.7962936 8.33799033"></polyline>
            <polyline id="Fill-40" fill="#FFFFFF" points="8.60370645 6.09837744 8.64106746 6.2189649 8.76382506 6.2189649 8.66508525 6.29260609 8.70244626 6.41319355 8.60370645 6.33863184 8.50496664 6.41319355 8.54232765 6.29260609 8.44447739 6.2189649 8.56634544 6.2189649 8.60370645 6.09837744"></polyline>
            <polyline id="Fill-41" fill="#FFFFFF" points="10.4014826 7.06399763 10.4317272 7.16249273 10.5331357 7.16249273 10.4521868 7.22416723 10.4842105 7.32266233 10.4014826 7.26190834 10.3205337 7.32266233 10.3525574 7.22416723 10.2707191 7.16249273 10.371238 7.16249273 10.4014826 7.06399763"></polyline>
            <polyline id="Fill-42" fill="#FFFFFF" points="8.97731653 7.90442779 9.01378799 8.02501524 9.13565604 8.02501524 9.03780578 8.10049747 9.07516679 8.22108493 8.97731653 8.1456027 8.87679763 8.22108493 8.91415864 8.10049747 8.81630838 8.02501524 8.93817643 8.02501524 8.97731653 7.90442779"></polyline>
            <polyline id="Fill-43" fill="#FFFFFF" points="9.38028169 7.72492737 9.39807265 7.78568136 9.46034099 7.78568136 9.40963677 7.82250195 9.42920682 7.88325594 9.38028169 7.84551483 9.33046701 7.88325594 9.35003706 7.82250195 9.30022239 7.78568136 9.36071164 7.78568136 9.38028169 7.72492737"></polyline>
            <polyline id="Fill-44" fill="#FFFFFF" points="9.84818384 8.35732114 9.87931801 8.46041882 9.98428466 8.46041882 9.90066716 8.52301384 9.93180133 8.625191 9.84818384 8.56167546 9.7636768 8.625191 9.79659007 8.52301384 9.71208302 8.46041882 9.81616012 8.46041882 9.84818384 8.35732114"></polyline>
            <polyline id="Fill-45" fill="#FFFFFF" points="10.3365456 9.14804349 10.3747961 9.26771044 10.4966642 9.26771044 10.3979244 9.34227215 10.4361749 9.46193909 10.3365456 9.3882979 10.2386953 9.46193909 10.2769459 9.34227215 10.1773165 9.26771044 10.2991846 9.26771044 10.3365456 9.14804349"></polyline>
            <polyline id="Fill-46" fill="#FFFFFF" points="9.71297257 8.78720163 9.74588584 8.88845827 9.84818384 8.88845827 9.76545589 8.95197381 9.79747961 9.05415097 9.71297257 8.99063544 9.62935508 9.05415097 9.6613788 8.95197381 9.57598221 8.88845827 9.68094885 8.88845827 9.71297257 8.78720163"></polyline>
            <polyline id="Fill-47" fill="#FFFFFF" points="8.4613788 8.34167239 8.48539659 8.42083668 8.56634544 8.42083668 8.50140845 8.47054448 8.52720534 8.54970877 8.4613788 8.50092148 8.39466271 8.54970877 8.4204596 8.47054448 8.35374351 8.42083668 8.43469236 8.42083668 8.4613788 8.34167239"></polyline>
            <polygon id="Fill-2-Copy" fill="#00923E" points="0 0 24 0 24 13.8947368 0 13.8947368"></polygon>
            <polyline id="Fill-3-Copy" fill="#F8C100" points="2.40444774 6.97194613 12 13.3124532 21.5955523 6.97194613 12 0.630518591 2.40444774 6.97194613"></polyline>
            <path d="M12,2.71824651 C14.2692365,2.71824651 16.1088213,4.62279196 16.1088213,6.97194613 C16.1088213,9.3211003 14.2692365,11.2247252 12,11.2247252 C9.72809489,11.2247252 7.88939956,9.3211003 7.88939956,6.97194613 C7.88939956,4.62279196 9.72809489,2.71824651 12,2.71824651" id="Fill-4-Copy" fill="#28166F"></path>
            <path d="M16.0883617,7.39906507 C14.2905856,5.91519496 11.9937732,5.06003657 9.51549296,5.15208806 C9.07783543,5.1668163 8.64640474,5.21560359 8.22475908,5.28740376 C8.1358043,5.49820169 8.06464047,5.71820476 8.01126761,5.94465144 C8.50496664,5.84247428 9.01378799,5.77711772 9.53684211,5.75870742 C11.982209,5.66941747 14.2434396,6.55587337 15.9682728,8.07932563 C16.0252039,7.86024307 16.0661231,7.63195536 16.0883617,7.39906507" id="Fill-5-Copy" fill="#FFFFFF"></path>
            <path d="M8.34217939,5.5919859 L8.34717939,5.4739859 L8.37817939,5.4079859 L8.43117939,5.3589859 L8.52517939,5.3269859 L8.69117939,5.3659859 L8.77617939,5.5269859 L8.74017939,5.7059859 L8.59317939,5.7889859 L8.42617939,5.7509859 L8.34217939,5.5919859 L8.34217939,5.5919859 Z M8.43517939,5.5759859 L8.48617939,5.6859859 L8.58117939,5.7119859 L8.66417939,5.6609859 L8.68117939,5.5389859 L8.63117939,5.4289859 L8.53617939,5.4049859 L8.45117939,5.4559859 L8.43517939,5.5759859 L8.43517939,5.5759859 Z" id="Fill-6-Copy" fill="#00923E"></path>
            <path d="M8.91312898,5.73691398 L8.87412898,5.28791398 L9.06312898,5.26991398 L9.17112898,5.27291398 L9.22712898,5.31091398 L9.25212898,5.38091398 L9.23112898,5.46591398 L9.14412898,5.51591398 L9.19712898,5.54891398 L9.25312898,5.61791398 L9.31712898,5.70091398 L9.20912898,5.71091398 L9.13412898,5.61891398 L9.08212898,5.55691398 L9.05212898,5.53991398 L9.00512898,5.53891398 L8.98712898,5.54091398 L9.00412898,5.72891398 L8.91312898,5.73691398 L8.91312898,5.73691398 Z M8.98112898,5.46891398 L9.04712898,5.46291398 L9.12812898,5.45091398 L9.15312898,5.42891398 L9.16012898,5.39491398 L9.14412898,5.35791398 L9.10812898,5.34491398 L9.04112898,5.34891398 L8.97012898,5.35491398 L8.98112898,5.46891398 L8.98112898,5.46891398 Z" id="Fill-7-Copy" fill="#00923E"></path>
            <path d="M9.39451446,5.24261647 L9.56251446,5.23861647 L9.64751446,5.24361647 L9.71651446,5.28461647 L9.76251446,5.35561647 L9.77951446,5.46261647 L9.76751446,5.55861647 L9.72351446,5.63961647 L9.65951446,5.67761647 L9.57851446,5.68961647 L9.40751446,5.69361647 L9.39451446,5.24261647 L9.39451446,5.24261647 Z M9.48851446,5.31661647 L9.49651446,5.61561647 L9.56451446,5.61361647 L9.62051446,5.60761647 L9.65551446,5.58761647 L9.67851446,5.54261647 L9.68651446,5.46061647 L9.67451446,5.38061647 L9.64551446,5.33761647 L9.60351446,5.31761647 L9.52851446,5.31561647 L9.48851446,5.31661647 L9.48851446,5.31661647 Z" id="Fill-8-Copy" fill="#00923E"></path>
            <polyline id="Fill-9-Copy" fill="#00923E" points="9.90066716 5.64640459 9.9051149 5.23033183 10.204003 5.23493441 10.2031134 5.30581406 9.9851742 5.302132 9.98428466 5.3941835 10.1853225 5.39694504 10.1844329 5.46782469 9.98250556 5.46414263 9.98072646 5.57828649 10.2057821 5.58012752 10.2048925 5.65100717 9.90066716 5.64640459"></polyline>
            <polyline id="Fill-10-Copy" fill="#00923E" points="10.3667902 5.65745077 10.3943662 5.24229853 10.5153447 5.25058316 10.5696071 5.53870434 10.6594514 5.26162934 10.7813195 5.26991398 10.752854 5.68506622 10.6790215 5.68046365 10.7003706 5.35276032 10.5980726 5.67402004 10.5215715 5.66849695 10.4646405 5.33527054 10.4406227 5.66113283 10.3667902 5.65745077"></polyline>
            <polyline id="Fill-11-Copy" fill="#00923E" points="11.1691623 5.73477403 11.228762 5.32330384 11.5240919 5.37025011 11.5134173 5.43928873 11.2999259 5.40615019 11.2848036 5.49728117 11.4858414 5.52765817 11.4742772 5.5976173 11.2759081 5.56631979 11.2590067 5.67862262 11.4822832 5.71268167 11.4707191 5.78264081 11.1691623 5.73477403"></polyline>
            <path d="M11.8674574,5.895858 L11.9694574,5.455858 L12.1114574,5.488858 L12.2154574,5.518858 L12.2694574,5.576858 L12.2754574,5.668858 L12.2444574,5.733858 L12.1974574,5.768858 L12.1454574,5.777858 L12.0514574,5.762858 L11.9944574,5.749858 L11.9564574,5.916858 L11.8674574,5.895858 L11.8674574,5.895858 Z M12.0414574,5.550858 L12.0104574,5.674858 L12.0594574,5.686858 L12.1324574,5.696858 L12.1654574,5.680858 L12.1824574,5.648858 L12.1764574,5.605858 L12.1454574,5.577858 L12.0834574,5.559858 L12.0414574,5.550858 L12.0414574,5.550858 Z" id="Fill-12-Copy" fill="#00923E"></path>
            <path d="M12.3237954,6.00860443 L12.4477954,5.57460443 L12.6317954,5.62760443 L12.7297954,5.66760443 L12.7687954,5.72360443 L12.7687954,5.79760443 L12.7157954,5.87060443 L12.6187954,5.88560443 L12.6547954,5.93560443 L12.6837954,6.02060443 L12.7147954,6.12160443 L12.6097954,6.09060443 L12.5717954,5.97760443 L12.5447954,5.90060443 L12.5237954,5.87460443 L12.4807954,5.85760443 L12.4627954,5.85260443 L12.4117954,6.03360443 L12.3237954,6.00860443 L12.3237954,6.00860443 Z M12.4837954,5.78360443 L12.5477954,5.80260443 L12.6277954,5.81860443 L12.6577954,5.80860443 L12.6767954,5.77760443 L12.6747954,5.73960443 L12.6467954,5.71260443 L12.5817954,5.69260443 L12.5157954,5.67360443 L12.4837954,5.78360443 L12.4837954,5.78360443 Z" id="Fill-13-Copy" fill="#00923E"></path>
            <path d="M12.84596,5.93215102 L12.90296,5.82915102 L12.96096,5.78515102 L13.03096,5.76515102 L13.12996,5.78115102 L13.25896,5.89115102 L13.25896,6.07415102 L13.14796,6.21615102 L12.97796,6.22215102 L12.84596,6.11215102 L12.84596,5.93215102 L12.84596,5.93215102 Z M12.93596,5.96015102 L12.92996,6.08115102 L13.00396,6.14915102 L13.09896,6.14015102 L13.17096,6.04115102 L13.17796,5.92015102 L13.10396,5.85415102 L13.00696,5.86115102 L12.93596,5.96015102 L12.93596,5.96015102 Z" id="Fill-14-Copy" fill="#00923E"></path>
            <polyline id="Fill-15-Copy" fill="#00923E" points="13.5229059 6.23553417 13.5495923 6.17017761 13.71149 6.23921623 13.6518903 6.39202171 13.5656042 6.40490892 13.4677539 6.38465759 13.3761305 6.31653948 13.3405486 6.21620335 13.3592291 6.10298001 13.4268347 6.00724646 13.5255745 5.96582328 13.6216457 5.9851541 13.7186064 6.06063633 13.7337287 6.16557503 13.6545589 6.14808525 13.6429948 6.0900928 13.5958488 6.05143118 13.5051149 6.04959015 13.4366197 6.13335701 13.4268347 6.24842138 13.4899926 6.31653948 13.5406968 6.32574463 13.5905115 6.32114206 13.6109711 6.27143425 13.5229059 6.23553417"></polyline>
            <path d="M13.7835434,6.54864164 L13.9775434,6.14164164 L14.1495434,6.22364164 L14.2395434,6.27964164 L14.2695434,6.34164164 L14.2555434,6.41464164 L14.1935434,6.47864164 L14.0955434,6.47664164 L14.1215434,6.53164164 L14.1385434,6.62064164 L14.1495434,6.72364164 L14.0515434,6.67664164 L14.0345434,6.55964164 L14.0195434,6.47864164 L14.0025434,6.44964164 L13.9635434,6.42564164 L13.9465434,6.41864164 L13.8655434,6.58864164 L13.7835434,6.54864164 L13.7835434,6.54864164 Z M13.9775434,6.35264164 L14.0395434,6.38164164 L14.1145434,6.41164164 L14.1455434,6.40564164 L14.1695434,6.37964164 L14.1735434,6.34064164 L14.1495434,6.30964164 L14.0925434,6.27964164 L14.0255434,6.24964164 L13.9775434,6.35264164 L13.9775434,6.35264164 Z" id="Fill-16-Copy" fill="#00923E"></path>
            <polyline id="Fill-17-Copy" fill="#00923E" points="14.2265382 6.74089688 14.4195701 6.37545244 14.6802076 6.52181432 14.6481838 6.58348882 14.4560415 6.47670909 14.4142328 6.55863492 14.5921423 6.65713002 14.5592291 6.71972503 14.3830986 6.6193889 14.3315048 6.71972503 14.5280949 6.82926631 14.4960712 6.89186133 14.2265382 6.74089688"></polyline>
            <polyline id="Fill-18-Copy" fill="#00923E" points="14.6846553 6.8467561 14.7549296 6.88173567 14.7487027 6.94985377 14.7896219 6.99772055 14.8483321 7.01428982 14.8865827 6.99127695 14.8928095 6.9636615 14.8750185 6.93420502 14.8296516 6.8835767 14.7709414 6.79980984 14.7825056 6.70775834 14.826983 6.66633517 14.8901408 6.65713002 14.9648629 6.68750701 15.0449222 6.77771748 15.0342476 6.87805361 14.9621942 6.83755095 14.9675315 6.78600211 14.9301705 6.74549945 14.8750185 6.72893018 14.8510007 6.74457894 14.8483321 6.77219439 14.8990363 6.83570992 14.9577465 6.9084306 14.9746479 6.96918459 14.9550778 7.03362064 14.9061527 7.08148741 14.836768 7.09161308 14.75404 7.05755402 14.6722016 6.9636615 14.6846553 6.8467561"></polyline>
            <polyline id="Fill-19-Copy" fill="#00923E" points="15.0858414 7.10357977 15.1552261 7.14316192 15.1463306 7.20851848 15.1854707 7.2591468 15.2441809 7.27939813 15.2815419 7.25730577 15.2877687 7.23245187 15.2744255 7.20023384 15.2299481 7.14776449 15.1756857 7.06031557 15.1916976 6.9701051 15.237954 6.93052296 15.302891 6.92499987 15.3749444 6.95813841 15.450556 7.05295145 15.4354337 7.15236707 15.3651594 7.10910286 15.3713862 7.05755402 15.3375834 7.01613085 15.283321 6.99680004 15.2575241 7.00968725 15.2548554 7.03822321 15.3011119 7.10450029 15.358043 7.179062 15.3713862 7.2407365 15.3500371 7.30425203 15.2966642 7.34935727 15.2272795 7.35672139 15.1463306 7.31805976 15.06894 7.22048517 15.0858414 7.10357977"></polyline>
            <path d="M15.525126,7.33369032 L15.612126,7.25469032 L15.682126,7.22969032 L15.753126,7.23269032 L15.843126,7.27769032 L15.932126,7.42369032 L15.876126,7.59769032 L15.725126,7.69769032 L15.561126,7.65169032 L15.470126,7.50569032 L15.525126,7.33369032 L15.525126,7.33369032 Z M15.601126,7.38869032 L15.561126,7.50369032 L15.608126,7.58869032 L15.703126,7.61169032 L15.804126,7.53869032 L15.845126,7.42569032 L15.796126,7.34069032 L15.700126,7.31669032 L15.601126,7.38869032 L15.601126,7.38869032 Z" id="Fill-20-Copy" fill="#00923E"></path>
            <polyline id="Fill-21-Copy" fill="#FFFFFF" points="13.3049666 5.3573629 13.3432172 5.47702984 13.4650852 5.47702984 13.3663454 5.55159155 13.4037064 5.6712585 13.3049666 5.5976173 13.2062268 5.6712585 13.2453669 5.55159155 13.1466271 5.47702984 13.2676056 5.47702984 13.3049666 5.3573629"></polyline>
            <polyline id="Fill-22-Copy" fill="#FFFFFF" points="12.0169014 8.79272472 12.0542624 8.91239166 12.1761305 8.91239166 12.0773907 8.98695338 12.1147517 9.10754083 12.0169014 9.03297912 11.9181616 9.10754083 11.9555226 8.98695338 11.8576723 8.91239166 11.9786509 8.91239166 12.0169014 8.79272472"></polyline>
            <polyline id="Fill-23-Copy" fill="#FFFFFF" points="14.9337287 8.37020835 14.9719792 8.49355736 15.0965159 8.49355736 14.9951075 8.56811907 15.0342476 8.69054756 14.9337287 8.61506533 14.8340993 8.69054756 14.8714603 8.56811907 14.7709414 8.49355736 14.8945886 8.49355736 14.9337287 8.37020835"></polyline>
            <polyline id="Fill-24-Copy" fill="#FFFFFF" points="15.5092661 8.47238551 15.5332839 8.54970877 15.6133432 8.54970877 15.5484062 8.59849606 15.5733136 8.67673983 15.5092661 8.62887306 15.4452187 8.67673983 15.4692365 8.59849606 15.4060786 8.54970877 15.4852483 8.54970877 15.5092661 8.47238551"></polyline>
            <polyline id="Fill-25-Copy" fill="#FFFFFF" points="15.1009637 8.77615545 15.1338769 8.88201467 15.2424018 8.88201467 15.1543365 8.94737123 15.1872498 9.05415097 15.1009637 8.98787389 15.0128984 9.05415097 15.0475908 8.94737123 14.958636 8.88201467 15.0662713 8.88201467 15.1009637 8.77615545"></polyline>
            <polyline id="Fill-26-Copy" fill="#FFFFFF" points="14.8429948 9.12687165 14.8750185 9.23181035 14.9817643 9.23181035 14.8972572 9.29532589 14.9301705 9.40026459 14.8429948 9.33490803 14.7584878 9.40026459 14.7922906 9.29532589 14.7042254 9.23181035 14.8109711 9.23181035 14.8429948 9.12687165"></polyline>
            <polyline id="Fill-27-Copy" fill="#FFFFFF" points="14.5138621 9.38185429 14.5405486 9.46193909 14.6197183 9.46193909 14.5547813 9.5116469 14.5814678 9.5917317 14.5138621 9.54202389 14.4480356 9.5917317 14.4729429 9.5116469 14.4071164 9.46193909 14.4889548 9.46193909 14.5138621 9.38185429"></polyline>
            <polyline id="Fill-28-Copy" fill="#FFFFFF" points="14.0806523 9.29532589 14.1073388 9.37449017 14.1865085 9.37449017 14.1224611 9.42327747 14.1464789 9.50336227 14.0806523 9.45365446 14.0174944 9.50336227 14.0415122 9.42327747 13.9765752 9.37449017 14.0584136 9.37449017 14.0806523 9.29532589"></polyline>
            <polyline id="Fill-29-Copy" fill="#FFFFFF" points="13.6154188 9.44168776 13.6429948 9.52729566 13.7292809 9.52729566 13.6598962 9.58068552 13.6865827 9.66629341 13.6154188 9.61290355 13.5451446 9.66629341 13.5727205 9.58068552 13.5033358 9.52729566 13.5887324 9.52729566 13.6154188 9.44168776"></polyline>
            <polyline id="Fill-30-Copy" fill="#FFFFFF" points="14.0895478 10.1431202 14.1144552 10.225046 14.1962936 10.225046 14.130467 10.2738333 14.1562639 10.3548386 14.0895478 10.3051308 14.0237213 10.3548386 14.0486286 10.2738333 13.9828021 10.225046 14.0637509 10.225046 14.0895478 10.1431202"></polyline>
            <polyline id="Fill-31-Copy" fill="#FFFFFF" points="13.2507042 9.77399366 13.284507 9.88261443 13.3957005 9.88261443 13.3058562 9.95073254 13.3405486 10.0602738 13.2507042 9.99215571 13.1599703 10.0602738 13.1955523 9.95073254 13.1048184 9.88261443 13.2160119 9.88261443 13.2507042 9.77399366"></polyline>
            <polyline id="Fill-32-Copy" fill="#FFFFFF" points="12.9277984 9.33030545 12.9544848 9.41407232 13.0407709 9.41407232 12.9713862 9.46470064 12.9989622 9.5484675 12.9277984 9.49783918 12.8601927 9.5484675 12.8859896 9.46470064 12.818384 9.41407232 12.9020015 9.41407232 12.9277984 9.33030545"></polyline>
            <polyline id="Fill-33-Copy" fill="#FFFFFF" points="14.1020015 9.67826011 14.1358043 9.78411933 14.2443291 9.78411933 14.1562639 9.85039641 14.1891772 9.95625563 14.1020015 9.88997855 14.0166049 9.95625563 14.0486286 9.85039641 13.9614529 9.78411933 14.0699778 9.78411933 14.1020015 9.67826011"></polyline>
            <polyline id="Fill-34-Copy" fill="#FFFFFF" points="12.0124537 10.3612822 12.0231282 10.4008643 12.0622683 10.4008643 12.0302446 10.4238772 12.0418087 10.4616183 12.0124537 10.4386055 11.9804299 10.4616183 11.9911045 10.4238772 11.9617494 10.4008643 12 10.4008643 12.0124537 10.3612822"></polyline>
            <polyline id="Fill-35-Copy" fill="#FFFFFF" points="13.1021497 6.65068641 13.1297257 6.73905585 13.2169014 6.73905585 13.1466271 6.79244572 13.1742031 6.87897412 13.1021497 6.82558426 13.0309859 6.87897412 13.0585619 6.79244572 12.9873981 6.73905585 13.0745738 6.73905585 13.1021497 6.65068641"></polyline>
            <polyline id="Fill-36-Copy" fill="#FFFFFF" points="12.0142328 7.58869115 12.0435878 7.68074265 12.1361008 7.68074265 12.0613788 7.73689406 12.0907339 7.82986607 12.0142328 7.77187363 11.9395107 7.82986607 11.9688658 7.73689406 11.8923647 7.68074265 11.9866568 7.68074265 12.0142328 7.58869115"></polyline>
            <polyline id="Fill-37-Copy" fill="#FFFFFF" points="12.4972572 7.97530744 12.5275019 8.07380254 12.6280208 8.07380254 12.5470719 8.13455652 12.5799852 8.23213111 12.4972572 8.17229764 12.4163084 8.23213111 12.4474426 8.13455652 12.3656042 8.07380254 12.4670126 8.07380254 12.4972572 7.97530744"></polyline>
            <polyline id="Fill-38-Copy" fill="#FFFFFF" points="11.5970348 7.98911516 11.6201631 8.06643842 11.7002224 8.06643842 11.6352854 8.11338468 11.6601927 8.19254897 11.5970348 8.14468219 11.5329874 8.19254897 11.5570052 8.11338468 11.4929577 8.06643842 11.571238 8.06643842 11.5970348 7.98911516"></polyline>
            <polyline id="Fill-39-Copy" fill="#FFFFFF" points="11.7962936 8.33799033 11.8123054 8.39230071 11.8656783 8.39230071 11.8212009 8.42267771 11.8389918 8.47422654 11.7962936 8.44292904 11.7544848 8.47422654 11.7696071 8.42267771 11.7277984 8.39230071 11.7793921 8.39230071 11.7962936 8.33799033"></polyline>
            <polyline id="Fill-40-Copy" fill="#FFFFFF" points="8.60370645 6.09837744 8.64106746 6.2189649 8.76382506 6.2189649 8.66508525 6.29260609 8.70244626 6.41319355 8.60370645 6.33863184 8.50496664 6.41319355 8.54232765 6.29260609 8.44447739 6.2189649 8.56634544 6.2189649 8.60370645 6.09837744"></polyline>
            <polyline id="Fill-41-Copy" fill="#FFFFFF" points="10.4014826 7.06399763 10.4317272 7.16249273 10.5331357 7.16249273 10.4521868 7.22416723 10.4842105 7.32266233 10.4014826 7.26190834 10.3205337 7.32266233 10.3525574 7.22416723 10.2707191 7.16249273 10.371238 7.16249273 10.4014826 7.06399763"></polyline>
            <polyline id="Fill-42-Copy" fill="#FFFFFF" points="8.97731653 7.90442779 9.01378799 8.02501524 9.13565604 8.02501524 9.03780578 8.10049747 9.07516679 8.22108493 8.97731653 8.1456027 8.87679763 8.22108493 8.91415864 8.10049747 8.81630838 8.02501524 8.93817643 8.02501524 8.97731653 7.90442779"></polyline>
            <polyline id="Fill-43-Copy" fill="#FFFFFF" points="9.38028169 7.72492737 9.39807265 7.78568136 9.46034099 7.78568136 9.40963677 7.82250195 9.42920682 7.88325594 9.38028169 7.84551483 9.33046701 7.88325594 9.35003706 7.82250195 9.30022239 7.78568136 9.36071164 7.78568136 9.38028169 7.72492737"></polyline>
            <polyline id="Fill-44-Copy" fill="#FFFFFF" points="9.84818384 8.35732114 9.87931801 8.46041882 9.98428466 8.46041882 9.90066716 8.52301384 9.93180133 8.625191 9.84818384 8.56167546 9.7636768 8.625191 9.79659007 8.52301384 9.71208302 8.46041882 9.81616012 8.46041882 9.84818384 8.35732114"></polyline>
            <polyline id="Fill-45-Copy" fill="#FFFFFF" points="10.3365456 9.14804349 10.3747961 9.26771044 10.4966642 9.26771044 10.3979244 9.34227215 10.4361749 9.46193909 10.3365456 9.3882979 10.2386953 9.46193909 10.2769459 9.34227215 10.1773165 9.26771044 10.2991846 9.26771044 10.3365456 9.14804349"></polyline>
            <polyline id="Fill-46-Copy" fill="#FFFFFF" points="9.71297257 8.78720163 9.74588584 8.88845827 9.84818384 8.88845827 9.76545589 8.95197381 9.79747961 9.05415097 9.71297257 8.99063544 9.62935508 9.05415097 9.6613788 8.95197381 9.57598221 8.88845827 9.68094885 8.88845827 9.71297257 8.78720163"></polyline>
            <polyline id="Fill-47-Copy" fill="#FFFFFF" points="8.4613788 8.34167239 8.48539659 8.42083668 8.56634544 8.42083668 8.50140845 8.47054448 8.52720534 8.54970877 8.4613788 8.50092148 8.39466271 8.54970877 8.4204596 8.47054448 8.35374351 8.42083668 8.43469236 8.42083668 8.4613788 8.34167239"></polyline>
        </g>
    </g>
</svg>