<?xml version="1.0" encoding="UTF-8"?>
<svg width="24px" height="24px" viewBox="0 0 24 24" version="1.1" xmlns="http://www.w3.org/2000/svg" xmlns:xlink="http://www.w3.org/1999/xlink">
    <!-- Generator: Sketch 54.1 (76490) - https://sketchapp.com -->
    <title>Canada</title>
    <desc>Created with Sketch.</desc>
    <g id="Canada" stroke="none" stroke-width="1" fill="none" fill-rule="evenodd">
        <polygon id="Fill-2" fill="#E31937" points="0 5 6 5 6 18.5612011 0 18.5612011"></polygon>
        <polygon id="Fill-3" fill="#FFFFFF" points="6 5 18 5 18 18.5612011 6 18.5612011"></polygon>
        <polygon id="Fill-4" fill="#E31937" points="18 5 24 5 24 18.5612011 18 18.5612011"></polygon>
        <path d="M12,16.3596829 L12.1903632,16.3596829 L12.1289844,14.2207421 L12.3051149,14.0933255 C13.0959229,14.1732436 13.8057821,14.2448684 14.5974796,14.3262944 L14.3955523,13.7419873 C14.3635285,13.6394509 14.409785,13.5271131 14.4996294,13.4645357 L16.7982209,11.8103813 L16.3223128,11.6120939 C16.1132691,11.5457468 16.1728688,11.4417024 16.2475908,11.1906389 L16.5971831,10.060476 L15.2628614,10.3092777 C15.1320979,10.3266184 15.0458117,10.2534858 15.0262417,10.1833689 L14.8527798,9.65183802 L13.7977761,10.699067 C13.6483321,10.8671967 13.3441067,10.8671967 13.4383988,10.4789152 L13.8902891,8.35731519 L13.284507,8.63552074 C13.1146034,8.71845464 12.9446998,8.73277959 12.8495182,8.58274462 L12,7.2022721 L11.1504818,8.58274462 C11.0561898,8.73277959 10.8853966,8.71845464 10.7163825,8.63552074 L10.11149,8.35731519 L10.5624907,10.4789152 C10.6567828,10.8671967 10.3525574,10.8671967 10.2022239,10.699067 L9.14633062,9.65183802 L8.97464789,10.1833689 C8.95507784,10.2534858 8.8687917,10.3266184 8.73802817,10.3092777 L7.4028169,10.060476 L7.75329874,11.1906389 C7.8289103,11.4417024 7.88762046,11.5457468 7.67857672,11.6120939 L7.2017791,11.8103813 L9.50126019,13.4645357 C9.59110452,13.5271131 9.63825056,13.6394509 9.60533729,13.7419873 L9.40429948,14.3262944 C10.1951075,14.2448684 10.9049666,14.1732436 11.6957746,14.0933255 L11.8710156,14.2207421 L11.8105263,16.3596829 L12,16.3596829" id="Fill-5" fill="#E31937"></path>
        <polygon id="Fill-2-Copy" fill="#E31937" points="0 5 6 5 6 18.5612011 0 18.5612011"></polygon>
        <polygon id="Fill-3-Copy" fill="#FFFFFF" points="6 5 18 5 18 18.5612011 6 18.5612011"></polygon>
        <polygon id="Fill-4-Copy" fill="#E31937" points="18 5 24 5 24 18.5612011 18 18.5612011"></polygon>
        <path d="M12,16.3596829 L12.1903632,16.3596829 L12.1289844,14.2207421 L12.3051149,14.0933255 C13.0959229,14.1732436 13.8057821,14.2448684 14.5974796,14.3262944 L14.3955523,13.7419873 C14.3635285,13.6394509 14.409785,13.5271131 14.4996294,13.4645357 L16.7982209,11.8103813 L16.3223128,11.6120939 C16.1132691,11.5457468 16.1728688,11.4417024 16.2475908,11.1906389 L16.5971831,10.060476 L15.2628614,10.3092777 C15.1320979,10.3266184 15.0458117,10.2534858 15.0262417,10.1833689 L14.8527798,9.65183802 L13.7977761,10.699067 C13.6483321,10.8671967 13.3441067,10.8671967 13.4383988,10.4789152 L13.8902891,8.35731519 L13.284507,8.63552074 C13.1146034,8.71845464 12.9446998,8.73277959 12.8495182,8.58274462 L12,7.2022721 L11.1504818,8.58274462 C11.0561898,8.73277959 10.8853966,8.71845464 10.7163825,8.63552074 L10.11149,8.35731519 L10.5624907,10.4789152 C10.6567828,10.8671967 10.3525574,10.8671967 10.2022239,10.699067 L9.14633062,9.65183802 L8.97464789,10.1833689 C8.95507784,10.2534858 8.8687917,10.3266184 8.73802817,10.3092777 L7.4028169,10.060476 L7.75329874,11.1906389 C7.8289103,11.4417024 7.88762046,11.5457468 7.67857672,11.6120939 L7.2017791,11.8103813 L9.50126019,13.4645357 C9.59110452,13.5271131 9.63825056,13.6394509 9.60533729,13.7419873 L9.40429948,14.3262944 C10.1951075,14.2448684 10.9049666,14.1732436 11.6957746,14.0933255 L11.8710156,14.2207421 L11.8105263,16.3596829 L12,16.3596829" id="Fill-5-Copy" fill="#E31937"></path>
    </g>
</svg>