<?xml version="1.0" encoding="UTF-8"?>
<svg width="24px" height="24px" viewBox="0 0 24 24" version="1.1" xmlns="http://www.w3.org/2000/svg" xmlns:xlink="http://www.w3.org/1999/xlink">
    <!-- Generator: Sketch 54.1 (76490) - https://sketchapp.com -->
    <title>Hong Kong</title>
    <desc>Created with Sketch.</desc>
    <g id="Hong-Kong" stroke="none" stroke-width="1" fill="none" fill-rule="evenodd">
        <polygon id="Fill-2" fill="#FF0000" points="0 5 24 5 24 18.5652174 0 18.5652174"></polygon>
        <g id="Group" transform="translate(7.578947, 7.466403)">
            <polyline id="Fill-3" fill="#FF0000" points="4.14425381 4.27849504 4.20611316 4.33819365 4.14425381 4.39829837 4.08280962 4.33819365 4.14425381 4.27849504"></polyline>
            <path d="M4.20057765,4.38936388 C3.08814717,3.96398956 2.55819102,2.63280927 3.02210158,1.58521186 C3.27593944,1.010504 4.2125136,0.220846341 5.36393485,0.493116078 C4.9191218,0.70504903 4.62072307,0.996174011 4.90957304,1.41023519 C5.22786503,1.86577791 5.07826779,2.5506004 4.46078135,2.82513277 C3.98095618,3.04008256 3.5592193,3.83351126 4.20057765,4.38936388" id="Fill-4" fill="#FFFFFF"></path>
            <path d="M4.18227586,4.40972755 C3.94833125,4.22947141 3.57354244,4.0363937 3.48044204,3.31386071 L3.46532317,3.08307252 C3.46532317,2.50006834 3.76451763,2.16595341 3.76690482,2.16369078 L3.80509986,2.16067394 L3.80828278,2.19838443 C3.80987424,2.19838443 3.73666709,2.27606804 3.66425566,2.42690999 C3.59263996,2.57775195 3.51943281,2.80024384 3.51943281,3.08307252 L3.53455168,3.30707283 C3.62924354,4.01376741 3.9761818,4.18120198 4.21808371,4.36824601 L4.22206236,4.40520229 L4.20057765,4.41500702 L4.18227586,4.40972755" id="Fill-5" fill="#FF0000"></path>
            <polyline id="Fill-6" fill="#FF0000" points="3.84886501 1.54523874 4.04063593 1.70663964 4.26105313 1.58370344 4.15840396 1.80544112 4.34858342 1.96759623 4.09474557 1.94346152 3.9920964 2.1651992 3.93719103 1.92913153 3.68255745 1.90424261 3.90377038 1.78206062 3.84886501 1.54523874"></polyline>
            <path d="M4.20057765,4.38936388 C4.28651649,3.25578656 5.46021817,2.36883584 6.65460884,2.46537469 C7.30790314,2.51816938 8.39009588,3.1200288 8.46887315,4.24304718 C8.12113915,3.9059154 7.73600585,3.72565926 7.40896084,4.11483152 C7.05088236,4.54020584 6.31642361,4.61638103 5.85092158,4.14499991 C5.48886445,3.77619132 4.56183905,3.63967935 4.20057765,4.38936388" id="Fill-7" fill="#FFFFFF"></path>
            <path d="M4.17511429,4.37955916 C4.28333357,4.11181468 4.36290656,3.71510033 5.05917028,3.40964536 L5.28674904,3.32441965 C5.87240629,3.14567193 6.29812182,3.3131065 6.30130474,3.31461492 L6.31642361,3.34855437 L6.28141149,3.36213014 C6.27982003,3.36288435 6.18035379,3.32215702 6.00608893,3.30330178 C5.83261979,3.28444653 5.5883307,3.28746337 5.30345937,3.3741975 L5.08304217,3.45640637 C4.40269306,3.75809028 4.33983039,4.12312783 4.22683674,4.3984144 L4.19023316,4.4134986 L4.17431856,4.39690598 L4.17511429,4.37955916" id="Fill-8" fill="#FF0000"></path>
            <polyline id="Fill-9" fill="#FF0000" points="6.94743747 3.19922083 6.84558403 3.4202043 7.03496776 3.5823594 6.78192563 3.5589789 6.67848074 3.77996237 6.62516683 3.54314049 6.36894179 3.51900578 6.59174617 3.39606958 6.53604508 3.16000192 6.727816 3.32140281 6.94743747 3.19922083"></polyline>
            <path d="M4.20057765,4.38936388 C5.36552631,4.11935678 6.61561807,4.90524338 6.88616626,6.01166916 C7.03178484,6.61880804 6.75884947,7.77878271 5.65596774,8.1943523 C5.88752516,7.77727429 5.95118356,7.37528047 5.46021817,7.19954958 C4.92230472,7.00647188 4.6215188,6.36690197 4.95333819,5.80275304 C5.2111547,5.36229452 5.06314893,4.48514853 4.20057765,4.38936388" id="Fill-10" fill="#FFFFFF"></path>
            <path d="M4.20216911,4.36296654 C4.50454649,4.37880495 4.92787483,4.32751868 5.4474865,4.86300764 L5.60265384,5.04175536 C5.96311951,5.51615332 5.92492447,5.95133237 5.92492447,5.95510342 L5.893891,5.97923813 L5.8700191,5.95133237 C5.8700191,5.95133237 5.87877213,5.84725142 5.84376001,5.68509631 C5.8087479,5.522187 5.73235782,5.30195774 5.55809296,5.07192375 L5.4077,4.8984555 C4.89604563,4.37578811 4.5101166,4.43386226 4.19898619,4.41500702 L4.17352283,4.38785546 L4.18545878,4.36824601 L4.20216911,4.36296654" id="Fill-11" fill="#FF0000"></path>
            <polyline id="Fill-12" fill="#FF0000" points="6.23764634 6.50265973 5.98380849 6.47777081 5.88115932 6.69875428 5.82784541 6.46268661 5.57162037 6.43704348 5.79362903 6.3156157 5.74031512 6.07879383 5.93049458 6.24094893 6.15250324 6.11952116 6.04826261 6.34050463 6.23764634 6.50265973"></polyline>
            <path d="M4.20057765,4.38936388 C4.83000005,5.35701505 4.42338204,6.72590583 3.3945032,7.30891 C2.83112639,7.62794075 1.58183036,7.73805538 0.826682629,6.87071411 C1.31685228,6.95066035 1.73858916,6.88428989 1.76484825,6.38726563 C1.79429026,5.84423458 2.34413966,5.37511609 3.01175709,5.50106912 C3.53375595,5.59987061 4.3692724,5.19636837 4.20057765,4.38936388" id="Fill-13" fill="#FFFFFF"></path>
            <path d="M4.22763247,4.382576 C4.30402255,4.65937099 4.48544898,5.02516274 4.10668152,5.65945318 L3.97538607,5.8532851 C3.61014602,6.3231578 3.1605586,6.42422191 3.15737568,6.42422191 L3.12395502,6.40536667 L3.144644,6.37444407 C3.144644,6.37368986 3.25047608,6.35106356 3.40405196,6.26960891 C3.55603638,6.18890846 3.75337741,6.05013385 3.9308252,5.8223625 L4.05814199,5.63381005 C4.42656496,5.01309539 4.25150437,4.68199728 4.17431856,4.39539756 L4.19500754,4.36372075 L4.21728798,4.36824601 L4.22763247,4.382576" id="Fill-14" fill="#FF0000"></path>
            <polyline id="Fill-15" fill="#FF0000" points="2.7038096 6.87599358 2.65129142 6.63766329 2.39665784 6.61352857 2.61866649 6.4921008 2.56455686 6.25527892 2.75473632 6.41667982 2.97754071 6.29676046 2.87170862 6.51774393 3.06188808 6.68065324 2.80725449 6.65350169 2.7038096 6.87599358"></polyline>
            <path d="M4.20057765,4.38936388 C3.42076229,5.25217989 1.92240278,5.306483 1.02163647,4.55679846 C0.528283895,4.14726254 0.0349313209,3.05365834 0.673902477,2.10637083 C0.744722443,2.57247249 0.939676283,2.93373898 1.44655627,2.8047691 C2.00197578,2.66448608 2.6401512,3.01670206 2.71892847,3.65853459 C2.78099541,4.15857569 3.44145127,4.78758666 4.20057765,4.38936388" id="Fill-16" fill="#FFFFFF"></path>
            <path d="M4.21490079,4.41199018 C3.96106293,4.56509477 3.64834106,4.84113555 2.89637625,4.69406464 L2.66004445,4.63448207 C2.07757012,4.44970067 1.83885114,4.0748584 1.83646395,4.07334998 L1.83646395,4.07259577 L1.84521698,4.0363937 L1.88420774,4.04544422 C1.88420774,4.04544422 1.93990884,4.13368676 2.06722563,4.24681823 C2.19613389,4.3599497 2.39506638,4.49570747 2.67834624,4.58621264 L2.90672074,4.64202417 C3.64356668,4.78381561 3.92207217,4.52436744 4.18625451,4.36673759 L4.22444955,4.3750339 L4.22683674,4.39766019 L4.21490079,4.41199018" id="Fill-17" fill="#FF0000"></path>
            <polyline id="Fill-18" fill="#FF0000" points="1.24444086 3.80183445 1.46644952 3.68116089 1.41393134 3.4435848 1.60331507 3.60649412 1.82532373 3.48582055 1.72028737 3.70680402 1.9096711 3.86971333 1.65662898 3.84331599 1.55000116 4.06505367 1.49827871 3.82747759 1.24444086 3.80183445"></polyline>
        </g>
    </g>
</svg>