<?xml version="1.0" encoding="UTF-8"?>
<svg width="24px" height="24px" viewBox="0 0 24 24" version="1.1" xmlns="http://www.w3.org/2000/svg" xmlns:xlink="http://www.w3.org/1999/xlink">
    <!-- Generator: Sketch 54.1 (76490) - https://sketchapp.com -->
    <title>India</title>
    <desc>Created with Sketch.</desc>
    <g id="India" stroke="none" stroke-width="1" fill="none" fill-rule="evenodd">
        <polygon id="Fill-2" fill="#138808" points="0 14.2490119 24 14.2490119 24 18.5652174 0 18.5652174"></polygon>
        <polygon id="Fill-3" fill="#FFFFFF" points="0 9.52148773 24 9.52148773 24 14.0437297 0 14.0437297"></polygon>
        <polygon id="Fill-4" fill="#FF9933" points="0 5 24 5 24 9.31620553 0 9.31620553"></polygon>
        <g id="Group" transform="translate(9.600000, 9.624506)" fill="#000066">
            <polyline id="Fill-5" points="4.23837142 1.46677199 4.17835933 1.43221022 4.21283436 1.37247384 4.27242083 1.40618223 4.23837142 1.46677199"></polyline>
            <polyline id="Fill-6" points="4.36066555 1.94880801 4.31214514 1.89931215 4.36066555 1.85109636 4.40961158 1.89931215 4.36066555 1.94880801"></polyline>
            <polyline id="Fill-7" points="4.35396207 2.44778966 4.31948704 2.38805328 4.37907351 2.35349152 4.41354854 2.4132279 4.35396207 2.44778966"></polyline>
            <polyline id="Fill-8" points="4.2170196 2.93086193 4.19956927 2.86387185 4.26596563 2.84637762 4.28384157 2.91294102 4.2170196 2.93086193"></polyline>
            <polyline id="Fill-9" points="4.23837142 1.46677199 4.17835933 1.43221022 4.21283436 1.37247384 4.27242083 1.40618223 4.23837142 1.46677199"></polyline>
            <polyline id="Fill-10" points="4.36066555 1.94880801 4.31214514 1.89931215 4.36066555 1.85109636 4.40961158 1.89931215 4.36066555 1.94880801"></polyline>
            <polyline id="Fill-11" points="4.35396207 2.44778966 4.31948704 2.38805328 4.37907351 2.35349152 4.41354854 2.4132279 4.35396207 2.44778966"></polyline>
            <polyline id="Fill-12" points="4.2170196 2.93086193 4.19956927 2.86387185 4.26596563 2.84637762 4.28384157 2.91294102 4.2170196 2.93086193"></polyline>
            <polyline id="Fill-13" points="2.18583034 0.268569895 2.13730993 0.317639065 2.0883639 0.268569895 2.13730993 0.219500724 2.18583034 0.268569895"></polyline>
            <polyline id="Fill-14" points="2.70043753 0.279298061 2.64085106 0.313006448 2.60637604 0.253270066 2.66596251 0.218708303 2.70043753 0.279298061"></polyline>
            <polyline id="Fill-15" points="3.19723973 0.419983335 3.13084337 0.43790425 3.11296743 0.371340853 3.1797894 0.353419939 3.19723973 0.419983335"></polyline>
            <polygon id="Fill-16" points="3.57469164 0.614126575 3.6436417 0.614126575 3.6436417 0.683250102 3.57469164 0.683250102"></polygon>
            <polyline id="Fill-17" points="3.99392502 1.03459755 3.92710305 1.01667664 3.94497899 0.950113243 4.01137534 0.968034158 3.99392502 1.03459755"></polyline>
            <polygon id="Fill-18" points="3.9605495 3.29568055 4.02907394 3.29568055 4.02907394 3.36437739 3.9605495 3.36437739"></polygon>
            <polyline id="Fill-19" points="3.58529661 3.70341183 3.60274694 3.63642175 3.66914329 3.65434266 3.65169296 3.72133274 3.58529661 3.70341183"></polyline>
            <polyline id="Fill-20" points="3.13173008 3.94022391 3.16620511 3.88048753 3.22621719 3.9150493 3.19174217 3.97478568 3.13173008 3.94022391"></polyline>
            <polyline id="Fill-21" points="2.63329635 4.06024528 2.68224238 4.01202948 2.73076279 4.06024528 2.68224238 4.10888776 2.63329635 4.06024528"></polyline>
            <polyline id="Fill-22" points="2.12181035 4.0521382 2.18182244 4.01757643 2.21587185 4.07731281 2.15628538 4.11187458 2.12181035 4.0521382"></polyline>
            <polyline id="Fill-23" points="1.63316583 3.91943809 1.6999878 3.90109049 1.71743812 3.96808057 1.65104177 3.9855748 1.63316583 3.91943809"></polyline>
            <polygon id="Fill-24" points="1.20080924 3.66970344 1.2697593 3.66970344 1.2697593 3.73882697 1.20080924 3.73882697"></polygon>
            <polyline id="Fill-25" points="0.837296306 3.30360476 0.904118276 3.32195237 0.886242335 3.38851576 0.819845983 3.37059485 0.837296306 3.30360476"></polyline>
            <polyline id="Fill-26" points="0.583486319 2.86381089 0.643498407 2.89837266 0.60859776 2.95853573 0.54901129 2.92440065 0.583486319 2.86381089"></polyline>
            <polyline id="Fill-27" points="0.457219752 2.38043385 0.506165781 2.42907633 0.457219752 2.47771881 0.408699341 2.42907633 0.457219752 2.38043385"></polyline>
            <polyline id="Fill-28" points="0.467470043 1.88358564 0.50237069 1.94332202 0.44278422 1.97788378 0.407883574 1.9181474 0.467470043 1.88358564"></polyline>
            <polyline id="Fill-29" points="0.613385958 1.4081328 0.631261899 1.47512289 0.564865547 1.4930438 0.546563989 1.42605372 0.613385958 1.4081328"></polyline>
            <polyline id="Fill-30" points="0.884291588 0.98814947 0.884717205 1.057273 0.815767147 1.057273 0.815767147 0.988576158 0.884291588 0.98814947"></polyline>
            <polyline id="Fill-31" points="1.24592471 0.635643863 1.22847439 0.70220726 1.16165242 0.684286345 1.17952836 0.617296261 1.24592471 0.635643863"></polyline>
            <polyline id="Fill-32" points="1.69051781 0.389932278 1.65604278 0.450095348 1.59645631 0.415533584 1.63050572 0.355797203 1.69051781 0.389932278"></polyline>
            <polyline id="Fill-33" points="2.38416816 2.20055419 2.41311016 1.44220692 2.38161445 0.301120127 2.35267245 1.44299935 2.38416816 2.20055419"></polyline>
            <polyline id="Fill-34" points="2.41303922 2.20055419 2.66919011 1.48182799 2.91392025 0.363721417 2.55661424 1.45409325 2.41303922 2.20055419"></polyline>
            <polyline id="Fill-35" points="2.41303922 2.20055419 2.85110618 1.57057919 3.38624943 0.553110128 2.75158259 1.51510969 2.41303922 2.20055419"></polyline>
            <polyline id="Fill-36" points="2.41303922 2.20055419 3.0044704 1.70212114 3.7916857 0.853437834 2.92207792 1.62367142 2.41303922 2.20055419"></polyline>
            <polyline id="Fill-37" points="2.41303922 2.20055419 3.11704627 1.86773721 4.10330875 1.24568642 3.05831103 1.7710618 2.41303922 2.20055419"></polyline>
            <polyline id="Fill-38" points="2.41303922 2.20055419 3.18067611 2.0563335 4.3007244 1.70291356 3.15049272 1.94777177 2.41303922 2.20055419"></polyline>
            <polyline id="Fill-39" points="2.41303922 2.17348995 3.19372838 2.20250477 4.36843307 2.17050313 3.19372838 2.14191501 2.41303922 2.17348995"></polyline>
            <polyline id="Fill-40" points="2.41303922 2.20055419 3.15294002 2.44858209 4.3031717 2.68710092 3.18230764 2.34002036 2.41303922 2.20055419"></polyline>
            <polyline id="Fill-41" points="2.41303922 2.20055419 3.06075834 2.62608448 4.10901912 3.14512049 3.1186778 2.52861665 2.41303922 2.20055419"></polyline>
            <polyline id="Fill-42" points="2.41303922 2.20055419 2.92534099 2.77426728 3.79984337 3.53974634 3.00773347 2.69423272 2.41303922 2.20055419"></polyline>
            <polyline id="Fill-43" points="2.41303922 2.20055419 2.75484566 2.88441385 3.39603863 3.84324373 2.85518502 2.82735951 2.41303922 2.20055419"></polyline>
            <polyline id="Fill-44" points="2.41303922 2.20055419 2.56150884 2.94622272 2.92452522 4.03342486 2.67245317 2.91769555 2.41303922 2.20055419"></polyline>
            <polyline id="Fill-45" points="2.3868992 2.20055419 2.35838282 2.95810904 2.39030415 4.09998826 2.41839491 2.95810904 2.3868992 2.20055419"></polyline>
            <polyline id="Fill-46" points="2.41303922 2.20055419 2.15851987 2.91848797 1.91297396 4.03659455 2.2694642 2.94701514 2.41303922 2.20055419"></polyline>
            <polyline id="Fill-47" points="2.41303922 2.20055419 1.97497226 2.82973677 1.44064478 3.84720583 2.07531162 2.88599869 2.41303922 2.20055419"></polyline>
            <polyline id="Fill-48" points="2.41303922 2.20055419 1.82242381 2.69819482 1.03520851 3.54687813 1.90400052 2.77743696 2.41303922 2.20055419"></polyline>
            <polyline id="Fill-49" points="2.41303922 2.20055419 1.70984794 2.53178633 0.722769692 3.15542196 1.76776741 2.62925416 2.41303922 2.20055419"></polyline>
            <polyline id="Fill-50" points="2.41303922 2.20055419 1.64540234 2.34398246 0.526985577 2.6974024 1.67558572 2.45333661 2.41303922 2.20055419"></polyline>
            <polyline id="Fill-51" points="2.41303922 2.17531862 1.63316583 2.14587712 0.458461137 2.17787875 1.63316583 2.20646687 2.41303922 2.17531862"></polyline>
            <polyline id="Fill-52" points="2.41303922 2.20055419 1.67476995 1.95173388 0.523722508 1.71479988 1.64458657 2.06108803 2.41303922 2.20055419"></polyline>
            <polyline id="Fill-53" points="2.41303922 2.20055419 1.76532011 1.77423149 0.717059322 1.2559879 1.70821641 1.87169932 2.41303922 2.20055419"></polyline>
            <polyline id="Fill-54" points="2.41303922 2.20055419 1.90155322 1.62604869 1.02623507 0.861362048 1.81916074 1.7044984 2.41303922 2.20055419"></polyline>
            <polyline id="Fill-55" points="2.41303922 2.20055419 2.07123279 1.51669453 1.43085558 0.558657078 1.97170919 1.57295645 2.41303922 2.20055419"></polyline>
            <polyline id="Fill-56" points="2.41303922 2.20055419 2.26538537 1.45409325 1.90155322 0.366891102 2.15362527 1.48341284 2.41303922 2.20055419"></polyline>
            <path d="M3.02894342,0.123617736 C1.84444952,-0.183841762 0.627324936,0.498433052 0.309991516,1.64823649 C-0.00652613718,2.79803992 0.695849377,3.98033263 1.88034327,4.28937697 C3.0640214,4.59683647 4.28033022,3.91456165 4.59847941,2.76317338 C4.91581283,1.61336994 4.21262155,0.431869656 3.02894342,0.123617736 L3.02894342,0.123617736 Z M1.94560465,4.05165055 C0.896528095,3.77826517 0.273281994,2.7306841 0.55472166,1.7116302 C0.836161326,0.691783871 1.91378973,0.087958774 2.96368205,0.360551731 C4.0127586,0.63393711 4.63518893,1.68151818 4.35374926,2.70057209 C4.07312537,3.71883357 2.99386543,4.32424351 1.94560465,4.05165055 L1.94560465,4.05165055 Z" id="Fill-57"></path>
            <path d="M2.83642237,2.30515382 C2.77931867,2.51039095 2.56314038,2.63163143 2.35185669,2.57695435 C2.14057299,2.5230697 2.01657639,2.31149319 2.07286432,2.10625605 C2.12915225,1.90101891 2.34614632,1.78057086 2.55661424,1.83524793 C2.76789793,1.89071743 2.8927103,2.1007091 2.83642237,2.30515382" id="Fill-58"></path>
            <polyline id="Fill-59" points="3.19723973 0.419983335 3.13084337 0.43790425 3.11296743 0.371340853 3.1797894 0.353419939 3.19723973 0.419983335"></polyline>
            <polygon id="Fill-60" points="3.57469164 0.614126575 3.6436417 0.614126575 3.6436417 0.683250102 3.57469164 0.683250102"></polygon>
            <polyline id="Fill-61" points="3.99392502 1.03459755 3.92710305 1.01667664 3.94497899 0.950113243 4.01137534 0.968034158 3.99392502 1.03459755"></polyline>
            <polygon id="Fill-62" points="3.9605495 3.29568055 4.02907394 3.29568055 4.02907394 3.36437739 3.9605495 3.36437739"></polygon>
            <polyline id="Fill-63" points="3.58529661 3.70341183 3.60274694 3.63642175 3.66914329 3.65434266 3.65169296 3.72133274 3.58529661 3.70341183"></polyline>
            <polyline id="Fill-64" points="3.13173008 3.94022391 3.16620511 3.88048753 3.22621719 3.9150493 3.19174217 3.97478568 3.13173008 3.94022391"></polyline>
            <polyline id="Fill-65" points="2.63329635 4.06024528 2.68224238 4.01202948 2.73076279 4.06024528 2.68224238 4.10888776 2.63329635 4.06024528"></polyline>
            <polyline id="Fill-66" points="2.12181035 4.0521382 2.18182244 4.01757643 2.21587185 4.07731281 2.15628538 4.11187458 2.12181035 4.0521382"></polyline>
            <polyline id="Fill-67" points="1.63316583 3.91943809 1.6999878 3.90109049 1.71743812 3.96808057 1.65104177 3.9855748 1.63316583 3.91943809"></polyline>
            <polygon id="Fill-68" points="1.20080924 3.66970344 1.2697593 3.66970344 1.2697593 3.73882697 1.20080924 3.73882697"></polygon>
            <polyline id="Fill-69" points="0.837296306 3.30360476 0.904118276 3.32195237 0.886242335 3.38851576 0.819845983 3.37059485 0.837296306 3.30360476"></polyline>
            <polyline id="Fill-70" points="0.583486319 2.86381089 0.643498407 2.89837266 0.60859776 2.95853573 0.54901129 2.92440065 0.583486319 2.86381089"></polyline>
            <polyline id="Fill-71" points="0.457219752 2.38043385 0.506165781 2.42907633 0.457219752 2.47771881 0.408699341 2.42907633 0.457219752 2.38043385"></polyline>
            <polyline id="Fill-72" points="0.467470043 1.88358564 0.50237069 1.94332202 0.44278422 1.97788378 0.407883574 1.9181474 0.467470043 1.88358564"></polyline>
            <polyline id="Fill-73" points="0.613385958 1.4081328 0.631261899 1.47512289 0.564865547 1.4930438 0.546563989 1.42605372 0.613385958 1.4081328"></polyline>
            <polyline id="Fill-74" points="0.884291588 0.98814947 0.884717205 1.057273 0.815767147 1.057273 0.815767147 0.988576158 0.884291588 0.98814947"></polyline>
            <polyline id="Fill-75" points="1.24592471 0.635643863 1.22847439 0.70220726 1.16165242 0.684286345 1.17952836 0.617296261 1.24592471 0.635643863"></polyline>
            <polyline id="Fill-76" points="1.69051781 0.389932278 1.65604278 0.450095348 1.59645631 0.415533584 1.63050572 0.355797203 1.69051781 0.389932278"></polyline>
            <polyline id="Fill-77" points="2.18583034 0.268569895 2.13730993 0.317639065 2.0883639 0.268569895 2.13730993 0.219500724 2.18583034 0.268569895"></polyline>
        </g>
        <polygon id="Fill-2-Copy" fill="#138808" points="0 14.2490119 24 14.2490119 24 18.5652174 0 18.5652174"></polygon>
        <polygon id="Fill-3-Copy" fill="#FFFFFF" points="0 9.52148773 24 9.52148773 24 14.0437297 0 14.0437297"></polygon>
        <polygon id="Fill-4-Copy" fill="#FF9933" points="0 5 24 5 24 9.31620553 0 9.31620553"></polygon>
        <g id="Group-Copy" transform="translate(9.600000, 9.624506)" fill="#000066">
            <polyline id="Fill-5" points="4.23837142 1.46677199 4.17835933 1.43221022 4.21283436 1.37247384 4.27242083 1.40618223 4.23837142 1.46677199"></polyline>
            <polyline id="Fill-6" points="4.36066555 1.94880801 4.31214514 1.89931215 4.36066555 1.85109636 4.40961158 1.89931215 4.36066555 1.94880801"></polyline>
            <polyline id="Fill-7" points="4.35396207 2.44778966 4.31948704 2.38805328 4.37907351 2.35349152 4.41354854 2.4132279 4.35396207 2.44778966"></polyline>
            <polyline id="Fill-8" points="4.2170196 2.93086193 4.19956927 2.86387185 4.26596563 2.84637762 4.28384157 2.91294102 4.2170196 2.93086193"></polyline>
            <polyline id="Fill-9" points="4.23837142 1.46677199 4.17835933 1.43221022 4.21283436 1.37247384 4.27242083 1.40618223 4.23837142 1.46677199"></polyline>
            <polyline id="Fill-10" points="4.36066555 1.94880801 4.31214514 1.89931215 4.36066555 1.85109636 4.40961158 1.89931215 4.36066555 1.94880801"></polyline>
            <polyline id="Fill-11" points="4.35396207 2.44778966 4.31948704 2.38805328 4.37907351 2.35349152 4.41354854 2.4132279 4.35396207 2.44778966"></polyline>
            <polyline id="Fill-12" points="4.2170196 2.93086193 4.19956927 2.86387185 4.26596563 2.84637762 4.28384157 2.91294102 4.2170196 2.93086193"></polyline>
            <polyline id="Fill-13" points="2.18583034 0.268569895 2.13730993 0.317639065 2.0883639 0.268569895 2.13730993 0.219500724 2.18583034 0.268569895"></polyline>
            <polyline id="Fill-14" points="2.70043753 0.279298061 2.64085106 0.313006448 2.60637604 0.253270066 2.66596251 0.218708303 2.70043753 0.279298061"></polyline>
            <polyline id="Fill-15" points="3.19723973 0.419983335 3.13084337 0.43790425 3.11296743 0.371340853 3.1797894 0.353419939 3.19723973 0.419983335"></polyline>
            <polygon id="Fill-16" points="3.57469164 0.614126575 3.6436417 0.614126575 3.6436417 0.683250102 3.57469164 0.683250102"></polygon>
            <polyline id="Fill-17" points="3.99392502 1.03459755 3.92710305 1.01667664 3.94497899 0.950113243 4.01137534 0.968034158 3.99392502 1.03459755"></polyline>
            <polygon id="Fill-18" points="3.9605495 3.29568055 4.02907394 3.29568055 4.02907394 3.36437739 3.9605495 3.36437739"></polygon>
            <polyline id="Fill-19" points="3.58529661 3.70341183 3.60274694 3.63642175 3.66914329 3.65434266 3.65169296 3.72133274 3.58529661 3.70341183"></polyline>
            <polyline id="Fill-20" points="3.13173008 3.94022391 3.16620511 3.88048753 3.22621719 3.9150493 3.19174217 3.97478568 3.13173008 3.94022391"></polyline>
            <polyline id="Fill-21" points="2.63329635 4.06024528 2.68224238 4.01202948 2.73076279 4.06024528 2.68224238 4.10888776 2.63329635 4.06024528"></polyline>
            <polyline id="Fill-22" points="2.12181035 4.0521382 2.18182244 4.01757643 2.21587185 4.07731281 2.15628538 4.11187458 2.12181035 4.0521382"></polyline>
            <polyline id="Fill-23" points="1.63316583 3.91943809 1.6999878 3.90109049 1.71743812 3.96808057 1.65104177 3.9855748 1.63316583 3.91943809"></polyline>
            <polygon id="Fill-24" points="1.20080924 3.66970344 1.2697593 3.66970344 1.2697593 3.73882697 1.20080924 3.73882697"></polygon>
            <polyline id="Fill-25" points="0.837296306 3.30360476 0.904118276 3.32195237 0.886242335 3.38851576 0.819845983 3.37059485 0.837296306 3.30360476"></polyline>
            <polyline id="Fill-26" points="0.583486319 2.86381089 0.643498407 2.89837266 0.60859776 2.95853573 0.54901129 2.92440065 0.583486319 2.86381089"></polyline>
            <polyline id="Fill-27" points="0.457219752 2.38043385 0.506165781 2.42907633 0.457219752 2.47771881 0.408699341 2.42907633 0.457219752 2.38043385"></polyline>
            <polyline id="Fill-28" points="0.467470043 1.88358564 0.50237069 1.94332202 0.44278422 1.97788378 0.407883574 1.9181474 0.467470043 1.88358564"></polyline>
            <polyline id="Fill-29" points="0.613385958 1.4081328 0.631261899 1.47512289 0.564865547 1.4930438 0.546563989 1.42605372 0.613385958 1.4081328"></polyline>
            <polyline id="Fill-30" points="0.884291588 0.98814947 0.884717205 1.057273 0.815767147 1.057273 0.815767147 0.988576158 0.884291588 0.98814947"></polyline>
            <polyline id="Fill-31" points="1.24592471 0.635643863 1.22847439 0.70220726 1.16165242 0.684286345 1.17952836 0.617296261 1.24592471 0.635643863"></polyline>
            <polyline id="Fill-32" points="1.69051781 0.389932278 1.65604278 0.450095348 1.59645631 0.415533584 1.63050572 0.355797203 1.69051781 0.389932278"></polyline>
            <polyline id="Fill-33" points="2.38416816 2.20055419 2.41311016 1.44220692 2.38161445 0.301120127 2.35267245 1.44299935 2.38416816 2.20055419"></polyline>
            <polyline id="Fill-34" points="2.41303922 2.20055419 2.66919011 1.48182799 2.91392025 0.363721417 2.55661424 1.45409325 2.41303922 2.20055419"></polyline>
            <polyline id="Fill-35" points="2.41303922 2.20055419 2.85110618 1.57057919 3.38624943 0.553110128 2.75158259 1.51510969 2.41303922 2.20055419"></polyline>
            <polyline id="Fill-36" points="2.41303922 2.20055419 3.0044704 1.70212114 3.7916857 0.853437834 2.92207792 1.62367142 2.41303922 2.20055419"></polyline>
            <polyline id="Fill-37" points="2.41303922 2.20055419 3.11704627 1.86773721 4.10330875 1.24568642 3.05831103 1.7710618 2.41303922 2.20055419"></polyline>
            <polyline id="Fill-38" points="2.41303922 2.20055419 3.18067611 2.0563335 4.3007244 1.70291356 3.15049272 1.94777177 2.41303922 2.20055419"></polyline>
            <polyline id="Fill-39" points="2.41303922 2.17348995 3.19372838 2.20250477 4.36843307 2.17050313 3.19372838 2.14191501 2.41303922 2.17348995"></polyline>
            <polyline id="Fill-40" points="2.41303922 2.20055419 3.15294002 2.44858209 4.3031717 2.68710092 3.18230764 2.34002036 2.41303922 2.20055419"></polyline>
            <polyline id="Fill-41" points="2.41303922 2.20055419 3.06075834 2.62608448 4.10901912 3.14512049 3.1186778 2.52861665 2.41303922 2.20055419"></polyline>
            <polyline id="Fill-42" points="2.41303922 2.20055419 2.92534099 2.77426728 3.79984337 3.53974634 3.00773347 2.69423272 2.41303922 2.20055419"></polyline>
            <polyline id="Fill-43" points="2.41303922 2.20055419 2.75484566 2.88441385 3.39603863 3.84324373 2.85518502 2.82735951 2.41303922 2.20055419"></polyline>
            <polyline id="Fill-44" points="2.41303922 2.20055419 2.56150884 2.94622272 2.92452522 4.03342486 2.67245317 2.91769555 2.41303922 2.20055419"></polyline>
            <polyline id="Fill-45" points="2.3868992 2.20055419 2.35838282 2.95810904 2.39030415 4.09998826 2.41839491 2.95810904 2.3868992 2.20055419"></polyline>
            <polyline id="Fill-46" points="2.41303922 2.20055419 2.15851987 2.91848797 1.91297396 4.03659455 2.2694642 2.94701514 2.41303922 2.20055419"></polyline>
            <polyline id="Fill-47" points="2.41303922 2.20055419 1.97497226 2.82973677 1.44064478 3.84720583 2.07531162 2.88599869 2.41303922 2.20055419"></polyline>
            <polyline id="Fill-48" points="2.41303922 2.20055419 1.82242381 2.69819482 1.03520851 3.54687813 1.90400052 2.77743696 2.41303922 2.20055419"></polyline>
            <polyline id="Fill-49" points="2.41303922 2.20055419 1.70984794 2.53178633 0.722769692 3.15542196 1.76776741 2.62925416 2.41303922 2.20055419"></polyline>
            <polyline id="Fill-50" points="2.41303922 2.20055419 1.64540234 2.34398246 0.526985577 2.6974024 1.67558572 2.45333661 2.41303922 2.20055419"></polyline>
            <polyline id="Fill-51" points="2.41303922 2.17531862 1.63316583 2.14587712 0.458461137 2.17787875 1.63316583 2.20646687 2.41303922 2.17531862"></polyline>
            <polyline id="Fill-52" points="2.41303922 2.20055419 1.67476995 1.95173388 0.523722508 1.71479988 1.64458657 2.06108803 2.41303922 2.20055419"></polyline>
            <polyline id="Fill-53" points="2.41303922 2.20055419 1.76532011 1.77423149 0.717059322 1.2559879 1.70821641 1.87169932 2.41303922 2.20055419"></polyline>
            <polyline id="Fill-54" points="2.41303922 2.20055419 1.90155322 1.62604869 1.02623507 0.861362048 1.81916074 1.7044984 2.41303922 2.20055419"></polyline>
            <polyline id="Fill-55" points="2.41303922 2.20055419 2.07123279 1.51669453 1.43085558 0.558657078 1.97170919 1.57295645 2.41303922 2.20055419"></polyline>
            <polyline id="Fill-56" points="2.41303922 2.20055419 2.26538537 1.45409325 1.90155322 0.366891102 2.15362527 1.48341284 2.41303922 2.20055419"></polyline>
            <path d="M3.02894342,0.123617736 C1.84444952,-0.183841762 0.627324936,0.498433052 0.309991516,1.64823649 C-0.00652613718,2.79803992 0.695849377,3.98033263 1.88034327,4.28937697 C3.0640214,4.59683647 4.28033022,3.91456165 4.59847941,2.76317338 C4.91581283,1.61336994 4.21262155,0.431869656 3.02894342,0.123617736 L3.02894342,0.123617736 Z M1.94560465,4.05165055 C0.896528095,3.77826517 0.273281994,2.7306841 0.55472166,1.7116302 C0.836161326,0.691783871 1.91378973,0.087958774 2.96368205,0.360551731 C4.0127586,0.63393711 4.63518893,1.68151818 4.35374926,2.70057209 C4.07312537,3.71883357 2.99386543,4.32424351 1.94560465,4.05165055 L1.94560465,4.05165055 Z" id="Fill-57"></path>
            <path d="M2.83642237,2.30515382 C2.77931867,2.51039095 2.56314038,2.63163143 2.35185669,2.57695435 C2.14057299,2.5230697 2.01657639,2.31149319 2.07286432,2.10625605 C2.12915225,1.90101891 2.34614632,1.78057086 2.55661424,1.83524793 C2.76789793,1.89071743 2.8927103,2.1007091 2.83642237,2.30515382" id="Fill-58"></path>
            <polyline id="Fill-59" points="3.19723973 0.419983335 3.13084337 0.43790425 3.11296743 0.371340853 3.1797894 0.353419939 3.19723973 0.419983335"></polyline>
            <polygon id="Fill-60" points="3.57469164 0.614126575 3.6436417 0.614126575 3.6436417 0.683250102 3.57469164 0.683250102"></polygon>
            <polyline id="Fill-61" points="3.99392502 1.03459755 3.92710305 1.01667664 3.94497899 0.950113243 4.01137534 0.968034158 3.99392502 1.03459755"></polyline>
            <polygon id="Fill-62" points="3.9605495 3.29568055 4.02907394 3.29568055 4.02907394 3.36437739 3.9605495 3.36437739"></polygon>
            <polyline id="Fill-63" points="3.58529661 3.70341183 3.60274694 3.63642175 3.66914329 3.65434266 3.65169296 3.72133274 3.58529661 3.70341183"></polyline>
            <polyline id="Fill-64" points="3.13173008 3.94022391 3.16620511 3.88048753 3.22621719 3.9150493 3.19174217 3.97478568 3.13173008 3.94022391"></polyline>
            <polyline id="Fill-65" points="2.63329635 4.06024528 2.68224238 4.01202948 2.73076279 4.06024528 2.68224238 4.10888776 2.63329635 4.06024528"></polyline>
            <polyline id="Fill-66" points="2.12181035 4.0521382 2.18182244 4.01757643 2.21587185 4.07731281 2.15628538 4.11187458 2.12181035 4.0521382"></polyline>
            <polyline id="Fill-67" points="1.63316583 3.91943809 1.6999878 3.90109049 1.71743812 3.96808057 1.65104177 3.9855748 1.63316583 3.91943809"></polyline>
            <polygon id="Fill-68" points="1.20080924 3.66970344 1.2697593 3.66970344 1.2697593 3.73882697 1.20080924 3.73882697"></polygon>
            <polyline id="Fill-69" points="0.837296306 3.30360476 0.904118276 3.32195237 0.886242335 3.38851576 0.819845983 3.37059485 0.837296306 3.30360476"></polyline>
            <polyline id="Fill-70" points="0.583486319 2.86381089 0.643498407 2.89837266 0.60859776 2.95853573 0.54901129 2.92440065 0.583486319 2.86381089"></polyline>
            <polyline id="Fill-71" points="0.457219752 2.38043385 0.506165781 2.42907633 0.457219752 2.47771881 0.408699341 2.42907633 0.457219752 2.38043385"></polyline>
            <polyline id="Fill-72" points="0.467470043 1.88358564 0.50237069 1.94332202 0.44278422 1.97788378 0.407883574 1.9181474 0.467470043 1.88358564"></polyline>
            <polyline id="Fill-73" points="0.613385958 1.4081328 0.631261899 1.47512289 0.564865547 1.4930438 0.546563989 1.42605372 0.613385958 1.4081328"></polyline>
            <polyline id="Fill-74" points="0.884291588 0.98814947 0.884717205 1.057273 0.815767147 1.057273 0.815767147 0.988576158 0.884291588 0.98814947"></polyline>
            <polyline id="Fill-75" points="1.24592471 0.635643863 1.22847439 0.70220726 1.16165242 0.684286345 1.17952836 0.617296261 1.24592471 0.635643863"></polyline>
            <polyline id="Fill-76" points="1.69051781 0.389932278 1.65604278 0.450095348 1.59645631 0.415533584 1.63050572 0.355797203 1.69051781 0.389932278"></polyline>
            <polyline id="Fill-77" points="2.18583034 0.268569895 2.13730993 0.317639065 2.0883639 0.268569895 2.13730993 0.219500724 2.18583034 0.268569895"></polyline>
        </g>
    </g>
</svg>