<?xml version="1.0" encoding="UTF-8"?>
<svg width="24px" height="24px" viewBox="0 0 24 24" version="1.1" xmlns="http://www.w3.org/2000/svg" xmlns:xlink="http://www.w3.org/1999/xlink">
    <!-- Generator: Sketch 54.1 (76490) - https://sketchapp.com -->
    <title>Israel</title>
    <desc>Created with Sketch.</desc>
    <g id="Israel" stroke="none" stroke-width="1" fill="none" fill-rule="evenodd">
        <g id="isr" transform="translate(0.000000, 6.000000)">
            <polygon id="Fill-2" fill="#FFFFFF" points="0 0 24 0 24 13 0 13"></polygon>
            <polygon id="Fill-3" fill="#0148C8" points="0 1 24 1 24 2.94996386 0 2.94996386"></polygon>
            <polygon id="Fill-4" fill="#0148C8" points="0 9 24 9 24 10.9492411 0 10.9492411"></polygon>
            <path d="M12.5543886,5.86568077 L13.3620046,4.44115194 L11.7474816,4.44115194 L10.9313568,3 L10.1152321,4.44115194 L8.5,4.44115194 L8.70704468,4.80686051 L9.30761605,5.86712626 L8.5,7.29237783 L10.1152321,7.29237783 L10.9313568,8.73425252 L11.7474816,7.29237783 L13.3620046,7.29237783 L12.5543886,5.86568077 L12.5543886,5.86568077 Z M10.9313568,3.97498193 L11.1951261,4.44115194 L10.6668785,4.44115194 L10.9313568,3.97498193 L10.9313568,3.97498193 Z M9.32817871,6.80524823 L9.58343927,6.3549786 L9.83869983,6.80524823 L9.32817871,6.80524823 L9.32817871,6.80524823 Z M9.58343927,5.37855118 L9.32817871,4.92828154 L9.83869983,4.92828154 L9.58343927,5.37855118 L9.58343927,5.37855118 Z M10.9313568,7.75854784 L10.6668785,7.29237783 L11.1951261,7.29237783 L10.9313568,7.75854784 L10.9313568,7.75854784 Z M11.4716584,6.80524823 L10.3917644,6.80524823 L9.85997154,5.86712626 L10.3917644,4.92828154 L11.4716584,4.92828154 L12.0027421,5.86712626 L11.4716584,6.80524823 L11.4716584,6.80524823 Z M12.0225957,6.80524823 L12.2785654,6.3549786 L12.534535,6.80524823 L12.0225957,6.80524823 L12.0225957,6.80524823 Z M12.2785654,5.37927392 L12.0233048,4.92828154 L12.534535,4.92828154 L12.2785654,5.37927392 L12.2785654,5.37927392 Z" id="Fill-5" fill="#0148C8"></path>
        </g>
    </g>
</svg>