<?xml version="1.0" encoding="UTF-8"?>
<svg width="24px" height="24px" viewBox="0 0 24 24" version="1.1" xmlns="http://www.w3.org/2000/svg" xmlns:xlink="http://www.w3.org/1999/xlink">
    <!-- Generator: Sketch 54.1 (76490) - https://sketchapp.com -->
    <title>Malaysia</title>
    <desc>Created with Sketch.</desc>
    <g id="Malaysia" stroke="none" stroke-width="1" fill="none" fill-rule="evenodd">
        <g id="mys" transform="translate(0.000000, 5.000000)">
            <polygon id="Fill-2" fill="#FFFFFF" points="0 9.39065783 24 9.39065783 24 10.4353214 0 10.4353214"></polygon>
            <polygon id="Fill-3" fill="#DC241F" points="0 8.34750283 24 8.34750283 24 9.39065783 0 9.39065783"></polygon>
            <polygon id="Fill-4" fill="#DC241F" points="0 12.5216314 24 12.5216314 24 13.5655406 0 13.5655406"></polygon>
            <polygon id="Fill-5" fill="#FFFFFF" points="0 7.30283929 24 7.30283929 24 8.34750283 0 8.34750283"></polygon>
            <polygon id="Fill-6" fill="#DC241F" points="0 10.4353214 24 10.4353214 24 11.4792306 0 11.4792306"></polygon>
            <polygon id="Fill-7" fill="#FFFFFF" points="0 11.4784764 24 11.4784764 24 12.5216314 0 12.5216314"></polygon>
            <polygon id="Fill-8" fill="#FFFFFF" points="0 3.12871074 24 3.12871074 24 4.17337428 0 4.17337428"></polygon>
            <polygon id="Fill-9" fill="#DC241F" points="0 6.26043855 24 6.26043855 24 7.30359356 0 7.30359356"></polygon>
            <polygon id="Fill-9-Copy" fill="#DC241F" points="0 4.17337428 24 4.17337428 24 5.21652928 0 5.21652928"></polygon>
            <polygon id="Fill-10" fill="#FFFFFF" points="0 1.04089219 24 1.04089219 24 2.08555574 0 2.08555574"></polygon>
            <polygon id="Fill-11" fill="#DC241F" points="0 2.08555574 24 2.08555574 24 3.12871074 0 3.12871074"></polygon>
            <polygon id="Fill-12" fill="#DC241F" points="0 0 24 0 24 1.04164646 0 1.04164646"></polygon>
            <polygon id="Fill-13" fill="#FFFFFF" points="0 5.21652928 24 5.21652928 24 6.26043855 0 6.26043855"></polygon>
            <polygon id="Fill-15" fill="#0035AD" points="0 -4.63397436e-16 13.8947368 -4.63397436e-16 13.8947368 8.34750283 0 8.34750283"></polygon>
            <g id="Fill-16-+-Fill-17" transform="translate(2.842105, 1.273250)" fill="#FFD100">
                <path d="M3.41142476,4.99463191 C2.16405628,4.99463191 1.1529928,3.9513825 1.1529928,2.66616557 C1.1529928,1.38170243 2.16405628,0.338453022 3.41142476,0.338453022 C3.77795357,0.338453022 4.12253454,0.431169552 4.4290726,0.589466066 C3.99450551,0.241213735 3.45019927,0.0316593028 2.85760779,0.0316593028 C1.44489897,0.0316593028 0.300685305,1.21134523 0.300685305,2.66616557 C0.300685305,4.12098591 1.44489897,5.29991804 2.85760779,5.29991804 C3.44946767,5.29991804 3.99450551,5.09187119 4.42760941,4.74286507 C4.12253454,4.90266917 3.77795357,4.99463191 3.41142476,4.99463191" id="Fill-16"></path>
                <polyline id="Fill-17" points="5.42916216 0.456798511 5.61132917 1.8430237 6.35975026 0.674644666 5.93981507 2.00584297 7.10597657 1.28823211 6.16734093 2.29906841 7.51932741 2.17393879 6.24854791 2.66616557 7.51932741 3.15763855 6.16734093 3.03250893 7.10597657 4.04334524 5.93981507 3.32648817 6.35975026 4.65693268 5.61132917 3.48930744 5.42916216 4.87477883 5.24699515 3.48930744 4.49784247 4.65693268 4.91850926 3.32648817 3.75161617 4.04334524 4.6909834 3.03250893 3.33826532 3.15763855 4.60977642 2.66616557 3.33826532 2.17393879 4.6909834 2.29906841 3.75161617 1.28823211 4.91850926 2.00584297 4.49784247 0.674644666 5.24699515 1.8430237 5.42916216 0.456798511"></polyline>
            </g>
        </g>
    </g>
</svg>