<?xml version="1.0" encoding="UTF-8"?>
<svg width="24px" height="24px" viewBox="0 0 24 24" version="1.1" xmlns="http://www.w3.org/2000/svg" xmlns:xlink="http://www.w3.org/1999/xlink">
    <!-- Generator: Sketch 54.1 (76490) - https://sketchapp.com -->
    <title>New Zealand</title>
    <desc>Created with Sketch.</desc>
    <g id="New-Zealand" stroke="none" stroke-width="1" fill="none" fill-rule="evenodd">
        <g id="nzl" transform="translate(0.000000, 5.000000)">
            <polygon id="Fill-2" fill="#004990" points="0 0 24 0 24 13.787234 0 13.787234"></polygon>
            <g id="Group" transform="translate(0.510638, 0.000000)">
                <polyline id="Fill-3" fill="#FFFFFF" points="18.3125048 2.18562304 18.8804898 2.18562304 19.0536273 1.64589514 19.2298985 2.18562304 19.7947497 2.18562304 19.3387949 2.51873022 19.5127158 3.05924375 19.0536273 2.72535094 18.596889 3.05924375 18.7708099 2.51873022 18.3125048 2.18562304"></polyline>
                <polyline id="Fill-4" fill="#E31937" points="18.5647685 2.2681142 18.9384634 2.2681142 19.0536273 1.91065249 19.1695745 2.2681142 19.5440529 2.2681142 19.2416499 2.48887627 19.3560303 2.84555235 19.0536273 2.62479029 18.7512242 2.84555235 18.8671715 2.48887627 18.5647685 2.2681142"></polyline>
                <polyline id="Fill-5" fill="#FFFFFF" points="15.0327865 6.0037855 15.5984212 6.0037855 15.7731256 5.46484323 15.9486133 6.0037855 16.514248 6.0037855 16.0567263 6.33846394 16.2314307 6.87740621 15.7731256 6.54429904 15.3156039 6.87740621 15.4910917 6.33846394 15.0327865 6.0037855"></polyline>
                <polyline id="Fill-6" fill="#E31937" points="15.2842668 6.08627667 15.6587452 6.08627667 15.7731256 5.72960058 15.8898563 6.08627667 16.2635512 6.08627667 15.9611482 6.30703874 16.076312 6.66371482 15.7731256 6.44373838 15.4707225 6.66371482 15.5866698 6.30703874 15.2842668 6.08627667"></polyline>
                <polyline id="Fill-7" fill="#FFFFFF" points="21.3822645 5.08852639 21.8860084 5.08852639 22.0419105 4.61007764 22.1978126 5.08852639 22.7015565 5.08852639 22.2941742 5.38628022 22.4500762 5.8655146 22.0419105 5.56933204 21.6345282 5.8655146 21.7904302 5.38628022 21.3822645 5.08852639"></polyline>
                <polyline id="Fill-8" fill="#E31937" points="21.6063248 5.16316126 21.9384981 5.16316126 22.0419105 4.84576668 22.1445395 5.16316126 22.4774962 5.16316126 22.2079971 5.35878316 22.3114096 5.67617774 22.0419105 5.48055583 21.7731948 5.67617774 21.8750404 5.35878316 21.6063248 5.16316126"></polyline>
                <polyline id="Fill-9" fill="#FFFFFF" points="18.2404295 11.5794026 18.8616875 11.5794026 19.0536273 10.9862518 19.2463504 11.5794026 19.8668251 11.5794026 19.364648 11.9462919 19.5565877 12.5402282 19.0536273 12.173339 18.5514502 12.5402282 18.74339 11.9462919 18.2404295 11.5794026"></polyline>
                <polyline id="Fill-10" fill="#E31937" points="18.5169794 11.6705357 18.9282789 11.6705357 19.0536273 11.2785062 19.181326 11.6705357 19.591842 11.6705357 19.2604521 11.9132954 19.3873674 12.3061105 19.0536273 12.0633507 18.7222374 12.3061105 18.8491527 11.9132954 18.5169794 11.6705357"></polyline>
                <polygon id="Fill-11" fill="#004990" points="1.78207027e-14 0 11.5250026 0 11.5250026 7.06595745 1.78207027e-14 7.06595745"></polygon>
                <polyline id="Fill-12" fill="#FFFFFF" points="11.5250026 2.47316367 6.91465978 2.47316367 6.91465978 0 4.60948839 0 4.60948839 2.47316367 1.78207027e-14 2.47316367 1.78207027e-14 4.59279378 4.60948839 4.59279378 4.60948839 7.06595745 6.91465978 7.06595745 6.91465978 4.59279378 11.5250026 4.59279378 11.5250026 2.47316367"></polyline>
                <polyline id="Fill-13" fill="#FFFFFF" points="11.5250026 6.25204463 1.32346571 0 1.78207027e-14 0 1.78207027e-14 0.817055342 10.1929929 7.06595745 11.5250026 7.06595745 11.5250026 6.25204463"></polyline>
                <polyline id="Fill-14" fill="#FFFFFF" points="1.78207027e-14 6.25204463 10.2032457 0 11.5250026 0 11.5250026 0.817055342 1.33200971 7.06595745 1.78207027e-14 7.06595745 1.78207027e-14 6.25204463"></polyline>
                <polyline id="Fill-15" fill="#E31937" points="11.5250026 2.91468781 6.43534134 2.91468781 6.43534134 0 5.09051563 0 5.09051563 2.91468781 1.78207027e-14 2.91468781 1.78207027e-14 4.15126964 5.09051563 4.15126964 5.09051563 7.06595745 6.43534134 7.06595745 6.43534134 4.15126964 11.5250026 4.15126964 11.5250026 2.91468781"></polyline>
                <polyline id="Fill-16" fill="#E31937" points="11.5250026 7.04474543 11.5250026 6.48616241 8.42780231 4.59279378 7.51615743 4.59279378 11.5250026 7.04474543"></polyline>
                <polyline id="Fill-17" fill="#E31937" points="11.5250026 0 10.6150665 0 6.91465978 2.26261479 6.91465978 2.47316367 7.48369023 2.47316367 11.5250026 0.000785630136 11.5250026 0"></polyline>
                <polyline id="Fill-18" fill="#E31937" points="4.01055394 4.59279378 1.78207027e-14 7.04553106 1.78207027e-14 7.06595745 0.880032074 7.06595745 4.60948839 4.78448753 4.60948839 4.59279378 4.01055394 4.59279378"></polyline>
                <polyline id="Fill-19" fill="#E31937" points="1.78207027e-14 0.00471378082 1.78207027e-14 0.562511178 3.12368666 2.47316367 4.03533154 2.47316367 1.78207027e-14 0.00471378082"></polyline>
            </g>
        </g>
    </g>
</svg>