<?xml version="1.0" encoding="UTF-8"?>
<svg width="24px" height="24px" viewBox="0 0 24 24" version="1.1" xmlns="http://www.w3.org/2000/svg" xmlns:xlink="http://www.w3.org/1999/xlink">
    <!-- Generator: Sketch 54.1 (76490) - https://sketchapp.com -->
    <title>Norway</title>
    <desc>Created with Sketch.</desc>
    <g id="Norway" stroke="none" stroke-width="1" fill="none" fill-rule="evenodd">
        <g id="nor" transform="translate(0.000000, 5.000000)">
            <polygon id="Fill-1" fill="#DC1C37" points="0 0 23.9944 0 23.9944 13.9325834 0 13.9325834"></polygon>
            <polygon id="Fill-2" fill="#FFFFFF" points="5.22476943 0 8.70781393 0 8.70781393 13.9325834 5.22476943 13.9325834"></polygon>
            <polygon id="Fill-3" fill="#FFFFFF" points="0 5.22476943 23.9944 5.22476943 23.9944 8.7074086 0 8.7074086"></polygon>
            <polygon id="Fill-4" fill="#192967" points="6.09502389 0 7.83674881 0 7.83674881 13.9325834 6.09502389 13.9325834"></polygon>
            <polygon id="Fill-5" fill="#192967" points="0 6.09583456 23.9944 6.09583456 23.9944 7.83755948 0 7.83755948"></polygon>
            <polygon id="Fill-1-Copy" fill="#DC1C37" points="0 0 23.9944 0 23.9944 13.9325834 0 13.9325834"></polygon>
            <polygon id="Fill-2-Copy" fill="#FFFFFF" points="5.22476943 0 8.70781393 0 8.70781393 13.9325834 5.22476943 13.9325834"></polygon>
            <polygon id="Fill-3-Copy" fill="#FFFFFF" points="0 5.22476943 23.9944 5.22476943 23.9944 8.7074086 0 8.7074086"></polygon>
            <polygon id="Fill-4-Copy" fill="#192967" points="6.09502389 0 7.83674881 0 7.83674881 13.9325834 6.09502389 13.9325834"></polygon>
            <polygon id="Fill-5-Copy" fill="#192967" points="0 6.09583456 23.9944 6.09583456 23.9944 7.83755948 0 7.83755948"></polygon>
        </g>
    </g>
</svg>