<?xml version="1.0" encoding="UTF-8"?>
<svg width="24px" height="24px" viewBox="0 0 24 24" version="1.1" xmlns="http://www.w3.org/2000/svg" xmlns:xlink="http://www.w3.org/1999/xlink">
    <!-- Generator: Sketch 54.1 (76490) - https://sketchapp.com -->
    <title>Philippines</title>
    <desc>Created with Sketch.</desc>
    <g id="Philippines" stroke="none" stroke-width="1" fill="none" fill-rule="evenodd">
        <g id="phl" transform="translate(0.000000, 5.000000)">
            <polygon id="Fill-2" fill="#0038A8" points="0 0.0947613863 23.9831005 0.0947613863 23.9831005 6.9452675 0 6.9452675"></polygon>
            <polygon id="Fill-3" fill="#CE1126" points="0 6.9452675 23.9831005 6.9452675 23.9831005 13.7972973 0 13.7972973"></polygon>
            <polyline id="Fill-4" fill="#FFFFFF" points="0 13.7972973 0 0.0924758526 10.0928119 6.9452675 0 13.7972973"></polyline>
            <polyline id="Fill-5" fill="#FCD116" points="1.41573379 12.4922576 0.92111712 12.2804648 0.569699328 12.6827187 0.622334592 12.1539986 0.12384768 11.9498243 0.65020032 11.8340239 0.695869152 11.3060656 0.969108096 11.7631724 1.49468669 11.6420391 1.13707651 12.0389601 1.41573379 12.4922576"></polyline>
            <path d="M5.48490413,7.25076716 L5.71479639,7.01230982 L5.40440314,6.77842354 C5.17528493,6.8050881 4.94616672,6.83327635 4.71627447,6.86070275 C4.48638221,6.88736731 4.50495936,6.7913749 4.71937066,6.75556821 C4.91907504,6.72052336 5.11955347,6.68547851 5.32003191,6.65043366 C5.17760707,6.53920436 5.16986659,6.50415951 5.00035008,6.54834649 C4.80838618,6.59939008 4.54985415,6.7639485 4.47786768,6.56205969 C4.4314248,6.43026059 4.32460618,6.37388409 4.45774243,6.30150886 C4.56069082,6.24589421 4.66673539,6.18875587 4.77123187,6.13314122 C4.96474387,6.02800667 4.96319578,6.02648298 4.9941577,5.80859544 C4.84089619,5.90915892 4.68763469,6.00896056 4.53514723,6.11104773 L4.32925047,6.24589421 C4.21701351,6.31674575 4.32460618,6.12628462 4.34705357,6.10876219 C4.53901747,5.9617262 4.73098138,5.81621389 4.92217123,5.67070158 C5.05453344,5.56861441 5.00654247,5.44062453 5.00499437,5.2775898 L4.61642227,5.32025309 C4.47090125,5.49623918 4.32538023,5.67374896 4.17908515,5.8489732 C4.03356413,6.02648298 3.97860672,5.94420377 4.10632464,5.77126506 C4.22630208,5.60899217 4.34550547,5.44748113 4.46470887,5.28520824 C4.28590378,5.30273067 4.25261971,5.2844464 4.16360419,5.43072055 C4.1024544,5.53052218 4.03975651,5.63260935 3.98015482,5.73164914 C3.89965383,5.86344825 3.94377456,5.86725747 3.78432067,5.78954933 C3.65428061,5.72783992 3.50488935,5.7651703 3.54823603,5.60975402 C3.57919795,5.49623918 3.61015987,5.38424803 3.64189584,5.27149504 C3.69917539,5.06122595 3.69685325,5.06122595 3.55907271,4.88752539 C3.52656269,5.06655886 3.49327863,5.24406864 3.46076861,5.4231021 L3.41664787,5.66308314 C3.39342643,5.78954933 3.32608426,5.58080392 3.3299545,5.55185383 C3.35627213,5.31568202 3.38181571,5.07722468 3.40658525,4.84257656 C3.42593645,4.6772563 3.29744448,4.62392718 3.17669299,4.51041234 L2.93983431,4.81591201 C2.96692599,5.04141799 2.99556576,5.26616213 3.02265744,5.49242996 C3.05129722,5.71945963 2.95376717,5.70041352 2.91506477,5.49014442 C2.88023261,5.29358853 2.8446264,5.0962708 2.80824614,4.89895306 C2.69523514,5.03760877 2.66040298,5.0467509 2.70607181,5.21283301 C2.73625968,5.325586 2.76799565,5.44062453 2.79818352,5.55261568 C2.83920807,5.69888983 2.87326618,5.67374896 2.7076199,5.7308873 C2.57138746,5.77812166 2.50327123,5.90154048 2.42354429,5.76593215 C2.36394259,5.66536867 2.30356685,5.5632815 2.2431911,5.46271802 C2.13172819,5.27454242 2.13095414,5.27530426 1.90880237,5.25168708 C2.01484694,5.40024677 2.12011747,5.54804461 2.2269361,5.69584245 L2.36936093,5.89544572 C2.44444358,5.99981842 2.2462873,5.90077863 2.22925824,5.8779233 C2.07444864,5.69431876 1.92196118,5.50995238 1.76869968,5.325586 C1.66188106,5.19835797 1.53261504,5.2486397 1.36774282,5.25321077 L1.42192618,5.63641858 C1.6046015,5.77431244 1.78572874,5.91296814 1.96995216,6.05086201 C2.15340154,6.1910414 2.07290054,6.24589421 1.89254736,6.12476093 C1.72457894,6.01200793 1.55815862,5.8984931 1.39019021,5.78497826 C1.41186355,5.9617262 1.3932864,5.99448551 1.54499981,6.07905025 C1.72535299,6.17809004 2.01871718,6.23294285 1.92505738,6.43483165 C1.86313354,6.56205969 1.90338403,6.69233511 1.75089658,6.65195735 C1.63478938,6.62148357 1.52177837,6.59177163 1.40567117,6.56205969 C1.19125987,6.5056832 1.19125987,6.50796873 1.01555098,6.64510075 C1.1982263,6.67709822 1.38012758,6.707572 1.56125482,6.73956947 L1.80430589,6.78147092 C1.93434595,6.80280257 1.7222568,6.86984489 1.69206893,6.86679751 C1.4528881,6.84318033 1.21061107,6.8188013 0.97143024,6.79518412 C0.803461824,6.77842354 0.749278464,6.90412789 0.635493408,7.02297564 L0.947434752,7.25762376 C1.17577891,7.22638813 1.40412307,7.19819988 1.63401533,7.16848795 C1.86313354,7.13953786 1.84687853,7.23400658 1.63246723,7.27438434 C1.4335369,7.31171472 1.23305846,7.34828326 1.03412813,7.38561364 C1.17423082,7.49303372 1.18506749,7.5303641 1.35380995,7.48389159 C1.55041814,7.42903878 1.8012097,7.2652422 1.87629235,7.46941654 C1.92505738,7.60197749 2.03884243,7.66140137 1.90415808,7.73606213 C1.7996616,7.795486 1.69748726,7.85262435 1.59376483,7.91052453 C1.40102688,8.01794461 1.40180093,8.0194683 1.37470925,8.23811768 C1.5271967,8.13603051 1.67891011,8.03241966 1.83139757,7.93033249 L2.03497219,7.79243863 C2.14256486,7.71853971 2.03884243,7.91128637 2.01639504,7.93033249 C1.82675328,8.07813033 1.63788557,8.22745186 1.4497919,8.37677339 C1.31897779,8.47886056 1.36929091,8.60761229 1.3739352,8.76988517 L1.7609592,8.72188897 C1.90415808,8.5428555 2.04658291,8.36534572 2.18978179,8.18631225 C2.33220662,8.00651694 2.38871213,8.08727246 2.26331635,8.26249671 C2.14720915,8.42629328 2.0303279,8.59085171 1.9142207,8.75388644 C2.09302579,8.73407848 2.12476176,8.75236275 2.21222918,8.60380306 C2.27260493,8.50171589 2.33143258,8.40115241 2.39103427,8.2983034 C2.46766502,8.16802799 2.42509238,8.16193323 2.58299818,8.23659399 C2.71303824,8.29754156 2.85236688,8.25868749 2.81211638,8.41181824 C2.78115446,8.52457123 2.75096659,8.63732422 2.72000467,8.75083906 C2.66349917,8.96110815 2.66736941,8.96187 2.805924,9.13480871 C2.83765997,8.9550134 2.86862189,8.77674177 2.90190595,8.59694646 L2.94370455,8.35772728 C2.96537789,8.23049924 3.03426816,8.43924464 3.03039792,8.46819473 C3.00562839,8.70512839 2.9816329,8.94206204 2.95686336,9.17899569 C2.94060835,9.34355411 3.06910032,9.39612139 3.18985181,9.50887438 L3.42748455,9.20185103 C3.39729667,8.97634504 3.36633475,8.7516009 3.33769498,8.52685676 C3.30828115,8.29982709 3.40503715,8.31658767 3.44528765,8.52685676 C3.483216,8.72341266 3.51959626,8.92073039 3.55675056,9.11728628 C3.66743943,8.97786873 3.70304563,8.9687266 3.65582871,8.80264449 C3.62486679,8.68912965 3.59235677,8.57637666 3.56139485,8.46362367 C3.51959626,8.31811136 3.48708624,8.34325223 3.65041037,8.28382836 C3.78509472,8.23659399 3.85166285,8.11469887 3.93293789,8.24878351 C3.99253959,8.35087068 4.05291533,8.45143415 4.11329107,8.55123579 C4.22552803,8.74017324 4.22707613,8.7378877 4.45000195,8.76226673 C4.34318333,8.61523073 4.23636471,8.46667105 4.12954608,8.3188732 L3.9863472,8.12003178 C3.9089424,8.01413539 4.10787274,8.11393702 4.12722394,8.13603051 C4.28048544,8.31963505 4.43452099,8.50247774 4.58933059,8.68684412 C4.69537517,8.814834 4.82464119,8.76226673 4.99028746,8.75693382 L4.934556,8.37448786 C4.75188067,8.23811768 4.56765725,8.10022382 4.38420787,7.96156811 C4.1992104,7.82291241 4.28280759,7.7680596 4.46161267,7.88690735 C4.62880704,8.00042219 4.79677546,8.11165149 4.96551792,8.22440448 C4.94307053,8.04994208 4.96164768,8.01794461 4.80838618,7.93261802 C4.63499943,7.8381493 4.33389475,7.77872542 4.42600647,7.58369322 C4.48638221,7.45722703 4.44767981,7.33685559 4.59707107,7.37723335 C4.71240423,7.40694529 4.82696333,7.43894276 4.94152243,7.46941654 C5.15515968,7.52731673 5.15515968,7.52503119 5.33009453,7.38866102 C5.17373683,7.35971093 5.01583104,7.33152268 4.85947335,7.30409628 L4.60868179,7.25914745 C4.57617178,7.25305269 4.43452099,7.13801417 4.55682058,7.15248921 C4.86566573,7.18448668 5.17528493,7.21876969 5.48490413,7.25076716" id="Fill-6" fill="#FCD116"></path>
            <polyline id="Fill-7" fill="#FCD116" points="7.77531216 7.37494782 8.09267184 6.94602934 7.77221597 6.52092009 8.2838617 6.68624035 8.59657709 6.25351265 8.595029 6.78375645 9.10977092 6.94222012 8.59735114 7.10449301 8.60199543 7.6362605 8.28540979 7.20658017 7.77531216 7.37494782"></polyline>
            <polyline id="Fill-8" fill="#FCD116" points="1.4126376 1.39294448 0.918794976 1.60626096 0.566603136 1.20705442 0.620786496 1.73577453 0.12384768 1.94375809 0.650974368 2.05574923 0.698965344 2.5837075 0.970656192 2.12660078 1.49468669 2.24392484 1.13707651 1.84928936 1.4126376 1.39294448"></polyline>
        </g>
    </g>
</svg>