<?xml version="1.0" encoding="UTF-8"?>
<svg width="24px" height="24px" viewBox="0 0 24 24" version="1.1" xmlns="http://www.w3.org/2000/svg" xmlns:xlink="http://www.w3.org/1999/xlink">
    <!-- Generator: Sketch 54.1 (76490) - https://sketchapp.com -->
    <title>Singapore</title>
    <desc>Created with Sketch.</desc>
    <g id="Singapore" stroke="none" stroke-width="1" fill="none" fill-rule="evenodd">
        <g id="sgp" transform="translate(0.000000, 5.000000)">
            <polygon id="Fill-2" fill="#F42A41" points="0 0 24 0 24 6.75930999 0 6.75930999"></polygon>
            <polygon id="Fill-3" fill="#FFFFFF" points="0.0975503946 6.75930999 23.9378255 6.75930999 23.9378255 13.5201234 0.0975503946 13.5201234"></polygon>
            <g id="Group" transform="translate(1.892552, 0.614551)" fill="#FFFFFF">
                <path d="M2.00347155,2.97106368 C2.00347155,1.93363027 2.65806346,1.0432576 3.59986632,0.631196326 C3.4138408,0.592611083 3.22236683,0.569314333 3.02466606,0.569314333 C1.60651332,0.569314333 0.456112792,1.64460496 0.456112792,2.97106368 C0.456112792,4.29825041 1.60651332,5.37354104 3.02466606,5.37354104 C3.22236683,5.37354104 3.4138408,5.35097231 3.59986632,5.31165905 C2.65806346,4.9003258 2.00347155,4.00776906 2.00347155,2.97106368" id="Fill-4"></path>
                <polyline id="Fill-5" points="4.80008121 1.02869713 4.94718926 1.45968701 5.43210099 1.45968701 5.0405912 1.72468754 5.18925595 2.15494939 4.80008121 1.88922084 4.40779308 2.15494939 4.55645783 1.72468754 4.16572639 1.45968701 4.64908141 1.45968701 4.80008121 1.02869713"></polyline>
                <polyline id="Fill-6" points="6.2267958 2.02827332 6.37546055 2.45780715 6.85959392 2.45780715 6.46808414 2.72426373 6.61830559 3.15379756 6.2267958 2.888069 5.83528601 3.15379756 5.98472911 2.72426373 5.59477603 2.45780715 6.0773527 2.45780715 6.2267958 2.02827332"></polyline>
                <polyline id="Fill-7" points="3.34612439 2.02827332 3.49556749 2.45780715 3.97892252 2.45780715 3.58741273 2.72426373 3.73685583 3.15379756 3.34612439 2.888069 2.95461461 3.15379756 3.10483606 2.72426373 2.71332627 2.45780715 3.19590294 2.45780715 3.34612439 2.02827332"></polyline>
                <polyline id="Fill-8" points="5.67961612 3.61973256 5.82905922 4.0492664 6.31397094 4.0492664 5.92246116 4.31499495 6.07112591 4.74525681 5.67961612 4.47880023 5.28888468 4.74525681 5.43910613 4.31499495 5.04759635 4.0492664 5.53095137 4.0492664 5.67961612 3.61973256"></polyline>
                <polyline id="Fill-9" points="3.90497932 3.61973256 4.05364407 4.0492664 4.53855579 4.0492664 4.147046 4.31499495 4.2964891 4.74525681 3.90497932 4.47880023 3.51424788 4.74525681 3.66291263 4.31499495 3.27140284 4.0492664 3.75553622 4.0492664 3.90497932 3.61973256"></polyline>
            </g>
        </g>
    </g>
</svg>