<?xml version="1.0" encoding="UTF-8"?>
<svg width="24px" height="24px" viewBox="0 0 24 24" version="1.1" xmlns="http://www.w3.org/2000/svg" xmlns:xlink="http://www.w3.org/1999/xlink">
    <!-- Generator: Sketch 54.1 (76490) - https://sketchapp.com -->
    <title>Slovakia</title>
    <desc>Created with Sketch.</desc>
    <g id="Slovakia" stroke="none" stroke-width="1" fill="none" fill-rule="evenodd">
        <g id="svk" transform="translate(0.000000, 5.000000)">
            <polygon id="Fill-2-Copy" fill="#FF0000" points="0 9.04347826 24 9.04347826 24 13.5652174 0 13.5652174"></polygon>
            <polygon id="Fill-3-Copy" fill="#005CE6" points="0 4.52173913 24 4.52173913 24 9.04347826 0 9.04347826"></polygon>
            <polygon id="Fill-4-Copy" fill="#FFFFFF" points="0 0 24 0 24 4.52173913 0 4.52173913"></polygon>
            <path d="M4.68309131,2.63430835 L8.67803969,2.63657086 L8.77237351,2.6659834 C8.72787642,3.28440105 8.68070951,3.87491449 8.63621243,4.49257797 C8.62464318,4.99862461 8.45466431,5.50693375 8.09156809,5.91569273 C7.74716065,6.31464754 7.24167375,6.61028134 6.68190041,6.75583574 C5.96905709,6.57558962 5.35677719,6.13741809 5.03016858,5.57179219 C4.82904175,5.23844999 4.748947,4.86664523 4.73203811,4.49257797 C4.68843096,3.87340616 4.59765691,2.6659834 4.59765691,2.6659834 L4.68309131,2.63430835" id="Fill-5-Copy" fill="#FF0000"></path>
            <path d="M4.68309131,2.63430835 C5.93612925,2.17275762 7.42589169,2.17577429 8.67803969,2.63657086 C8.67803969,2.63657086 8.5908254,3.91111455 8.54899814,4.50162799 C8.53742889,4.98504959 8.37456956,5.47224203 8.02749229,5.86139265 C7.69732391,6.24526409 7.2149755,6.52732287 6.67834064,6.6675981 C5.99664529,6.49489366 5.4101737,6.07633049 5.09602427,5.53332963 C4.9046868,5.21582496 4.82815181,4.85910356 4.81213286,4.50162799 C4.7703056,3.90809788 4.68309131,2.63430835 4.68309131,2.63430835" id="Fill-6-Copy" fill="#005CE6"></path>
            <polyline id="Fill-7-Copy" fill="#FDE403" points="6.07407022 2.58905828 6.13903596 2.47668727 6.19599223 2.58905828 6.33838291 2.57472909 6.25472839 2.67654175 6.33838291 2.77609191 6.19599223 2.76176272 6.1354762 2.87639624 6.07851993 2.76176272 5.93523931 2.77609191 6.01889383 2.67654175 5.93523931 2.57472909 6.07407022 2.58905828"></polyline>
            <polyline id="Fill-8-Copy" fill="#FDE403" points="7.23188439 2.47668727 7.29151049 2.58905828 7.43568105 2.57472909 7.35113658 2.67654175 7.43568105 2.77609191 7.29151049 2.76176272 7.23544416 2.8748879 7.17047842 2.76553356 7.03520727 2.77232107 7.11174226 2.67427925 7.03520727 2.57472909 7.17492812 2.58905828 7.23188439 2.47668727"></polyline>
            <polyline id="Fill-9-Copy" fill="#FDE403" points="6.62583408 3.2104926 6.68368029 3.09736742 6.75220581 3.20672176 6.8821373 3.19918008 6.80738219 3.29420524 6.8821373 3.3960179 6.74330639 3.38244288 6.68368029 3.49481389 6.62583408 3.38244288 6.48344341 3.3960179 6.56709793 3.29420524 6.48344341 3.19540924 6.62583408 3.2104926"></polyline>
            <path d="M6.21468101,4.53631971 C6.37131075,4.26783595 6.52705055,4.00463136 6.68368029,3.73991844 C6.8438698,4.00463136 6.99960961,4.26783595 7.15623935,4.53631971 C7.26036253,4.41640702 7.36448571,4.29875683 7.46860889,4.18110664 C7.73292158,4.47824878 7.99189462,4.77388259 8.25620731,5.06876222 C8.24908778,5.29275008 8.03372188,5.49562123 7.76406954,5.50617958 C7.56027289,5.53332963 7.40453309,5.38098772 7.19984649,5.3907919 C7.01562856,5.38777523 6.86700829,5.51975461 6.67923059,5.50995042 C6.49145288,5.51372126 6.34728233,5.38400439 6.15861468,5.3907919 C5.95837779,5.38777523 5.79729834,5.53785463 5.59439163,5.50617958 C5.33007894,5.49185039 5.12628229,5.28973341 5.1138231,5.06876222 C5.37813579,4.77689926 5.63799878,4.47824878 5.90320141,4.18110664 C6.00732459,4.29875683 6.11055783,4.41640702 6.21468101,4.53631971" id="Fill-10-Copy" fill="#FFFFFF"></path>
            <path d="M5.79729834,5.61553392 C5.93167954,5.57480886 6.05805127,5.50391708 6.20222183,5.51975461 C6.37131075,5.52955879 6.50658189,5.6396673 6.67923059,5.63514229 C6.86700829,5.64570064 7.01117885,5.51673793 7.19984649,5.51975461 C7.38851414,5.50995042 7.5371344,5.6396673 7.71957246,5.63514229 C7.84505424,5.6419298 7.95718689,5.59140055 8.06753967,5.55067549 L7.93582829,5.72715077 C7.76940919,5.79427171 7.58163149,5.76033415 7.42856151,5.68868821 C7.2639223,5.61779643 7.07169488,5.6419298 6.91506514,5.71659242 C6.75220581,5.79125504 6.55107898,5.76787583 6.39177941,5.69321321 C6.22714019,5.61779643 6.03135302,5.6419298 5.87472327,5.71659242 C5.73411248,5.78220502 5.57125315,5.7708925 5.42174294,5.73092161 L5.30160081,5.55067549 C5.45378084,5.61553392 5.6299893,5.66907984 5.79729834,5.61553392" id="Fill-11-Copy" fill="#FFFFFF"></path>
            <path d="M5.55790402,5.8930677 C5.74568172,5.91343023 5.90676117,5.81840508 6.08296963,5.78220502 C6.31168466,5.73469245 6.49145288,5.91343023 6.72016791,5.88929686 C6.88035741,5.88552602 7.00405931,5.78446753 7.15979911,5.77692585 C7.3920739,5.75430081 7.5754019,5.92248025 7.81301634,5.8930677 C7.5157758,6.19850568 7.12865115,6.4398394 6.68368029,6.56955627 C6.24315914,6.4398394 5.85069485,6.19850568 5.55790402,5.8930677" id="Fill-12-Copy" fill="#FFFFFF"></path>
        </g>
    </g>
</svg>