<?xml version="1.0" encoding="UTF-8"?>
<svg width="24px" height="24px" viewBox="0 0 24 24" version="1.1" xmlns="http://www.w3.org/2000/svg" xmlns:xlink="http://www.w3.org/1999/xlink">
    <!-- Generator: Sketch 54.1 (76490) - https://sketchapp.com -->
    <title>South Korea</title>
    <desc>Created with Sketch.</desc>
    <g id="South-Korea" stroke="none" stroke-width="1" fill="none" fill-rule="evenodd">
        <g transform="translate(0.000000, 5.000000)">
            <polygon id="Fill-2" fill="#FFFFFF" points="0 0 24 0 24 14 0 14"></polygon>
            <g id="Group" transform="translate(5.052632, 0.636364)">
                <path d="M10.6286421,5.84465089 C10.7982846,7.72331618 9.42433262,9.38485703 7.55979264,9.55655472 C5.69525266,9.72748246 4.04544044,8.34466162 3.87503371,6.46445645 C3.70615529,4.58656111 5.0801073,2.92348036 6.94388312,2.75255262 C8.80765895,2.58162488 10.4582353,3.96521566 10.6286421,5.84465089" id="Fill-3" fill="#CE1126"></path>
                <path d="M4.35186688,4.38945524 C3.86739215,5.19635738 4.12185601,6.24579213 4.92192706,6.73393712 C5.72276226,7.22208212 6.76354237,6.96492056 7.2480171,6.15878837 C7.73172768,5.35188623 8.77327194,5.09626456 9.57334299,5.58440955 C10.3726499,6.07255455 10.6286421,7.12121935 10.1434032,7.9265816 C9.1744537,9.53961593 7.09289349,10.0516292 5.49275139,9.07610917 C3.89337345,8.09981918 3.38291742,6.00248957 4.35186688,4.38945524" id="Fill-4" fill="#003F87"></path>
                <polyline id="Fill-5" fill="#000000" points="0.0458493438 3.40392591 0.485238889 3.70266449 2.38798666 0.860798274 1.94859711 0.561289751 0.0458493438 3.40392591"></polyline>
                <polyline id="Fill-6" fill="#000000" points="0.723655477 3.86358295 1.16304502 4.16386142 3.06579279 1.3219952 2.62640325 1.02248668 0.723655477 3.86358295"></polyline>
                <polyline id="Fill-7" fill="#000000" points="1.40146161 4.32554982 1.84161531 4.62351846 3.74359892 1.7808823 3.30344522 1.48368361 1.40146161 4.32554982"></polyline>
                <polyline id="Fill-8" fill="#000000" points="11.7809889 9.00219447 12.2211426 9.30170299 13.1022142 7.98509741 12.6628246 7.68481894 11.7809889 9.00219447"></polyline>
                <polyline id="Fill-9" fill="#000000" points="10.7600768 10.5274551 11.2002305 10.8261937 12.0813021 9.50881814 11.6411484 9.21084951 10.7600768 10.5274551"></polyline>
                <polyline id="Fill-10" fill="#000000" points="12.458795 9.46262146 12.8981846 9.76212998 13.7800203 8.44552439 13.3406307 8.14678581 12.458795 9.46262146"></polyline>
                <polyline id="Fill-11" fill="#000000" points="11.437883 10.9871121 11.8772725 11.2873906 12.7591082 9.97078502 12.3189545 9.67204644 11.437883 10.9871121"></polyline>
                <polyline id="Fill-12" fill="#000000" points="13.1366012 9.92304844 13.5759907 10.221787 14.4578264 8.90595137 14.0176727 8.6072128 13.1366012 9.92304844"></polyline>
                <polyline id="Fill-13" fill="#000000" points="12.1156891 11.449849 12.5558428 11.7478176 13.4369144 10.4304421 12.9967607 10.1309335 12.1156891 11.449849"></polyline>
                <polyline id="Fill-14" fill="#000000" points="13.3406307 4.16232153 13.7800203 3.86358295 11.8788008 1.02248668 11.437883 1.32122526 13.3406307 4.16232153"></polyline>
                <polyline id="Fill-15" fill="#000000" points="12.9975248 2.17663392 13.4369144 1.87789534 12.5558428 0.561289751 12.1156891 0.860798274 12.9975248 2.17663392"></polyline>
                <polyline id="Fill-16" fill="#000000" points="14.019201 3.70266449 14.4578264 3.40392591 13.5767549 2.08655038 13.1366012 2.3860589 14.019201 3.70266449"></polyline>
                <polyline id="Fill-17" fill="#000000" points="11.6411484 3.09825783 12.0813021 2.8002892 11.2002305 1.48291366 10.760841 1.7808823 11.6411484 3.09825783"></polyline>
                <polyline id="Fill-18" fill="#000000" points="12.6628246 4.62351846 13.1022142 4.32554982 12.2211426 3.00817429 11.7817531 3.30768281 12.6628246 4.62351846"></polyline>
                <polyline id="Fill-19" fill="#000000" points="3.30420938 10.8261937 3.74359892 10.5274551 1.84161531 7.68481894 1.40146161 7.98509741 3.30420938 10.8261937"></polyline>
                <polyline id="Fill-20" fill="#000000" points="1.94859711 11.7478176 2.38798666 11.449849 0.485238889 8.6072128 0.0458493438 8.90595137 1.94859711 11.7478176"></polyline>
                <polyline id="Fill-21" fill="#000000" points="1.60472703 9.76212998 2.04488073 9.46262146 1.16380918 8.14678581 0.723655477 8.44475444 1.60472703 9.76212998"></polyline>
                <polyline id="Fill-22" fill="#000000" points="2.62640325 11.2858507 3.06579279 10.9871121 2.18472123 9.67204644 1.74456753 9.97001507 2.62640325 11.2858507"></polyline>
            </g>
        </g>
    </g>
</svg>