<?xml version="1.0" encoding="UTF-8"?>
<svg width="24px" height="24px" viewBox="0 0 24 24" version="1.1" xmlns="http://www.w3.org/2000/svg" xmlns:xlink="http://www.w3.org/1999/xlink">
    <!-- Generator: Sketch 54.1 (76490) - https://sketchapp.com -->
    <title>Taiwan</title>
    <desc>Created with Sketch.</desc>
    <g id="Taiwan" stroke="none" stroke-width="1" fill="none" fill-rule="evenodd">
        <g id="twn" transform="translate(0.000000, 5.000000)">
            <polygon id="Fill-1" fill="#D10E2F" points="0 0 24 0 24 13.5652174 0 13.5652174"></polygon>
            <polygon id="Fill-2" fill="#1C2666" points="0 0 10.23067 0 10.23067 6.76903383 0 6.76903383"></polygon>
            <path d="M5.89098547,3.47855627 L5.20917892,6.01625469 L4.52697551,3.47855627 L5.20917892,0.940070116 M5.20917892,4.15482946 L7.76654878,3.47855627 L5.20917892,2.80149534 L2.65101534,3.47855627" id="Fill-3" fill="#FFFFFF"></path>
            <path d="M5.79970753,3.81610206 L3.93009713,5.67634568 L4.61825345,3.14022274 L6.48826071,1.27997912 M4.86787879,4.06463345 L7.42405806,4.74720855 L5.5500822,2.89169136 L2.99390292,2.20911626" id="Fill-4" fill="#FFFFFF"></path>
            <path d="M5.5500822,4.06463345 L2.99390292,4.74720855 L4.86787879,2.89169136 L7.42405806,2.20911626 M4.61825345,3.81610206 L6.48826071,5.67634568 L5.79970753,3.14022274 L3.93009713,1.27997912" id="Fill-5" fill="#FFFFFF"></path>
            <path d="M5.20917892,2.03935869 C6.00924994,2.03935869 6.65851392,2.68372849 6.65851392,3.47855627 C6.65851392,4.27259632 6.00924994,4.91696611 5.20917892,4.91696611 C4.40831418,4.91696611 3.75944707,4.27259632 3.75944707,3.47855627 C3.75944707,2.68372849 4.40831418,2.03935869 5.20917892,2.03935869" id="Fill-6" fill="#1C2666"></path>
            <path d="M5.20917892,2.20911626 C5.91519397,2.20911626 6.48826071,2.7778632 6.48826071,3.47855627 C6.48826071,4.17924935 5.91519397,4.74720855 5.20917892,4.74720855 C4.50276701,4.74720855 3.93009713,4.17924935 3.93009713,3.47855627 C3.93009713,2.7778632 4.50276701,2.20911626 5.20917892,2.20911626" id="Fill-7" fill="#FFFFFF"></path>
        </g>
    </g>
</svg>