<?xml version="1.0" encoding="UTF-8"?>
<svg width="24px" height="24px" viewBox="0 0 24 24" version="1.1" xmlns="http://www.w3.org/2000/svg" xmlns:xlink="http://www.w3.org/1999/xlink">
    <!-- Generator: Sketch 54.1 (76490) - https://sketchapp.com -->
    <title>United Kingdom</title>
    <desc>Created with Sketch.</desc>
    <g id="United-Kingdom" stroke="none" stroke-width="1" fill="none" fill-rule="evenodd">
        <polygon id="Fill-2" fill="#01247D" points="0 5 24 5 24 19 0 19"></polygon>
        <g id="Group-2" transform="translate(0.000000, 5.000000)">
            <polyline id="Fill-3" fill="#FFFFFF" points="23.9054496 4.97509563 14.4699489 4.97509563 14.4699489 0.317621184 9.75219854 0.317621184 9.75219854 4.97509563 0.316697822 4.97509563 0.316697822 8.96679388 9.75219854 8.96679388 9.75219854 13.6227888 14.4699489 13.6227888 14.4699489 8.96679388 23.9054496 8.96679388 23.9054496 4.97509563"></polyline>
            <polyline id="Fill-4" fill="#FFFFFF" points="23.9054496 12.0952023 3.02354643 0.317621184 0.316697822 0.317621184 0.316697822 1.85852323 21.1776177 13.6227888 23.9054496 13.6227888 23.9054496 12.0952023"></polyline>
            <polyline id="Fill-5" fill="#FFFFFF" points="0.316697822 12.0952023 21.1977267 0.317621184 23.9054496 0.317621184 23.9054496 1.85852323 3.04365545 13.6227888 0.316697822 13.6227888 0.316697822 12.0952023"></polyline>
            <polyline id="Fill-6" fill="#CF142B" points="23.9054496 5.80657614 13.48723 5.80657614 13.48723 0.317621184 10.7349175 0.317621184 10.7349175 5.80657614 0.316697822 5.80657614 0.316697822 8.13383387 10.7349175 8.13383387 10.7349175 13.6227888 13.48723 13.6227888 13.48723 8.13383387 23.9054496 8.13383387 23.9054496 5.80657614"></polyline>
            <polyline id="Fill-7" fill="#CF142B" points="23.9054496 13.5843218 23.9054496 12.5331351 17.5658633 8.96679388 15.6983476 8.96679388 23.9054496 13.5843218"></polyline>
            <polyline id="Fill-8" fill="#CF142B" points="23.9054496 0.317621184 22.0405568 0.317621184 14.4699489 4.57636966 14.4699489 4.97509563 15.6319004 4.97509563 23.9054496 0.318360935 23.9054496 0.317621184"></polyline>
            <polyline id="Fill-9" fill="#CF142B" points="8.52642278 8.96679388 0.316697822 13.5850615 0.316697822 13.6227888 2.11776634 13.6227888 9.75219854 9.32631303 9.75219854 8.96679388 8.52642278 8.96679388"></polyline>
            <polyline id="Fill-10" fill="#CF142B" points="0.316697822 0.325758448 0.316697822 1.37620535 6.70961676 4.97509563 8.57713247 4.97509563 0.316697822 0.325758448"></polyline>
        </g>
    </g>
</svg>