<?xml version="1.0" encoding="UTF-8"?>
<svg width="24px" height="24px" viewBox="0 0 24 24" version="1.1" xmlns="http://www.w3.org/2000/svg" xmlns:xlink="http://www.w3.org/1999/xlink">
    <!-- Generator: Sketch 54.1 (76490) - https://sketchapp.com -->
    <title>United States</title>
    <desc>Created with Sketch.</desc>
    <g id="United-States" stroke="none" stroke-width="1" fill="none" fill-rule="evenodd">
        <g id="usa" transform="translate(0.000000, 5.000000)">
            <polygon id="Fill-5" fill="#BF0A30" points="0 0.303013393 23.6883117 0.303013393 23.6883117 13.7142857 0 13.7142857"></polygon>
            <polygon id="Fill-2" fill="#FFFFFF" points="0.309738143 9.38171831 23.3910976 9.38171831 23.3910976 10.3854635 0.309738143 10.3854635"></polygon>
            <polygon id="Fill-3" fill="#BF0A30" points="0.309738143 8.37652155 23.3910976 8.37652155 23.3910976 9.38171831 0.309738143 9.38171831"></polygon>
            <polygon id="Fill-4" fill="#FFFFFF" points="0.309738143 11.3892087 23.3910976 11.3892087 23.3910976 12.3936797 0.309738143 12.3936797"></polygon>
            <polygon id="Fill-6" fill="#BF0A30" points="0.309738143 10.3854635 23.3910976 10.3854635 23.3910976 11.3899345 0.309738143 11.3899345"></polygon>
            <polygon id="Fill-7" fill="#FFFFFF" points="0.309738143 7.37277633 23.3910976 7.37277633 23.3910976 8.37652155 0.309738143 8.37652155"></polygon>
            <polygon id="Fill-8" fill="#BF0A30" points="0.309738143 4.36008914 23.3910976 4.36008914 23.3910976 5.36383435 0.309738143 5.36383435"></polygon>
            <polygon id="Fill-9" fill="#FFFFFF" points="0.309738143 1.34667617 23.3910976 1.34667617 23.3910976 2.35114716 0.309738143 2.35114716"></polygon>
            <polygon id="Fill-10" fill="#BF0A30" points="0.309738143 2.35114716 23.3910976 2.35114716 23.3910976 3.35561815 0.309738143 3.35561815"></polygon>
            <polygon id="Fill-11" fill="#BF0A30" points="0.309738143 6.36757957 23.3910976 6.36757957 23.3910976 7.37277633 0.309738143 7.37277633"></polygon>
            <polygon id="Fill-12" fill="#BF0A30" points="0.309738143 0.344382502 23.3910976 0.344382502 23.3910976 1.34740194 0.309738143 1.34740194"></polygon>
            <polygon id="Fill-13" fill="#FFFFFF" points="0.309738143 3.35561815 23.3910976 3.35561815 23.3910976 4.36008914 0.309738143 4.36008914"></polygon>
            <polygon id="Fill-14" fill="#FFFFFF" points="0.309738143 5.36383435 23.3910976 5.36383435 23.3910976 6.36830534 0.309738143 6.36830534"></polygon>
            <polygon id="Fill-15" fill="#002868" points="0.309738143 0.344382502 9.54228193 0.344382502 9.54228193 7.38148562 0.309738143 7.38148562"></polygon>
            <g id="stars" transform="translate(0.261830, 0.303013)" fill="#FFFFFF">
                <polyline id="Fill-16" points="6.98258176 0.416594182 7.04588868 0.583522164 7.25206391 0.583522164 7.08524163 0.686582049 7.14940404 0.853510031 6.98258176 0.749724373 6.81490398 0.853510031 6.8799219 0.686582049 6.71224412 0.583522164 6.91841935 0.583522164 6.98258176 0.416594182"></polyline>
                <polyline id="Fill-17" points="6.98258176 1.87902846 7.04588868 2.0445049 7.25206391 2.0445049 7.08524163 2.14901633 7.14940404 2.31449276 6.98258176 2.21288443 6.81490398 2.31449276 6.8799219 2.14901633 6.71224412 2.0445049 6.91841935 2.0445049 6.98258176 1.87902846"></polyline>
                <polyline id="Fill-18" points="6.98258176 3.34218852 7.04588868 3.50766495 7.25206391 3.50766495 7.08524163 3.61217638 7.14940404 3.77765282 6.98258176 3.67459293 6.81490398 3.77765282 6.8799219 3.61217638 6.71224412 3.50766495 6.91841935 3.50766495 6.98258176 3.34218852"></polyline>
                <polyline id="Fill-19" points="6.98258176 4.83728262 7.04588868 5.00493637 7.25206391 5.00493637 7.08524163 5.10654471 7.14940404 5.27419847 6.98258176 5.17113858 6.81490398 5.27419847 6.8799219 5.10654471 6.71224412 5.00493637 6.91841935 5.00493637 6.98258176 4.83728262"></polyline>
                <polyline id="Fill-20" points="6.98258176 6.2663313 7.04588868 6.43253351 7.25206391 6.43253351 7.08524163 6.53559339 7.14940404 6.70106983 6.98258176 6.59873572 6.81490398 6.70106983 6.8799219 6.53559339 6.71224412 6.43253351 6.91841935 6.43253351 6.98258176 6.2663313"></polyline>
                <polyline id="Fill-21" points="5.43755081 0.416594182 5.50085772 0.583522164 5.70788845 0.583522164 5.54021067 0.686582049 5.60351759 0.853510031 5.43755081 0.749724373 5.26987303 0.853510031 5.33317994 0.686582049 5.16635767 0.583522164 5.37338839 0.583522164 5.43755081 0.416594182"></polyline>
                <polyline id="Fill-22" points="5.43755081 1.87902846 5.50085772 2.0445049 5.70788845 2.0445049 5.54021067 2.14901633 5.60351759 2.31449276 5.43755081 2.21288443 5.26987303 2.31449276 5.33317994 2.14901633 5.16635767 2.0445049 5.37338839 2.0445049 5.43755081 1.87902846"></polyline>
                <polyline id="Fill-23" points="5.43755081 3.34218852 5.50085772 3.50766495 5.70788845 3.50766495 5.54021067 3.61217638 5.60351759 3.77765282 5.43755081 3.67459293 5.26987303 3.77765282 5.33317994 3.61217638 5.16635767 3.50766495 5.37338839 3.50766495 5.43755081 3.34218852"></polyline>
                <polyline id="Fill-24" points="5.43755081 4.83728262 5.50085772 5.00493637 5.70788845 5.00493637 5.54021067 5.10654471 5.60351759 5.27419847 5.43755081 5.17113858 5.26987303 5.27419847 5.33317994 5.10654471 5.16635767 5.00493637 5.37338839 5.00493637 5.43755081 4.83728262"></polyline>
                <polyline id="Fill-25" points="5.43755081 6.2663313 5.50085772 6.43253351 5.70788845 6.43253351 5.54021067 6.53559339 5.60351759 6.70106983 5.43755081 6.59873572 5.26987303 6.70106983 5.33317994 6.53559339 5.16635767 6.43253351 5.37338839 6.43253351 5.43755081 6.2663313"></polyline>
                <polyline id="Fill-26" points="3.89251985 0.416594182 3.95582677 0.583522164 4.16200199 0.583522164 3.99517971 0.686582049 4.05934213 0.853510031 3.89251985 0.749724373 3.72398657 0.853510031 3.78900449 0.686582049 3.62218221 0.583522164 3.82750194 0.583522164 3.89251985 0.416594182"></polyline>
                <polyline id="Fill-27" points="3.89251985 1.87902846 3.95582677 2.0445049 4.16200199 2.0445049 3.99517971 2.14901633 4.05934213 2.31449276 3.89251985 2.21288443 3.72398657 2.31449276 3.78900449 2.14901633 3.62218221 2.0445049 3.82750194 2.0445049 3.89251985 1.87902846"></polyline>
                <polyline id="Fill-28" points="3.89251985 3.34218852 3.95582677 3.50766495 4.16200199 3.50766495 3.99517971 3.61217638 4.05934213 3.77765282 3.89251985 3.67459293 3.72398657 3.77765282 3.78900449 3.61217638 3.62218221 3.50766495 3.82750194 3.50766495 3.89251985 3.34218852"></polyline>
                <polyline id="Fill-29" points="3.89251985 4.83728262 3.95582677 5.00493637 4.16200199 5.00493637 3.99517971 5.10654471 4.05934213 5.27419847 3.89251985 5.17113858 3.72398657 5.27419847 3.78900449 5.10654471 3.62218221 5.00493637 3.82750194 5.00493637 3.89251985 4.83728262"></polyline>
                <polyline id="Fill-30" points="3.89251985 6.2663313 3.95582677 6.43253351 4.16200199 6.43253351 3.99517971 6.53559339 4.05934213 6.70106983 3.89251985 6.59873572 3.72398657 6.70106983 3.78900449 6.53559339 3.62218221 6.43253351 3.82750194 6.43253351 3.89251985 6.2663313"></polyline>
                <polyline id="Fill-31" points="2.3466334 0.416594182 2.40994031 0.583522164 2.61697104 0.583522164 2.45014876 0.686582049 2.51345567 0.853510031 2.3466334 0.749724373 2.17981112 0.853510031 2.24311803 0.686582049 2.07544025 0.583522164 2.28161548 0.583522164 2.3466334 0.416594182"></polyline>
                <polyline id="Fill-32" points="2.3466334 1.87902846 2.40994031 2.0445049 2.61697104 2.0445049 2.45014876 2.14901633 2.51345567 2.31449276 2.3466334 2.21288443 2.17981112 2.31449276 2.24311803 2.14901633 2.07544025 2.0445049 2.28161548 2.0445049 2.3466334 1.87902846"></polyline>
                <polyline id="Fill-33" points="2.3466334 3.34218852 2.40994031 3.50766495 2.61697104 3.50766495 2.45014876 3.61217638 2.51345567 3.77765282 2.3466334 3.67459293 2.17981112 3.77765282 2.24311803 3.61217638 2.07544025 3.50766495 2.28161548 3.50766495 2.3466334 3.34218852"></polyline>
                <polyline id="Fill-34" points="2.3466334 4.83728262 2.40994031 5.00493637 2.61697104 5.00493637 2.45014876 5.10654471 2.51345567 5.27419847 2.3466334 5.17113858 2.17981112 5.27419847 2.24311803 5.10654471 2.07544025 5.00493637 2.28161548 5.00493637 2.3466334 4.83728262"></polyline>
                <polyline id="Fill-35" points="2.3466334 6.2663313 2.40994031 6.43253351 2.61697104 6.43253351 2.45014876 6.53559339 2.51345567 6.70106983 2.3466334 6.59873572 2.17981112 6.70106983 2.24311803 6.53559339 2.07544025 6.43253351 2.28161548 6.43253351 2.3466334 6.2663313"></polyline>
                <polyline id="Fill-36" points="0.800746941 0.416594182 0.864909356 0.583522164 1.07108458 0.583522164 0.904262304 0.686582049 0.96756922 0.853510031 0.800746941 0.749724373 0.633924661 0.853510031 0.697231578 0.686582049 0.530409298 0.583522164 0.737440024 0.583522164 0.800746941 0.416594182"></polyline>
                <polyline id="Fill-37" points="0.800746941 1.87902846 0.864909356 2.0445049 1.07108458 2.0445049 0.904262304 2.14901633 0.96756922 2.31449276 0.800746941 2.21288443 0.633924661 2.31449276 0.697231578 2.14901633 0.530409298 2.0445049 0.737440024 2.0445049 0.800746941 1.87902846"></polyline>
                <polyline id="Fill-38" points="0.800746941 3.34218852 0.864909356 3.50766495 1.07108458 3.50766495 0.904262304 3.61217638 0.96756922 3.77765282 0.800746941 3.67459293 0.633924661 3.77765282 0.697231578 3.61217638 0.530409298 3.50766495 0.737440024 3.50766495 0.800746941 3.34218852"></polyline>
                <polyline id="Fill-39" points="0.800746941 4.83728262 0.864909356 5.00493637 1.07108458 5.00493637 0.904262304 5.10654471 0.96756922 5.27419847 0.800746941 5.17113858 0.633924661 5.27419847 0.697231578 5.10654471 0.530409298 5.00493637 0.737440024 5.00493637 0.800746941 4.83728262"></polyline>
                <polyline id="Fill-40" points="0.800746941 6.2663313 0.864909356 6.43253351 1.07108458 6.43253351 0.904262304 6.53559339 0.96756922 6.70106983 0.800746941 6.59873572 0.633924661 6.70106983 0.697231578 6.53559339 0.530409298 6.43253351 0.737440024 6.43253351 0.800746941 6.2663313"></polyline>
                <polyline id="Fill-41" points="7.77049622 1.14744843 7.83465864 1.31437642 8.04083386 1.31437642 7.87401158 1.41671053 7.9373185 1.58436428 7.77049622 1.4813044 7.60367394 1.58436428 7.66783636 1.41671053 7.50015858 1.31437642 7.70633381 1.31437642 7.77049622 1.14744843"></polyline>
                <polyline id="Fill-42" points="7.77049622 2.65705801 7.83465864 2.823986 8.04083386 2.823986 7.87401158 2.92632011 7.9373185 3.09324809 7.77049622 2.99018821 7.60367394 3.09324809 7.66783636 2.92632011 7.50015858 2.823986 7.70633381 2.823986 7.77049622 2.65705801"></polyline>
                <polyline id="Fill-43" points="7.75509724 4.13691087 7.81840416 4.30311307 8.02543488 4.30311307 7.8586126 4.40617296 7.92191952 4.57237517 7.75509724 4.46931528 7.58827496 4.57237517 7.65158188 4.40617296 7.4839041 4.30311307 7.69179032 4.30311307 7.75509724 4.13691087"></polyline>
                <polyline id="Fill-44" points="7.73969826 5.59861937 7.80386068 5.76482158 8.0100359 5.76482158 7.84235813 5.86788147 7.90737604 6.03408367 7.73969826 5.93174956 7.57287598 6.03408367 7.6370384 5.86788147 7.46936062 5.76482158 7.67639135 5.76482158 7.73969826 5.59861937"></polyline>
                <polyline id="Fill-45" points="6.22460977 1.14744843 6.28877218 1.31437642 6.49580291 1.31437642 6.32812513 1.41671053 6.39228754 1.58436428 6.22460977 1.4813044 6.05778749 1.58436428 6.1219499 1.41671053 5.95512762 1.31437642 6.16130285 1.31437642 6.22460977 1.14744843"></polyline>
                <polyline id="Fill-46" points="6.22460977 2.65705801 6.28877218 2.823986 6.49580291 2.823986 6.32812513 2.92632011 6.39228754 3.09324809 6.22460977 2.99018821 6.05778749 3.09324809 6.1219499 2.92632011 5.95512762 2.823986 6.16130285 2.823986 6.22460977 2.65705801"></polyline>
                <polyline id="Fill-47" points="6.21006628 4.13691087 6.2733732 4.30311307 6.48040393 4.30311307 6.31272615 4.40617296 6.37688856 4.57237517 6.21006628 4.46931528 6.04238851 4.57237517 6.10655092 4.40617296 5.93972864 4.30311307 6.14590387 4.30311307 6.21006628 4.13691087"></polyline>
                <polyline id="Fill-48" points="6.19466731 5.59861937 6.25797422 5.76482158 6.46414945 5.76482158 6.29732717 5.86788147 6.36148958 6.03408367 6.19466731 5.93174956 6.02698953 6.03408367 6.09115194 5.86788147 5.92347416 5.76482158 6.13050489 5.76482158 6.19466731 5.59861937"></polyline>
                <polyline id="Fill-49" points="4.67957881 1.09591849 4.74288573 1.2621207 4.94991645 1.2621207 4.78223867 1.36518059 4.84725659 1.53210857 4.67957881 1.42904868 4.51190103 1.53210857 4.57691895 1.36518059 4.40924117 1.2621207 4.61541639 1.2621207 4.67957881 1.09591849"></polyline>
                <polyline id="Fill-50" points="4.67957881 2.6048023 4.74288573 2.77100451 4.94991645 2.77100451 4.78223867 2.87479017 4.84725659 3.04099237 4.67957881 2.93865826 4.51190103 3.04099237 4.57691895 2.87479017 4.40924117 2.77100451 4.61541639 2.77100451 4.67957881 2.6048023"></polyline>
                <polyline id="Fill-51" points="4.66417983 4.08392938 4.72748675 4.25013158 4.93451747 4.25013158 4.76683969 4.35319147 4.83100211 4.52011945 4.66417983 4.41705957 4.49650205 4.52011945 4.56066447 4.35319147 4.39384219 4.25013158 4.60001741 4.25013158 4.66417983 4.08392938"></polyline>
                <polyline id="Fill-52" points="4.64878085 5.54636366 4.71208777 5.71329164 4.91911849 5.71329164 4.75229621 5.81562575 4.81560313 5.98255373 4.64878085 5.88021962 4.48195857 5.98255373 4.54526549 5.81562575 4.37844321 5.71329164 4.58461844 5.71329164 4.64878085 5.54636366"></polyline>
                <polyline id="Fill-53" points="3.13454785 1.08212879 3.19871027 1.248331 3.4048855 1.248331 3.23806322 1.35139088 3.30137013 1.51759309 3.13454785 1.41453321 2.96687008 1.51759309 3.03103249 1.35139088 2.86421021 1.248331 3.07124094 1.248331 3.13454785 1.08212879"></polyline>
                <polyline id="Fill-54" points="3.13454785 2.58956105 3.19871027 2.75648903 3.4048855 2.75648903 3.23806322 2.85954891 3.30137013 3.0264769 3.13454785 2.92341701 2.96687008 3.0264769 3.03103249 2.85954891 2.86421021 2.75648903 3.07124094 2.75648903 3.13454785 2.58956105"></polyline>
                <polyline id="Fill-55" points="3.12000437 4.0694139 3.18245579 4.23561611 3.38948652 4.23561611 3.22266424 4.33867599 3.28597115 4.50560397 3.12000437 4.40181832 2.95232659 4.50560397 3.01563351 4.33867599 2.84881123 4.23561611 3.05498646 4.23561611 3.12000437 4.0694139"></polyline>
                <polyline id="Fill-56" points="3.10374989 5.53112241 3.16791231 5.69805039 3.37408754 5.69805039 3.20640976 5.80111027 3.27057217 5.96803825 3.10374989 5.8642526 2.93692761 5.96803825 3.00023453 5.80111027 2.83341225 5.69805039 3.03958748 5.69805039 3.10374989 5.53112241"></polyline>
                <polyline id="Fill-57" points="1.5886614 1.05454938 1.65282381 1.22147737 1.85899904 1.22147737 1.69217676 1.32453725 1.75548368 1.49146523 1.5886614 1.38767957 1.42183912 1.49146523 1.48514604 1.32453725 1.31832376 1.22147737 1.52449898 1.22147737 1.5886614 1.05454938"></polyline>
                <polyline id="Fill-58" points="1.5886614 2.56343319 1.65282381 2.73036117 1.85899904 2.73036117 1.69217676 2.83342106 1.75548368 3.00034904 1.5886614 2.89728915 1.42183912 3.00034904 1.48514604 2.83342106 1.31832376 2.73036117 1.52449898 2.73036117 1.5886614 2.56343319"></polyline>
                <polyline id="Fill-59" points="1.57326242 4.04401182 1.63742483 4.21021402 1.84360006 4.21021402 1.67592228 4.31327391 1.7409402 4.47947612 1.57326242 4.37641623 1.40644014 4.47947612 1.46974706 4.31327391 1.30292478 4.21021402 1.5091 4.21021402 1.57326242 4.04401182"></polyline>
                <polyline id="Fill-60" points="1.55871894 5.50572032 1.62117036 5.67192253 1.82820108 5.67192253 1.6605233 5.77498241 1.72554122 5.94118462 1.55871894 5.83885051 1.39018566 5.94118462 1.45434808 5.77498241 1.2875258 5.67192253 1.49455652 5.67192253 1.55871894 5.50572032"></polyline>
                <polyline id="Fill-61" points="8.52846822 0.416594182 8.59091964 0.583522164 8.79795036 0.583522164 8.63112808 0.686582049 8.6952905 0.853510031 8.52846822 0.749724373 8.35993494 0.853510031 8.42409736 0.686582049 8.25727508 0.583522164 8.4634503 0.583522164 8.52846822 0.416594182"></polyline>
                <polyline id="Fill-62" points="8.52846822 1.87902846 8.59091964 2.0445049 8.79795036 2.0445049 8.63112808 2.14901633 8.6952905 2.31449276 8.52846822 2.21288443 8.35993494 2.31449276 8.42409736 2.14901633 8.25727508 2.0445049 8.4634503 2.0445049 8.52846822 1.87902846"></polyline>
                <polyline id="Fill-63" points="8.52846822 3.34218852 8.59091964 3.50766495 8.79795036 3.50766495 8.63112808 3.61217638 8.6952905 3.77765282 8.52846822 3.67459293 8.35993494 3.77765282 8.42409736 3.61217638 8.25727508 3.50766495 8.4634503 3.50766495 8.52846822 3.34218852"></polyline>
                <polyline id="Fill-64" points="8.52846822 4.83728262 8.59091964 5.00493637 8.79795036 5.00493637 8.63112808 5.10654471 8.6952905 5.27419847 8.52846822 5.17113858 8.35993494 5.27419847 8.42409736 5.10654471 8.25727508 5.00493637 8.4634503 5.00493637 8.52846822 4.83728262"></polyline>
                <polyline id="Fill-65" points="8.52846822 6.2663313 8.59091964 6.43253351 8.79795036 6.43253351 8.63112808 6.53559339 8.6952905 6.70106983 8.52846822 6.59873572 8.35993494 6.70106983 8.42409736 6.53559339 8.25727508 6.43253351 8.4634503 6.43253351 8.52846822 6.2663313"></polyline>
            </g>
        </g>
    </g>
</svg>