<?xml version="1.0" encoding="UTF-8"?>
<svg width="188px" height="148px" viewBox="0 0 188 148" version="1.1" xmlns="http://www.w3.org/2000/svg" xmlns:xlink="http://www.w3.org/1999/xlink">
    <!-- Generator: Sketch 52.5 (67469) - http://www.bohemiancoding.com/sketch -->
    <title>Right Shelf/Empty Image/Events</title>
    <desc>Created with Sketch.</desc>
    <defs>
        <linearGradient x1="52.788966%" y1="103.227435%" x2="52.788966%" y2="5.88189657%" id="linearGradient-1">
            <stop stop-color="#EBF6FB" offset="0%"></stop>
            <stop stop-color="#FFFFFF" offset="100%"></stop>
        </linearGradient>
        <linearGradient x1="54.2210105%" y1="-9.18118003%" x2="50%" y2="100%" id="linearGradient-2">
            <stop stop-color="#EBF6FB" offset="0%"></stop>
            <stop stop-color="#FFFFFF" offset="100%"></stop>
        </linearGradient>
        <path d="M1,0 L102,0 C102.552285,-1.01453063e-16 103,0.44771525 103,1 L103,70 C103,70.5522847 102.552285,71 102,71 L1,71 C0.44771525,71 6.76353751e-17,70.5522847 0,70 L0,1 C-6.76353751e-17,0.44771525 0.44771525,1.01453063e-16 1,0 Z" id="path-3"></path>
        <filter x="-3.4%" y="-3.5%" width="106.8%" height="109.9%" filterUnits="objectBoundingBox" id="filter-4">
            <feOffset dx="0" dy="1" in="SourceAlpha" result="shadowOffsetOuter1"></feOffset>
            <feGaussianBlur stdDeviation="1" in="shadowOffsetOuter1" result="shadowBlurOuter1"></feGaussianBlur>
            <feColorMatrix values="0 0 0 0 0   0 0 0 0 0   0 0 0 0 0  0 0 0 0.0575747283 0" type="matrix" in="shadowBlurOuter1"></feColorMatrix>
        </filter>
    </defs>
    <g id="Right-Shelf/Empty-Image/Events" stroke="none" stroke-width="1" fill="none" fill-rule="evenodd">
        <g id="Group" transform="translate(0.000000, 1.000000)">
            <g id="Group-12" transform="translate(94.000000, 73.000000) scale(1, -1) rotate(-180.000000) translate(-94.000000, -73.000000) " fill="url(#linearGradient-2)" fill-rule="nonzero">
                <path d="M167.959822,63.7594937 C167.195865,53.1169795 172.636047,25.4685519 162.189273,10.164557 C156.512315,1.84810127 142.308338,-2.39329114 124.098522,1.84810127 C112.129652,4.63586565 92.4889325,20.1941401 82.4236453,20.9102888 C54.6403941,22.887077 -19.3524715,17.4789373 19.4482759,80.0255699 C27.2961488,92.6763063 -35.7434305,152.669297 34.2660099,144.613924 C67.1730025,140.827605 88.0236416,131.434266 107.776037,131.773927 C132.326048,132.196089 125.399427,145.598819 168.551724,131.334647 C211.704022,117.070474 169.242206,81.6240835 167.959822,63.7594937 Z" id="Combined-Shape"></path>
            </g>
            <g id="Group-7" transform="translate(37.000000, 39.000000)">
                <g id="Rectangle" fill-rule="nonzero">
                    <use fill="black" fill-opacity="1" filter="url(#filter-4)" xlink:href="#path-3"></use>
                    <use fill="#FFFFFF" xlink:href="#path-3"></use>
                </g>
                <path d="M1,0 L102,0 C102.552285,-1.01453063e-16 103,0.44771525 103,1 L103,11.0649351 L0,11.0649351 L-2.22044605e-16,1 C-2.8967998e-16,0.44771525 0.44771525,1.01453063e-16 1,0 Z" id="Rectangle-Copy" fill="#FAFAFA" fill-rule="nonzero"></path>
                <g id="Group-23" transform="translate(15.774775, 2.766234)" fill="#FFFFFF">
                    <path d="M3.24774775,6.45454545 C5.0414293,6.45454545 6.4954955,5.00964624 6.4954955,3.22727273 C6.4954955,1.44489922 5.0414293,0 3.24774775,0 C1.4540662,0 0,1.44489922 0,3.22727273 C0,5.00964624 1.4540662,6.45454545 3.24774775,6.45454545 Z" id="Oval"></path>
                    <path d="M24.5900901,6.45454545 C26.3837716,6.45454545 27.8378378,5.00964624 27.8378378,3.22727273 C27.8378378,1.44489922 26.3837716,0 24.5900901,0 C22.7964085,0 21.3423423,1.44489922 21.3423423,3.22727273 C21.3423423,5.00964624 22.7964085,6.45454545 24.5900901,6.45454545 Z" id="Oval-Copy"></path>
                    <path d="M46.8603604,6.45454545 C48.6540419,6.45454545 50.1081081,5.00964624 50.1081081,3.22727273 C50.1081081,1.44489922 48.6540419,0 46.8603604,0 C45.0666788,0 43.6126126,1.44489922 43.6126126,3.22727273 C43.6126126,5.00964624 45.0666788,6.45454545 46.8603604,6.45454545 Z" id="Oval-Copy-2"></path>
                    <path d="M68.2027027,6.45454545 C69.9963843,6.45454545 71.4504505,5.00964624 71.4504505,3.22727273 C71.4504505,1.44489922 69.9963843,0 68.2027027,0 C66.4090212,0 64.954955,1.44489922 64.954955,3.22727273 C64.954955,5.00964624 66.4090212,6.45454545 68.2027027,6.45454545 Z" id="Oval-Copy-3"></path>
                </g>
            </g>
            <g id="Group-20" transform="translate(42.000000, 55.000000)" opacity="0.125804" stroke="#42526E" stroke-linecap="square" stroke-width="0.5">
                <path d="M78.5252525,0.462264151 L78.5252525,48.5377358" id="Line-8-Copy"></path>
                <path d="M65.5151515,0.462264151 L65.5151515,48.5377358" id="Line-8-Copy-2"></path>
                <path d="M52.5050505,0.462264151 L52.5050505,48.5377358" id="Line-8-Copy-4"></path>
                <path d="M39.4949495,0.462264151 L39.4949495,48.5377358" id="Line-8-Copy-3"></path>
                <path d="M26.4848485,0.462264151 L26.4848485,48.5377358" id="Line-8-Copy-6"></path>
                <path d="M13.4747475,0.462264151 L13.4747475,48.5377358" id="Line-8-Copy-5"></path>
                <path d="M0.464646465,12.0188679 L91.5353535,12.0188679" id="Line-9-Copy"></path>
                <path d="M0.464646465,24.9622642 L91.5353535,24.9622642" id="Line-9-Copy-2"></path>
                <path d="M0.464646465,37.9056604 L91.5353535,37.9056604" id="Line-9-Copy-4"></path>
            </g>
            <rect id="Rectangle-Copy-4" fill="#FAFAFA" x="69" y="56" width="12" height="11"></rect>
            <rect id="Rectangle-Copy-24" fill="#F1F9FC" x="44" y="56" width="12" height="11"></rect>
            <rect id="Rectangle-Copy-25" fill="#F1F9FC" x="44" y="94" width="12" height="10"></rect>
            <rect id="Rectangle-Copy-10" fill="#FFFFFF" x="69" y="68" width="12" height="12"></rect>
            <rect id="Rectangle-Copy-11" fill="#F1F9FC" x="82" y="68" width="12" height="12"></rect>
            <rect id="Rectangle-Copy-8" fill="#FAFAFA" x="108" y="56" width="12" height="11"></rect>
            <polygon id="Rectangle-Copy-12" fill="#FAFAFA" points="121 68 134 68 134 79 121 79"></polygon>
            <polygon id="Rectangle-Copy-7" fill="#F1F9FC" points="121 56 134 56 134 67 121 67"></polygon>
            <rect id="Rectangle-Copy-17" fill="#F5F5F5" x="57" y="81" width="12" height="12"></rect>
            <rect id="Rectangle-Copy-16" fill="#F5F5F5" x="82" y="81" width="12" height="12"></rect>
            <rect id="Rectangle-Copy-15" fill="#FAFAFA" x="95" y="94" width="12" height="10"></rect>
            <rect id="Rectangle-Copy-19" fill="#FAFAFA" x="69" y="94" width="12" height="10"></rect>
            <rect id="Rectangle-Copy-14" fill="#FAFAFA" x="108" y="81" width="12" height="12"></rect>
            <g id="Group-34" transform="translate(72.000000, 82.000000)">
                <polygon id="Rectangle-Copy-3" fill="#F8E3DD" points="9.23705556e-14 0.25 32 0.25 32 8.35 9.23705556e-14 8.35"></polygon>
                <path d="M3.2,3.4 L28.7388619,3.4" id="Line-3-Copy-6" stroke="#FFFFFF" stroke-linecap="square"></path>
                <path d="M3.2,5.2 L18.3136335,5.2" id="Line-3-Copy-5" stroke="#FFFFFF" stroke-linecap="square"></path>
            </g>
            <g id="Group-28" transform="translate(44.000000, 70.000000)">
                <rect id="Rectangle-Copy-20" fill="#FCE9CD" x="0" y="-1.24344979e-14" width="22" height="8"></rect>
                <path d="M2.14250036,3.11111111 L19.4145062,3.11111111" id="Line-3-Copy-8" stroke="#FFFFFF" stroke-linecap="square"></path>
                <path d="M2.14250036,4.88888889 L12.3638942,4.88888889" id="Line-3-Copy-7" stroke="#FFFFFF" stroke-linecap="square"></path>
            </g>
            <g id="Group-27" transform="translate(97.000000, 56.000000)">
                <polygon id="Rectangle-Copy-9" fill="#6A5CC8" points="1.20792265e-13 0.726903869 34 0.726903869 34 8.82690387 1.20792265e-13 8.82690387"></polygon>
                <path d="M4.13513514,4.05 L29.8034169,4.05" id="Line-3" stroke="#FFFFFF" stroke-linecap="square"></path>
                <path d="M4.13513514,5.85 L19.325358,5.85" id="Line-3-Copy" stroke="#FFFFFF" stroke-linecap="square"></path>
            </g>
            <path d="M56,35 L56,35 C56.5522847,35 57,35.4477153 57,36 L57,44 C57,44.5522847 56.5522847,45 56,45 L56,45 C55.4477153,45 55,44.5522847 55,44 L55,36 C55,35.4477153 55.4477153,35 56,35 Z" id="Rectangle" fill="#E0EDF5"></path>
            <path d="M77,35 L77,35 C77.5522847,35 78,35.4477153 78,36 L78,44 C78,44.5522847 77.5522847,45 77,45 L77,45 C76.4477153,45 76,44.5522847 76,44 L76,36 C76,35.4477153 76.4477153,35 77,35 Z" id="Rectangle-Copy-21" fill="#E0EDF5"></path>
            <path d="M100,35 L100,35 C100.552285,35 101,35.4477153 101,36 L101,44 C101,44.5522847 100.552285,45 100,45 L100,45 C99.4477153,45 99,44.5522847 99,44 L99,36 C99,35.4477153 99.4477153,35 100,35 Z" id="Rectangle-Copy-22" fill="#E0EDF5"></path>
            <path d="M121,35 L121,35 C121.552285,35 122,35.4477153 122,36 L122,44 C122,44.5522847 121.552285,45 121,45 L121,45 C120.447715,45 120,44.5522847 120,44 L120,36 C120,35.4477153 120.447715,35 121,35 Z" id="Rectangle-Copy-23" fill="#E0EDF5"></path>
            <g id="Group-2-Copy" transform="translate(117.000000, 63.000000)" fill-rule="nonzero">
                <path d="M19.0425673,10.6278958 C17.6295596,12.9385789 17.0453132,14.619796 17.2898283,15.6715471 C17.5343434,16.7232983 18.9287249,17.3246668 21.4729729,17.4756525 L25.2120684,12.4604304 L19.0425673,10.6278958 Z" id="Path-14" fill="#F1DAD5"></path>
                <path d="M18.6859673,9.70151811 C20.1554604,8.29029731 21.7762697,8.05086082 23.5483953,8.98320864 C25.320521,9.91555645 25.6769105,11.9874105 24.6175641,15.1987709 C23.0207795,17.3592533 21.6448635,17.9822103 20.4898162,17.0676421 C20.0186927,16.6946057 19.8975582,16.312029 19.7621347,15.9074637 C19.6310731,15.5159289 19.7274939,14.8933299 20.0513973,14.0396668 C19.5445558,14.2172837 19.2015675,14.3060921 19.0224324,14.3060921 C18.8432973,14.3060921 18.7951611,14.1313594 18.8780239,13.781894 L19.5671853,12.9215441 C18.9797066,11.791163 18.6859673,10.9738263 18.6859673,10.4695342 C18.6859673,9.96524206 18.6859673,9.70923669 18.6859673,9.70151811 Z" id="Path-15" fill="#42526E"></path>
                <path d="M18.4442598,11.8507095 C17.7286407,12.7544639 17.2691106,13.2063411 17.0656697,13.2063411 C16.8622287,13.2063411 17.0919937,13.4066312 17.7549647,13.8072114 L18.4442598,11.8507095 Z" id="Path-16" fill="#F1DAD5"></path>
                <path d="M12.9626638,19.0202228 C8.87540194,17.6235176 6.83219382,16.7111706 6.83303943,16.2831817 C6.83430784,15.6411985 4.4424661,6.41100119 4.44363388,5.8199485 C4.44441241,5.42591337 4.65405345,4.52331764 5.072557,3.11216132 C5.10240874,2.74124694 5.10289531,2.49497599 5.07401672,2.37334847 C5.02550098,2.16901544 4.83446296,2.01395691 4.80191277,2.01401231 C4.75323871,2.01409514 4.72123779,2.25300153 4.58010723,2.92217 C4.55509617,3.04075959 4.51126248,3.16780797 4.44860616,3.30331514 C3.91447343,2.80648871 3.55123907,2.33715011 3.35890306,1.89529935 C3.0358604,1.15317806 3.35000697,0.531945642 3.03708676,0.532478164 C2.87398442,0.532755728 2.12696387,1.75327196 1.70517747,1.89811363 C1.28339107,2.04295531 2.36004026,3.78648308 2.35926049,4.18114962 C2.35905516,4.28507307 2.83155651,4.78732589 2.83030168,5.42243385 C2.82763733,6.77095337 3.00535888,14.8395466 3.33097491,16.0306581 C3.48132505,16.5806426 3.83781212,17.973562 5.22409671,19.1630706 C6.11605903,19.9284234 8.10593675,21.0874183 11.1937299,22.6400551 L12.9626638,19.0202228 Z" id="Path-20" fill="#F1DAD5" transform="translate(7.284933, 11.586266) rotate(-6.000000) translate(-7.284933, -11.586266) "></path>
                <path d="M28.4411198,24.0788464 C29.6723231,26.5941229 30.2879248,28.4652061 30.2879248,29.6920961 C30.2879248,31.5324312 29.4686302,39.5755033 29.9727533,41.1008735 C30.3088354,42.1177869 30.3088354,43.6970349 29.9727533,45.8386176 L28.4411198,46.5786182 C28.1737698,46.1575237 28.0256903,45.7743199 27.9968811,45.4290067 C27.9680719,45.0836934 28.0264485,44.543856 28.1720108,43.8094943 C28.0413184,43.8709559 27.8953246,43.9700998 27.7340292,44.1069263 C27.6108599,44.2114105 27.5712288,44.501873 27.4269075,44.7409994 C27.3971252,44.7903458 27.320067,44.8312635 27.1957328,44.8637524 C27.081329,42.926517 27.1583872,41.7250611 27.4269075,41.2593844 C27.4522261,41.2154762 27.5314547,41.0729099 27.5523437,41.0140042 C28.0357208,39.6509112 26.8647909,29.6759003 27.0781067,29.301123 C27.2264629,29.0404742 26.6850192,27.9686943 25.4537758,26.0857831 L28.4411198,24.0788464 Z" id="Path-19" fill="#F1DAD5"></path>
                <path d="M12.3467231,17.225013 C14.7140056,17.942788 17.4185669,18.1332291 20.460407,17.7963363 C23.5022471,17.4594436 25.6501183,18.3222423 26.9040205,20.3847326 C26.4058405,23.8237274 25.8817477,25.9236713 25.3317421,26.6845641 C24.5067337,27.8259034 24.583606,35.7550866 24.4056852,35.7550866 C24.2277645,35.7550866 18.5581892,38.9316289 12.9567069,34.187039 C13.2933666,31.5915501 14.1089964,29.0898217 14.6041773,26.6845641 C14.7496085,25.9781562 14.8499015,24.9374557 14.905056,23.5624626 C11.8269302,23.2403036 10.3503181,22.8054561 10.4752198,22.2579202 C10.6001214,21.7103843 11.2239559,20.0327486 12.3467231,17.225013 Z" id="Path-17" fill="#FFC400"></path>
                <path d="M26.9093936,20.4104053 C28.1949179,22.2314664 28.8376801,23.4575381 28.8376801,24.0886206 C28.8376801,24.6089871 28.1616494,25.483612 26.5879892,26.4716292 C26.3647756,26.6117732 25.9574029,26.7924298 25.3658711,27.0135992 L24.9703609,26.6969137 L26.9093936,20.4104053 Z" id="Path-18" fill="#FFC400"></path>
                <path d="M18.6859673,44.2211608 C19.4801329,57.2830751 20.296035,65.0796927 21.1336735,67.6110135 C22.499486,67.6110135 23.5366744,67.2381562 24.2452386,66.4924415 C23.6005364,60.9519344 23.2462543,57.0399674 23.1823922,54.7565405 C22.9883806,47.819533 23.6106148,42.993497 23.7202019,40.8994151 C23.7588998,40.1599428 24.2756562,37.1358661 23.7202019,36.4549857 C23.1859615,35.8001096 21.5078833,35.6500725 18.6859673,36.0048744 L18.6859673,44.2211608 Z" id="Path-22" fill="#FFAB00"></path>
                <path d="M13.0486153,34.1862592 C11.8868336,36.9668766 11.1344402,39.4090192 10.7914349,41.5126867 C8.95502686,52.7754639 8.53425441,63.7327449 8.53425441,68.5977944 C10.0390414,69.2385885 11.137327,69.2385885 11.8291112,68.5977944 C13.1635083,59.1224972 14.1877788,52.9972273 14.9019227,50.2219848 C16.1025517,45.5562073 18.0170031,43.6888637 18.3920794,43.4733735 C18.8618837,43.2034599 20.398468,41.9867118 21.7041114,40.4617467 C23.3570829,38.5311094 24.7289626,36.1704335 24.0815279,35.3185526 C23.3089756,34.3020447 19.6313381,33.9246136 13.0486153,34.1862592 Z" id="Path-21" fill="#FFAB00"></path>
                <path d="M20.8523445,66.8883315 C23.2355677,65.9540266 24.5343734,65.6815256 24.7487615,66.0708286 C24.9631497,66.4601316 25.1981545,67.7634803 25.4537758,69.9808747 L23.5228576,70.5954713 L23.5228576,69.7333101 C22.7019508,70.3907044 22.0297224,70.8422633 21.5061724,71.0879868 C20.3920282,71.6109005 19.0317691,72.0131428 17.5377203,72.0131428 C16.9197137,72.0131428 16.5168439,71.9531562 16.3291107,71.8331831 C15.9384295,71.5835136 17.4487409,70.6244887 20.8600451,68.9561086 L20.8523445,66.8883315 Z" id="Path-23" fill="#42526E"></path>
                <path d="M7.92703244,68.3018336 C9.94117599,67.7258503 11.0715614,67.5168464 11.3181886,67.6748218 C11.5648158,67.8327971 11.6857429,69.1366773 11.6809699,71.5864622 L9.73495053,72.0258748 L9.72894895,71.3774989 C8.91713698,71.9233047 8.19394691,72.3031785 7.55937873,72.5171205 C6.80082633,72.7728632 6.22929518,73.1611691 4.90916944,73.331587 C4.21063097,73.4217628 2.66283339,73.5561703 2.52044024,73.3927075 C2.27962606,73.1162607 3.80406907,72.1675072 7.09376925,70.5464469 L7.92703244,68.3018336 Z" id="Path-23-Copy" fill="#42526E" transform="translate(7.088454, 70.546702) rotate(13.000000) translate(-7.088454, -70.546702) "></path>
            </g>
        </g>
    </g>
</svg>