<?xml version="1.0" encoding="UTF-8"?>
<svg width="188px" height="148px" viewBox="0 0 188 148" version="1.1" xmlns="http://www.w3.org/2000/svg" xmlns:xlink="http://www.w3.org/1999/xlink">
    <!-- Generator: Sketch 52.5 (67469) - http://www.bohemiancoding.com/sketch -->
    <title>Right Shelf/Empty Image/Images</title>
    <desc>Created with Sketch.</desc>
    <defs>
        <linearGradient x1="52.788966%" y1="103.227435%" x2="52.788966%" y2="5.88189657%" id="linearGradient-1">
            <stop stop-color="#EBF6FB" offset="0%"></stop>
            <stop stop-color="#FFFFFF" offset="100%"></stop>
        </linearGradient>
        <linearGradient x1="52.788966%" y1="103.227435%" x2="52.788966%" y2="0%" id="linearGradient-2">
            <stop stop-color="#EBF6FB" offset="0%"></stop>
            <stop stop-color="#FFFFFF" offset="100%"></stop>
        </linearGradient>
        <filter x="-5.9%" y="-6.3%" width="111.7%" height="112.6%" filterUnits="objectBoundingBox" id="filter-3">
            <feOffset dx="0" dy="1" in="SourceAlpha" result="shadowOffsetOuter1"></feOffset>
            <feGaussianBlur stdDeviation="1" in="shadowOffsetOuter1" result="shadowBlurOuter1"></feGaussianBlur>
            <feColorMatrix values="0 0 0 0 0   0 0 0 0 0   0 0 0 0 0  0 0 0 0.0575747283 0" type="matrix" in="shadowBlurOuter1" result="shadowMatrixOuter1"></feColorMatrix>
            <feMerge>
                <feMergeNode in="shadowMatrixOuter1"></feMergeNode>
                <feMergeNode in="SourceGraphic"></feMergeNode>
            </feMerge>
        </filter>
        <polygon id="path-4" points="6.1686286e-16 0 111 0 111 103 6.1686286e-16 103"></polygon>
        <path d="M109.803489,50.1300811 L68.3597611,3.89288423 C67.6225129,3.07036437 66.3580711,3.00123801 65.5355513,3.73848618 C65.1122992,4.11785916 64.8704572,4.65940103 64.8704572,5.22779013 L64.8704572,30.7051204 L55.0628854,30.7051204 C24.6521233,30.7051204 0,55.7871862 0,86.7283238 L0,103 L4.35596994,98.1426227 C19.1666471,81.6327235 40.1232147,72.2248465 62.0938448,72.2248465 L64.8704572,72.2248465 L64.8704572,97.7024316 C64.8704572,98.8070011 65.7658877,99.7024316 66.8704572,99.7024316 C67.4388481,99.7024316 67.9803916,99.460588 68.3597647,99.0373335 L109.803492,52.7998889 C110.484417,52.040203 110.484415,50.8897652 109.803489,50.1300811 Z" id="path-6"></path>
        <filter x="-3.2%" y="0.7%" width="105.7%" height="103.7%" filterUnits="objectBoundingBox" id="filter-8">
            <feOffset dx="0" dy="1" in="SourceAlpha" result="shadowOffsetOuter1"></feOffset>
            <feGaussianBlur stdDeviation="1" in="shadowOffsetOuter1" result="shadowBlurOuter1"></feGaussianBlur>
            <feColorMatrix values="0 0 0 0 0   0 0 0 0 0   0 0 0 0 0  0 0 0 0.0575747283 0" type="matrix" in="shadowBlurOuter1"></feColorMatrix>
        </filter>
    </defs>
    <g id="Right-Shelf/Empty-Image/Images" stroke="none" stroke-width="1" fill="none" fill-rule="evenodd">
        <g id="Group-34" transform="translate(5.000000, 1.000000)">
            <g id="Group-12" transform="translate(89.500000, 73.500000) scale(-1, 1) rotate(-180.000000) translate(-89.500000, -73.500000) " fill="url(#linearGradient-2)" fill-rule="nonzero">
                <path d="M141.708333,18.4746996 C137.564815,-21.3516258 88.6999633,17.773391 65.4675926,16.1039326 C58.3085891,15.5894927 2.48611111,14.810444 0.797362435,35.3072628 C-1.2414238,60.052586 42.2204486,73.2118505 44.75,100.962654 C47.2795514,128.713458 61.2079304,146.587079 85.4303365,146.587079 C103.307995,146.587079 118.915015,121.407974 137.564815,103.643258 C161.714174,80.6399817 178.965949,80.4254983 178.965949,63.1769663 C178.965949,47.6239559 143.348902,34.2433766 141.708333,18.4746996 Z" id="Combined-Shape"></path>
            </g>
            <g id="share" filter="url(#filter-3)" transform="translate(35.000000, 30.000000)">
                <mask id="mask-5" fill="white">
                    <use xlink:href="#path-4"></use>
                </mask>
                <g id="Clip-2"></g>
                <g id="Group-20" mask="url(#mask-5)">
                    <mask id="mask-7" fill="white">
                        <use xlink:href="#path-6"></use>
                    </mask>
                    <g id="Fill-1" fill-rule="nonzero">
                        <use fill="black" fill-opacity="1" filter="url(#filter-8)" xlink:href="#path-6"></use>
                        <use fill="#FFFFFF" xlink:href="#path-6"></use>
                    </g>
                    <g id="Group-56" mask="url(#mask-7)">
                        <g transform="translate(-7.455224, 45.685484)">
                            <g id="Group-53" transform="translate(4.970149, 0.000000)">
                                <polygon id="Path-26" fill="#F5F5F5" points="19.3835821 21.9600044 32.4875828 0.0938876791 60.7790286 46.7717122 15.1856312 46.7717122"></polygon>
                                <polygon id="Path-27" fill="#FAFAFA" points="52.0385394 32.0647949 53.5717041 29.4031062 64.5571844 49.3147903 43.1476347 49.7869546"></polygon>
                                <polygon id="Path-25" fill="#FAFAFA" points="0.00332155209 41.6728288 15.6966861 14.8968451 31.1013408 41.6728288"></polygon>
                            </g>
                            <g id="Group-54" transform="translate(0.000000, 16.612903)">
                                <polygon id="Path-28" fill="#E0EDF5" points="0.604348623 27.4821493 4.16568872 5.81451613 8.28358209 33.2258065 0 31.3793954"></polygon>
                                <polygon id="Path-28-Copy" fill="#E0EDF5" points="10.5446471 33.2966655 14.1059872 11.6290323 18.2238806 39.0403226 9.94029851 37.1939116"></polygon>
                                <polygon id="Path-28-Copy-2" fill="#E0EDF5" points="14.6864382 27.4821493 18.2477783 5.81451613 22.3656716 33.2258065 14.0820896 31.3793954"></polygon>
                                <polygon id="Path-28-Copy-4" fill="#E0EDF5" points="32.9103188 24.9902139 36.4716589 3.32258065 40.5895522 30.733871 32.3059701 28.88746"></polygon>
                                <polygon id="Path-28-Copy-5" fill="#E0EDF5" points="38.7088262 21.6676332 42.2701663 0 46.3880597 27.4112903 38.1044776 25.5648793"></polygon>
                                <polygon id="Path-28-Copy-6" fill="#E0EDF5" points="44.5073337 29.9740848 48.0686738 8.30645161 52.1865672 35.7177419 43.9029851 33.8713309"></polygon>
                                <polygon id="Path-28-Copy-7" fill="#E0EDF5" points="49.477483 33.2966655 53.038823 11.6290323 57.1567164 39.0403226 48.8731343 37.1939116"></polygon>
                                <polygon id="Path-28-Copy-8" fill="#E0EDF5" points="55.2759904 28.3127945 58.8373305 6.64516129 62.9552239 34.0564516 54.6716418 32.2100406"></polygon>
                                <polygon id="Path-28-Copy-3" fill="#E0EDF5" points="24.6267367 29.9740848 28.1880768 8.30645161 32.3059701 35.7177419 24.0223881 33.8713309"></polygon>
                            </g>
                            <g id="Group-55" transform="translate(3.313433, 41.532258)">
                                <ellipse id="Oval" fill="#F8E3DD" cx="26.2086768" cy="7.87111349" rx="9.92999554" ry="6.88034396"></ellipse>
                                <ellipse id="Oval-Copy-5" fill="#F8E3DD" cx="9.92999554" cy="6.88034396" rx="9.92999554" ry="6.88034396"></ellipse>
                                <ellipse id="Oval-Copy-8" fill="#FCEBE6" cx="9.92999554" cy="16.0174407" rx="9.92999554" ry="6.88034396"></ellipse>
                                <ellipse id="Oval-Copy-3" fill="#FBEAE5" opacity="0.954241071" cx="55.510303" cy="9.52239604" rx="9.92999554" ry="6.88034396"></ellipse>
                                <ellipse id="Oval-Copy-2" fill="#FBEAE5" opacity="0.954241071" cx="43.5726034" cy="11.3938496" rx="9.92999554" ry="6.88034396"></ellipse>
                                <ellipse id="Oval-Copy-4" fill="#F8E3DD" cx="48.7817814" cy="6.88034396" rx="9.92999554" ry="6.88034396"></ellipse>
                            </g>
                        </g>
                    </g>
                    <g id="Group-56-Copy" mask="url(#mask-7)">
                        <g transform="translate(56.716418, 73.048387) scale(-1, 1) translate(-56.716418, -73.048387) translate(10.716418, 36.548387)">
                            <g id="Group-53" transform="translate(9.940299, 0.000000)">
                                <polygon id="Path-26" fill="#F5F5F5" points="20.2119403 21.9600044 33.315941 0.0938876791 61.6073868 46.7717122 16.0139894 46.7717122"></polygon>
                                <polygon id="Path-27" fill="#FAFAFA" points="48.7251065 21.2664078 50.2582712 18.6047191 61.2437516 41.0083387 39.8342019 41.480503"></polygon>
                                <polygon id="Path-25" fill="#FAFAFA" points="0.00332155209 42.5034739 15.6966861 12.4049096 31.1013408 42.5034739"></polygon>
                            </g>
                            <g id="Group-54" transform="translate(0.000000, 18.274194)">
                                <polygon id="Path-28" fill="#E0EDF5" points="4.74613967 26.1689595 8.30747976 5.81451613 12.4253731 31.5645161 4.14179104 29.8300088"></polygon>
                                <polygon id="Path-28-Copy-9" fill="#E0EDF5" points="0.604348623 22.0157336 4.16568872 1.66129032 8.28358209 27.4112903 0 25.676783"></polygon>
                                <polygon id="Path-28-Copy" fill="#E0EDF5" points="13.85808 27.8302498 17.4194201 7.47580645 21.5373134 33.2258065 13.2537313 31.4912991"></polygon>
                                <polygon id="Path-28-Copy-2" fill="#E0EDF5" points="17.1715128 22.8463788 20.7328529 2.49193548 24.8507463 28.2419355 16.5671642 26.5074282"></polygon>
                                <polygon id="Path-28-Copy-4" fill="#E0EDF5" points="35.3953934 20.3544433 38.9567335 0 43.0746269 25.75 34.7910448 24.0154927"></polygon>
                                <polygon id="Path-28-Copy-5" fill="#E0EDF5" points="40.3655427 22.8463788 43.9268827 2.49193548 48.0447761 28.2419355 39.761194 26.5074282"></polygon>
                                <polygon id="Path-28-Copy-6" fill="#E0EDF5" points="46.1640501 25.3383143 49.7253902 4.98387097 53.8432836 30.733871 45.5597015 28.9993637"></polygon>
                                <polygon id="Path-28-Copy-7" fill="#E0EDF5" points="51.1341994 28.6608949 54.6955395 8.30645161 58.8134328 34.0564516 50.5298507 32.3219443"></polygon>
                                <polygon id="Path-28-Copy-8" fill="#E0EDF5" points="56.9327068 23.677024 60.4940469 3.32258065 64.6119403 29.0725806 56.3283582 27.3380733"></polygon>
                                <polygon id="Path-28-Copy-3" fill="#E0EDF5" points="27.1118113 25.3383143 30.6731514 4.98387097 34.7910448 30.733871 26.5074627 28.9993637"></polygon>
                            </g>
                            <g id="Group-55" transform="translate(4.970149, 34.056452)">
                                <ellipse id="Oval" fill="#F8E3DD" cx="26.2086768" cy="13.6856296" rx="9.92999554" ry="6.88034396"></ellipse>
                                <ellipse id="Oval-Copy-5" fill="#F8E3DD" cx="9.92999554" cy="12.6948601" rx="9.92999554" ry="6.88034396"></ellipse>
                                <ellipse id="Oval-Copy-3" fill="#FBEAE5" opacity="0.954241071" cx="55.510303" cy="12.0143315" rx="9.92999554" ry="6.88034396"></ellipse>
                                <ellipse id="Oval-Copy" fill="#FCEBE6" cx="14.2709772" cy="17.2083657" rx="9.92999554" ry="6.88034396"></ellipse>
                                <path d="M28.3530668,37.8871559 C36.5821895,37.8871559 43.2532116,37.3991595 43.2532116,30.4273699 C43.2532116,23.4555804 36.5821895,17.8038282 28.3530668,17.8038282 C20.123944,17.8038282 13.452922,23.4555804 13.452922,30.4273699 C13.452922,37.3991595 20.123944,37.8871559 28.3530668,37.8871559 Z" id="Oval-Copy-6" fill="#FCEBE6"></path>
                                <ellipse id="Oval-Copy-2" fill="#FBEAE5" opacity="0.954241071" cx="43.5726034" cy="13.8857851" rx="9.92999554" ry="6.88034396"></ellipse>
                                <ellipse id="Oval-Copy-4" fill="#F8E3DD" cx="48.7817814" cy="6.88034396" rx="9.92999554" ry="6.88034396"></ellipse>
                                <ellipse id="Oval-Copy-7" fill="#F8E3DD" cx="76.9459605" cy="18.5093762" rx="9.92999554" ry="6.88034396"></ellipse>
                            </g>
                        </g>
                    </g>
                </g>
                <ellipse id="Oval" fill="#FCE9CD" mask="url(#mask-5)" cx="85.7350746" cy="35.3024194" rx="3.72761194" ry="3.73790323"></ellipse>
                <path d="M78.6940299,37.8135358 C78.6940299,37.1360014 77.2786774,36.5867489 75.5327594,36.5867489 C75.5084182,36.5867489 75.484077,36.5867489 75.4598545,36.5877166 C75.7342572,36.0697051 75.2417335,35.5355201 74.1827127,35.202651 C73.1238106,34.8697819 71.6749742,34.7937989 70.4262106,35.0055744 C69.177447,35.21735 68.3371409,35.6815881 68.2472565,36.209276 L68.23752,36.209276 C66.278943,36.2138839 64.6794285,36.8179234 64.6140041,37.5775691 C64.5486984,38.3372148 66.0409928,38.9812964 67.9943454,39.0365902 C68.074612,39.039401 68.1548787,39.0403226 68.23752,39.0403226 L75.5327594,39.0403226 C77.2786774,39.0403226 78.6940299,38.4911161 78.6940299,37.8135358 Z" id="Path" fill="#F1F9FC" mask="url(#mask-5)"></path>
                <path d="M77.8656716,25.5992157 C77.8656716,25.0571882 77.0331114,24.6177862 76.0061008,24.6177862 C75.9917825,24.6177862 75.9774641,24.6177862 75.9632156,24.6185603 C76.1246289,24.2041512 75.8349091,23.7768032 75.2119557,23.5105079 C74.5890721,23.2442126 73.7368154,23.1834262 73.0022485,23.3528466 C72.2676818,23.5222671 71.773384,23.8936576 71.7205108,24.3158079 L71.7147835,24.3158079 C70.5626794,24.3194942 69.6217885,24.8027258 69.5833035,25.4104424 C69.5448884,26.018159 70.4227087,26.5334242 71.5717396,26.5776593 C71.6189553,26.5799079 71.6661709,26.5806452 71.7147835,26.5806452 L76.0061008,26.5806452 C77.0331114,26.5806452 77.8656716,26.14128 77.8656716,25.5992157 Z" id="Path-Copy-3" fill="#F1F9FC" mask="url(#mask-5)"></path>
                <path d="M102.716418,47.8758507 C102.716418,46.7917958 100.468505,45.9129918 97.6955767,45.9129918 C97.6569171,45.9129918 97.6182576,45.9129918 97.5797865,45.91454 C98.0156025,45.0857217 97.233359,44.2310258 95.5513848,43.6984352 C93.8695991,43.1658445 91.5685059,43.0442717 89.5851755,43.3831126 C87.6018452,43.7219535 86.2672413,44.4647346 86.1244838,45.3090352 L86.10902,45.3090352 C82.9983388,45.3164077 80.4579334,46.282871 80.354024,47.4983041 C80.2503032,48.7137373 82.6204179,49.7442677 85.7228014,49.8327379 C85.8502837,49.8372352 85.977766,49.8387097 86.10902,49.8387097 L97.6955767,49.8387097 C100.468505,49.8387097 102.716418,48.9599794 102.716418,47.8758507 Z" id="Path-Copy" fill="#F1F9FC" mask="url(#mask-5)"></path>
            </g>
            <g id="Group-52" transform="translate(75.000000, 17.000000)">
                <g id="Group-51">
                    <g id="Group-50" transform="translate(1.838241, 25.313188)">
                        <path d="M7.22372211,9.84950936 L9.11169554,9.84950936 L16.1443172,4.4409102 C16.6498418,10.3843738 16.4529212,13.9636043 15.5535554,15.1786016 C14.2045066,17.0010976 13.3786604,17.5439547 8.72238906,17.5439547 C4.06611776,17.5439547 2.67374162,17.7636408 1.02352303,15.1786016 C-0.0766226962,13.4552421 -0.269667942,10.346605 0.444387296,5.85269018 L7.22372211,9.84950936 Z" id="Path-9" fill="#6A5CC8"></path>
                        <path d="M9.0886116,18.5620176 L11.8994551,19.2673293 L9.83574627,24.010917 C9.78322364,25.2763753 9.70630154,26.1645573 9.60497997,26.6754631 C9.5036584,27.1863689 9.28498578,27.7886993 8.94896213,28.4824542 C8.23802325,28.4995024 7.7454,28.4522858 7.47109236,28.3408045 C7.19678471,28.2293231 6.93581014,27.97027 6.68816862,27.5636452 C6.75989383,26.463018 6.88311452,25.6632608 7.0578307,25.1643735 C7.23254688,24.6654863 7.62774585,23.9849401 8.24342763,23.122735 L9.0886116,18.5620176 Z" id="Path-11-Copy" fill="#F4E7E4" transform="translate(9.293812, 23.523932) scale(-1, 1) translate(-9.293812, -23.523932) "></path>
                        <path d="M0.444387296,18.5323793 C3.37187356,7.39269863 5.05146326,1.47814639 5.48315639,0.788722556 C6.1306961,-0.245413192 8.34387165,0.322266144 9.09381175,1.01528277 C9.59377182,1.47729385 9.79187692,2.69703925 9.68812706,4.67451898 L3.43771547,19.3295227 L0.444387296,18.5323793 Z" id="Path-10-Copy" fill="#8D7CE3" transform="translate(5.079630, 9.775784) scale(-1, 1) translate(-5.079630, -9.775784) "></path>
                        <path d="M6.88800309,18.5323793 C9.81548935,7.39269863 11.495079,1.47814639 11.9267722,0.788722556 C12.3054296,0.183998015 13.3015874,0.0265295399 14.145328,0.22204551 C14.7444631,0.360880208 15.2260248,0.727516769 15.5374275,1.01528277 C16.0373876,1.47729385 16.2354927,2.69703925 16.1317429,4.67451898 L9.88133126,19.3295227 L6.88800309,18.5323793 Z" id="Path-10" fill="#7F6CDA"></path>
                        <path d="M6.88903176,18.5508179 L9.91129795,19.279442 L8.23848675,22.7549193 C8.18596412,24.0203776 8.10904201,24.9085596 8.00772044,25.4194654 C7.90639887,25.9303712 7.68772626,26.5327016 7.3517026,27.2264565 C6.64076373,27.2435047 6.14814047,27.1962881 5.87383283,27.0848068 C5.59952519,26.9733254 5.33855061,26.7142723 5.09090909,26.3076475 C5.1626343,25.2070203 5.285855,24.407263 5.46057117,23.9083758 C5.63528735,23.4094886 6.03048633,22.7289424 6.6461681,21.8667373 L6.88903176,18.5508179 Z" id="Path-11" fill="#F7E4DF"></path>
                        <path d="M5.31846999,24.3439547 C5.04832157,24.6752302 4.96367855,25.9565853 5.09228939,26.5805986 C5.22090022,27.204612 5.57458169,27.6353665 5.98106398,27.8151359 C6.38754626,27.9949053 6.71604445,27.9472566 7.1046441,27.7175528 C7.27053848,27.6194915 7.89624452,27.2067302 8.10789078,26.1260522 C8.2267587,25.5191057 8.14638672,24.5976817 8.03159362,24.9313597 C7.91680051,25.2650377 7.44407375,26.31907 6.52590973,26.196945 C5.60774572,26.0748199 5.58861842,24.0126792 5.31846999,24.3439547 Z" id="Path-13" fill="#42526E"></path>
                        <path d="M9.51002838,25.1135695 C9.23987996,25.444845 8.90359428,26.8406835 8.87210153,27.4596281 C8.84060877,28.0785727 9.35439383,28.514396 9.76087612,28.6941653 C10.1673584,28.8739347 10.7455416,28.7544 11.1341413,28.5246962 C11.3000357,28.4266349 11.769786,27.9082029 11.9814323,26.8275248 C12.1003002,26.2205783 12.2251004,25.5583183 12.1103073,25.8919963 C11.9955142,26.2256743 11.2969068,27.2561763 10.3787428,27.1340513 C9.46057877,27.0119262 9.78017681,24.782294 9.51002838,25.1135695 Z" id="Path-13-Copy" fill="#42526E" transform="translate(10.513246, 26.930608) scale(-1, 1) translate(-10.513246, -26.930608) "></path>
                    </g>
                    <path d="M17.0691158,13.2358762 C16.6784956,14.0147242 16.4831855,14.5513688 16.4831855,14.8458099 C16.4831855,15.140251 16.6784956,15.269743 17.0691158,15.2342858 C17.298233,15.393942 17.449009,15.5596879 17.5214438,15.7315237 C17.6300961,15.9892773 17.7187035,16.3445134 17.6307159,16.5665589 C17.5427283,16.7886044 15.7036057,17.94539 13.5174861,17.6767864 C12.060073,17.4977174 10.8178833,16.905596 9.79091719,15.9004223 C10.6171811,15.233993 11.2034056,14.7158868 11.5495909,14.3461038 C11.8957761,13.9763207 12.3154219,13.301429 12.8085283,12.3214286 C12.983214,12.8530762 13.4659554,13.2318841 14.2567526,13.4578523 C15.0475498,13.6838205 15.9850042,13.6098285 17.0691158,13.2358762 Z" id="Path-5" fill="#F8E3DD"></path>
                    <path d="M9.17063135,35.1314763 C9.4961917,35.1305551 9.78085226,35.1305551 10.024613,35.1314763 C10.2683738,35.1323974 10.6343398,35.1323974 11.1225111,35.1314763 C12.0061467,31.7701673 12.5970085,29.6076322 12.8950965,28.6438708 C13.1931845,27.6801095 13.4781195,26.9009351 13.7499014,26.3063476 C14.1967477,25.7721065 14.6807372,25.4968068 15.20187,25.4804486 C15.7230027,25.4640904 16.2050767,25.5563673 16.6480922,25.7572792 L20.5502787,25.9245396 C21.3426727,24.2990815 21.6753466,22.8927933 21.5483005,21.7056749 C21.4212543,20.5185565 20.7608083,18.862145 19.5669624,16.7364402 C18.8371463,15.950048 18.3119295,15.4600196 17.9913122,15.2663551 C17.6706948,15.0726906 17.3846551,15.0726906 17.1331929,15.2663551 L13.7499014,17.7490674 L8.95471526,14.1561276 C7.28898339,13.4821236 6.0565568,13.4821236 5.25743549,14.1561276 C4.05875352,15.1671335 2.65220055,16.451674 1.61604732,19.7531686 C0.57989409,23.0546632 0.704997184,25.7675512 1.28369133,26.817667 C1.66948743,27.5177442 3.37879055,27.2451445 6.41160067,25.9998677 C6.55008589,26.150938 6.6193285,26.253098 6.6193285,26.3063476 C6.6193285,26.8854983 7.07006334,27.8860968 7.17088852,28.0972044 C7.28370161,28.3334123 7.47743451,28.9650201 7.52298645,29.0506734 C7.56853839,29.1363267 7.60108558,29.508806 7.67448874,29.5063493 C7.74733302,29.5039114 7.93642375,29.5104577 8.01432013,29.3100073 C8.0922165,29.109557 8.0922165,28.8699402 8.05783981,29.2091151 C7.95096519,30.2635849 8.32189571,32.2377053 9.17063135,35.1314763 Z" id="Path-6" fill="#FFC400"></path>
                    <path d="M16.7047454,25.7572792 L6.59304537,29.9566181 C5.52132063,29.6298192 4.7232924,29.4495651 4.19896068,29.4158558 C3.67462895,29.3821466 3.08568829,29.4732325 2.43213869,29.6891136 C2.15347257,30.2076677 2.01413951,30.634688 2.01413951,30.9701744 C2.01413951,31.3056609 2.15347257,31.8237671 2.43213869,32.524493 C3.21520307,33.0272057 3.86152646,33.2492512 4.37110889,33.1906295 C4.88069131,33.1320078 5.69540136,32.7418869 6.81523902,32.0202668 C8.00339563,31.6307923 9.44520354,31.2884711 11.1406627,30.9933035 C12.836122,30.6981358 15.3455508,30.1305285 18.6689494,29.2904815 C19.2210786,28.8812894 19.6117745,28.4789898 19.8410371,28.0835828 C20.0702996,27.6881758 20.2513751,26.9692154 20.3842635,25.9267017 L16.7047454,25.7572792 Z" id="Path-8" fill="#F8E3DD"></path>
                    <g id="Path-12" transform="translate(6.059920, 0.000000)"></g>
                    <path d="M13.0244365,15.6110778 L16.6267613,15.6333163 C17.1735648,15.636692 17.6162615,16.0786444 17.6205572,16.6254415 L17.6716194,23.1251942 C17.675958,23.6774619 17.2317737,24.1286805 16.679506,24.1330191 C16.6748297,24.1330558 16.6701533,24.1330598 16.665477,24.1330309 L13.0631522,24.1107923 C12.5163486,24.1074167 12.0736519,23.6654643 12.0693563,23.1186672 L12.0182941,16.6189145 C12.0139555,16.0666468 12.4581398,15.6154282 13.0104075,15.6110896 C13.0150837,15.6110529 13.0197602,15.6110489 13.0244365,15.6110778 Z" id="Rectangle" fill="#42526E" transform="translate(14.844957, 19.872054) rotate(16.000000) translate(-14.844957, -19.872054) "></path>
                    <path d="M1.18596316,26.9621331 C1.57337683,25.7499438 3.05144681,25.2804688 4.39154243,24.2842661 C5.28493951,23.6201309 6.7977218,22.5938553 8.92988931,21.2054391 C9.36285755,20.8985809 9.6052648,20.5309643 9.65711105,20.1025892 C9.70895731,19.674214 9.82362461,19.3402857 10.001113,19.1008042 C10.4143753,18.554286 10.9078194,18.1835903 11.4814454,17.9887172 C12.3418843,17.6964076 14.3968701,17.1705315 14.9606605,17.6641749 C15.253769,17.9208146 15.5321463,18.1774353 15.396823,18.6642223 C15.2718535,19.113764 14.7480596,19.7913401 14.6288813,20.1071504 C14.4633941,20.5456745 13.598583,20.7885887 12.034448,20.8358931 L4.19838477,28.9579352 C3.64716317,29.4105552 3.2022126,29.671623 2.86353304,29.7411387 C2.35551371,29.8454122 1.57937789,30.124886 1.1891326,29.2727454 C0.798887312,28.4206048 0.798549489,28.1743224 1.18596316,26.9621331 Z" id="Path-4" fill="#F8E3DD" transform="translate(8.163969, 23.665286) rotate(6.000000) translate(-8.163969, -23.665286) "></path>
                </g>
                <g id="Group-27" transform="translate(5.793103, 0.000000)">
                    <g id="Group-28">
                        <path d="M10.1169213,14.1677262 C11.8939928,14.1914056 14.3096818,11.7822411 14.448556,9.37740361 C14.5874302,6.97256614 12.7134054,4.80292478 10.9363339,4.77924544 C9.15926232,4.75556611 6.86996101,7.03519681 6.90438781,9.42586311 C6.91382546,10.0812323 6.83590076,10.9671212 7.03769607,11.5264376 C7.57201291,13.0074046 8.82701016,14.1505383 10.1169213,14.1677262 Z" id="Oval" fill="#F8E3DD" transform="translate(10.676534, 9.473481) rotate(30.000000) translate(-10.676534, -9.473481) "></path>
                        <path d="M6.94363218,12.3471553 C6.4848011,14.1155957 5.93074562,15.1455527 5.28146575,15.4370263 C4.30754594,15.8742368 1.28883809,16.1466798 0.510889333,14.7872876 C-0.267059423,13.4278955 1.62292786,11.6760471 2.28870862,10.2074652 C3.21252499,8.16970741 3.42661162,6.03485714 3.95561151,4.99675535 C5.32097492,2.31738583 7.02075424,1.66559367 8.25274077,0.940797512 C9.4847273,0.216001359 11.6524268,0.44510251 12.4964926,0.713822193 C13.0592031,0.892968649 13.6356996,1.4218248 14.2259823,2.30039064 C15.8135312,2.58673223 16.7629067,3.65198307 17.0741086,5.49614317 C17.1554144,5.97795532 17.0461893,6.84442753 16.7464332,8.09555979 C16.1105894,9.51736891 15.5635453,10.4895085 15.1053009,11.0119784 C14.8536203,11.2989335 14.4528211,11.7030569 13.6823076,12.1349773 C13.2607144,12.3713062 12.416813,12.7597295 11.1506033,13.3002471 C12.2280664,12.5871111 12.9209188,12.1030974 13.2291603,11.8482059 C13.6868117,11.4697643 13.8017986,11.1992987 13.9211456,11.0119784 C14.3260873,10.3764046 14.4450682,9.71100834 14.4872341,9.23676708 C14.6066942,7.89319689 14.5142924,6.16710274 13.1547742,5.49614317 C11.795256,4.8251836 10.2987979,5.8737982 9.09175525,6.57395006 C7.88471261,7.27410192 7.17833514,8.45863768 6.70381739,9.30587577 C6.45766876,9.74536722 6.41355835,10.1739737 6.43562928,10.5067115 C6.45610602,10.8154154 6.53166261,11.0326943 6.60253114,11.3207407 C6.7007008,11.7197528 6.81440115,12.061891 6.94363218,12.3471553 Z" id="Path-2" fill="#42526E"></path>
                    </g>
                </g>
            </g>
        </g>
    </g>
</svg>