<?xml version="1.0" encoding="UTF-8"?>
<svg width="188px" height="148px" viewBox="0 0 188 148" version="1.1" xmlns="http://www.w3.org/2000/svg" xmlns:xlink="http://www.w3.org/1999/xlink">
    <!-- Generator: Sketch 52.5 (67469) - http://www.bohemiancoding.com/sketch -->
    <title>Right Shelf/Empty Image/Integration</title>
    <desc>Created with Sketch.</desc>
    <defs>
        <linearGradient x1="52.788966%" y1="103.227435%" x2="52.788966%" y2="5.88189657%" id="linearGradient-1">
            <stop stop-color="#EBF6FB" offset="0%"></stop>
            <stop stop-color="#FFFFFF" offset="100%"></stop>
        </linearGradient>
        <linearGradient x1="52.788966%" y1="103.227435%" x2="52.788966%" y2="0%" id="linearGradient-2">
            <stop stop-color="#EBF6FB" offset="0%"></stop>
            <stop stop-color="#FFFFFF" offset="100%"></stop>
        </linearGradient>
        <path d="M1,11.6756757 L94,11.6756757 C94.5522847,11.6756757 95,12.1233909 95,12.6756757 L95,71 C95,71.5522847 94.5522847,72 94,72 L1,72 C0.44771525,72 3.99185455e-15,71.5522847 0,71 L0,12.6756757 C-6.76353751e-17,12.1233909 0.44771525,11.6756757 1,11.6756757 Z" id="path-3"></path>
        <filter x="-3.7%" y="-4.1%" width="107.4%" height="111.6%" filterUnits="objectBoundingBox" id="filter-4">
            <feOffset dx="0" dy="1" in="SourceAlpha" result="shadowOffsetOuter1"></feOffset>
            <feGaussianBlur stdDeviation="1" in="shadowOffsetOuter1" result="shadowBlurOuter1"></feGaussianBlur>
            <feColorMatrix values="0 0 0 0 0   0 0 0 0 0   0 0 0 0 0  0 0 0 0.0575747283 0" type="matrix" in="shadowBlurOuter1"></feColorMatrix>
        </filter>
        <path d="M1,1.24344979e-14 L94,1.24344979e-14 C94.5522847,2.01814832e-14 95,0.44771525 95,1 L95,8.72972973 C95,9.28201448 94.5522847,9.72972973 94,9.72972973 L1,9.72972973 C0.44771525,9.72972973 6.76353751e-17,9.28201448 0,8.72972973 L0,1 C-6.76353751e-17,0.44771525 0.44771525,1.25359509e-14 1,1.24344979e-14 Z" id="path-5"></path>
        <filter x="-3.7%" y="-25.7%" width="107.4%" height="171.9%" filterUnits="objectBoundingBox" id="filter-6">
            <feOffset dx="0" dy="1" in="SourceAlpha" result="shadowOffsetOuter1"></feOffset>
            <feGaussianBlur stdDeviation="1" in="shadowOffsetOuter1" result="shadowBlurOuter1"></feGaussianBlur>
            <feColorMatrix values="0 0 0 0 0   0 0 0 0 0   0 0 0 0 0  0 0 0 0.0575747283 0" type="matrix" in="shadowBlurOuter1"></feColorMatrix>
        </filter>
        <polygon id="path-7" points="0.00775609756 0.0506921722 52.9485512 0.0506921722 52.9485512 51.9597299 0.00775609756 51.9597299"></polygon>
    </defs>
    <g id="Right-Shelf/Empty-Image/Integration" stroke="none" stroke-width="1" fill="none" fill-rule="evenodd">
        <g id="Group" transform="translate(0.000000, 2.000000)">
            <g id="Group-12" transform="translate(94.000000, 72.500000) rotate(-180.000000) translate(-94.000000, -72.500000) " fill="url(#linearGradient-2)" fill-rule="nonzero">
                <path d="M185.07772,19.5275734 C169.533391,-11.6984167 96.4689296,5.37329231 69.1606218,3.40604027 C60.7456273,2.79983592 2.40946969,1.40583026 0.424443311,25.558818 C-1.97203196,54.7181475 35.016296,54.4090604 33.119171,100.721477 C31.2220459,147.033893 64.3155013,150.617134 96.9222798,137.511884 C129.554404,124.396446 129.554404,127.969799 148.144611,126.098864 C165.060382,124.396446 193.224313,118.594132 185.07772,95.8557047 C166.569948,44.1975889 196.766839,43.009083 185.07772,19.5275734 Z" id="Combined-Shape"></path>
            </g>
            <g id="Group-20-Copy" transform="translate(35.000000, 41.000000)">
                <g id="Rectangle" fill-rule="nonzero">
                    <use fill="black" fill-opacity="1" filter="url(#filter-4)" xlink:href="#path-3"></use>
                    <use fill="#FFFFFF" xlink:href="#path-3"></use>
                </g>
                <g id="Group-20" transform="translate(13.571429, 50.594595)">
                    <path d="M2,1.5 C1.72385763,1.5 1.5,1.72385763 1.5,2 L1.5,11.6216216 C1.5,11.897764 1.72385763,12.1216216 2,12.1216216 L65.8571429,12.1216216 C66.1332852,12.1216216 66.3571429,11.897764 66.3571429,11.6216216 L66.3571429,2 C66.3571429,1.72385763 66.1332852,1.5 65.8571429,1.5 L2,1.5 Z" id="Rectangle" stroke="#F1F9FC" stroke-width="3" fill="#FFFFFF"></path>
                    <path d="M5.84693878,3.97019571 L7.7244898,3.97019571 C8.27677455,3.97019571 8.7244898,4.41791096 8.7244898,4.97019571 L8.7244898,8.56571621 C8.7244898,9.11800096 8.27677455,9.56571621 7.7244898,9.56571621 L5.84693878,9.56571621 C5.29465403,9.56571621 4.84693878,9.11800096 4.84693878,8.56571621 L4.84693878,4.97019571 C4.84693878,4.41791096 5.29465403,3.97019571 5.84693878,3.97019571 Z" id="Rectangle" fill="#E0EDF5"></path>
                    <path d="M10.6938776,3.97019571 L12.5714286,3.97019571 C13.1237133,3.97019571 13.5714286,4.41791096 13.5714286,4.97019571 L13.5714286,8.56571621 C13.5714286,9.11800096 13.1237133,9.56571621 12.5714286,9.56571621 L10.6938776,9.56571621 C10.1415928,9.56571621 9.69387755,9.11800096 9.69387755,8.56571621 L9.69387755,4.97019571 C9.69387755,4.41791096 10.1415928,3.97019571 10.6938776,3.97019571 Z" id="Rectangle-Copy-3" fill="#E0EDF5"></path>
                    <path d="M15.5408163,3.97019571 L17.4183673,3.97019571 C17.9706521,3.97019571 18.4183673,4.41791096 18.4183673,4.97019571 L18.4183673,8.56571621 C18.4183673,9.11800096 17.9706521,9.56571621 17.4183673,9.56571621 L15.5408163,9.56571621 C14.9885316,9.56571621 14.5408163,9.11800096 14.5408163,8.56571621 L14.5408163,4.97019571 C14.5408163,4.41791096 14.9885316,3.97019571 15.5408163,3.97019571 Z" id="Rectangle-Copy-4" fill="#E0EDF5"></path>
                    <path d="M20.3877551,3.97019571 L22.2653061,3.97019571 C22.8175909,3.97019571 23.2653061,4.41791096 23.2653061,4.97019571 L23.2653061,8.56571621 C23.2653061,9.11800096 22.8175909,9.56571621 22.2653061,9.56571621 L20.3877551,9.56571621 C19.8354704,9.56571621 19.3877551,9.11800096 19.3877551,8.56571621 L19.3877551,4.97019571 C19.3877551,4.41791096 19.8354704,3.97019571 20.3877551,3.97019571 Z" id="Rectangle-Copy-7" fill="#E0EDF5"></path>
                    <path d="M25.2346939,3.97019571 L27.1122449,3.97019571 C27.6645296,3.97019571 28.1122449,4.41791096 28.1122449,4.97019571 L28.1122449,8.56571621 C28.1122449,9.11800096 27.6645296,9.56571621 27.1122449,9.56571621 L25.2346939,9.56571621 C24.6824091,9.56571621 24.2346939,9.11800096 24.2346939,8.56571621 L24.2346939,4.97019571 C24.2346939,4.41791096 24.6824091,3.97019571 25.2346939,3.97019571 Z" id="Rectangle-Copy-8" fill="#E0EDF5"></path>
                </g>
                <g id="Rectangle-Copy" fill-rule="nonzero">
                    <use fill="black" fill-opacity="1" filter="url(#filter-6)" xlink:href="#path-5"></use>
                    <use fill="#FFFFFF" xlink:href="#path-5"></use>
                </g>
                <ellipse id="Oval" fill="#F8E3DD" cx="4.84693878" cy="4.86486486" rx="1.93877551" ry="1.94594595"></ellipse>
                <ellipse id="Oval-Copy" fill="#FCE9CD" cx="11.6326531" cy="4.86486486" rx="1.93877551" ry="1.94594595"></ellipse>
                <ellipse id="Oval-Copy-2" fill="#DDF8DF" cx="18.4183673" cy="4.86486486" rx="1.93877551" ry="1.94594595"></ellipse>
            </g>
            <g id="Group-27" transform="translate(104.000000, 82.000000)">
                <g id="student">
                    <g id="Group-3">
                        <mask id="mask-8" fill="white">
                            <use xlink:href="#path-7"></use>
                        </mask>
                        <g id="Clip-2"></g>
                    </g>
                    <g id="Group-28" transform="translate(21.592593, 8.833333)">
                        <polygon id="Fill-4" fill="#F1DAD5" points="2.99834537 11.7777778 6.8159699 11.7777778 7.12548812 15.0123761 7.67458823 15.4553796 9.81481481 16.1967651 4.90720759 25.5185185 3.55271368e-14 16.1967651 2.13982695 15.4553796 2.6893267 15.0123761"></polygon>
                        <path d="M9.15288074,5.65199895 C9.15288074,5.96284709 9.25724815,6.26766942 9.24932996,6.5659465 C10.2261287,6.36834183 9.75428122,9.52814639 9.20163005,9.96273121 C9.15803233,9.99722371 9.05003973,9.92013504 8.9587421,9.85686414 C8.76717925,11.0191162 7.13078609,14.1250002 6.09035562,15.4317676 C5.80158036,15.7949778 4.03477564,15.788952 3.74857617,15.4460009 C2.68315095,14.1684275 1.04904738,11.026077 0.856435141,9.85686414 C0.76513751,9.92013504 0.657049511,9.99722371 0.613070192,9.96273121 C0.0604190184,9.52814639 -0.411333106,6.36834183 0.56575188,6.5659465 C0.557929095,6.26766942 0.661914902,5.96284709 0.661914902,5.65199895 C0.715911201,3.19835574 2.75775361,1.97356006 4.90758862,1.96296296 C7.05704203,1.97356006 9.09878904,3.19835574 9.15288074,5.65199895 Z" id="Fill-8" fill="#F1DAD5"></path>
                        <path d="M8.02395773,2.55481248 C7.3745145,2.33440249 9.02959567,2.72492227 9.62867178,4.10773769 C10.2277479,5.4905531 9.7006687,6.47735025 9.7006687,6.47735025 C9.7006687,6.47735025 9.30092652,6.58301725 8.50144215,6.79435126 C7.49417458,6.15405318 8.50873049,5.20584839 7.50146292,4.98368784 C4.78143666,6.95085302 2.3815062,6.61436424 1.29928697,5.68874526 C1.29928697,5.68874526 1.07147726,6.45276568 0.509783021,6.45896179 C-1.62392624,2.88430565 5.13157221,-1.55670666 8.02395773,2.55481248 Z" id="Fill-9" fill="#42526E"></path>
                    </g>
                    <path d="M22.5321006,24.6836989 C21.6441288,24.5695445 19.2668686,25.3214373 15.4003201,26.9393774 C15.4003201,26.9393774 14.7066697,27.2971973 14.3406861,28.3362124 C12.2164532,30.5920171 3.65517241,37.9640408 3.65517241,39.8359082 C3.65517241,42.0537355 9.54565795,47.3963046 9.54565795,47.3963046 L13.9767392,47.3963046 L13.9767392,48.4310345 L39.0232608,48.4310345 L39.0232608,47.3963046 L43.5373352,47.3963046 C43.5373352,47.3963046 49.3448276,42.0537355 49.3448276,39.8359082 C49.3448276,37.9635361 40.7825284,30.5910077 38.6586775,28.3357077 C38.2923119,27.2971973 37.5990434,26.9393774 37.5990434,26.9393774 C33.6255631,25.5024934 31.264767,24.7607783 30.5166548,24.7142322 C29.3944866,24.644413 30.9785296,25.7572833 29.9154232,26.4613169 C28.8523168,27.1653505 28.1862185,27.3748252 26.5,27.3742291 C24.8137815,27.3736331 24.0805056,27.1009145 23.1337141,26.4589196 C22.1869226,25.8169248 23.8640584,24.8549305 22.5321006,24.6836989 Z M39.901908,45.7275629 L39.1749054,46.5083068 L39.0182007,40.4608313 L39.1749054,37.8066667 L42.4403707,40.3751615 L39.901908,45.7275629 Z M12.5613053,45.7275629 L13.288308,46.5083068 L13.4450126,40.4608313 L13.4399525,36.6252441 L9.81481481,40.4608313 L12.5613053,45.7275629 Z" id="Fill-5" fill="#FFAB00"></path>
                    <path d="M12.3358595,49.3448276 C14.0976216,49.3448276 15.5344828,48.5234709 15.5344828,47.5172414 C15.5344828,46.5103353 14.0976216,45.6896552 12.3358595,45.6896552 C10.5739237,45.6896552 9.13793129,46.5103353 9.13793129,47.5172414 C9.13723631,48.5234709 10.5739237,49.3448276 12.3358595,49.3448276 Z" id="Fill-13" fill="#F1DAD5"></path>
                    <path d="M40.6634457,49.3448276 C42.4252078,49.3448276 43.862069,48.5234709 43.862069,47.5172414 C43.862069,46.5103353 42.4252078,45.6896552 40.6634457,45.6896552 C38.9015099,45.6896552 37.4655175,46.5103353 37.4655175,47.5172414 C37.4648225,48.5234709 38.9015099,49.3448276 40.6634457,49.3448276 Z" id="Fill-13-Copy" fill="#F1DAD5"></path>
                    <path d="M10.3914933,48.6045933 L10.3914933,49.9542796 C10.3914933,50.1217357 10.2421497,50.2586207 10.0583422,50.2586207 L9.47108217,50.2586207 C9.28764925,50.2586207 9.13793103,50.1217357 9.13793103,49.9542796 L9.13793103,47.8653001 C9.13793103,47.8337024 9.14330041,47.8029033 9.15304021,47.7739293 L9.15304021,47.3141097 C9.15304021,46.9229607 9.50317356,46.6034483 9.93097558,46.6034483 L14.7414382,46.6034483 C15.1691154,46.6034483 15.5188741,46.9229607 15.5188741,47.3141097 L15.5188741,47.7731308 C15.5291134,47.8021048 15.5344828,47.8332462 15.5344828,47.8657564 L15.5344828,49.9542796 C15.5344828,50.1217357 15.3847645,50.2586207 15.2013316,50.2586207 L14.6140716,50.2586207 C14.4306387,50.2586207 14.2809205,50.1217357 14.2809205,49.9542796 L14.2809205,48.6045933 L13.8205276,48.6045933 L13.8205276,49.9542796 C13.8205276,50.1217357 13.6706845,50.2586207 13.4868769,50.2586207 L12.8996169,50.2586207 C12.716184,50.2586207 12.5664658,50.1217357 12.5664658,49.9542796 L12.5664658,48.6045933 L12.105948,48.6045933 L12.105948,49.9542796 C12.105948,50.1217357 11.9562298,50.2586207 11.7727969,50.2586207 L11.1850374,50.2586207 C11.0016045,50.2586207 10.8518862,50.1217357 10.8518862,49.9542796 L10.8518862,48.6045933 L10.3914933,48.6045933 Z" id="Fill-14" fill="#F1DAD5"></path>
                    <path d="M42.6081296,48.6045933 L42.6081296,49.9542796 C42.6081296,50.1217357 42.7578332,50.2586207 42.9412482,50.2586207 L43.5289503,50.2586207 C43.7123654,50.2586207 43.862069,50.1217357 43.862069,49.9542796 L43.862069,47.8653001 C43.862069,47.8337024 43.8562007,47.8029033 43.8464618,47.7739293 L43.8464618,47.3141097 C43.8464618,46.9229607 43.4967372,46.6034483 43.0684775,46.6034483 L38.2591087,46.6034483 C37.8313484,46.6034483 37.4811244,46.9229607 37.4811244,47.3141097 L37.4811244,47.7731308 C37.4708861,47.8021048 37.4655172,47.8332462 37.4655172,47.8657564 L37.4655172,49.9542796 C37.4655172,50.1217357 37.6153457,50.2586207 37.7986359,50.2586207 L38.386338,50.2586207 C38.5692536,50.2586207 38.7194566,50.1217357 38.7194566,49.9542796 L38.7194566,48.6045933 L39.17943,48.6045933 L39.17943,49.9542796 C39.17943,50.1217357 39.3296331,50.2586207 39.5130481,50.2586207 L40.1002508,50.2586207 C40.2841652,50.2586207 40.4333694,50.1217357 40.4333694,49.9542796 L40.4333694,48.6045933 L40.8937174,48.6045933 L40.8937174,49.9542796 C40.8937174,50.1217357 41.0435458,50.2586207 41.2273354,50.2586207 L41.8145381,50.2586207 C41.9979532,50.2586207 42.1476568,50.1217357 42.1476568,49.9542796 L42.1476568,48.6045933 L42.6081296,48.6045933 Z" id="Fill-17" fill="#F1DAD5"></path>
                    <path d="M14.3555187,32.8965517 L37.7306882,32.8965517 C38.5903099,32.8965517 39.2931034,33.5368898 39.2931034,34.3196542 L39.2931034,47.0074673 C39.2931034,47.7902318 38.5903099,48.4310345 37.7306882,48.4310345 L14.3555187,48.4310345 C13.496407,48.4310345 12.7931034,47.7902318 12.7931034,47.0074673 L12.7931034,34.3196542 C12.7931034,33.5368898 13.496407,32.8965517 14.3555187,32.8965517 Z" id="Fill-18" fill="#6A5CC8"></path>
                    <path d="M11.5606809,50.2586207 L40.525654,50.2586207 C40.8531284,50.2586207 41.1206897,50.468042 41.1206897,50.7243681 L41.1206897,52.5346526 C41.1206897,52.7909787 40.8531284,53 40.525654,53 L11.5606809,53 C11.2330785,53 10.9655172,52.7909787 10.9655172,52.5346526 L10.9655172,50.7243681 C10.9655172,50.468042 11.2330785,50.2586207 11.5606809,50.2586207 Z" id="Fill-19" fill="#6A5CC8"></path>
                    <path d="M18.2758621,51.1724138 L20.8649425,51.1724138 L20.8649425,48.4310345 L18.2758621,48.4310345 L18.2758621,51.1724138 Z M31.2212644,51.1724138 L33.8103448,51.1724138 L33.8103448,48.4310345 L31.2212644,48.4310345 L31.2212644,51.1724138 Z" id="Fill-20" fill="#ECF0F1"></path>
                </g>
                <circle id="Oval" fill="#ECF0F1" cx="26.0092593" cy="40.7314815" r="1.47222222"></circle>
            </g>
            <g id="app" transform="translate(69.000000, 57.000000)">
                <g id="Group-23">
                    <rect id="Rectangle" fill="#E0EDF5" x="0" y="0" width="12.5517241" height="12.5517241" rx="1"></rect>
                    <rect id="Rectangle-Copy-10" fill="#FCE9CD" x="0" y="15.4482759" width="12.5517241" height="12.5517241" rx="1"></rect>
                    <rect id="Rectangle-Copy-9" fill="#F8E3DD" x="15.4482759" y="0" width="12.5517241" height="12.5517241" rx="1"></rect>
                </g>
            </g>
            <g id="Group-34" transform="translate(87.000000, 75.000000)" stroke="#6A5CC8" stroke-linecap="square" stroke-width="2">
                <path d="M4.5,0.0410636982 L4.5,9" id="Line-5"></path>
                <path d="M4.50966102,0.042654751 L4.50966102,8.95734525" id="Line-5-Copy" transform="translate(4.509661, 4.500000) rotate(-270.000000) translate(-4.509661, -4.500000) "></path>
            </g>
        </g>
    </g>
</svg>