<?xml version="1.0" encoding="UTF-8"?>
<svg width="188px" height="148px" viewBox="0 0 188 148" version="1.1" xmlns="http://www.w3.org/2000/svg" xmlns:xlink="http://www.w3.org/1999/xlink">
    <!-- Generator: Sketch 52.5 (67469) - http://www.bohemiancoding.com/sketch -->
    <title>Right Shelf/Empty Image/Links</title>
    <desc>Created with Sketch.</desc>
    <defs>
        <linearGradient x1="52.788966%" y1="103.227435%" x2="52.788966%" y2="5.88189657%" id="linearGradient-1">
            <stop stop-color="#EBF6FB" offset="0%"></stop>
            <stop stop-color="#FFFFFF" offset="100%"></stop>
        </linearGradient>
        <linearGradient x1="62.0732531%" y1="96.3640934%" x2="25.8675034%" y2="11.1923151%" id="linearGradient-2">
            <stop stop-color="#EBF6FB" offset="0%"></stop>
            <stop stop-color="#FFFFFF" offset="100%"></stop>
        </linearGradient>
        <path d="M1,9.45245945 L52.707156,9.45245945 C53.2594407,9.45245945 53.707156,9.9001747 53.707156,10.4524594 L53.707156,38.3852477 C53.707156,38.9375325 53.2594407,39.3852477 52.707156,39.3852477 L1,39.3852477 C0.44771525,39.3852477 6.76353751e-17,38.9375325 0,38.3852477 L0,10.4524594 C-6.76353751e-17,9.9001747 0.44771525,9.45245945 1,9.45245945 Z" id="path-3"></path>
        <filter x="-6.5%" y="-8.4%" width="113.0%" height="123.4%" filterUnits="objectBoundingBox" id="filter-4">
            <feOffset dx="0" dy="1" in="SourceAlpha" result="shadowOffsetOuter1"></feOffset>
            <feGaussianBlur stdDeviation="1" in="shadowOffsetOuter1" result="shadowBlurOuter1"></feGaussianBlur>
            <feColorMatrix values="0 0 0 0 0   0 0 0 0 0   0 0 0 0 0  0 0 0 0.0575747283 0" type="matrix" in="shadowBlurOuter1"></feColorMatrix>
        </filter>
        <path d="M1,1.24344979e-14 L52.707156,1.24344979e-14 C53.2594407,1.23330448e-14 53.707156,0.44771525 53.707156,1 L53.707156,6.87704954 C53.707156,7.42933429 53.2594407,7.87704954 52.707156,7.87704954 L1,7.87704954 C0.44771525,7.87704954 6.76353751e-17,7.42933429 0,6.87704954 L-1.11022302e-16,1 C-1.78657678e-16,0.44771525 0.44771525,1.25359509e-14 1,1.24344979e-14 Z" id="path-5"></path>
        <filter x="-6.5%" y="-31.7%" width="113.0%" height="188.9%" filterUnits="objectBoundingBox" id="filter-6">
            <feOffset dx="0" dy="1" in="SourceAlpha" result="shadowOffsetOuter1"></feOffset>
            <feGaussianBlur stdDeviation="1" in="shadowOffsetOuter1" result="shadowBlurOuter1"></feGaussianBlur>
            <feColorMatrix values="0 0 0 0 0   0 0 0 0 0   0 0 0 0 0  0 0 0 0.0575747283 0" type="matrix" in="shadowBlurOuter1"></feColorMatrix>
        </filter>
        <path d="M1,9.45245945 L52.707156,9.45245945 C53.2594407,9.45245945 53.707156,9.9001747 53.707156,10.4524594 L53.707156,38.3852477 C53.707156,38.9375325 53.2594407,39.3852477 52.707156,39.3852477 L1,39.3852477 C0.44771525,39.3852477 6.76353751e-17,38.9375325 0,38.3852477 L0,10.4524594 C-6.76353751e-17,9.9001747 0.44771525,9.45245945 1,9.45245945 Z" id="path-7"></path>
        <filter x="-6.5%" y="-8.4%" width="113.0%" height="123.4%" filterUnits="objectBoundingBox" id="filter-8">
            <feOffset dx="0" dy="1" in="SourceAlpha" result="shadowOffsetOuter1"></feOffset>
            <feGaussianBlur stdDeviation="1" in="shadowOffsetOuter1" result="shadowBlurOuter1"></feGaussianBlur>
            <feColorMatrix values="0 0 0 0 0   0 0 0 0 0   0 0 0 0 0  0 0 0 0.0575747283 0" type="matrix" in="shadowBlurOuter1"></feColorMatrix>
        </filter>
        <path d="M1,1.24344979e-14 L52.707156,1.24344979e-14 C53.2594407,1.23330448e-14 53.707156,0.44771525 53.707156,1 L53.707156,6.87704954 C53.707156,7.42933429 53.2594407,7.87704954 52.707156,7.87704954 L1,7.87704954 C0.44771525,7.87704954 6.76353751e-17,7.42933429 0,6.87704954 L-1.11022302e-16,1 C-1.78657678e-16,0.44771525 0.44771525,1.25359509e-14 1,1.24344979e-14 Z" id="path-9"></path>
        <filter x="-6.5%" y="-31.7%" width="113.0%" height="188.9%" filterUnits="objectBoundingBox" id="filter-10">
            <feOffset dx="0" dy="1" in="SourceAlpha" result="shadowOffsetOuter1"></feOffset>
            <feGaussianBlur stdDeviation="1" in="shadowOffsetOuter1" result="shadowBlurOuter1"></feGaussianBlur>
            <feColorMatrix values="0 0 0 0 0   0 0 0 0 0   0 0 0 0 0  0 0 0 0.0575747283 0" type="matrix" in="shadowBlurOuter1"></feColorMatrix>
        </filter>
    </defs>
    <g id="Right-Shelf/Empty-Image/Links" stroke="none" stroke-width="1" fill="none" fill-rule="evenodd">
        <g id="Group-12" transform="translate(97.167458, 69.288147) rotate(-130.000000) translate(-97.167458, -69.288147) translate(-4.429156, -23.216164)" fill="url(#linearGradient-2)" fill-rule="nonzero">
            <path d="M26.7042602,117.014662 C0.142786356,136.010974 49.4195309,150.083449 79.0800075,156.055279 C91.5266455,158.56128 110.117209,161.450474 118.990132,156.532133 C129.115742,150.919415 140.374263,132.013797 149.002705,106.989721 C157.631147,81.9656455 170.145069,80.0348382 182.168016,58.2389686 C198.099093,29.3582233 108.735313,37.726353 93.2422731,31.2520107 C76.303591,24.1735531 61.2160402,16.5289623 47.1758548,51.6408851 C35.765866,80.1751696 53.265734,98.0183507 26.7042602,117.014662 Z" id="Combined-Shape" transform="translate(101.583142, 92.226847) rotate(-21.000000) translate(-101.583142, -92.226847) "></path>
        </g>
        <g id="Group-20" transform="translate(86.000000, 30.000000)">
            <g id="Rectangle" fill-rule="nonzero">
                <use fill="black" fill-opacity="1" filter="url(#filter-4)" xlink:href="#path-3"></use>
                <use fill="#FFFFFF" xlink:href="#path-3"></use>
            </g>
            <g id="Rectangle-Copy" fill-rule="nonzero">
                <use fill="black" fill-opacity="1" filter="url(#filter-6)" xlink:href="#path-5"></use>
                <use fill="#FFFFFF" xlink:href="#path-5"></use>
            </g>
            <ellipse id="Oval" fill="#F8E3DD" cx="3.94905559" cy="3.93852477" rx="1.57962223" ry="1.57540991"></ellipse>
            <ellipse id="Oval-Copy" fill="#FCE9CD" cx="9.47773341" cy="3.93852477" rx="1.57962223" ry="1.57540991"></ellipse>
            <ellipse id="Oval-Copy-2" fill="#DDF8DF" cx="15.0064112" cy="3.93852477" rx="1.57962223" ry="1.57540991"></ellipse>
        </g>
        <g id="Group-20-Copy" transform="translate(28.000000, 30.000000)">
            <g id="Rectangle" fill-rule="nonzero">
                <use fill="black" fill-opacity="1" filter="url(#filter-8)" xlink:href="#path-7"></use>
                <use fill="#FFFFFF" xlink:href="#path-7"></use>
            </g>
            <g id="Rectangle-Copy" fill-rule="nonzero">
                <use fill="black" fill-opacity="1" filter="url(#filter-10)" xlink:href="#path-9"></use>
                <use fill="#FFFFFF" xlink:href="#path-9"></use>
            </g>
            <ellipse id="Oval" fill="#F8E3DD" cx="3.94905559" cy="3.93852477" rx="1.57962223" ry="1.57540991"></ellipse>
            <ellipse id="Oval-Copy" fill="#FCE9CD" cx="9.47773341" cy="3.93852477" rx="1.57962223" ry="1.57540991"></ellipse>
            <ellipse id="Oval-Copy-2" fill="#DDF8DF" cx="15.0064112" cy="3.93852477" rx="1.57962223" ry="1.57540991"></ellipse>
        </g>
        <path d="M108,47 L120.231432,47 C120.783717,47 121.231432,47.4477153 121.231432,48 L121.231432,58.6501621 C121.231432,59.2024469 120.783717,59.6501621 120.231432,59.6501621 L108,59.6501621 C107.447715,59.6501621 107,59.2024469 107,58.6501621 L107,48 C107,47.4477153 107.447715,47 108,47 Z" id="Rectangle-Copy-4" fill="#E0EDF5"></path>
        <path d="M48,47 L60.3219083,47 C60.874193,47 61.3219083,47.4477153 61.3219083,48 L61.3219083,58.5316697 C61.3219083,59.0839545 60.874193,59.5316697 60.3219083,59.5316697 L48,59.5316697 C47.4477153,59.5316697 47,59.0839545 47,58.5316697 L47,48 C47,47.4477153 47.4477153,47 48,47 Z" id="Rectangle-Copy-8" fill="#F8E3DD"></path>
        <g id="Group-2-Copy" transform="translate(83.389323, 84.826337) rotate(-1.000000) translate(-83.389323, -84.826337) translate(66.390668, 62.293236)"></g>
        <polyline id="Path-29" stroke="#42526E" stroke-width="2" stroke-linecap="round" stroke-linejoin="round" points="54 55 54.3271594 89.6660151 62.1970356 89.6660151"></polyline>
        <path d="M54.767223,57.5344459 C56.295518,57.5344459 57.5344459,56.295518 57.5344459,54.767223 C57.5344459,53.2389279 56.295518,52 54.767223,52 C53.2389279,52 52,53.2389279 52,54.767223 C52,56.295518 53.2389279,57.5344459 54.767223,57.5344459 Z" id="Oval" stroke="#42526E" stroke-width="2" fill="#F5F5F5"></path>
        <path d="M114.767223,57.5344459 C116.295518,57.5344459 117.534446,56.295518 117.534446,54.767223 C117.534446,53.2389279 116.295518,52 114.767223,52 C113.238928,52 112,53.2389279 112,54.767223 C112,56.295518 113.238928,57.5344459 114.767223,57.5344459 Z" id="Oval-Copy-4" stroke="#42526E" stroke-width="2" fill="#F5F5F5"></path>
        <polygon id="Path-29-Copy" stroke="#42526E" stroke-width="2" stroke-linecap="round" stroke-linejoin="round" points="114.196467 57 113.869308 89.2941097 104 89.2941097"></polygon>
        <path d="M97.8679578,96.4451226 C97.3705619,96.4470166 96.9830881,96.0457757 97.000569,95.5469152 L97.090344,93.2672136 L97.3739862,85.9443529 L97.4519271,83.9036021 C97.472624,83.4073061 97.8909172,83.0033651 98.3876332,83.0000012 C98.8868285,82.9992047 99.2743023,83.4004455 99.2550221,83.8982086 L99.2242763,84.6919787 C102.529717,84.8085999 105.193876,86.4163146 105.842336,88.5536901 L105.900876,90.3520705 C105.349818,92.7285019 102.393814,94.5943146 98.8363232,94.7459037 L98.8055775,95.5396738 C98.7862972,96.0374369 98.3660905,96.4432258 97.8679578,96.4451226 Z" id="Fill-1-Copy" fill="#6A5CC8"></path>
        <path d="M69.0329184,95.4451226 C68.5347856,95.4432258 68.1145789,95.0374369 68.0952987,94.5396738 L68.064553,93.7459037 C64.5070621,93.5943146 61.5510584,91.7285019 61,89.3520705 L61.0585406,87.5536901 C61.7070002,85.4163146 64.3711596,83.8085999 67.6765998,83.6919787 L67.6458541,82.8982086 C67.6265738,82.4004455 68.0140477,81.9992047 68.5132429,82.0000012 C69.0099589,82.0033651 69.4282521,82.4073061 69.4489491,82.9036021 L69.5268899,84.9443529 L73.0717071,84.9589555 C73.5694856,84.9612191 73.9881615,85.3655297 74.0058825,85.8610781 C74.0266935,86.3603195 73.6392197,86.7615604 73.1395562,86.7581853 L69.596624,86.7446942 L69.7407981,90.4668723 L73.285147,90.4788962 C73.7832797,90.4807931 74.2019556,90.8851037 74.2208531,91.3824972 C74.2404876,91.8798935 73.851597,92.2826014 73.354881,92.2792375 L69.8105321,92.2672136 L69.9003072,94.5469152 C69.917788,95.0457757 69.5303142,95.4470166 69.0329184,95.4451226 Z" id="Fill-1" fill="#6A5CC8"></path>
        <g id="Group-27" transform="translate(79.000000, 54.000000)">
            <polygon id="Fill-4" fill="#F1DAD5" points="2.81758756 8.45887706 5.13872441 8.45887706 5.32691321 10.2604723 5.66076912 10.5072149 6.36529256 10.9201492 3.97818636 16.1121468 1.59132314 10.9201492 2.2956036 10.5072149 2.62970249 10.2604723"></polygon>
            <path d="M6.7316639,4.56104031 C6.7316639,4.73417542 6.79935026,4.9039543 6.79421501,5.07008762 C7.42770735,4.96002646 7.12169572,6.71996336 6.76327975,6.96201689 C6.73500491,6.9812284 6.66496747,6.93829182 6.60575738,6.90305142 C6.48152136,7.5503985 5.42025618,9.28030293 4.74549619,10.0081416 C4.5582141,10.2104412 3.4123719,10.207085 3.22676032,10.0160693 C2.53579025,9.30449093 1.47600996,7.55427552 1.35109337,6.90305142 C1.29188327,6.93829182 1.22178396,6.9812284 1.19326165,6.96201689 C0.834845674,6.71996336 0.528895909,4.96002646 1.16257387,5.07008762 C1.15750048,4.9039543 1.22493936,4.73417542 1.22493936,4.56104031 C1.25995808,3.1944187 2.58417301,2.51223628 3.97842537,2.50633395 C5.37243026,2.51223628 6.69658332,3.1944187 6.7316639,4.56104031 Z" id="Fill-8" fill="#F1DAD5"></path>
            <path d="M5.93456043,1.99644897 C5.76525916,1.93597001 6.68169122,1.80456044 6.97528046,3.11767118 C7.26886969,4.43078192 6.97528046,5.05742385 6.97528046,5.05742385 C6.97528046,5.05742385 6.73159624,5.05742385 6.24422781,5.05742385 C5.59097526,4.59512443 6.24895458,3.91051433 5.59570204,3.75011295 C3.83165827,5.17041915 2.27520919,4.92747204 1.57334755,4.25916905 C1.57334755,4.25916905 1.43418626,5.05295022 1.0699055,5.05742385 C-0.79566157,2.83573783 3.67323756,-1.67566327 5.93456043,1.99644897 Z" id="Fill-9" fill="#42526E"></path>
        </g>
        <g id="Group-2-Copy" transform="translate(84.926713, 109.159551) rotate(-1.000000) translate(-84.926713, -109.159551) translate(73.067186, 105.206375)" fill="#42526E" fill-rule="nonzero">
            <path d="M5.6879089,1.6040451 C7.50871572,1.27403398 8.52534785,1.17597103 8.73780529,1.30985626 C8.95026272,1.44374149 9.0250189,2.57661292 8.96207382,4.70847056 L7.27927511,5.09003155 L7.27655057,4.5370282 C6.57316975,5.0053905 5.9469774,5.33191493 5.39797351,5.51660148 C4.74170326,5.73737275 4.24649436,6.07056165 3.10541466,6.22050969 C2.50161758,6.29985401 1.16399288,6.41987933 1.04160221,6.28095116 C0.834616056,6.04599692 2.15515501,5.23146634 5.00321908,3.83735943 L5.6879089,1.6040451 Z" id="Path-23-Copy" transform="translate(5.002110, 3.798278) rotate(13.000000) translate(-5.002110, -3.798278) "></path>
            <path d="M19.9171738,1.85241785 C21.7379806,1.52240672 22.7546127,1.42434377 22.9670702,1.558229 C23.1795276,1.69211423 23.2542838,2.82498566 23.1913387,4.9568433 L21.50854,5.3384043 L21.5058155,4.78540094 C20.8024346,5.25376324 20.1762423,5.58028767 19.6272384,5.76497422 C18.9709681,5.9857455 18.4757592,6.31893439 17.3346795,6.46888244 C16.7308825,6.54822676 15.3932578,6.66825207 15.2708671,6.5293239 C15.0638809,6.29436966 16.3844199,5.47983908 19.232484,4.08573217 L19.9171738,1.85241785 Z" id="Path-23-Copy-3" transform="translate(19.231375, 4.046650) scale(-1, 1) rotate(13.000000) translate(-19.231375, -4.046650) "></path>
        </g>
        <path d="" id="Path-40" stroke="#979797"></path>
        <g id="Group-27" transform="translate(66.000000, 63.000000)">
            <path d="M31.3588237,19.1530814 C31.3575396,18.6083245 28.9389272,9.91990258 28.9377449,9.41836295 C28.9369567,9.0840032 29.3781067,8.31939565 30.2611949,7.12454029 C30.4071519,6.82516196 30.4674382,6.62381862 30.4420538,6.52051027 C30.3994084,6.34695327 30.4414941,6.21516089 30.2057893,6.21464882 C29.9700845,6.21413676 30.112991,6.26878535 29.7958192,6.7213375 C29.7225334,6.82590432 28.3627321,7.30063219 27.9866502,6.08430281 C27.7710719,5.38707665 27.9739165,4.92738454 27.7037453,4.92675179 C27.5629248,4.92642198 26.9224758,5.95951395 26.5588451,6.08095883 C26.1952144,6.20240371 27.1312479,7.68562348 27.1320373,8.02051901 C27.1322452,8.10870358 27.5420611,8.536533 27.5433315,9.07545587 C27.546029,10.2197464 28.0486799,17.914803 28.334229,18.9266612 C28.4660787,19.3938772 28.4788951,20.924093 29.6802124,21.9382675 C30.8396386,22.9170767 31.3601079,19.6978383 31.3588237,19.1530814 Z" id="Path-20-Copy" fill="#F1DAD5" fill-rule="nonzero" transform="translate(28.916884, 13.524508) scale(-1, -1) rotate(-18.000000) translate(-28.916884, -13.524508) "></path>
            <path d="M8.72648975,18.8642617 C8.72493914,18.3192731 6.18114823,9.2590746 6.17972064,8.75732167 C6.17876891,8.42281971 6.61935727,7.65810194 7.50148571,6.46316834 C7.64723408,6.16373387 7.70739614,5.96233438 7.68197192,5.8589699 C7.63925947,5.68531859 7.68126284,5.55349072 7.44565765,5.55286405 C7.21005245,5.55223738 7.35292514,5.6069785 7.03610953,6.05956869 C6.96290603,6.16414429 5.60391358,6.63841359 5.22739494,5.42138578 C5.01156635,4.72375926 5.21409967,4.26397061 4.94404262,4.26320648 C4.80328171,4.26280819 4.16361036,5.29602754 3.80019325,5.41734745 C3.43677614,5.53866737 4.37313988,7.02297052 4.37409314,7.35800849 C4.37434415,7.44623056 4.78419608,7.87444034 4.78573008,8.41359241 C4.78898722,9.55836958 5.41714164,17.6238517 5.7030657,18.6362776 C5.83508844,19.1037558 6.14848666,20.2876209 7.34979192,21.3028085 C8.5092065,22.2825956 8.72804035,19.4092503 8.72648975,18.8642617 Z" id="Path-20-Copy-2" fill="#F1DAD5" fill-rule="nonzero" transform="translate(6.221451, 12.884023) scale(1, -1) rotate(-23.000000) translate(-6.221451, -12.884023) "></path>
            <path d="M16.7595268,4.49088707 C19.1885705,1.30755337 22.2138285,0.727088469 24.4522505,0.580411047 C25.9445319,0.482626099 26.8261601,0.852157044 27.0971351,1.68900388 C26.9013393,5.12735692 26.6745893,7.22964552 26.4168849,7.99586967 C26.0303285,9.1452059 28.0196226,15.80957 27.8656864,15.80957 C27.7117502,15.80957 25.1565243,19.7410702 20.3101486,15.7176213 C20.6014249,13.5166266 20.399218,9.98018909 20.6497341,8.10949764 C20.7312976,7.50043426 20.7252994,7.15933919 20.6317396,7.08621243 L18.6329897,9.32767188 C18.1707539,8.94042314 17.8130275,8.68792846 17.5598106,8.57018783 C16.882102,8.25506735 15.9650851,7.62814661 14.80876,6.68942562 C15.5319672,5.98030726 16.1822228,5.24746108 16.7595268,4.49088707 Z" id="Path-17-Copy" fill="#FFC400" fill-rule="nonzero" transform="translate(21.341480, 9.047520) scale(-1, 1) translate(-21.341480, -9.047520) "></path>
            <path d="M16.329555,0.443376089 C16.6330028,0.448836446 16.9178063,0.456228605 17.1839654,0.465552564 C19.2226448,0.536970614 19.8194695,0.899109401 18.9744395,1.55196892 C18.7786438,4.99032196 18.5518937,7.09261056 18.2941894,7.85883471 C17.9076329,9.00817094 19.896927,15.672535 19.7429908,15.672535 C19.5890546,15.672535 16.8284419,19.5848908 11.9820662,15.561442 C12.2733425,13.3604473 12.0711774,9.81745591 12.3216935,7.94676446 C12.403257,7.33770108 12.4657072,7.00517209 12.5090441,6.94917747 L11.6272536,9.17275225 C10.4023846,8.78906 9.67233838,8.54252687 9.43711501,8.43315287 C8.76702569,8.1215752 7.92947097,7.59752208 6.92445084,6.86099351 C9.40462614,2.51438509 12.5396608,0.375179279 16.329555,0.443376089 Z" id="Path-17-Copy-2" fill="#FFC400" fill-rule="nonzero"></path>
            <path d="M11.9376648,16.841328 C12.4434873,14.0904964 10.7261126,16.8359934 17.6228953,16.8359934 C24.5196781,16.8359934 21.0840939,14.4811005 22.1489977,15.3462972 C22.8589335,15.9230951 23.8541326,25.4356201 25.1345952,43.8838723 L22.29277,44.2821722 L17.487518,24.5344653 L16.3904201,44.1231104 L13.2298821,43.8838723 C12.0311889,27.6893971 11.6004498,18.6752157 11.9376648,16.841328 Z" id="Path-2" fill="#FFAB00"></path>
        </g>
    </g>
</svg>