<?xml version="1.0" encoding="UTF-8"?>
<svg width="188px" height="148px" viewBox="0 0 188 148" version="1.1" xmlns="http://www.w3.org/2000/svg" xmlns:xlink="http://www.w3.org/1999/xlink">
    <!-- Generator: Sketch 52.5 (67469) - http://www.bohemiancoding.com/sketch -->
    <title>Right Shelf/Empty Image/Notes</title>
    <desc>Created with Sketch.</desc>
    <defs>
        <linearGradient x1="52.788966%" y1="103.227435%" x2="52.788966%" y2="0%" id="linearGradient-1">
            <stop stop-color="#EBF6FB" offset="0%"></stop>
            <stop stop-color="#FFFFFF" offset="100%"></stop>
        </linearGradient>
        <path d="M107,38.6134301 C106.995558,37.1721234 105.819459,36.0044102 104.367803,36 L56.0011751,36 L37,53.5753176 L37,123.38657 C37.0044418,124.827877 38.1805405,125.99559 39.6321974,126 L104.367803,126 C105.819459,125.99559 106.995558,124.827877 107,123.38657 L107,38.6134301 Z" id="path-2"></path>
        <filter x="-5.0%" y="-2.8%" width="110.0%" height="107.8%" filterUnits="objectBoundingBox" id="filter-3">
            <feOffset dx="0" dy="1" in="SourceAlpha" result="shadowOffsetOuter1"></feOffset>
            <feGaussianBlur stdDeviation="1" in="shadowOffsetOuter1" result="shadowBlurOuter1"></feGaussianBlur>
            <feColorMatrix values="0 0 0 0 0   0 0 0 0 0   0 0 0 0 0  0 0 0 0.0575747283 0" type="matrix" in="shadowBlurOuter1"></feColorMatrix>
        </filter>
    </defs>
    <g id="Right-Shelf/Empty-Image/Notes" stroke="none" stroke-width="1" fill="none" fill-rule="evenodd">
        <g id="Group" transform="translate(15.000000, 0.000000)">
            <path d="M90.4128058,128.466252 C163.588483,134.493746 145.519442,125.787143 145.519442,74.2177295 C145.519442,45.3548196 153.532661,49.1917154 157.768862,27.7826882 C159.760488,17.7173492 148.82242,-0.284323213 127.236327,0.00340783766 C107.90761,0.26104928 88.8749149,17.0099686 78.8278445,15.5263929 C50.7937072,11.3868015 34.3513002,0.997786919 18.8064789,4.03656462 C-10.048994,9.67737361 8.87100657,37.8159264 8.87100657,68.3020745 C8.87100657,83.5969855 -4.97991005,126.835658 1.93301613,138.907772 C16.9642442,165.15696 60.0973691,125.969164 90.4128058,128.466252 Z" id="Oval" fill="url(#linearGradient-1)" fill-rule="nonzero" transform="translate(79.000000, 74.000000) rotate(-180.000000) translate(-79.000000, -74.000000) "></path>
            <g id="Fill-1" fill-rule="nonzero">
                <use fill="black" fill-opacity="1" filter="url(#filter-3)" xlink:href="#path-2"></use>
                <use fill="#FFFFFF" xlink:href="#path-2"></use>
            </g>
            <path d="M56,50.2462203 L55.9204696,35 L37,53 L53.3692308,53 C54.8220731,53 56,51.7669951 56,50.2462203 Z" id="Fill-9" fill="#FAFAFA"></path>
            <polygon id="Rectangle-22" fill="#E0EDF5" fill-rule="nonzero" points="46 90 78 90 78 92 46 92"></polygon>
            <polygon id="Rectangle-22-Copy-4" fill="#F8E3DD" fill-rule="nonzero" points="46 99 78 99 78 101 46 101"></polygon>
            <polygon id="Rectangle-22-Copy-7" fill="#F8E3DD" fill-rule="nonzero" points="46 103 78 103 78 105 46 105"></polygon>
            <polygon id="Rectangle-22-Copy-3" fill="#E0EDF5" fill-rule="nonzero" points="46 86 98 86 98 88 46 88"></polygon>
            <polygon id="Rectangle-22-Copy-6" fill="#E0EDF5" fill-rule="nonzero" points="46 82 98 82 98 84 46 84"></polygon>
            <polygon id="Rectangle-22-Copy-8" fill="#E0EDF5" fill-rule="nonzero" points="46 78 98 78 98 80 46 80"></polygon>
            <path d="M104.195754,96 L107.391527,96 L107.650628,98.3540203 L108.110286,98.6764218 C108.583179,98.6989457 108.926427,98.7282113 109.140028,98.7642183 C109.353628,98.8002254 109.640286,98.877144 110,98.9949743 L106.119596,106 L101,99.3117736 L103.477079,98.6764218 L103.937071,98.3540203 L104.195754,96 Z" id="Fill-4" fill="#F1DAD5"></path>
            <path d="M109.393019,90.6847432 C109.393019,90.9109669 109.488722,91.1328052 109.481461,91.3498802 C110.377167,91.2060709 109.944492,93.5056591 109.437721,93.8219338 C109.397743,93.8470361 109.298716,93.7909339 109.214997,93.7448877 C109.120777,94.1985816 108.767781,95.3345466 108.2,96.1818182 C107.70924,96.9141564 107.02706,97.3611849 106.584741,97.802095 C106.31994,98.0664259 104.699813,98.0620406 104.437374,97.8124535 C103.460399,96.8826831 101.961957,94.5957973 101.785335,93.7448877 C101.701617,93.7909339 101.602502,93.8470361 101.562174,93.8219338 C101.055403,93.5056591 100.622815,91.2060709 101.518784,91.3498802 C101.51161,91.1328052 101.606963,90.9109669 101.606963,90.6847432 C101.656477,88.8990729 103.528808,88.0077122 105.500166,88 C107.471174,88.0077122 109.343418,88.8990729 109.393019,90.6847432 Z" id="Fill-8" fill="#F1DAD5"></path>
            <path d="M108.37341,87.1869672 C108.138281,87.0918709 109.411039,86.8852444 109.818781,88.9499608 C110.226523,91.0146772 109.818781,92 109.818781,92 C109.818781,92 109.480348,92 108.803482,92 C107.896233,91.273087 108.810046,90.196616 107.902797,89.9444032 C105.452861,92.1776722 103.291235,91.7956656 102.316477,90.7448356 C102.316477,90.7448356 102.123207,91.9929657 101.617287,92 C99.026353,88.5066529 105.232843,81.4129908 108.37341,87.1869672 Z" id="Fill-9" fill="#42526E"></path>
            <path d="M102.117808,99.3571459 C98.7593366,100.448078 96.5553148,101.665804 95.5057422,103.010324 C94.4561695,104.354843 93.6209221,107.098267 93,111.240597 C93.9791135,111.704042 94.8143609,112.005816 95.5057422,112.145921 C96.1971235,112.286026 97.5781738,112.286026 99.6488931,112.145921 C99.4301685,112.445832 99.2922245,113.396854 99.2350611,114.998988 C99.2027266,115.905238 98.935223,117.196499 98.7522985,118.71392 C98.6586565,119.490711 98.6006861,120.831916 98.5783872,122.737535 C99.6403907,123.662363 100.564192,124.307135 101.349792,124.67185 C102.135393,125.036566 103.069689,125.396955 104.152682,125.753019 C105.01272,125.942084 105.697358,126.022602 106.206594,125.994571 C106.71583,125.966541 107.597707,125.741544 108.852223,125.31958 C110.367535,124.62577 111.45677,124.073665 112.119928,123.663264 C112.783086,123.252863 113.399522,122.749399 113.969235,122.152872 L113.497977,111.902904 C115.51762,111.880412 116.887373,111.73002 117.607236,111.451726 C118.327099,111.173432 119.124687,110.657649 120,109.904378 C119.399463,106.423163 118.470932,104.007436 117.214405,102.657195 C115.957879,101.306954 113.517067,100.087889 109.891968,99 C109.671342,100.894251 108.517557,101.883004 106.430611,101.96626 C104.343666,102.049515 102.906065,101.179811 102.117808,99.3571459 Z" id="Path-30" fill="#FFC400"></path>
            <path d="M97.9404828,119.623943 C94.6372468,117.984831 92.2187936,116.874287 90.6851234,116.292309 C89.1514531,115.710331 87.5081224,115.279562 85.7551311,115 C84.9777899,115 84.310959,115.43077 83.7546386,116.292309 C83.1983182,117.153848 82.9495878,118.140952 83.0084474,119.253621 C83.226607,120.569973 84.549227,122.174514 86.9763076,124.067244 C88.1866222,125.011094 89.7517421,125.636518 90.9862151,126.400178 C91.8135838,126.911998 93.0518395,127.664781 94.7009823,128.658527 C97.990257,130.219509 101.966058,131 106.628385,131 C112.250584,131 114.062149,130.72458 117.506653,129.037066 C118.34679,128.62547 119.184901,128.001951 120.341638,127.266001 C123.483371,125.267138 126.415629,122.963085 129.13841,120.353842 C130.213037,118.829908 130.282409,117.476064 129.346528,116.292309 C128.410647,115.108554 127.229319,114.771152 125.802544,115.280103 C124.884762,115.449566 123.633516,115.86433 122.048806,116.524397 C120.464097,117.184463 118.0668,118.289397 114.856914,119.839198 C111.346439,122.305416 108.603596,123.525959 106.628385,123.500825 C104.653174,123.475691 101.757207,122.183397 97.9404828,119.623943 Z" id="Path-33" fill="#6A5CC8"></path>
            <polygon id="Path-37" fill="#F4E7E4" points="103.087961 127.590806 109 125 109 127.590806 104.996932 130 103 128.471296"></polygon>
            <path d="M103,125 L108,127.840576 C107.712996,128.191415 107.53734,128.498594 107.473033,128.762113 C107.408726,129.025633 107.408726,129.438262 107.473033,130 L103,128.659725 L103,125 Z" id="Path-36" fill="#F7E4DF"></path>
            <path d="M85.8320474,116.0817 L102.970686,124.429977 C103.009771,125.539525 103.009771,126.289148 102.970686,126.678848 C102.943547,126.949427 103.0446,127.192612 102.970686,127.391226 C102.737091,128.018917 102.04613,128.888509 100.897805,130 C95.5748798,127.981963 91.6806434,126.273166 89.2150952,124.87361 C86.7495471,123.474054 84.793028,121.861698 83.345538,120.036543 C82.7980822,119.053166 82.9011508,118.083949 83.6547438,117.128892 C84.4083369,116.173834 85.1341047,115.82477 85.8320474,116.0817 Z" id="Path-34" fill="#7F6CDA"></path>
            <path d="M109,124.500753 L109,127.402313 L114.827237,129 C119.743075,126.497974 123.190253,124.487935 125.168772,122.969882 C127.147291,121.451829 128.351311,120.306452 128.780831,119.53375 C129.137708,118.653887 129.058753,117.806441 128.543965,116.99141 C128.029178,116.17638 127.11845,115.863872 125.811781,116.053886 L109,124.500753 Z" id="Path-35" fill="#8D7CE3"></path>
            <path d="M95.3886808,127 C99.3152148,127.233088 101.875429,127.448177 103.069322,127.645268 C104.263216,127.842359 105.136791,128.194128 105.690047,128.700576 C106.084976,129.077011 106.102504,129.721024 105.742631,130.632615 C105.382758,131.544205 104.414093,132 102.836637,132 C100.690314,131.873838 99.1207573,131.688441 98.127968,131.443807 C96.6387841,131.076856 95.1128105,130.71901 94.3116956,129.899364 C93.5105806,129.079717 94.4811108,128.52157 94.6988576,127.935372 C94.844022,127.544573 95.0739631,127.232782 95.3886808,127 Z" id="Path-38-Copy" fill="#42526E" transform="translate(100.000000, 129.500000) scale(-1, 1) translate(-100.000000, -129.500000) "></path>
            <path d="M108.205236,127 C111.765893,127.222921 114.109317,127.43325 115.23551,127.630987 C116.361702,127.828725 117.18574,128.181648 117.707623,128.689756 C118.080157,129.067426 118.096691,129.713551 117.757225,130.62813 C117.417759,131.54271 116.504024,132 115.016019,132 C112.991406,131.873425 111.510853,131.687419 110.574361,131.441983 C109.169623,131.073829 108.16639,130.71372 107.410703,129.891386 C106.655017,129.069051 107.134303,128.510163 107.339703,127.922043 C107.476635,127.529962 107.765146,127.222615 108.205236,127 Z" id="Path-38" fill="#42526E"></path>
            <path d="M101,107 L108,107 C108.552285,107 109,107.447715 109,108 L109,119 C109,119.552285 108.552285,120 108,120 L101,120 C100.447715,120 100,119.552285 100,119 L100,108 C100,107.447715 100.447715,107 101,107 Z" id="Rectangle" fill="#42526E"></path>
            <path d="M79.9029503,108.811941 C80.0402687,108.933709 80.2348856,109.509436 80.4868011,110.539122 C80.7387167,111.568809 81.1965113,113.152086 81.860185,115.288953 C81.9899206,115.919313 82.191866,116.30923 82.4660212,116.458706 C82.8772539,116.68292 83.1487518,116.828973 84.2632936,116.599186 C85.3778355,116.369399 89.8695669,114.972503 91.106808,113.778864 C91.9316355,112.983104 92.6739263,111.978176 93.3336805,110.76408 C93.7394584,109.893009 93.9582792,109.219548 93.9901429,108.743697 C94.012302,108.412773 95.7797083,107.502264 96.267936,107.501917 C96.7561638,107.50157 98.1310479,107.039179 97.7239263,106.453184 C97.4525119,106.06252 96.1103274,105.846767 93.6973728,105.805926 C93.1720113,105.872022 92.7054896,106.165118 92.2978076,106.685213 C91.8901256,107.205309 91.5306012,108.134819 91.2192344,109.473743 C90.6861341,109.943946 90.2046741,110.259995 89.7748545,110.421889 C89.345035,110.583783 87.9101518,110.891783 85.4702049,111.345887 C85.7066166,110.345611 85.8404417,109.614872 85.8716801,109.153671 C85.9029185,108.692469 85.952069,108.306399 86.0191316,107.995462 C84.2898318,108.549405 83.0963572,108.843637 82.4387078,108.878159 C81.7810584,108.912681 80.9358059,108.890609 79.9029503,108.811941 Z" id="Path-31" fill="#F1DAD5" transform="translate(88.850617, 111.260529) scale(-1, 1) rotate(-18.000000) translate(-88.850617, -111.260529) "></path>
            <path d="M117.645915,110.501036 C118.244971,110.226336 119.010594,109.725991 119.942782,109 C120.019073,111.136007 120.019073,112.778851 119.942782,113.928533 C119.866491,115.078216 119.634616,116.437174 119.247158,118.005408 C119.175629,119.425786 118.786136,120.327981 118.078681,120.711992 C117.371226,121.096003 115.882156,121.096003 113.611471,120.711992 C112.237438,120.065614 111.437299,119.649726 111.211054,119.464328 C110.984809,119.278931 110.304134,118.575354 109.169029,117.3536 C107.911785,116.508911 107.117238,115.873202 106.785387,115.446472 C106.453537,115.019741 106.241937,114.497442 106.150586,113.879573 C106.104118,113.245081 106.104118,112.759571 106.150586,112.423043 C106.220287,111.918251 105.65705,111.1349 106.3483,111.106826 C107.039549,111.078753 107.897038,112.789865 108.648844,113.0428 C109.40065,113.295735 108.822381,113.290797 109.376984,113.200514 C109.931588,113.110231 109.866267,112.748964 109.866267,112.335879 C109.866267,112.06049 109.866267,111.805139 109.866267,111.569828 C110.258048,111.348819 110.522508,111.575558 110.659646,112.250045 C110.796784,112.924532 110.938465,113.583447 111.084686,114.22679 C110.853385,115.693219 111.432157,116.426434 112.821002,116.426434 C114.209847,116.426434 114.944789,116.299742 115.025829,116.046359 C114.777243,114.983577 114.62742,114.155701 114.57636,113.562733 C114.525301,112.969764 114.429402,112.151129 114.288663,111.106826 C115.927775,110.977665 117.046859,110.775735 117.645915,110.501036 Z" id="Path-32" fill="#F1DAD5"></path>
            <rect id="Rectangle" fill="#FCE9CD" x="46" y="60" width="52" height="10"></rect>
        </g>
    </g>
</svg>