<?xml version="1.0" encoding="UTF-8"?>
<svg width="188px" height="148px" viewBox="0 0 188 148" version="1.1" xmlns="http://www.w3.org/2000/svg" xmlns:xlink="http://www.w3.org/1999/xlink">
    <!-- Generator: Sketch 52.5 (67469) - http://www.bohemiancoding.com/sketch -->
    <title>Right Shelf/Empty Image/Tasks</title>
    <desc>Created with Sketch.</desc>
    <defs>
        <linearGradient x1="57.3542729%" y1="-7.46466%" x2="55.7912599%" y2="100%" id="linearGradient-1">
            <stop stop-color="#EBF6FB" offset="0%"></stop>
            <stop stop-color="#FFFFFF" offset="100%"></stop>
        </linearGradient>
        <path d="M40,39 L129,39 C129.552285,39 130,39.4477153 130,40 L130,109 C130,109.552285 129.552285,110 129,110 L40,110 C39.4477153,110 39,109.552285 39,109 L39,40 C39,39.4477153 39.4477153,39 40,39 Z" id="path-2"></path>
        <filter x="-3.8%" y="-3.5%" width="107.7%" height="109.9%" filterUnits="objectBoundingBox" id="filter-3">
            <feOffset dx="0" dy="1" in="SourceAlpha" result="shadowOffsetOuter1"></feOffset>
            <feGaussianBlur stdDeviation="1" in="shadowOffsetOuter1" result="shadowBlurOuter1"></feGaussianBlur>
            <feColorMatrix values="0 0 0 0 0   0 0 0 0 0   0 0 0 0 0  0 0 0 0.0575747283 0" type="matrix" in="shadowBlurOuter1"></feColorMatrix>
        </filter>
        <polygon id="path-4" points="118 40 139 40 139 55 118 55"></polygon>
    </defs>
    <g id="Right-Shelf/Empty-Image/Tasks" stroke="none" stroke-width="1" fill="none" fill-rule="evenodd">
        <g id="Group" transform="translate(0.000000, 2.000000)">
            <path d="M187.998537,25.9104199 C187.091131,-25.3399877 88.5625739,15.5793986 62.9205034,13.7328085 C55.0189563,13.1637858 13.0075295,0.948959806 4.27105529,16.5979249 C-7.61950152,37.8965522 8.79640043,63.7459482 11.588321,94.4411481 C14.3802416,125.136348 8.79605098,142.259986 35.5308449,142.259986 C55.2628041,142.259986 105.076582,146.628199 138.732254,144.333766 C188.542793,140.937996 150.492075,108.895902 157.018977,90.6621594 C163.97886,71.2188307 188.216708,38.2327627 187.998537,25.9104199 Z" id="Combined-Shape" fill="url(#linearGradient-1)" fill-rule="nonzero"></path>
            <g id="Rectangle" fill-rule="nonzero">
                <use fill="black" fill-opacity="1" filter="url(#filter-3)" xlink:href="#path-2"></use>
                <use fill="#FFFFFF" xlink:href="#path-2"></use>
            </g>
            <path d="M106,36 L150,36 C150.552285,36 151,36.4477153 151,37 L151,60 C151,60.5522847 150.552285,61 150,61 L106,61 C105.447715,61 105,60.5522847 105,60 L105,37 C105,36.4477153 105.447715,36 106,36 Z" id="Rectangle-Copy" fill="#6A5CC8"></path>
            <polygon id="Rectangle" fill="#F8E3DD" points="45 45 55 45 55 54 45 54"></polygon>
            <polygon id="Rectangle-22" fill="#E0EDF5" fill-rule="nonzero" points="62 48 88 48 88 50 62 50"></polygon>
            <polygon id="Rectangle-22-Copy-3" fill="#E0EDF5" fill-rule="nonzero" points="62 45 88 45 88 47 62 47"></polygon>
            <polygon id="Rectangle-22-Copy" fill="#E0EDF5" fill-rule="nonzero" points="62 52 77 52 77 54 62 54"></polygon>
            <polygon id="Rectangle-Copy-3" fill="#E0EDF5" points="45 61 55 61 55 70 45 70"></polygon>
            <polygon id="Rectangle-22" fill="#E0EDF5" fill-rule="nonzero" points="62 65 89 65 89 67 62 67"></polygon>
            <polygon id="Rectangle-22-Copy-3" fill="#E0EDF5" fill-rule="nonzero" points="62 61 89 61 89 63 62 63"></polygon>
            <polygon id="Rectangle-22-Copy" fill="#E0EDF5" fill-rule="nonzero" points="62 68 78 68 78 70 62 70"></polygon>
            <polygon id="Rectangle-Copy-7" fill="#FCE9CD" points="45 78 55 78 55 87 45 87"></polygon>
            <polygon id="Rectangle-Copy-4" fill="#F5F5F5" points="45 94 55 94 55 103 45 103"></polygon>
            <polygon id="Rectangle-22" fill="#E0EDF5" fill-rule="nonzero" points="62 98 109 98 109 100 62 100"></polygon>
            <polygon id="Rectangle-22-Copy-3" fill="#E0EDF5" fill-rule="nonzero" points="62 94 109 94 109 96 62 96"></polygon>
            <polygon id="Rectangle-22-Copy" fill="#E0EDF5" fill-rule="nonzero" points="62 101 79 101 79 103 62 103"></polygon>
            <polygon id="Rectangle-22" fill="#E0EDF5" fill-rule="nonzero" points="62 81 109 81 109 83 62 83"></polygon>
            <polygon id="Rectangle-22-Copy-3" fill="#E0EDF5" fill-rule="nonzero" points="62 78 109 78 109 80 62 80"></polygon>
            <polygon id="Rectangle-22-Copy" fill="#E0EDF5" fill-rule="nonzero" points="62 85 79 85 79 87 62 87"></polygon>
            <path d="M126.812203,66 C125.395005,68.3620555 124.809026,70.0806504 125.054266,71.1557847 C125.299506,72.230919 126.698023,72.8456575 129.249816,73 L133,67.8732766 L126.812203,66 Z" id="Path-14" fill="#F1DAD5" fill-rule="nonzero"></path>
            <path d="M126,65.2678096 C127.576202,63.8642027 129.314708,63.6260581 131.215518,64.5533756 C133.116328,65.4806931 133.498597,67.5413689 132.362325,70.735403 C130.649589,72.8842288 129.173759,73.5038248 127.934837,72.5941909 C127.429503,72.2231673 127.299572,71.8426546 127.154314,71.4402721 C127.013736,71.0508497 127.117158,70.4316099 127.464582,69.5825525 C126.920936,69.7592111 126.553041,69.8475405 126.360898,69.8475405 C126.168755,69.8475405 126.117123,69.6737505 126.206003,69.3261705 L126.945208,68.4704624 C126.315069,67.3461801 126,66.5332533 126,66.031682 C126,65.5301106 126,65.2754865 126,65.2678096 Z" id="Path-15" fill="#42526E" fill-rule="nonzero"></path>
            <path d="M126,67 C125.506553,67.9238472 125.189689,68.3857708 125.049409,68.3857708 C124.909128,68.3857708 125.06756,68.5905138 125.524704,69 L126,67 Z" id="Path-16" fill="#F1DAD5" fill-rule="nonzero"></path>
            <path d="M122.221475,74.5345093 C118.144291,73.1513772 116.10566,72.2490611 116.105583,71.827561 C116.105466,71.1953107 113.510482,64.8297544 113.510375,64.2476626 C113.510304,63.8596014 113.717333,62.9710761 114.131463,61.5820868 C114.160422,61.2168499 114.160377,60.9743127 114.131329,60.854475 C114.082529,60.6531489 113.891769,60.5000856 113.859323,60.5000796 C113.810805,60.5000707 113.779421,60.7352965 113.640181,61.3940599 C113.615505,61.5108055 113.572084,61.6358467 113.50992,61.7691835 C112.976428,61.2788948 112.613347,60.8159949 112.420677,60.3804839 C112.097072,59.6490106 112.408877,59.0377783 112.09696,59.0377211 C111.93438,59.0376913 111.192375,60.2383194 110.77225,60.3801817 C110.352125,60.5220441 111.429077,62.241146 111.429149,62.6298291 C111.429168,62.7321769 111.901237,63.2276953 111.901352,63.8531744 C111.901596,65.1812492 112.287048,70.3986928 112.614183,71.5723556 C112.765235,72.1142833 113.123576,73.4867526 114.507982,74.6608082 C115.398736,75.4162184 117.384737,76.5613447 120.465987,78.0961872 L122.221475,74.5345093 Z" id="Path-20" fill="#F1DAD5" fill-rule="nonzero" transform="translate(116.448232, 68.566954) rotate(-1.000000) translate(-116.448232, -68.566954) "></path>
            <path d="M147.073927,74.2614508 C142.996845,72.8785752 140.958279,71.9763867 140.958228,71.5548851 C140.958152,70.9226328 138.681937,63.6474735 138.681867,63.0653797 C138.681821,62.6773172 138.910111,62.0920184 139.366738,61.3094834 C139.39572,60.9442435 139.395691,60.7017054 139.366651,60.5818692 C139.317864,60.3805455 139.127115,60.2274939 139.094669,60.22749 C139.046151,60.2274842 139.014751,60.4627128 138.875469,61.1214874 C138.850786,61.2382349 138.807358,61.3632794 138.745185,61.4966206 C138.211727,61.0063644 137.848677,60.5434862 137.656035,60.107986 C137.332478,59.3765311 137.644321,58.7652767 137.332405,58.7652395 C137.169826,58.7652201 136.427746,59.9658998 136.007613,60.1077895 C135.58748,60.2496792 136.600705,61.0589897 136.600751,61.4476741 C136.600764,61.5500223 137.0728,62.045512 137.072874,62.6709933 C137.073033,63.9990726 137.139798,70.1262567 137.466857,71.2999025 C137.617873,71.8418224 137.976125,73.2142733 139.360451,74.3882442 C140.251153,75.1435999 142.237075,76.2886028 145.318216,77.823253 L147.073927,74.2614508 Z" id="Path-20-Copy" fill="#F1DAD5" fill-rule="nonzero" transform="translate(141.489758, 68.294246) scale(-1, 1) rotate(4.000000) translate(-141.489758, -68.294246) "></path>
            <path d="M120.828958,73 C123.133428,73.6968299 125.766228,73.8817138 128.727358,73.5546518 C131.688487,73.2275897 133.779368,74.0652116 135,76.0675172 C134.26958,79.2676581 133.759393,81.3063244 133.46944,82.183516 C133.034509,83.4993035 132.741154,90.9893555 132.567954,90.9893555 C132.394754,90.9893555 126.875612,94.0732045 121.422757,89.4670645 C121.750484,86.9473134 122.544472,84.5185869 123.026514,82.183516 C123.168086,81.4977215 123.265718,80.4873893 123.319409,79.1525192 C120.322957,78.839761 118.885524,78.4176026 119.007112,77.8860441 C119.1287,77.3544857 119.735981,75.7258043 120.828958,73 Z" id="Path-17" fill="#FFC400" fill-rule="nonzero"></path>
            <path d="M126,99.5854149 C126.933469,104.373582 127.551224,107.734272 127.853267,109.667485 C128.866028,116.149632 129.298348,120.294702 129.878865,122 C131.248878,122 132.289257,121.636444 133,120.909333 C132.712957,115.424551 132.537407,111.568929 132.473349,109.342468 C132.27874,102.57852 132.363424,97.9966259 132.473349,95.9547858 C132.512165,95.2337615 133.030511,92.2851276 132.473349,91.6212333 C131.937465,90.9826946 130.254226,90.8364005 127.423631,91.1823511 L126,99.5854149 Z" id="Path-22" fill="#FFAB00" fill-rule="nonzero"></path>
            <path d="M121.597406,90.0781066 C120.414253,92.7814041 119.648018,95.1556385 119.298703,97.2008099 C117.428513,108.150406 117,118.803 117,123.532768 C118.532469,124.155744 119.650958,124.155744 120.355468,123.532768 C121.714413,114.320948 122.757525,108.366003 123.484807,105.667931 C124.707522,101.131893 126.657191,99.3164744 127.039167,99.1069763 C127.517614,98.8445681 129.082465,97.6616539 130.412127,96.1790931 C132.095506,94.3021405 133.492623,92.0071074 132.833278,91.1789145 C132.046514,90.1906725 128.301223,89.8237365 121.597406,90.0781066 Z" id="Path-21" fill="#FFAB00" fill-rule="nonzero"></path>
            <path d="M116.807616,123.369616 C118.8186,122.794529 119.946693,122.584183 120.191896,122.738578 C120.437099,122.892973 120.551762,124.17529 120.535885,126.585529 L118.59345,127.025966 L118.590408,126.388087 C117.778447,126.928465 117.055606,127.305222 116.421886,127.518357 C115.664348,127.773135 115.092693,128.157555 113.775578,128.33073 C113.078633,128.422364 111.534663,128.56106 111.39342,128.400832 C111.154551,128.129855 112.678929,127.190062 115.966555,125.581454 L116.807616,123.369616 Z" id="Path-23-Copy" fill="#42526E" fill-rule="nonzero" transform="translate(115.953242, 125.581898) rotate(13.000000) translate(-115.953242, -125.581898) "></path>
            <path d="M129.321608,120.442526 C131.332591,119.86744 132.460684,119.657094 132.705887,119.811488 C132.95109,119.965883 133.065753,121.2482 133.049876,123.658439 L131.107442,124.098876 L131.1044,123.460997 C130.292438,124.001376 129.569597,124.378132 128.935877,124.591267 C128.178339,124.846045 127.606684,125.230465 126.28957,125.40364 C125.592625,125.495275 124.048654,125.633971 123.907411,125.473742 C123.668542,125.202765 125.192921,124.262973 128.480546,122.654365 L129.321608,120.442526 Z" id="Path-23-Copy-2" fill="#42526E" fill-rule="nonzero" transform="translate(128.467233, 122.654809) rotate(13.000000) translate(-128.467233, -122.654809) "></path>
            <path d="M137.961051,74 C137.398629,74.0905567 136.840792,74.1823171 136.287542,74.2752811 C135.734291,74.3682451 134.305111,74.2764848 132,74 L133.312289,80 C135.137066,79.8737978 136.438387,79.7219981 137.216252,79.5446006 C137.994116,79.3672032 138.588699,79.1474005 139,78.8851924 L137.961051,74 Z" id="Path-2" fill="#FFC400"></path>
            <mask id="mask-5" fill="white">
                <use xlink:href="#path-4"></use>
            </mask>
            <g id="Clip-2"></g>
            <path d="M123.88542,54.7009966 L118.307586,49.2758215 C117.897471,48.8769708 117.897471,48.2303843 118.307586,47.8315735 C118.71766,47.4327628 119.382441,47.4327229 119.792474,47.8315735 L124.627884,52.5346446 L137.207572,40.2991679 C137.617646,39.9002774 138.282427,39.9002774 138.69246,40.2991679 C139.102493,40.6980186 139.102534,41.3446051 138.69246,41.7434159 L125.370349,54.7009966 C124.960644,55.0995282 124.29533,55.0998074 123.88542,54.7009966" id="Fill-1" fill="#FFFFFF" mask="url(#mask-5)"></path>
        </g>
    </g>
</svg>